%TF.GenerationSoftware,KiCad,Pcbnew,4.0.2+dfsg1-stable*%
%TF.CreationDate,2018-10-18T10:35:51+03:00*%
%TF.ProjectId,xmobile,786D6F62696C652E6B696361645F7063,rev?*%
%TF.FileFunction,Soldermask,Bot*%
%FSLAX46Y46*%
G04 Gerber Fmt 4.6, Leading zero omitted, Abs format (unit mm)*
G04 Created by KiCad (PCBNEW 4.0.2+dfsg1-stable) date Чт 18 окт 2018 10:35:51*
%MOMM*%
G01*
G04 APERTURE LIST*
%ADD10C,0.150000*%
%ADD11C,0.100000*%
%ADD12R,1.350000X1.350000*%
%ADD13C,1.350000*%
%ADD14O,2.100000X1.300000*%
%ADD15O,1.400000X1.200000*%
G04 APERTURE END LIST*
D10*
D11*
X184150000Y-121920000D02*
X15240000Y-121920000D01*
X184150000Y-13970000D02*
X184150000Y-121920000D01*
X182880000Y-13970000D02*
X184150000Y-13970000D01*
X15240000Y-13970000D02*
X182880000Y-13970000D01*
X15240000Y-121920000D02*
X15240000Y-13970000D01*
D12*
X116625000Y-27150000D03*
D13*
X118625000Y-27150000D03*
X120625000Y-27150000D03*
X116625000Y-25150000D03*
X118625000Y-25150000D03*
X120625000Y-25150000D03*
D14*
X181012000Y-84269000D03*
X181012000Y-77119000D03*
D15*
X178262000Y-83119000D03*
X178262000Y-78269000D03*
D12*
X73525000Y-23925000D03*
D13*
X75525000Y-23925000D03*
X77525000Y-23925000D03*
X79525000Y-23925000D03*
X73525000Y-21925000D03*
X75525000Y-21925000D03*
X77525000Y-21925000D03*
X79525000Y-21925000D03*
D12*
X71700000Y-42250000D03*
D13*
X71700000Y-40250000D03*
X69700000Y-42250000D03*
X69700000Y-40250000D03*
D12*
X121300000Y-54025000D03*
D13*
X121300000Y-56025000D03*
X121300000Y-58025000D03*
X121300000Y-60025000D03*
X123300000Y-54025000D03*
X123300000Y-56025000D03*
X123300000Y-58025000D03*
X123300000Y-60025000D03*
D12*
X67575000Y-95925000D03*
D13*
X67575000Y-97925000D03*
X69575000Y-95925000D03*
X69575000Y-97925000D03*
D12*
X35375000Y-105125000D03*
D13*
X35375000Y-107125000D03*
X37375000Y-105125000D03*
X37375000Y-107125000D03*
D12*
X137875000Y-87600000D03*
D13*
X137875000Y-89600000D03*
X139875000Y-87600000D03*
X139875000Y-89600000D03*
D12*
X168640000Y-67735000D03*
D13*
X168640000Y-69735000D03*
X170640000Y-67735000D03*
X170640000Y-69735000D03*
D12*
X40850000Y-22100000D03*
D13*
X40850000Y-24100000D03*
X42850000Y-22100000D03*
X42850000Y-24100000D03*
M02*
