M48
;DRILL file {KiCad 4.0.2+dfsg1-stable} date Чт 18 окт 2018 10:36:36
;FORMAT={-:-/ absolute / inch / decimal}
FMAT,2
INCH,TZ
T1C0.016
T2C0.020
T3C0.024
T4C0.031
%
G90
G05
M72
T1
X1.47Y-2.58
X1.48Y-2.18
X1.48Y-3.04
X1.52Y-3.74
X1.53Y-4.55
X1.7431Y-2.8967
X1.7431Y-3.0295
X1.7451Y-2.4311
X1.7451Y-2.5541
X2.04Y-1.3
X2.05Y-2.18
X2.05Y-2.58
X2.06Y-3.03
X2.3327Y-2.436
X2.3346Y-2.5679
X2.3346Y-2.8967
X2.3346Y-3.0384
X2.64Y-2.18
X2.64Y-2.58
X2.65Y-3.03
X2.9Y-3.6
X2.9744Y-1.1161
X2.9744Y-1.1781
X2.99Y-4.13
X3.0049Y-1.498
X3.0778Y-1.4035
X3.1309Y-1.061
X3.1309Y-1.2116
X3.2185Y-1.8179
X3.247Y-1.7726
X3.2608Y-1.8573
X3.2657Y-1.2106
X3.3297Y-1.7274
X3.3435Y-1.0738
X3.4262Y-1.8799
X3.44Y-4.3
X3.4547Y-1.7972
X3.4911Y-2.5699
X3.497Y-1.7559
X3.5Y-2.05
X3.5079Y-3.0039
X3.5256Y-3.1319
X3.5335Y-3.0591
X3.54Y-1.44
X3.6201Y-1.936
X3.6585Y-1.2067
X3.68Y-3.82
X3.71Y-1.46
X3.7333Y-3.4498
X3.7352Y-3.3179
X3.8002Y-1.1919
X3.8307Y-3.0039
X3.8327Y-3.0591
X3.8346Y-3.1319
X3.89Y-1.86
X3.91Y-1.46
X3.94Y-3.66
X3.96Y-1.68
X3.96Y-1.93
X3.97Y-3.46
X3.99Y-2.46
X3.99Y-3.29
X4.Y-1.5
X4.125Y-3.1319
X4.1516Y-1.2579
X4.1516Y-1.2953
X4.16Y-1.45
X4.16Y-1.93
X4.188Y-3.063
X4.2362Y-1.2953
X4.2392Y-1.2598
X4.26Y-2.45
X4.2815Y-2.5689
X4.33Y-1.89
X4.44Y-3.7
X4.48Y-4.29
X4.5Y-1.69
X4.51Y-1.5
X4.5335Y-3.1516
X4.6555Y-2.4232
X4.6555Y-2.4606
X4.68Y-4.09
X4.78Y-1.67
X4.78Y-1.86
X4.7835Y-3.1516
X4.79Y-1.47
X4.8268Y-2.4882
X4.8819Y-2.4882
X4.92Y-3.21
X4.93Y-3.01
X4.96Y-3.91
X5.0325Y-2.4626
X5.05Y-3.91
X5.062Y-2.4232
X5.07Y-3.68
X5.11Y-1.3
X5.18Y-1.3
X5.27Y-3.34
X5.41Y-3.98
X5.815Y-3.6339
X5.8622Y-3.8573
X5.9616Y-4.1122
X5.9843Y-3.6319
X6.3Y-3.97
X6.33Y-3.57
X6.61Y-3.38
X6.85Y-3.04
T4
X1.3927Y-4.1388
X1.3927Y-4.2175
X1.4715Y-4.1388
X1.4715Y-4.2175
X1.6083Y-0.8701
X1.6083Y-0.9488
X1.687Y-0.8701
X1.687Y-0.9488
X2.6604Y-3.7766
X2.6604Y-3.8553
X2.7392Y-3.7766
X2.7392Y-3.8553
X2.7441Y-1.5846
X2.7441Y-1.6634
X2.8228Y-1.5846
X2.8228Y-1.6634
X2.8947Y-0.8632
X2.8947Y-0.9419
X2.9734Y-0.8632
X2.9734Y-0.9419
X3.0522Y-0.8632
X3.0522Y-0.9419
X3.1309Y-0.8632
X3.1309Y-0.9419
X4.5915Y-0.9902
X4.5915Y-1.0689
X4.6703Y-0.9902
X4.6703Y-1.0689
X4.749Y-0.9902
X4.749Y-1.0689
X4.7756Y-2.127
X4.7756Y-2.2057
X4.7756Y-2.2844
X4.7756Y-2.3632
X4.8543Y-2.127
X4.8543Y-2.2057
X4.8543Y-2.2844
X4.8543Y-2.3632
X5.4281Y-3.4488
X5.4281Y-3.5276
X5.5069Y-3.4488
X5.5069Y-3.5276
X6.6394Y-2.6667
X6.6394Y-2.7455
X6.7181Y-2.6667
X6.7181Y-2.7455
T2
X7.1127Y-3.0362G85X7.1402Y-3.0362
G05
X7.1127Y-3.3177G85X7.1402Y-3.3177
G05
T3
X7.0143Y-3.0815G85X7.0221Y-3.0815
G05
X7.0143Y-3.2724G85X7.0221Y-3.2724
G05
T0
M30
