%TF.GenerationSoftware,KiCad,Pcbnew,4.0.2+dfsg1-stable*%
%TF.CreationDate,2018-10-18T10:35:51+03:00*%
%TF.ProjectId,xmobile,786D6F62696C652E6B696361645F7063,rev?*%
%TF.FileFunction,Copper,L1,Top,Signal*%
%FSLAX46Y46*%
G04 Gerber Fmt 4.6, Leading zero omitted, Abs format (unit mm)*
G04 Created by KiCad (PCBNEW 4.0.2+dfsg1-stable) date Чт 18 окт 2018 10:35:51*
%MOMM*%
G01*
G04 APERTURE LIST*
%ADD10C,0.150000*%
%ADD11C,0.100000*%
%ADD12R,2.000000X1.600000*%
%ADD13R,1.600000X2.000000*%
%ADD14R,1.350000X1.350000*%
%ADD15C,1.350000*%
%ADD16R,0.797560X0.797560*%
%ADD17R,0.850000X0.400000*%
%ADD18R,1.800860X3.500120*%
%ADD19R,2.500000X2.500000*%
%ADD20O,2.000000X1.200000*%
%ADD21R,2.000000X2.000000*%
%ADD22R,1.350000X0.400000*%
%ADD23O,1.300000X1.100000*%
%ADD24R,0.800100X0.800100*%
%ADD25R,0.900000X1.200000*%
%ADD26R,1.200000X0.900000*%
%ADD27R,1.250000X0.600000*%
%ADD28O,0.600000X1.800000*%
%ADD29O,1.800000X0.600000*%
%ADD30R,2.500000X1.000000*%
%ADD31R,3.000000X2.000000*%
%ADD32R,0.700000X1.400000*%
%ADD33R,1.400000X0.700000*%
%ADD34R,0.750000X1.200000*%
%ADD35R,2.600960X1.600200*%
%ADD36R,1.500000X0.280000*%
%ADD37R,0.280000X1.500000*%
%ADD38R,1.200000X0.750000*%
%ADD39C,0.600000*%
%ADD40C,0.250000*%
%ADD41C,1.000000*%
%ADD42C,0.500000*%
%ADD43C,1.500000*%
%ADD44C,0.750000*%
%ADD45C,0.300000*%
%ADD46C,0.400000*%
%ADD47C,2.000000*%
G04 APERTURE END LIST*
D10*
D11*
X184150000Y-121920000D02*
X15240000Y-121920000D01*
X184150000Y-13970000D02*
X184150000Y-121920000D01*
X182880000Y-13970000D02*
X184150000Y-13970000D01*
X15240000Y-13970000D02*
X182880000Y-13970000D01*
X15240000Y-121920000D02*
X15240000Y-13970000D01*
D12*
X175050000Y-85800000D03*
X171050000Y-85800000D03*
X91700000Y-112475000D03*
X95700000Y-112475000D03*
X99300000Y-112400000D03*
X103300000Y-112400000D03*
X106875000Y-112350000D03*
X110875000Y-112350000D03*
X91700000Y-109375000D03*
X95700000Y-109375000D03*
X99375000Y-109300000D03*
X103375000Y-109300000D03*
X106875000Y-109275000D03*
X110875000Y-109275000D03*
X96625000Y-97575000D03*
X100625000Y-97575000D03*
D13*
X103925000Y-97575000D03*
X103925000Y-101575000D03*
D12*
X100725000Y-101575000D03*
X96725000Y-101575000D03*
D13*
X45975000Y-96175000D03*
X45975000Y-100175000D03*
X45875000Y-103975000D03*
X45875000Y-107975000D03*
X45875000Y-111525000D03*
X45875000Y-115525000D03*
D12*
X76525000Y-91225000D03*
X80525000Y-91225000D03*
D13*
X80525000Y-94975000D03*
X80525000Y-98975000D03*
D12*
X80525000Y-102475000D03*
X76525000Y-102475000D03*
D13*
X42425000Y-96175000D03*
X42425000Y-100175000D03*
X42475000Y-103975000D03*
X42475000Y-107975000D03*
X42475000Y-111525000D03*
X42475000Y-115525000D03*
X140740000Y-105052000D03*
X140740000Y-101052000D03*
D12*
X150250000Y-100600000D03*
X146250000Y-100600000D03*
D13*
X49775000Y-20625000D03*
X49775000Y-24625000D03*
X153100000Y-67075000D03*
X153100000Y-71075000D03*
X155775000Y-67075000D03*
X155775000Y-71075000D03*
X161020000Y-67005000D03*
X161020000Y-71005000D03*
X158400000Y-67050000D03*
X158400000Y-71050000D03*
X55375000Y-30725000D03*
X55375000Y-26725000D03*
X61025000Y-30725000D03*
X61025000Y-26725000D03*
D14*
X116625000Y-27150000D03*
D15*
X118625000Y-27150000D03*
X120625000Y-27150000D03*
X116625000Y-25150000D03*
X118625000Y-25150000D03*
X120625000Y-25150000D03*
D16*
X119574300Y-67300000D03*
X118075700Y-67300000D03*
X76625000Y-94425700D03*
X76625000Y-95924300D03*
X76625000Y-97675700D03*
X76625000Y-99174300D03*
X38375000Y-98675700D03*
X38375000Y-100174300D03*
X38525000Y-111575700D03*
X38525000Y-113074300D03*
X74715000Y-95934300D03*
X74715000Y-94435700D03*
X74675000Y-99174300D03*
X74675000Y-97675700D03*
X36465000Y-100134300D03*
X36465000Y-98635700D03*
X36665000Y-113074300D03*
X36665000Y-111575700D03*
D17*
X162425000Y-89775000D03*
X162425000Y-90425000D03*
X162425000Y-91075000D03*
X164275000Y-91075000D03*
X164275000Y-90425000D03*
X164275000Y-89775000D03*
D18*
X149475000Y-66525640D03*
X149475000Y-71524360D03*
D19*
X100475000Y-20775000D03*
X103975000Y-20775000D03*
X60525000Y-20775000D03*
X57025000Y-20775000D03*
D20*
X181012000Y-84269000D03*
D21*
X181012000Y-80694000D03*
D20*
X181012000Y-77119000D03*
D22*
X178337000Y-81994000D03*
X178337000Y-81344000D03*
X178337000Y-80694000D03*
X178337000Y-80044000D03*
X178337000Y-79394000D03*
D23*
X178262000Y-83119000D03*
X178262000Y-78269000D03*
D14*
X73525000Y-23925000D03*
D15*
X75525000Y-23925000D03*
X77525000Y-23925000D03*
X79525000Y-23925000D03*
X73525000Y-21925000D03*
X75525000Y-21925000D03*
X77525000Y-21925000D03*
X79525000Y-21925000D03*
D24*
X132345000Y-76384240D03*
X130445000Y-76384240D03*
X131395000Y-78383220D03*
X123185000Y-71515760D03*
X125085000Y-71515760D03*
X124135000Y-69516780D03*
D25*
X134750000Y-76350000D03*
X134750000Y-78550000D03*
D26*
X130150000Y-73725000D03*
X132350000Y-73725000D03*
D25*
X120475000Y-71500000D03*
X120475000Y-73700000D03*
D26*
X123050000Y-73625000D03*
X125250000Y-73625000D03*
X121950000Y-67300000D03*
X124150000Y-67300000D03*
D25*
X124450000Y-25125000D03*
X124450000Y-27325000D03*
X104825000Y-58575000D03*
X104825000Y-60775000D03*
X92500000Y-58525000D03*
X92500000Y-60725000D03*
X90650000Y-58525000D03*
X90650000Y-60725000D03*
D26*
X102075000Y-85200000D03*
X104275000Y-85200000D03*
X102125000Y-89225000D03*
X104325000Y-89225000D03*
X104175000Y-93175000D03*
X101975000Y-93175000D03*
D25*
X106575000Y-58550000D03*
X106575000Y-60750000D03*
X103050000Y-58575000D03*
X103050000Y-60775000D03*
X94375000Y-58525000D03*
X94375000Y-60725000D03*
X96175000Y-58500000D03*
X96175000Y-60700000D03*
X141300000Y-107750000D03*
X141300000Y-109950000D03*
D26*
X149350000Y-106075000D03*
X147150000Y-106075000D03*
X158950000Y-91075000D03*
X156750000Y-91075000D03*
X149325000Y-103125000D03*
X147125000Y-103125000D03*
X28275000Y-52950000D03*
X26075000Y-52950000D03*
X28050000Y-63350000D03*
X25850000Y-63350000D03*
X28375000Y-75200000D03*
X26175000Y-75200000D03*
D25*
X44275000Y-84900000D03*
X44275000Y-82700000D03*
X59300000Y-84900000D03*
X59300000Y-82700000D03*
X74675000Y-84975000D03*
X74675000Y-82775000D03*
D26*
X149350000Y-109475000D03*
X147150000Y-109475000D03*
X149325000Y-107775000D03*
X147125000Y-107775000D03*
D27*
X174450000Y-79450000D03*
X174450000Y-80400000D03*
X174450000Y-81350000D03*
X170950000Y-81350000D03*
X170950000Y-80400000D03*
X170950000Y-79450000D03*
D28*
X123710000Y-83570000D03*
X124820000Y-83620000D03*
X125920000Y-83620000D03*
X127020000Y-83620000D03*
X128120000Y-83620000D03*
X122620000Y-83620000D03*
X121520000Y-83620000D03*
X120420000Y-83620000D03*
X119320000Y-83620000D03*
D29*
X115870000Y-86370000D03*
X115870000Y-87470000D03*
X115870000Y-88570000D03*
X115870000Y-89670000D03*
X115870000Y-90770000D03*
X115870000Y-91870000D03*
X115870000Y-92970000D03*
X115870000Y-94070000D03*
X115870000Y-95170000D03*
X115870000Y-96270000D03*
X115870000Y-97370000D03*
X115870000Y-98470000D03*
D28*
X119320000Y-101220000D03*
X120420000Y-101220000D03*
X121520000Y-101220000D03*
X122620000Y-101220000D03*
X123720000Y-101220000D03*
X124820000Y-101220000D03*
X125920000Y-101220000D03*
X127020000Y-101220000D03*
X128120000Y-101220000D03*
D29*
X131570000Y-98470000D03*
X131570000Y-97370000D03*
X131570000Y-96270000D03*
X131570000Y-95170000D03*
X131570000Y-94070000D03*
X131570000Y-92970000D03*
X131570000Y-91870000D03*
X131570000Y-90770000D03*
X131570000Y-89670000D03*
X131570000Y-88570000D03*
X131570000Y-87470000D03*
X131570000Y-86370000D03*
D30*
X156450000Y-100590000D03*
X156450000Y-101860000D03*
X156450000Y-103130000D03*
X156450000Y-104400000D03*
X156450000Y-105670000D03*
X156450000Y-106940000D03*
X156450000Y-108210000D03*
X156450000Y-109480000D03*
D31*
X178420000Y-92900000D03*
X178420000Y-113900000D03*
D24*
X51775760Y-30725000D03*
X51775760Y-28825000D03*
X49776780Y-29775000D03*
D32*
X133650000Y-30900000D03*
X133650000Y-23300000D03*
X129650000Y-23300000D03*
X129650000Y-30900000D03*
X131650000Y-30900000D03*
D33*
X40750000Y-52975000D03*
X33150000Y-52975000D03*
X33150000Y-56975000D03*
X40750000Y-56975000D03*
X40750000Y-54975000D03*
X40700000Y-63375000D03*
X33100000Y-63375000D03*
X33100000Y-67375000D03*
X40700000Y-67375000D03*
X40700000Y-65375000D03*
X40700000Y-75200000D03*
X33100000Y-75200000D03*
X33100000Y-79200000D03*
X40700000Y-79200000D03*
X40700000Y-77200000D03*
X55375000Y-53000000D03*
X47775000Y-53000000D03*
X47775000Y-57000000D03*
X55375000Y-57000000D03*
X55375000Y-55000000D03*
X55350000Y-63400000D03*
X47750000Y-63400000D03*
X47750000Y-67400000D03*
X55350000Y-67400000D03*
X55350000Y-65400000D03*
X55375000Y-75150000D03*
X47775000Y-75150000D03*
X47775000Y-79150000D03*
X55375000Y-79150000D03*
X55375000Y-77150000D03*
X70650000Y-53000000D03*
X63050000Y-53000000D03*
X63050000Y-57000000D03*
X70650000Y-57000000D03*
X70650000Y-55000000D03*
X70650000Y-63450000D03*
X63050000Y-63450000D03*
X63050000Y-67450000D03*
X70650000Y-67450000D03*
X70650000Y-65450000D03*
X70650000Y-75150000D03*
X63050000Y-75150000D03*
X63050000Y-79150000D03*
X70650000Y-79150000D03*
X70650000Y-77150000D03*
D14*
X71700000Y-42250000D03*
D15*
X71700000Y-40250000D03*
X69700000Y-42250000D03*
X69700000Y-40250000D03*
D34*
X106625000Y-28775000D03*
X106625000Y-30675000D03*
X58125000Y-28625000D03*
X58125000Y-26725000D03*
D35*
X100474140Y-25975000D03*
X104075860Y-25975000D03*
X91600860Y-34375000D03*
X87999140Y-34375000D03*
D14*
X121300000Y-54025000D03*
D15*
X121300000Y-56025000D03*
X121300000Y-58025000D03*
X121300000Y-60025000D03*
X123300000Y-54025000D03*
X123300000Y-56025000D03*
X123300000Y-58025000D03*
X123300000Y-60025000D03*
D36*
X96225000Y-36675000D03*
X96225000Y-37175000D03*
X96225000Y-37675000D03*
X96225000Y-38175000D03*
X96225000Y-38675000D03*
X96225000Y-39175000D03*
X96225000Y-39675000D03*
X96225000Y-40175000D03*
X96225000Y-40675000D03*
X96225000Y-41175000D03*
X96225000Y-41675000D03*
X96225000Y-42175000D03*
X96225000Y-42675000D03*
X96225000Y-43175000D03*
X96225000Y-43675000D03*
X96225000Y-44175000D03*
X96225000Y-44675000D03*
X96225000Y-45175000D03*
X96225000Y-45675000D03*
X96225000Y-46175000D03*
X96225000Y-46675000D03*
X96225000Y-47175000D03*
X96225000Y-47675000D03*
X96225000Y-48175000D03*
X96225000Y-48675000D03*
D37*
X98125000Y-50575000D03*
X98625000Y-50575000D03*
X99125000Y-50575000D03*
X99625000Y-50575000D03*
X100125000Y-50575000D03*
X100625000Y-50575000D03*
X101125000Y-50575000D03*
X101625000Y-50575000D03*
X102125000Y-50575000D03*
X102625000Y-50575000D03*
X103125000Y-50575000D03*
X103625000Y-50575000D03*
X104125000Y-50575000D03*
X104625000Y-50575000D03*
X105125000Y-50575000D03*
X105625000Y-50575000D03*
X106125000Y-50575000D03*
X106625000Y-50575000D03*
X107125000Y-50575000D03*
X107625000Y-50575000D03*
X108125000Y-50575000D03*
X108625000Y-50575000D03*
X109125000Y-50575000D03*
X109625000Y-50575000D03*
X110125000Y-50575000D03*
D36*
X112025000Y-48675000D03*
X112025000Y-48175000D03*
X112025000Y-47675000D03*
X112025000Y-47175000D03*
X112025000Y-46675000D03*
X112025000Y-46175000D03*
X112025000Y-45675000D03*
X112025000Y-45175000D03*
X112025000Y-44675000D03*
X112025000Y-44175000D03*
X112025000Y-43675000D03*
X112025000Y-43175000D03*
X112025000Y-42675000D03*
X112025000Y-42175000D03*
X112025000Y-41675000D03*
X112025000Y-41175000D03*
X112025000Y-40675000D03*
X112025000Y-40175000D03*
X112025000Y-39675000D03*
X112025000Y-39175000D03*
X112025000Y-38675000D03*
X112025000Y-38175000D03*
X112025000Y-37675000D03*
X112025000Y-37175000D03*
X112025000Y-36675000D03*
D37*
X110125000Y-34775000D03*
X109625000Y-34775000D03*
X109125000Y-34775000D03*
X108625000Y-34775000D03*
X108125000Y-34775000D03*
X107625000Y-34775000D03*
X107125000Y-34775000D03*
X106625000Y-34775000D03*
X106125000Y-34775000D03*
X105625000Y-34775000D03*
X105125000Y-34775000D03*
X104625000Y-34775000D03*
X104125000Y-34775000D03*
X103625000Y-34775000D03*
X103125000Y-34775000D03*
X102625000Y-34775000D03*
X102125000Y-34775000D03*
X101625000Y-34775000D03*
X101125000Y-34775000D03*
X100625000Y-34775000D03*
X100125000Y-34775000D03*
X99625000Y-34775000D03*
X99125000Y-34775000D03*
X98625000Y-34775000D03*
X98125000Y-34775000D03*
D34*
X101275000Y-60550000D03*
X101275000Y-58650000D03*
D38*
X118975000Y-42175000D03*
X117075000Y-42175000D03*
X119000000Y-37175000D03*
X117100000Y-37175000D03*
X87650000Y-41200000D03*
X89550000Y-41200000D03*
X118950000Y-47175000D03*
X117050000Y-47175000D03*
D34*
X108250000Y-60400000D03*
X108250000Y-58500000D03*
D38*
X90650000Y-50750000D03*
X92550000Y-50750000D03*
X103025000Y-29850000D03*
X101125000Y-29850000D03*
X91600000Y-38175000D03*
X89700000Y-38175000D03*
D14*
X67575000Y-95925000D03*
D15*
X67575000Y-97925000D03*
X69575000Y-95925000D03*
X69575000Y-97925000D03*
D14*
X35375000Y-105125000D03*
D15*
X35375000Y-107125000D03*
X37375000Y-105125000D03*
X37375000Y-107125000D03*
D14*
X137875000Y-87600000D03*
D15*
X137875000Y-89600000D03*
X139875000Y-87600000D03*
X139875000Y-89600000D03*
D14*
X168640000Y-67735000D03*
D15*
X168640000Y-69735000D03*
X170640000Y-67735000D03*
X170640000Y-69735000D03*
D14*
X40850000Y-22100000D03*
D15*
X40850000Y-24100000D03*
X42850000Y-22100000D03*
X42850000Y-24100000D03*
D39*
X125984000Y-99314000D03*
X105664000Y-36830000D03*
X73660000Y-91440000D03*
X100838000Y-87884000D03*
X101346000Y-83566000D03*
X88900000Y-52070000D03*
X108204000Y-62230000D03*
X101346000Y-62484000D03*
X51816000Y-33020000D03*
X173990000Y-77216000D03*
X160020000Y-100838000D03*
X137414000Y-101092000D03*
X128270000Y-99314000D03*
X128778000Y-93472000D03*
X113792000Y-108966000D03*
X118872000Y-103886000D03*
X112776000Y-93980000D03*
X93472000Y-97028000D03*
X100076000Y-92964000D03*
X75946000Y-104902000D03*
X87376000Y-109220000D03*
X38862000Y-115570000D03*
X38608000Y-94996000D03*
X67056000Y-55372000D03*
X67056000Y-65532000D03*
X67310000Y-76962000D03*
X52070000Y-55372000D03*
X52070000Y-65532000D03*
X52324000Y-76962000D03*
X37592000Y-55372000D03*
X37592000Y-77216000D03*
X37338000Y-65532000D03*
X133858000Y-84836000D03*
X89916000Y-36576000D03*
X94234000Y-37084000D03*
X101600000Y-38100000D03*
X99314000Y-37084000D03*
X100584000Y-42672000D03*
X98806000Y-47244000D03*
X100584000Y-49022000D03*
X105664000Y-49022000D03*
X109982000Y-48006000D03*
X125222000Y-76454000D03*
X124968000Y-81534000D03*
X160782000Y-90678000D03*
X167894000Y-85852000D03*
X114300000Y-42926000D03*
X114554000Y-38100000D03*
X129794000Y-33020000D03*
X131572000Y-33020000D03*
X121666000Y-37338000D03*
X121412000Y-42418000D03*
X121412000Y-47244000D03*
X105450000Y-32900000D03*
X107600000Y-32900000D03*
X105450000Y-31950000D03*
X107675000Y-32000000D03*
X151425000Y-104450000D03*
X148900000Y-97975000D03*
X88825000Y-44600000D03*
X84575000Y-43875000D03*
X79525000Y-30775000D03*
X79525000Y-26950000D03*
X82475000Y-45025000D03*
X87750000Y-45650000D03*
X81750000Y-46175000D03*
X87025000Y-47750000D03*
X91950000Y-49175000D03*
X82825000Y-47175000D03*
X88675000Y-65275000D03*
X108750000Y-65250000D03*
X97300000Y-76300000D03*
X89100000Y-76300000D03*
X97350000Y-77700000D03*
X89750000Y-77700000D03*
X97400000Y-79550000D03*
X89550000Y-79550000D03*
X76325000Y-38050000D03*
X84925000Y-27275000D03*
X78175000Y-35650000D03*
X82950000Y-30750000D03*
X92925000Y-30650000D03*
X96525000Y-30275000D03*
X75550000Y-28350000D03*
X75550000Y-29925000D03*
X104775000Y-79550000D03*
X106375000Y-77800000D03*
X94825000Y-87625000D03*
X94875000Y-84275000D03*
X121500000Y-80050000D03*
X115150000Y-80050000D03*
X147700000Y-92300000D03*
X152000000Y-92250000D03*
X44275000Y-76950000D03*
X44275000Y-73575000D03*
X44325000Y-64875000D03*
X44325000Y-61750000D03*
X59300000Y-77175000D03*
X59300000Y-73575000D03*
X59300000Y-65225000D03*
X59250000Y-61875000D03*
X128575000Y-61550000D03*
X118250000Y-61550000D03*
X127825000Y-62550000D03*
X118250000Y-62500000D03*
X124000000Y-63200000D03*
X122600000Y-63200000D03*
D40*
X175050000Y-85800000D02*
X175050000Y-87650000D01*
X145580000Y-96270000D02*
X131570000Y-96270000D01*
X145750000Y-96100000D02*
X145580000Y-96270000D01*
X145750000Y-89100000D02*
X145750000Y-96100000D01*
X147650000Y-87200000D02*
X145750000Y-89100000D01*
X166950000Y-87200000D02*
X147650000Y-87200000D01*
X167600000Y-87850000D02*
X166950000Y-87200000D01*
X174850000Y-87850000D02*
X167600000Y-87850000D01*
X175050000Y-87650000D02*
X174850000Y-87850000D01*
X175100000Y-83300000D02*
X175100000Y-85750000D01*
X175100000Y-85750000D02*
X175050000Y-85800000D01*
X170950000Y-79450000D02*
X172350000Y-79450000D01*
X177306000Y-81994000D02*
X178337000Y-81994000D01*
X176000000Y-83300000D02*
X177306000Y-81994000D01*
X172350000Y-83300000D02*
X175100000Y-83300000D01*
X175100000Y-83300000D02*
X176000000Y-83300000D01*
X172350000Y-79450000D02*
X172350000Y-83300000D01*
X125920000Y-101220000D02*
X125920000Y-99378000D01*
X125920000Y-99378000D02*
X125984000Y-99314000D01*
X131570000Y-88570000D02*
X129286000Y-88570000D01*
X129286000Y-88570000D02*
X129286000Y-88392000D01*
X131570000Y-89670000D02*
X130310000Y-89670000D01*
X129530000Y-86370000D02*
X131570000Y-86370000D01*
X129286000Y-86614000D02*
X129530000Y-86370000D01*
X129286000Y-88646000D02*
X129286000Y-88392000D01*
X129286000Y-88392000D02*
X129286000Y-86614000D01*
X130310000Y-89670000D02*
X129286000Y-88646000D01*
X106125000Y-34775000D02*
X106125000Y-36369000D01*
X106125000Y-36369000D02*
X105664000Y-36830000D01*
X76525000Y-91225000D02*
X73875000Y-91225000D01*
X73875000Y-91225000D02*
X73660000Y-91440000D01*
X102125000Y-89225000D02*
X102125000Y-89171000D01*
X102125000Y-89171000D02*
X100838000Y-87884000D01*
X102075000Y-85200000D02*
X102075000Y-84295000D01*
X102075000Y-84295000D02*
X101346000Y-83566000D01*
X90650000Y-50750000D02*
X90220000Y-50750000D01*
X90220000Y-50750000D02*
X88900000Y-52070000D01*
X101275000Y-60550000D02*
X101275000Y-62413000D01*
X108250000Y-62184000D02*
X108250000Y-60400000D01*
X108204000Y-62230000D02*
X108250000Y-62184000D01*
X101275000Y-62413000D02*
X101346000Y-62484000D01*
X51775760Y-30725000D02*
X51775760Y-32979760D01*
X51775760Y-32979760D02*
X51816000Y-33020000D01*
X174450000Y-79450000D02*
X174450000Y-77676000D01*
X174450000Y-77676000D02*
X173990000Y-77216000D01*
X159004000Y-101860000D02*
X159004000Y-101854000D01*
X159004000Y-101854000D02*
X160020000Y-100838000D01*
X156450000Y-105670000D02*
X159252000Y-105670000D01*
X159010000Y-101860000D02*
X159004000Y-101860000D01*
X159004000Y-101860000D02*
X156450000Y-101860000D01*
X159512000Y-102362000D02*
X159010000Y-101860000D01*
X159512000Y-105410000D02*
X159512000Y-102362000D01*
X159252000Y-105670000D02*
X159512000Y-105410000D01*
X140740000Y-101052000D02*
X143042000Y-101052000D01*
X143494000Y-100600000D02*
X146250000Y-100600000D01*
X143042000Y-101052000D02*
X143494000Y-100600000D01*
X140740000Y-101052000D02*
X137454000Y-101052000D01*
X137454000Y-101052000D02*
X137414000Y-101092000D01*
X131570000Y-92970000D02*
X129280000Y-92970000D01*
X128120000Y-99464000D02*
X128120000Y-101220000D01*
X128270000Y-99314000D02*
X128120000Y-99464000D01*
X129280000Y-92970000D02*
X128778000Y-93472000D01*
X119320000Y-101220000D02*
X119320000Y-103438000D01*
X113483000Y-109275000D02*
X110875000Y-109275000D01*
X113792000Y-108966000D02*
X113483000Y-109275000D01*
X119320000Y-103438000D02*
X118872000Y-103886000D01*
X115870000Y-94070000D02*
X112866000Y-94070000D01*
X112866000Y-94070000D02*
X112776000Y-93980000D01*
X101975000Y-93175000D02*
X100541000Y-93175000D01*
X94019000Y-97575000D02*
X96625000Y-97575000D01*
X93472000Y-97028000D02*
X94019000Y-97575000D01*
X100330000Y-92964000D02*
X100076000Y-92964000D01*
X100541000Y-93175000D02*
X100330000Y-92964000D01*
X91700000Y-109375000D02*
X87531000Y-109375000D01*
X76525000Y-104323000D02*
X76525000Y-102475000D01*
X75946000Y-104902000D02*
X76525000Y-104323000D01*
X87531000Y-109375000D02*
X87376000Y-109220000D01*
X96725000Y-101575000D02*
X96725000Y-97675000D01*
X96725000Y-97675000D02*
X96625000Y-97575000D01*
X42475000Y-115525000D02*
X38907000Y-115525000D01*
X38907000Y-115525000D02*
X38862000Y-115570000D01*
X42425000Y-96175000D02*
X39787000Y-96175000D01*
X39787000Y-96175000D02*
X38608000Y-94996000D01*
X70650000Y-55000000D02*
X67428000Y-55000000D01*
X67428000Y-55000000D02*
X67056000Y-55372000D01*
X70650000Y-77150000D02*
X67498000Y-77150000D01*
X67138000Y-65450000D02*
X70650000Y-65450000D01*
X67056000Y-65532000D02*
X67138000Y-65450000D01*
X67498000Y-77150000D02*
X67310000Y-76962000D01*
X55375000Y-55000000D02*
X52442000Y-55000000D01*
X52442000Y-55000000D02*
X52070000Y-55372000D01*
X55375000Y-77150000D02*
X52512000Y-77150000D01*
X52202000Y-65400000D02*
X55350000Y-65400000D01*
X52070000Y-65532000D02*
X52202000Y-65400000D01*
X52512000Y-77150000D02*
X52324000Y-76962000D01*
X40750000Y-54975000D02*
X37989000Y-54975000D01*
X37989000Y-54975000D02*
X37592000Y-55372000D01*
X40700000Y-77200000D02*
X37608000Y-77200000D01*
X37608000Y-77200000D02*
X37592000Y-77216000D01*
X37495000Y-65375000D02*
X40700000Y-65375000D01*
X37338000Y-65532000D02*
X37495000Y-65375000D01*
X131570000Y-86370000D02*
X132324000Y-86370000D01*
X132324000Y-86370000D02*
X133858000Y-84836000D01*
X125920000Y-83620000D02*
X125920000Y-82486000D01*
X125920000Y-82486000D02*
X124968000Y-81534000D01*
X96225000Y-37675000D02*
X94825000Y-37675000D01*
X89700000Y-36792000D02*
X89700000Y-38175000D01*
X89916000Y-36576000D02*
X89700000Y-36792000D01*
X94825000Y-37675000D02*
X94234000Y-37084000D01*
X87650000Y-41200000D02*
X87650000Y-40225000D01*
X87650000Y-40225000D02*
X89700000Y-38175000D01*
X101625000Y-34775000D02*
X101625000Y-38075000D01*
X101625000Y-38075000D02*
X101600000Y-38100000D01*
X96225000Y-37675000D02*
X98723000Y-37675000D01*
X98723000Y-37675000D02*
X99314000Y-37084000D01*
X96225000Y-42675000D02*
X100581000Y-42675000D01*
X100581000Y-42675000D02*
X100584000Y-42672000D01*
X101625000Y-50575000D02*
X101625000Y-49301000D01*
X98375000Y-47675000D02*
X96225000Y-47675000D01*
X98806000Y-47244000D02*
X98375000Y-47675000D01*
X101346000Y-49022000D02*
X100584000Y-49022000D01*
X101625000Y-49301000D02*
X101346000Y-49022000D01*
X106625000Y-50575000D02*
X106625000Y-48967000D01*
X106570000Y-49022000D02*
X105664000Y-49022000D01*
X106625000Y-48967000D02*
X106570000Y-49022000D01*
X112025000Y-47675000D02*
X110313000Y-47675000D01*
X110313000Y-47675000D02*
X109982000Y-48006000D01*
X130150000Y-73725000D02*
X125350000Y-73725000D01*
X125350000Y-73725000D02*
X125222000Y-73853000D01*
X125222000Y-73853000D02*
X125222000Y-76454000D01*
X124968000Y-81534000D02*
X124820000Y-81682000D01*
X124820000Y-81682000D02*
X124820000Y-83620000D01*
X162425000Y-90425000D02*
X161035000Y-90425000D01*
X161035000Y-90425000D02*
X160782000Y-90678000D01*
X167946000Y-85800000D02*
X171050000Y-85800000D01*
X167894000Y-85852000D02*
X167946000Y-85800000D01*
X112025000Y-37675000D02*
X114129000Y-37675000D01*
X114049000Y-42675000D02*
X114300000Y-42926000D01*
X114049000Y-42675000D02*
X112025000Y-42675000D01*
X114129000Y-37675000D02*
X114554000Y-38100000D01*
X129650000Y-30900000D02*
X129650000Y-32876000D01*
X129650000Y-32876000D02*
X129794000Y-33020000D01*
X131650000Y-30900000D02*
X131650000Y-32942000D01*
X131650000Y-32942000D02*
X131572000Y-33020000D01*
X119000000Y-37175000D02*
X121503000Y-37175000D01*
X121503000Y-37175000D02*
X121666000Y-37338000D01*
X118975000Y-42175000D02*
X121169000Y-42175000D01*
X121169000Y-42175000D02*
X121412000Y-42418000D01*
X118950000Y-47175000D02*
X121343000Y-47175000D01*
X121343000Y-47175000D02*
X121412000Y-47244000D01*
D41*
X40850000Y-22100000D02*
X40850000Y-18825000D01*
X47250000Y-20625000D02*
X49775000Y-20625000D01*
X45425000Y-18800000D02*
X47250000Y-20625000D01*
X40875000Y-18800000D02*
X45425000Y-18800000D01*
X40850000Y-18825000D02*
X40875000Y-18800000D01*
D42*
X161020000Y-67005000D02*
X167910000Y-67005000D01*
X167910000Y-67005000D02*
X168640000Y-67735000D01*
D43*
X153100000Y-67075000D02*
X150024360Y-67075000D01*
X150024360Y-67075000D02*
X149475000Y-66525640D01*
X155775000Y-67075000D02*
X153100000Y-67075000D01*
X158400000Y-67050000D02*
X155800000Y-67050000D01*
X155800000Y-67050000D02*
X155775000Y-67075000D01*
X161020000Y-67005000D02*
X158445000Y-67005000D01*
X158445000Y-67005000D02*
X158400000Y-67050000D01*
D44*
X125250000Y-73625000D02*
X125250000Y-71680760D01*
X125250000Y-71680760D02*
X125085000Y-71515760D01*
X51775760Y-30725000D02*
X55375000Y-30725000D01*
X91700000Y-112475000D02*
X91700000Y-109375000D01*
X110875000Y-109275000D02*
X110875000Y-112350000D01*
X42475000Y-115525000D02*
X45875000Y-115525000D01*
X42425000Y-96175000D02*
X45975000Y-96175000D01*
D40*
X178337000Y-80044000D02*
X176344000Y-80044000D01*
X176344000Y-80044000D02*
X175750000Y-79450000D01*
X174450000Y-79450000D02*
X175750000Y-79450000D01*
X175750000Y-79450000D02*
X178281000Y-79450000D01*
X178281000Y-79450000D02*
X178337000Y-79394000D01*
X101625000Y-34775000D02*
X101625000Y-32275000D01*
X103025000Y-30875000D02*
X103025000Y-29850000D01*
X101625000Y-32275000D02*
X103025000Y-30875000D01*
D44*
X106625000Y-28775000D02*
X104075860Y-28775000D01*
X104075860Y-28775000D02*
X104075860Y-28799140D01*
X89700000Y-38175000D02*
X88875000Y-38175000D01*
X88875000Y-38175000D02*
X87999140Y-37299140D01*
X87999140Y-37299140D02*
X87999140Y-34375000D01*
X104075860Y-25975000D02*
X104075860Y-28799140D01*
X104075860Y-28799140D02*
X103025000Y-29850000D01*
D41*
X58125000Y-28625000D02*
X58925000Y-28625000D01*
X58925000Y-28625000D02*
X61025000Y-30725000D01*
X58125000Y-28625000D02*
X57475000Y-28625000D01*
X57475000Y-28625000D02*
X55375000Y-30725000D01*
D42*
X130445000Y-76384240D02*
X130445000Y-75445000D01*
X130150000Y-75150000D02*
X130150000Y-73725000D01*
X130445000Y-75445000D02*
X130150000Y-75150000D01*
D40*
X95700000Y-109375000D02*
X95700000Y-108425000D01*
X52125000Y-103975000D02*
X45875000Y-103975000D01*
X54575000Y-106425000D02*
X52125000Y-103975000D01*
X93700000Y-106425000D02*
X54575000Y-106425000D01*
X95700000Y-108425000D02*
X93700000Y-106425000D01*
D45*
X99375000Y-109300000D02*
X99375000Y-106975000D01*
X113130000Y-97370000D02*
X115870000Y-97370000D01*
X105900000Y-104600000D02*
X113130000Y-97370000D01*
X101750000Y-104600000D02*
X105900000Y-104600000D01*
X99375000Y-106975000D02*
X101750000Y-104600000D01*
D44*
X99375000Y-109300000D02*
X99375000Y-112325000D01*
X99375000Y-112325000D02*
X99300000Y-112400000D01*
X99300000Y-112400000D02*
X95775000Y-112400000D01*
X95775000Y-112400000D02*
X95700000Y-112475000D01*
X95700000Y-112475000D02*
X95700000Y-109375000D01*
X35375000Y-105125000D02*
X35375000Y-101224300D01*
X35375000Y-101224300D02*
X36465000Y-100134300D01*
X36465000Y-100134300D02*
X38335000Y-100134300D01*
X38335000Y-100134300D02*
X38375000Y-100174300D01*
X38375000Y-100174300D02*
X42424300Y-100174300D01*
X42424300Y-100174300D02*
X42425000Y-100175000D01*
X42425000Y-100175000D02*
X42425000Y-103925000D01*
X42425000Y-103925000D02*
X42475000Y-103975000D01*
X42475000Y-103975000D02*
X45875000Y-103975000D01*
X42425000Y-100175000D02*
X45975000Y-100175000D01*
X99300000Y-109375000D02*
X99375000Y-109300000D01*
D40*
X103300000Y-112400000D02*
X103300000Y-114200000D01*
X58825000Y-111525000D02*
X45875000Y-111525000D01*
X61975000Y-114675000D02*
X58825000Y-111525000D01*
X102825000Y-114675000D02*
X61975000Y-114675000D01*
X103300000Y-114200000D02*
X102825000Y-114675000D01*
D45*
X106875000Y-109275000D02*
X106875000Y-105875000D01*
X114280000Y-98470000D02*
X115870000Y-98470000D01*
X106875000Y-105875000D02*
X114280000Y-98470000D01*
D44*
X103300000Y-112400000D02*
X103300000Y-109375000D01*
X103300000Y-109375000D02*
X103375000Y-109300000D01*
X103300000Y-112400000D02*
X106825000Y-112400000D01*
X106825000Y-112400000D02*
X106875000Y-112350000D01*
X103375000Y-112325000D02*
X103300000Y-112400000D01*
X106875000Y-112350000D02*
X106875000Y-109275000D01*
X42475000Y-107975000D02*
X42475000Y-111525000D01*
X38525000Y-111575700D02*
X42424300Y-111575700D01*
X42424300Y-111575700D02*
X42475000Y-111525000D01*
X42475000Y-107975000D02*
X45875000Y-107975000D01*
X42475000Y-111525000D02*
X45875000Y-111525000D01*
X35375000Y-107125000D02*
X35375000Y-110285700D01*
X35375000Y-110285700D02*
X36665000Y-111575700D01*
X36665000Y-111575700D02*
X38525000Y-111575700D01*
D40*
X100625000Y-97575000D02*
X100625000Y-96625000D01*
X98975000Y-94975000D02*
X80525000Y-94975000D01*
X100625000Y-96625000D02*
X98975000Y-94975000D01*
D45*
X100625000Y-97575000D02*
X103925000Y-97575000D01*
X115870000Y-95170000D02*
X111230000Y-95170000D01*
X108825000Y-97575000D02*
X103925000Y-97575000D01*
X111230000Y-95170000D02*
X108825000Y-97575000D01*
D44*
X67575000Y-95925000D02*
X67575000Y-92975000D01*
X72534300Y-95934300D02*
X74715000Y-95934300D01*
X72225000Y-95625000D02*
X72534300Y-95934300D01*
X72225000Y-92975000D02*
X72225000Y-95625000D01*
X67575000Y-92975000D02*
X72225000Y-92975000D01*
X76625000Y-95924300D02*
X79575700Y-95924300D01*
X79575700Y-95924300D02*
X80525000Y-94975000D01*
X76625000Y-95924300D02*
X74725000Y-95924300D01*
X74725000Y-95924300D02*
X74715000Y-95934300D01*
X80525000Y-94975000D02*
X80525000Y-91225000D01*
D40*
X100725000Y-101575000D02*
X100725000Y-103175000D01*
X81650000Y-103600000D02*
X80525000Y-102475000D01*
X100300000Y-103600000D02*
X81650000Y-103600000D01*
X100725000Y-103175000D02*
X100300000Y-103600000D01*
D45*
X100725000Y-101575000D02*
X103925000Y-101575000D01*
X115870000Y-96270000D02*
X111380000Y-96270000D01*
X106075000Y-101575000D02*
X103925000Y-101575000D01*
X111380000Y-96270000D02*
X106075000Y-101575000D01*
D44*
X67575000Y-97925000D02*
X67575000Y-100825000D01*
X73174300Y-97675700D02*
X74675000Y-97675700D01*
X72475000Y-98375000D02*
X73174300Y-97675700D01*
X72475000Y-100825000D02*
X72475000Y-98375000D01*
X67575000Y-100825000D02*
X72475000Y-100825000D01*
X76625000Y-97675700D02*
X79225700Y-97675700D01*
X79225700Y-97675700D02*
X80525000Y-98975000D01*
X74675000Y-97675700D02*
X76625000Y-97675700D01*
X80525000Y-98975000D02*
X80525000Y-102475000D01*
D45*
X147150000Y-106075000D02*
X144925000Y-106075000D01*
X143902000Y-105052000D02*
X140740000Y-105052000D01*
X144925000Y-106075000D02*
X143902000Y-105052000D01*
X140740000Y-105052000D02*
X122102000Y-105052000D01*
X121520000Y-104470000D02*
X121520000Y-101220000D01*
X122102000Y-105052000D02*
X121520000Y-104470000D01*
X150250000Y-99100000D02*
X137800000Y-99100000D01*
X124820000Y-103420000D02*
X124820000Y-101220000D01*
X124900000Y-103500000D02*
X124820000Y-103420000D01*
X133400000Y-103500000D02*
X124900000Y-103500000D01*
X137800000Y-99100000D02*
X133400000Y-103500000D01*
D41*
X156450000Y-100590000D02*
X150260000Y-100590000D01*
X150260000Y-100590000D02*
X150250000Y-100600000D01*
D46*
X162425000Y-89775000D02*
X151750000Y-89775000D01*
X150250000Y-91275000D02*
X150250000Y-99100000D01*
X150250000Y-99100000D02*
X150250000Y-100600000D01*
X151750000Y-89775000D02*
X150250000Y-91275000D01*
D41*
X40850000Y-24100000D02*
X40850000Y-27250000D01*
X47950000Y-24625000D02*
X49775000Y-24625000D01*
X45300000Y-27275000D02*
X47950000Y-24625000D01*
X40875000Y-27275000D02*
X45300000Y-27275000D01*
X40850000Y-27250000D02*
X40875000Y-27275000D01*
D40*
X126700000Y-85850000D02*
X127900000Y-85850000D01*
X128120000Y-85630000D02*
X128120000Y-83620000D01*
X127900000Y-85850000D02*
X128120000Y-85630000D01*
D42*
X161020000Y-71005000D02*
X167370000Y-71005000D01*
X167370000Y-71005000D02*
X168640000Y-69735000D01*
X128120000Y-83620000D02*
X128120000Y-81980000D01*
X128120000Y-81980000D02*
X128650000Y-81450000D01*
X128650000Y-81450000D02*
X139549360Y-81450000D01*
X139549360Y-81450000D02*
X149475000Y-71524360D01*
D43*
X153100000Y-71075000D02*
X149924360Y-71075000D01*
X149924360Y-71075000D02*
X149475000Y-71524360D01*
X155775000Y-71075000D02*
X153100000Y-71075000D01*
X158400000Y-71050000D02*
X155800000Y-71050000D01*
X155800000Y-71050000D02*
X155775000Y-71075000D01*
X161020000Y-71005000D02*
X158445000Y-71005000D01*
X158445000Y-71005000D02*
X158400000Y-71050000D01*
D45*
X127020000Y-83620000D02*
X127020000Y-85530000D01*
X117100000Y-68275700D02*
X118075700Y-67300000D01*
X117100000Y-84450000D02*
X117100000Y-68275700D01*
X118500000Y-85850000D02*
X117100000Y-84450000D01*
X126700000Y-85850000D02*
X118500000Y-85850000D01*
X127020000Y-85530000D02*
X126700000Y-85850000D01*
D44*
X49776780Y-29775000D02*
X49776780Y-24626780D01*
X49776780Y-24626780D02*
X49775000Y-24625000D01*
X55375000Y-26725000D02*
X55375000Y-22425000D01*
X55375000Y-22425000D02*
X57025000Y-20775000D01*
X51775760Y-28825000D02*
X51775760Y-27724240D01*
X52775000Y-26725000D02*
X55375000Y-26725000D01*
X51775760Y-27724240D02*
X52775000Y-26725000D01*
D41*
X55375000Y-26725000D02*
X58125000Y-26725000D01*
X58125000Y-26725000D02*
X61025000Y-26725000D01*
D40*
X116625000Y-27150000D02*
X116625000Y-28175000D01*
X103625000Y-33200000D02*
X103625000Y-34775000D01*
X103925000Y-32900000D02*
X103625000Y-33200000D01*
X105450000Y-32900000D02*
X103925000Y-32900000D01*
X111900000Y-32900000D02*
X107600000Y-32900000D01*
X116625000Y-28175000D02*
X111900000Y-32900000D01*
D41*
X124450000Y-27325000D02*
X124450000Y-29975000D01*
X123525000Y-30900000D02*
X118625000Y-30900000D01*
X124450000Y-29975000D02*
X123525000Y-30900000D01*
D40*
X107125000Y-48225000D02*
X102175000Y-48225000D01*
X102175000Y-48225000D02*
X102125000Y-48175000D01*
X108250000Y-47175000D02*
X108250000Y-42900000D01*
X108250000Y-42900000D02*
X108975000Y-42175000D01*
X112025000Y-42175000D02*
X108975000Y-42175000D01*
X107250000Y-40450000D02*
X107250000Y-37175000D01*
X108975000Y-42175000D02*
X107250000Y-40450000D01*
X112025000Y-37175000D02*
X107250000Y-37175000D01*
X106625000Y-36550000D02*
X106625000Y-34775000D01*
X107250000Y-37175000D02*
X106625000Y-36550000D01*
X96225000Y-48175000D02*
X102125000Y-48175000D01*
X102125000Y-48175000D02*
X102050000Y-48175000D01*
X102050000Y-48175000D02*
X102125000Y-48175000D01*
X102125000Y-50575000D02*
X102125000Y-48175000D01*
X102125000Y-48175000D02*
X102125000Y-45775000D01*
X99525000Y-43175000D02*
X96225000Y-43175000D01*
X102125000Y-45775000D02*
X99525000Y-43175000D01*
X112025000Y-47175000D02*
X108250000Y-47175000D01*
X108250000Y-47175000D02*
X108175000Y-47175000D01*
X107125000Y-48225000D02*
X107125000Y-50575000D01*
X108175000Y-47175000D02*
X107125000Y-48225000D01*
D44*
X79525000Y-17725000D02*
X79525000Y-17375000D01*
X60525000Y-16525000D02*
X60525000Y-20775000D01*
X60800000Y-16250000D02*
X60525000Y-16525000D01*
X78400000Y-16250000D02*
X60800000Y-16250000D01*
X79525000Y-17375000D02*
X78400000Y-16250000D01*
X79525000Y-21925000D02*
X79525000Y-17725000D01*
X79525000Y-17725000D02*
X79525000Y-17525000D01*
X103975000Y-16775000D02*
X103975000Y-20775000D01*
X103450000Y-16250000D02*
X103975000Y-16775000D01*
X80800000Y-16250000D02*
X103450000Y-16250000D01*
X79525000Y-17525000D02*
X80800000Y-16250000D01*
D40*
X96225000Y-43175000D02*
X94750000Y-43175000D01*
X94750000Y-43175000D02*
X92775000Y-41200000D01*
X92775000Y-41200000D02*
X89550000Y-41200000D01*
X96225000Y-48175000D02*
X94600000Y-48175000D01*
X92550000Y-50225000D02*
X92550000Y-50750000D01*
X94600000Y-48175000D02*
X92550000Y-50225000D01*
D44*
X118625000Y-27150000D02*
X118625000Y-30900000D01*
X118625000Y-30900000D02*
X118625000Y-32250000D01*
X117100000Y-33775000D02*
X117100000Y-37175000D01*
X118625000Y-32250000D02*
X117100000Y-33775000D01*
D40*
X107125000Y-50575000D02*
X107125000Y-54050000D01*
X107125000Y-54050000D02*
X108250000Y-55175000D01*
X108250000Y-55175000D02*
X108250000Y-58500000D01*
D45*
X102125000Y-50575000D02*
X102125000Y-54400000D01*
X101275000Y-55250000D02*
X101275000Y-58650000D01*
X102125000Y-54400000D02*
X101275000Y-55250000D01*
D44*
X103975000Y-20775000D02*
X107075000Y-20775000D01*
X108775000Y-30675000D02*
X106625000Y-30675000D01*
X108775000Y-22475000D02*
X108775000Y-30675000D01*
X107075000Y-20775000D02*
X108775000Y-22475000D01*
D40*
X106625000Y-34775000D02*
X106625000Y-30675000D01*
X112025000Y-37175000D02*
X117100000Y-37175000D01*
X112025000Y-42175000D02*
X117075000Y-42175000D01*
X112025000Y-47175000D02*
X117050000Y-47175000D01*
X101225000Y-58600000D02*
X101275000Y-58650000D01*
D45*
X133650000Y-23300000D02*
X133650000Y-22050000D01*
X133525000Y-21925000D02*
X124450000Y-21925000D01*
X133650000Y-22050000D02*
X133525000Y-21925000D01*
X124450000Y-25125000D02*
X124450000Y-21925000D01*
X124375000Y-21850000D02*
X118425000Y-21850000D01*
X124450000Y-21925000D02*
X124375000Y-21850000D01*
D40*
X118625000Y-25150000D02*
X118625000Y-22050000D01*
X103125000Y-32700000D02*
X103125000Y-34775000D01*
X103875000Y-31950000D02*
X103125000Y-32700000D01*
X105450000Y-31950000D02*
X103875000Y-31950000D01*
X110925000Y-32000000D02*
X107675000Y-32000000D01*
X112675000Y-30250000D02*
X110925000Y-32000000D01*
X112675000Y-23075000D02*
X112675000Y-30250000D01*
X113900000Y-21850000D02*
X112675000Y-23075000D01*
X118425000Y-21850000D02*
X113900000Y-21850000D01*
X118625000Y-22050000D02*
X118425000Y-21850000D01*
D44*
X121950000Y-67300000D02*
X119574300Y-67300000D01*
X74715000Y-94435700D02*
X76615000Y-94435700D01*
X76615000Y-94435700D02*
X76625000Y-94425700D01*
X74675000Y-99174300D02*
X76625000Y-99174300D01*
X38375000Y-98675700D02*
X36505000Y-98675700D01*
X36505000Y-98675700D02*
X36465000Y-98635700D01*
X36665000Y-113074300D02*
X38525000Y-113074300D01*
D46*
X164275000Y-91075000D02*
X165425000Y-91075000D01*
X159775000Y-91900000D02*
X158950000Y-91075000D01*
X165400000Y-91900000D02*
X159775000Y-91900000D01*
X165425000Y-91925000D02*
X165400000Y-91900000D01*
X165425000Y-91075000D02*
X165425000Y-91925000D01*
D41*
X156450000Y-109480000D02*
X149355000Y-109480000D01*
X149355000Y-109480000D02*
X149350000Y-109475000D01*
D46*
X156450000Y-109480000D02*
X166895000Y-109480000D01*
X167300000Y-90425000D02*
X164275000Y-90425000D01*
X167300000Y-109075000D02*
X167300000Y-90425000D01*
X166895000Y-109480000D02*
X167300000Y-109075000D01*
X164275000Y-89775000D02*
X165425000Y-89775000D01*
X152225000Y-105250000D02*
X152225000Y-106075000D01*
X151425000Y-104450000D02*
X152225000Y-105250000D01*
X148925000Y-97950000D02*
X148900000Y-97975000D01*
X148925000Y-88375000D02*
X148925000Y-97950000D01*
X148900000Y-88350000D02*
X148925000Y-88375000D01*
X165425000Y-88350000D02*
X148900000Y-88350000D01*
X165425000Y-89775000D02*
X165425000Y-88350000D01*
D41*
X156450000Y-106940000D02*
X153215000Y-106940000D01*
X152350000Y-106075000D02*
X152225000Y-106075000D01*
X152225000Y-106075000D02*
X149350000Y-106075000D01*
X153215000Y-106940000D02*
X152350000Y-106075000D01*
D40*
X96225000Y-43675000D02*
X93075000Y-43675000D01*
X23200000Y-75200000D02*
X26175000Y-75200000D01*
X21700000Y-73700000D02*
X23200000Y-75200000D01*
X21700000Y-50100000D02*
X21700000Y-73700000D01*
X23000000Y-48800000D02*
X21700000Y-50100000D01*
X84150000Y-48250000D02*
X23000000Y-48800000D01*
X87275000Y-42400000D02*
X84150000Y-48250000D01*
X91675000Y-42350000D02*
X87275000Y-42400000D01*
X93075000Y-43675000D02*
X91675000Y-42350000D01*
X96225000Y-44175000D02*
X92775000Y-44175000D01*
X22900000Y-63350000D02*
X25850000Y-63350000D01*
X22550000Y-63000000D02*
X22900000Y-63350000D01*
X22550000Y-50450000D02*
X22550000Y-63000000D01*
X23450000Y-49550000D02*
X22550000Y-50450000D01*
X84350000Y-48825000D02*
X23450000Y-49550000D01*
X87625000Y-42950000D02*
X84350000Y-48825000D01*
X91450000Y-42950000D02*
X87625000Y-42950000D01*
X92775000Y-44175000D02*
X91450000Y-42950000D01*
X92350000Y-44675000D02*
X92300000Y-44675000D01*
X91225000Y-43600000D02*
X88074432Y-43600000D01*
X92300000Y-44675000D02*
X91225000Y-43600000D01*
D45*
X26075000Y-52950000D02*
X24500000Y-52950000D01*
X87975000Y-43575000D02*
X88074432Y-43600000D01*
X84825000Y-49425000D02*
X87975000Y-43575000D01*
X24350000Y-50350000D02*
X84825000Y-49425000D01*
X23800000Y-50900000D02*
X24350000Y-50350000D01*
X23800000Y-52250000D02*
X23800000Y-50900000D01*
X24500000Y-52950000D02*
X23800000Y-52250000D01*
X93925000Y-44675000D02*
X96225000Y-44675000D01*
X92350000Y-44675000D02*
X93925000Y-44675000D01*
D40*
X91698964Y-45679814D02*
X90850258Y-45609162D01*
X90850258Y-45609162D02*
X90134047Y-45212903D01*
X88825000Y-44600000D02*
X88825000Y-44575000D01*
X92200995Y-45649992D02*
X95021923Y-45621923D01*
X90011645Y-45195070D02*
X90134047Y-45212903D01*
X91698964Y-45679814D02*
X92200995Y-45649992D01*
X88825000Y-44575000D02*
X90011645Y-45195070D01*
X79525000Y-23925000D02*
X79525000Y-26950000D01*
X95021923Y-45621923D02*
X96225000Y-45675000D01*
X84600000Y-43800000D02*
X84575000Y-43875000D01*
X84600000Y-35850000D02*
X84600000Y-43800000D01*
X79525000Y-30775000D02*
X84600000Y-35850000D01*
X96225000Y-46175000D02*
X88650000Y-46175000D01*
X75525000Y-18575000D02*
X75525000Y-21925000D01*
X74625000Y-17675000D02*
X75525000Y-18575000D01*
X68925000Y-17675000D02*
X74625000Y-17675000D01*
X68775000Y-17825000D02*
X68925000Y-17675000D01*
X68775000Y-30675000D02*
X68775000Y-17825000D01*
X71825000Y-33725000D02*
X68775000Y-30675000D01*
X79175000Y-33725000D02*
X71825000Y-33725000D01*
X82400000Y-36950000D02*
X79175000Y-33725000D01*
X82400000Y-44950000D02*
X82400000Y-36950000D01*
X82475000Y-45025000D02*
X82400000Y-44950000D01*
X88650000Y-46175000D02*
X87750000Y-45650000D01*
X96225000Y-46675000D02*
X92950000Y-46675000D01*
X69700000Y-46450000D02*
X69700000Y-42250000D01*
X69800000Y-46550000D02*
X69700000Y-46450000D01*
X81375000Y-46550000D02*
X69800000Y-46550000D01*
X81750000Y-46175000D02*
X81375000Y-46550000D01*
X91875000Y-47750000D02*
X87025000Y-47750000D01*
X92950000Y-46675000D02*
X91875000Y-47750000D01*
X91950000Y-49175000D02*
X93950000Y-47175000D01*
X93950000Y-47175000D02*
X96225000Y-47175000D01*
X73525000Y-21925000D02*
X73525000Y-18950000D01*
X93950000Y-47175000D02*
X96225000Y-47175000D01*
X83450000Y-44250000D02*
X82825000Y-47175000D01*
X83450000Y-36525000D02*
X83450000Y-44250000D01*
X79725000Y-32800000D02*
X83450000Y-36525000D01*
X72525000Y-32800000D02*
X79725000Y-32800000D01*
X69975000Y-30250000D02*
X72525000Y-32800000D01*
X69975000Y-18875000D02*
X69975000Y-30250000D01*
X69925000Y-18825000D02*
X69975000Y-18875000D01*
X73400000Y-18825000D02*
X69925000Y-18825000D01*
X73525000Y-18950000D02*
X73400000Y-18825000D01*
X134750000Y-78550000D02*
X137250000Y-78550000D01*
X94825000Y-48675000D02*
X96225000Y-48675000D01*
X94225000Y-49275000D02*
X94825000Y-48675000D01*
X94225000Y-52400000D02*
X94225000Y-49275000D01*
X94100000Y-52525000D02*
X94225000Y-52400000D01*
X90425000Y-52525000D02*
X94100000Y-52525000D01*
X88625000Y-54325000D02*
X90425000Y-52525000D01*
X88625000Y-65225000D02*
X88625000Y-54325000D01*
X88675000Y-65275000D02*
X88625000Y-65225000D01*
X113975000Y-65250000D02*
X108750000Y-65250000D01*
X114000000Y-65225000D02*
X113975000Y-65250000D01*
X128575000Y-65225000D02*
X114000000Y-65225000D01*
X137550000Y-74200000D02*
X128575000Y-65225000D01*
X137550000Y-78250000D02*
X137550000Y-74200000D01*
X137250000Y-78550000D02*
X137550000Y-78250000D01*
X98125000Y-50575000D02*
X98125000Y-52388602D01*
X90650000Y-54600000D02*
X90650000Y-58525000D01*
X90725000Y-54525000D02*
X90650000Y-54600000D01*
X95988602Y-54525000D02*
X90725000Y-54525000D01*
X98125000Y-52388602D02*
X95988602Y-54525000D01*
X98625000Y-50575000D02*
X98625000Y-52525000D01*
X92500000Y-55125000D02*
X92500000Y-58525000D01*
X92550000Y-55075000D02*
X92500000Y-55125000D01*
X96075000Y-55075000D02*
X92550000Y-55075000D01*
X98625000Y-52525000D02*
X96075000Y-55075000D01*
X99125000Y-50575000D02*
X99125000Y-52675000D01*
X94375000Y-55525002D02*
X94375000Y-58525000D01*
X96274998Y-55525002D02*
X94375000Y-55525002D01*
X99125000Y-52675000D02*
X96274998Y-55525002D01*
X99625000Y-50575000D02*
X99625000Y-52811398D01*
X96386398Y-56050000D02*
X96386398Y-58288602D01*
X99625000Y-52811398D02*
X96386398Y-56050000D01*
X96386398Y-58288602D02*
X96175000Y-58500000D01*
X74675000Y-84975000D02*
X80425000Y-84975000D01*
X100100000Y-53100000D02*
X100100000Y-50600000D01*
X97800000Y-55400000D02*
X100100000Y-53100000D01*
X97800000Y-75800000D02*
X97800000Y-55400000D01*
X97300000Y-76300000D02*
X97800000Y-75800000D01*
X80425000Y-84975000D02*
X89100000Y-76300000D01*
X100100000Y-50600000D02*
X100125000Y-50575000D01*
X59300000Y-84900000D02*
X70600000Y-84900000D01*
X100625000Y-53375000D02*
X100625000Y-50575000D01*
X98700000Y-55300000D02*
X100625000Y-53375000D01*
X98700000Y-76350000D02*
X98700000Y-55300000D01*
X97350000Y-77700000D02*
X98700000Y-76350000D01*
X89350000Y-77700000D02*
X89750000Y-77700000D01*
X80550000Y-86500000D02*
X89350000Y-77700000D01*
X72200000Y-86500000D02*
X80550000Y-86500000D01*
X70600000Y-84900000D02*
X72200000Y-86500000D01*
X44275000Y-84900000D02*
X44275000Y-86675000D01*
X101125000Y-53775000D02*
X101125000Y-50575000D01*
X99550000Y-55350000D02*
X101125000Y-53775000D01*
X99550000Y-77400000D02*
X99550000Y-55350000D01*
X97400000Y-79550000D02*
X99550000Y-77400000D01*
X81550000Y-87550000D02*
X89550000Y-79550000D01*
X45150000Y-87550000D02*
X81550000Y-87550000D01*
X44275000Y-86675000D02*
X45150000Y-87550000D01*
X102625000Y-50575000D02*
X102625000Y-54425000D01*
X103050000Y-54850000D02*
X103050000Y-58575000D01*
X102625000Y-54425000D02*
X103050000Y-54850000D01*
X104825000Y-58575000D02*
X104825000Y-54875000D01*
X103625000Y-53675000D02*
X103625000Y-50575000D01*
X104825000Y-54875000D02*
X103625000Y-53675000D01*
X104125000Y-50575000D02*
X104125000Y-53300000D01*
X106575000Y-55750000D02*
X106575000Y-58550000D01*
X104125000Y-53300000D02*
X106575000Y-55750000D01*
X100625000Y-34775000D02*
X100625000Y-31475000D01*
X74350000Y-42250000D02*
X71700000Y-42250000D01*
X75025000Y-41575000D02*
X74350000Y-42250000D01*
X75025000Y-39350000D02*
X75025000Y-41575000D01*
X76325000Y-38050000D02*
X75025000Y-39350000D01*
X96425000Y-27275000D02*
X84925000Y-27275000D01*
X100625000Y-31475000D02*
X96425000Y-27275000D01*
X100125000Y-31875000D02*
X100125000Y-31775000D01*
X100125000Y-31775000D02*
X96400000Y-28050000D01*
X100125000Y-32500000D02*
X100125000Y-31875000D01*
X96400000Y-28050000D02*
X95675000Y-28050000D01*
X100125000Y-34775000D02*
X100125000Y-32500000D01*
X77525000Y-28025000D02*
X77525000Y-23925000D01*
X95675000Y-28050000D02*
X77500000Y-28050000D01*
X77500000Y-28050000D02*
X77525000Y-28025000D01*
X99625000Y-34775000D02*
X99625000Y-32125000D01*
X71700000Y-36725000D02*
X71700000Y-40250000D01*
X71775000Y-36650000D02*
X71700000Y-36725000D01*
X77175000Y-36650000D02*
X71775000Y-36650000D01*
X78175000Y-35650000D02*
X77175000Y-36650000D01*
X92825000Y-30750000D02*
X82950000Y-30750000D01*
X92925000Y-30650000D02*
X92825000Y-30750000D01*
X97775000Y-30275000D02*
X96525000Y-30275000D01*
X99625000Y-32125000D02*
X97775000Y-30275000D01*
X99125000Y-33125000D02*
X99125000Y-32825000D01*
X94775000Y-32550000D02*
X94775000Y-29225000D01*
X94925000Y-32700000D02*
X94775000Y-32550000D01*
X99000000Y-32700000D02*
X94925000Y-32700000D01*
X99125000Y-32825000D02*
X99000000Y-32700000D01*
X99125000Y-34775000D02*
X99125000Y-33125000D01*
X73525000Y-29150000D02*
X73525000Y-23925000D01*
X73600000Y-29225000D02*
X73525000Y-29150000D01*
X94775000Y-29225000D02*
X73600000Y-29225000D01*
X98625000Y-33275002D02*
X94350002Y-33275002D01*
X94100000Y-33025000D02*
X94100000Y-29675002D01*
X94350002Y-33275002D02*
X94100000Y-33025000D01*
X98625000Y-34775000D02*
X98625000Y-33275002D01*
X75525000Y-28325000D02*
X75525000Y-23925000D01*
X75550000Y-28350000D02*
X75525000Y-28325000D01*
X75799998Y-29675002D02*
X75550000Y-29925000D01*
X94100000Y-29675002D02*
X75799998Y-29675002D01*
X178337000Y-81344000D02*
X176656000Y-81344000D01*
X173050000Y-80400000D02*
X174450000Y-80400000D01*
X173050000Y-82600000D02*
X173050000Y-80400000D01*
X175400000Y-82600000D02*
X173050000Y-82600000D01*
X176656000Y-81344000D02*
X175400000Y-82600000D01*
X178337000Y-80694000D02*
X176406000Y-80694000D01*
X175750000Y-81350000D02*
X174450000Y-81350000D01*
X176406000Y-80694000D02*
X175750000Y-81350000D01*
X137875000Y-87600000D02*
X131700000Y-87600000D01*
X131700000Y-87600000D02*
X131570000Y-87470000D01*
D45*
X134750000Y-76350000D02*
X132379240Y-76350000D01*
X132379240Y-76350000D02*
X132345000Y-76384240D01*
D42*
X132350000Y-73725000D02*
X132350000Y-76379240D01*
X132350000Y-76379240D02*
X132370760Y-76400000D01*
D45*
X131395000Y-78383220D02*
X131395000Y-80105000D01*
X122620000Y-81830000D02*
X122620000Y-83620000D01*
X124200000Y-80250000D02*
X122620000Y-81830000D01*
X131250000Y-80250000D02*
X124200000Y-80250000D01*
X131395000Y-80105000D02*
X131250000Y-80250000D01*
D44*
X120475000Y-71500000D02*
X123169240Y-71500000D01*
X123169240Y-71500000D02*
X123185000Y-71515760D01*
X123175760Y-71525000D02*
X123185000Y-71515760D01*
X123050000Y-73625000D02*
X123050000Y-71650760D01*
X123050000Y-71650760D02*
X123185000Y-71515760D01*
X124150000Y-67300000D02*
X124150000Y-69501780D01*
X124150000Y-69501780D02*
X124135000Y-69516780D01*
X120420000Y-83620000D02*
X120420000Y-73755000D01*
X120420000Y-73755000D02*
X120475000Y-73700000D01*
D45*
X115870000Y-86370000D02*
X113320000Y-86370000D01*
X104825000Y-77875000D02*
X104825000Y-60775000D01*
X113320000Y-86370000D02*
X104825000Y-77875000D01*
X115870000Y-90770000D02*
X110655000Y-90770000D01*
X92500000Y-83625000D02*
X92500000Y-60725000D01*
X99975000Y-91100000D02*
X92500000Y-83625000D01*
X110325000Y-91100000D02*
X99975000Y-91100000D01*
X110655000Y-90770000D02*
X110325000Y-91100000D01*
X90650000Y-60725000D02*
X90650000Y-84900000D01*
X111355000Y-92970000D02*
X115870000Y-92970000D01*
X109725000Y-94600000D02*
X111355000Y-92970000D01*
X100350000Y-94600000D02*
X109725000Y-94600000D01*
X90650000Y-84900000D02*
X100350000Y-94600000D01*
X106575000Y-60750000D02*
X106575000Y-77600000D01*
X104825000Y-84650000D02*
X104275000Y-85200000D01*
X104825000Y-79600000D02*
X104825000Y-84650000D01*
X104775000Y-79550000D02*
X104825000Y-79600000D01*
X106575000Y-77600000D02*
X106375000Y-77800000D01*
X115870000Y-87470000D02*
X110020000Y-87470000D01*
X107750000Y-85200000D02*
X104275000Y-85200000D01*
X110020000Y-87470000D02*
X107750000Y-85200000D01*
D42*
X104280000Y-85195000D02*
X104275000Y-85200000D01*
D45*
X103050000Y-60775000D02*
X103050000Y-80200000D01*
X104325000Y-87875000D02*
X104325000Y-89225000D01*
X103725000Y-87275000D02*
X104325000Y-87875000D01*
X101575000Y-87275000D02*
X103725000Y-87275000D01*
X100425000Y-86125000D02*
X101575000Y-87275000D01*
X100425000Y-82825000D02*
X100425000Y-86125000D01*
X103050000Y-80200000D02*
X100425000Y-82825000D01*
D42*
X104325000Y-89225000D02*
X109975000Y-89225000D01*
X110630000Y-88570000D02*
X115870000Y-88570000D01*
X109975000Y-89225000D02*
X110630000Y-88570000D01*
D45*
X115870000Y-91870000D02*
X110780000Y-91870000D01*
X109475000Y-93175000D02*
X104175000Y-93175000D01*
X110780000Y-91870000D02*
X109475000Y-93175000D01*
X94375000Y-60725000D02*
X94375000Y-83775000D01*
X104175000Y-92075000D02*
X104175000Y-93175000D01*
X103900000Y-91800000D02*
X104175000Y-92075000D01*
X99000000Y-91800000D02*
X103900000Y-91800000D01*
X94825000Y-87625000D02*
X99000000Y-91800000D01*
X94375000Y-83775000D02*
X94875000Y-84275000D01*
X115870000Y-89670000D02*
X110805000Y-89670000D01*
X96175000Y-86450000D02*
X96175000Y-60700000D01*
X100175000Y-90450000D02*
X96175000Y-86450000D01*
X110025000Y-90450000D02*
X100175000Y-90450000D01*
X110805000Y-89670000D02*
X110025000Y-90450000D01*
X141300000Y-107750000D02*
X122600000Y-107750000D01*
X120420000Y-105570000D02*
X120420000Y-101220000D01*
X122600000Y-107750000D02*
X120420000Y-105570000D01*
X141300000Y-107750000D02*
X145800000Y-107750000D01*
X145800000Y-107750000D02*
X145825000Y-107775000D01*
X147125000Y-107775000D02*
X145825000Y-107775000D01*
X145800000Y-107800000D02*
X145800000Y-109475000D01*
X145825000Y-107775000D02*
X145800000Y-107800000D01*
X147150000Y-109475000D02*
X145800000Y-109475000D01*
X141300000Y-109950000D02*
X121350000Y-109950000D01*
X121520000Y-80070000D02*
X121520000Y-83620000D01*
X121500000Y-80050000D02*
X121520000Y-80070000D01*
X115100000Y-80100000D02*
X115150000Y-80050000D01*
X115100000Y-83500000D02*
X115100000Y-80100000D01*
X117950000Y-86350000D02*
X115100000Y-83500000D01*
X117950000Y-99250000D02*
X117950000Y-86350000D01*
X117350000Y-99850000D02*
X117950000Y-99250000D01*
X117350000Y-105950000D02*
X117350000Y-99850000D01*
X121350000Y-109950000D02*
X117350000Y-105950000D01*
X156750000Y-91075000D02*
X153175000Y-91075000D01*
X122620000Y-98570000D02*
X122620000Y-101220000D01*
X122600000Y-98550000D02*
X122620000Y-98570000D01*
X128800000Y-98550000D02*
X122600000Y-98550000D01*
X130350000Y-100100000D02*
X128800000Y-98550000D01*
X135600000Y-100100000D02*
X130350000Y-100100000D01*
X137500000Y-98200000D02*
X135600000Y-100100000D01*
X146400000Y-98200000D02*
X137500000Y-98200000D01*
X146950000Y-97650000D02*
X146400000Y-98200000D01*
X146950000Y-93050000D02*
X146950000Y-97650000D01*
X147700000Y-92300000D02*
X146950000Y-93050000D01*
X153175000Y-91075000D02*
X152000000Y-92250000D01*
D41*
X156450000Y-103130000D02*
X149330000Y-103130000D01*
X149330000Y-103130000D02*
X149325000Y-103125000D01*
D45*
X147125000Y-103125000D02*
X145375000Y-103125000D01*
X123720000Y-103870000D02*
X123720000Y-101220000D01*
X124150000Y-104300000D02*
X123720000Y-103870000D01*
X137100000Y-104300000D02*
X124150000Y-104300000D01*
X137850000Y-103550000D02*
X137100000Y-104300000D01*
X144950000Y-103550000D02*
X137850000Y-103550000D01*
X145375000Y-103125000D02*
X144950000Y-103550000D01*
D44*
X28275000Y-52950000D02*
X33125000Y-52950000D01*
X33125000Y-52950000D02*
X33150000Y-52975000D01*
X28050000Y-63350000D02*
X33075000Y-63350000D01*
X33075000Y-63350000D02*
X33100000Y-63375000D01*
X28375000Y-75200000D02*
X33100000Y-75200000D01*
X40700000Y-79200000D02*
X44275000Y-79200000D01*
X44275000Y-79200000D02*
X43950000Y-79200000D01*
X43950000Y-79200000D02*
X44275000Y-79200000D01*
X40700000Y-67375000D02*
X44275000Y-67375000D01*
X44275000Y-67375000D02*
X43925000Y-67375000D01*
X43925000Y-67375000D02*
X44275000Y-67375000D01*
X40750000Y-56975000D02*
X42950000Y-56975000D01*
X44275000Y-76950000D02*
X44275000Y-79200000D01*
X44275000Y-79200000D02*
X44275000Y-82700000D01*
X44275000Y-64925000D02*
X44275000Y-67375000D01*
X44275000Y-67375000D02*
X44275000Y-73575000D01*
X44325000Y-64875000D02*
X44275000Y-64925000D01*
X44325000Y-58350000D02*
X44325000Y-61750000D01*
X42950000Y-56975000D02*
X44325000Y-58350000D01*
X55375000Y-79150000D02*
X59300000Y-79150000D01*
X59300000Y-79150000D02*
X58950000Y-79150000D01*
X58950000Y-79150000D02*
X59300000Y-79150000D01*
X55350000Y-67400000D02*
X59300000Y-67400000D01*
X59300000Y-67400000D02*
X58925000Y-67400000D01*
X58925000Y-67400000D02*
X59300000Y-67400000D01*
X59300000Y-77175000D02*
X59300000Y-79150000D01*
X59300000Y-79150000D02*
X59300000Y-82700000D01*
X59300000Y-65225000D02*
X59300000Y-67400000D01*
X59300000Y-67400000D02*
X59300000Y-73575000D01*
X59250000Y-58125000D02*
X59250000Y-61875000D01*
X58125000Y-57000000D02*
X59250000Y-58125000D01*
X55375000Y-57000000D02*
X58125000Y-57000000D01*
X70650000Y-79150000D02*
X74675000Y-79150000D01*
X74675000Y-79150000D02*
X74475000Y-79150000D01*
X74475000Y-79150000D02*
X74675000Y-79150000D01*
X70650000Y-67450000D02*
X74675000Y-67450000D01*
X74675000Y-67450000D02*
X74500000Y-67450000D01*
X74500000Y-67450000D02*
X74675000Y-67450000D01*
X70650000Y-57000000D02*
X73925000Y-57000000D01*
X74675000Y-57750000D02*
X74675000Y-67450000D01*
X74675000Y-67450000D02*
X74675000Y-79150000D01*
X74675000Y-79150000D02*
X74675000Y-82775000D01*
X73925000Y-57000000D02*
X74675000Y-57750000D01*
D41*
X156450000Y-108210000D02*
X152485000Y-108210000D01*
X152050000Y-107775000D02*
X149325000Y-107775000D01*
X152485000Y-108210000D02*
X152050000Y-107775000D01*
D40*
X170950000Y-81350000D02*
X168650000Y-81350000D01*
X144330000Y-95170000D02*
X131570000Y-95170000D01*
X144600000Y-94900000D02*
X144330000Y-95170000D01*
X144600000Y-88800000D02*
X144600000Y-94900000D01*
X147500000Y-85900000D02*
X144600000Y-88800000D01*
X164100000Y-85900000D02*
X147500000Y-85900000D01*
X168650000Y-81350000D02*
X164100000Y-85900000D01*
X170950000Y-80400000D02*
X168450000Y-80400000D01*
X143480000Y-94070000D02*
X131570000Y-94070000D01*
X143500000Y-94050000D02*
X143480000Y-94070000D01*
X143500000Y-88450000D02*
X143500000Y-94050000D01*
X146850000Y-85100000D02*
X143500000Y-88450000D01*
X163750000Y-85100000D02*
X146850000Y-85100000D01*
X168450000Y-80400000D02*
X163750000Y-85100000D01*
D44*
X40750000Y-52975000D02*
X47750000Y-52975000D01*
X47750000Y-52975000D02*
X47775000Y-53000000D01*
X40700000Y-63375000D02*
X47725000Y-63375000D01*
X47725000Y-63375000D02*
X47750000Y-63400000D01*
X40700000Y-75200000D02*
X47725000Y-75200000D01*
X47725000Y-75200000D02*
X47775000Y-75150000D01*
X47250000Y-75200000D02*
X47275000Y-75175000D01*
X55375000Y-53000000D02*
X63050000Y-53000000D01*
X55350000Y-63400000D02*
X63000000Y-63400000D01*
X63000000Y-63400000D02*
X63050000Y-63450000D01*
X55375000Y-75150000D02*
X63050000Y-75150000D01*
X63025000Y-75175000D02*
X63050000Y-75150000D01*
X63000000Y-75100000D02*
X63050000Y-75150000D01*
D40*
X96225000Y-38175000D02*
X100050000Y-38175000D01*
X101125000Y-37100000D02*
X101125000Y-34775000D01*
X100050000Y-38175000D02*
X101125000Y-37100000D01*
D47*
X100474140Y-25975000D02*
X100474140Y-20775860D01*
X100474140Y-20775860D02*
X100475000Y-20775000D01*
D44*
X91600000Y-38175000D02*
X91600000Y-34375860D01*
X91600000Y-34375860D02*
X91600860Y-34375000D01*
D41*
X101125000Y-29850000D02*
X101125000Y-28475000D01*
X100474140Y-27824140D02*
X100474140Y-25975000D01*
X101125000Y-28475000D02*
X100474140Y-27824140D01*
D40*
X91600000Y-34375860D02*
X91600860Y-34375000D01*
X96225000Y-38175000D02*
X91600000Y-38175000D01*
X100500000Y-26000860D02*
X100474140Y-25975000D01*
X101125000Y-34775000D02*
X101125000Y-29850000D01*
X121300000Y-54025000D02*
X121300000Y-50900000D01*
X118575000Y-48175000D02*
X112025000Y-48175000D01*
X121300000Y-50900000D02*
X118575000Y-48175000D01*
X112025000Y-48675000D02*
X114775000Y-48675000D01*
X117600000Y-56025000D02*
X121300000Y-56025000D01*
X116775000Y-55200000D02*
X117600000Y-56025000D01*
X116775000Y-50675000D02*
X116775000Y-55200000D01*
X114775000Y-48675000D02*
X116775000Y-50675000D01*
X121300000Y-58025000D02*
X113800000Y-58025000D01*
X110125000Y-52250000D02*
X110125000Y-50575000D01*
X112900000Y-55025000D02*
X110125000Y-52250000D01*
X112900000Y-57125000D02*
X112900000Y-55025000D01*
X113800000Y-58025000D02*
X112900000Y-57125000D01*
X121300000Y-60025000D02*
X114825000Y-60025000D01*
X109625000Y-52575000D02*
X109625000Y-50575000D01*
X112275000Y-55225000D02*
X109625000Y-52575000D01*
X112275000Y-57475000D02*
X112275000Y-55225000D01*
X114825000Y-60025000D02*
X112275000Y-57475000D01*
X109125000Y-50575000D02*
X109125000Y-52975000D01*
X128575000Y-54025000D02*
X123300000Y-54025000D01*
X128625000Y-54075000D02*
X128575000Y-54025000D01*
X128625000Y-61500000D02*
X128625000Y-54075000D01*
X128575000Y-61550000D02*
X128625000Y-61500000D01*
X115375000Y-61550000D02*
X118250000Y-61550000D01*
X111500000Y-57675000D02*
X115375000Y-61550000D01*
X111500000Y-55350000D02*
X111500000Y-57675000D01*
X109125000Y-52975000D02*
X111500000Y-55350000D01*
X108625000Y-50575000D02*
X108625000Y-53225000D01*
X127675000Y-56025000D02*
X123300000Y-56025000D01*
X127775000Y-56125000D02*
X127675000Y-56025000D01*
X127775000Y-62500000D02*
X127775000Y-56125000D01*
X127825000Y-62550000D02*
X127775000Y-62500000D01*
X115225000Y-62500000D02*
X118250000Y-62500000D01*
X110850000Y-58125000D02*
X115225000Y-62500000D01*
X110850000Y-55450000D02*
X110850000Y-58125000D01*
X108625000Y-53225000D02*
X110850000Y-55450000D01*
X108125000Y-50575000D02*
X108125000Y-53450000D01*
X126825000Y-58025000D02*
X123300000Y-58025000D01*
X126850000Y-58050000D02*
X126825000Y-58025000D01*
X126850000Y-63075000D02*
X126850000Y-58050000D01*
X126700000Y-63225000D02*
X126850000Y-63075000D01*
X124025000Y-63225000D02*
X126700000Y-63225000D01*
X124000000Y-63200000D02*
X124025000Y-63225000D01*
X114850000Y-63200000D02*
X122600000Y-63200000D01*
X110175000Y-58525000D02*
X114850000Y-63200000D01*
X110175000Y-55500000D02*
X110175000Y-58525000D01*
X108125000Y-53450000D02*
X110175000Y-55500000D01*
X123300000Y-60025000D02*
X123300000Y-63500000D01*
X107625000Y-53850000D02*
X107625000Y-50575000D01*
X109550000Y-55775000D02*
X107625000Y-53850000D01*
X109550000Y-58725000D02*
X109550000Y-55775000D01*
X114675000Y-63850000D02*
X109550000Y-58725000D01*
X122950000Y-63850000D02*
X114675000Y-63850000D01*
X123300000Y-63500000D02*
X122950000Y-63850000D01*
M02*
