%TF.GenerationSoftware,KiCad,Pcbnew,4.0.2+dfsg1-stable*%
%TF.CreationDate,2018-10-18T10:35:51+03:00*%
%TF.ProjectId,xmobile,786D6F62696C652E6B696361645F7063,rev?*%
%TF.FileFunction,Soldermask,Top*%
%FSLAX46Y46*%
G04 Gerber Fmt 4.6, Leading zero omitted, Abs format (unit mm)*
G04 Created by KiCad (PCBNEW 4.0.2+dfsg1-stable) date Чт 18 окт 2018 10:35:51*
%MOMM*%
G01*
G04 APERTURE LIST*
%ADD10C,0.150000*%
%ADD11C,0.100000*%
%ADD12R,2.000000X1.600000*%
%ADD13R,1.600000X2.000000*%
%ADD14R,1.350000X1.350000*%
%ADD15C,1.350000*%
%ADD16R,0.797560X0.797560*%
%ADD17R,0.850000X0.400000*%
%ADD18R,1.800860X3.500120*%
%ADD19R,2.500000X2.500000*%
%ADD20O,2.100000X1.300000*%
%ADD21R,2.100000X2.100000*%
%ADD22R,1.450000X0.500000*%
%ADD23O,1.400000X1.200000*%
%ADD24R,0.800100X0.800100*%
%ADD25R,0.900000X1.200000*%
%ADD26R,1.200000X0.900000*%
%ADD27R,1.402400X0.752400*%
%ADD28O,0.600000X1.800000*%
%ADD29O,1.800000X0.600000*%
%ADD30R,2.500000X1.000000*%
%ADD31R,3.000000X2.000000*%
%ADD32R,0.700000X1.400000*%
%ADD33R,1.400000X0.700000*%
%ADD34R,0.750000X1.200000*%
%ADD35R,2.600960X1.600200*%
%ADD36R,1.500000X0.280000*%
%ADD37R,0.280000X1.500000*%
%ADD38R,1.200000X0.750000*%
G04 APERTURE END LIST*
D10*
D11*
X184150000Y-121920000D02*
X15240000Y-121920000D01*
X184150000Y-13970000D02*
X184150000Y-121920000D01*
X182880000Y-13970000D02*
X184150000Y-13970000D01*
X15240000Y-13970000D02*
X182880000Y-13970000D01*
X15240000Y-121920000D02*
X15240000Y-13970000D01*
D12*
X175050000Y-85800000D03*
X171050000Y-85800000D03*
X91700000Y-112475000D03*
X95700000Y-112475000D03*
X99300000Y-112400000D03*
X103300000Y-112400000D03*
X106875000Y-112350000D03*
X110875000Y-112350000D03*
X91700000Y-109375000D03*
X95700000Y-109375000D03*
X99375000Y-109300000D03*
X103375000Y-109300000D03*
X106875000Y-109275000D03*
X110875000Y-109275000D03*
X96625000Y-97575000D03*
X100625000Y-97575000D03*
D13*
X103925000Y-97575000D03*
X103925000Y-101575000D03*
D12*
X100725000Y-101575000D03*
X96725000Y-101575000D03*
D13*
X45975000Y-96175000D03*
X45975000Y-100175000D03*
X45875000Y-103975000D03*
X45875000Y-107975000D03*
X45875000Y-111525000D03*
X45875000Y-115525000D03*
D12*
X76525000Y-91225000D03*
X80525000Y-91225000D03*
D13*
X80525000Y-94975000D03*
X80525000Y-98975000D03*
D12*
X80525000Y-102475000D03*
X76525000Y-102475000D03*
D13*
X42425000Y-96175000D03*
X42425000Y-100175000D03*
X42475000Y-103975000D03*
X42475000Y-107975000D03*
X42475000Y-111525000D03*
X42475000Y-115525000D03*
X140740000Y-105052000D03*
X140740000Y-101052000D03*
D12*
X150250000Y-100600000D03*
X146250000Y-100600000D03*
D13*
X49775000Y-20625000D03*
X49775000Y-24625000D03*
X153100000Y-67075000D03*
X153100000Y-71075000D03*
X155775000Y-67075000D03*
X155775000Y-71075000D03*
X161020000Y-67005000D03*
X161020000Y-71005000D03*
X158400000Y-67050000D03*
X158400000Y-71050000D03*
X55375000Y-30725000D03*
X55375000Y-26725000D03*
X61025000Y-30725000D03*
X61025000Y-26725000D03*
D14*
X116625000Y-27150000D03*
D15*
X118625000Y-27150000D03*
X120625000Y-27150000D03*
X116625000Y-25150000D03*
X118625000Y-25150000D03*
X120625000Y-25150000D03*
D16*
X119574300Y-67300000D03*
X118075700Y-67300000D03*
X76625000Y-94425700D03*
X76625000Y-95924300D03*
X76625000Y-97675700D03*
X76625000Y-99174300D03*
X38375000Y-98675700D03*
X38375000Y-100174300D03*
X38525000Y-111575700D03*
X38525000Y-113074300D03*
X74715000Y-95934300D03*
X74715000Y-94435700D03*
X74675000Y-99174300D03*
X74675000Y-97675700D03*
X36465000Y-100134300D03*
X36465000Y-98635700D03*
X36665000Y-113074300D03*
X36665000Y-111575700D03*
D17*
X162425000Y-89775000D03*
X162425000Y-90425000D03*
X162425000Y-91075000D03*
X164275000Y-91075000D03*
X164275000Y-90425000D03*
X164275000Y-89775000D03*
D18*
X149475000Y-66525640D03*
X149475000Y-71524360D03*
D19*
X100475000Y-20775000D03*
X103975000Y-20775000D03*
X60525000Y-20775000D03*
X57025000Y-20775000D03*
D20*
X181012000Y-84269000D03*
D21*
X181012000Y-80694000D03*
D20*
X181012000Y-77119000D03*
D22*
X178337000Y-81994000D03*
X178337000Y-81344000D03*
X178337000Y-80694000D03*
X178337000Y-80044000D03*
X178337000Y-79394000D03*
D23*
X178262000Y-83119000D03*
X178262000Y-78269000D03*
D14*
X73525000Y-23925000D03*
D15*
X75525000Y-23925000D03*
X77525000Y-23925000D03*
X79525000Y-23925000D03*
X73525000Y-21925000D03*
X75525000Y-21925000D03*
X77525000Y-21925000D03*
X79525000Y-21925000D03*
D24*
X132345000Y-76384240D03*
X130445000Y-76384240D03*
X131395000Y-78383220D03*
X123185000Y-71515760D03*
X125085000Y-71515760D03*
X124135000Y-69516780D03*
D25*
X134750000Y-76350000D03*
X134750000Y-78550000D03*
D26*
X130150000Y-73725000D03*
X132350000Y-73725000D03*
D25*
X120475000Y-71500000D03*
X120475000Y-73700000D03*
D26*
X123050000Y-73625000D03*
X125250000Y-73625000D03*
X121950000Y-67300000D03*
X124150000Y-67300000D03*
D25*
X124450000Y-25125000D03*
X124450000Y-27325000D03*
X104825000Y-58575000D03*
X104825000Y-60775000D03*
X92500000Y-58525000D03*
X92500000Y-60725000D03*
X90650000Y-58525000D03*
X90650000Y-60725000D03*
D26*
X102075000Y-85200000D03*
X104275000Y-85200000D03*
X102125000Y-89225000D03*
X104325000Y-89225000D03*
X104175000Y-93175000D03*
X101975000Y-93175000D03*
D25*
X106575000Y-58550000D03*
X106575000Y-60750000D03*
X103050000Y-58575000D03*
X103050000Y-60775000D03*
X94375000Y-58525000D03*
X94375000Y-60725000D03*
X96175000Y-58500000D03*
X96175000Y-60700000D03*
X141300000Y-107750000D03*
X141300000Y-109950000D03*
D26*
X149350000Y-106075000D03*
X147150000Y-106075000D03*
X158950000Y-91075000D03*
X156750000Y-91075000D03*
X149325000Y-103125000D03*
X147125000Y-103125000D03*
X28275000Y-52950000D03*
X26075000Y-52950000D03*
X28050000Y-63350000D03*
X25850000Y-63350000D03*
X28375000Y-75200000D03*
X26175000Y-75200000D03*
D25*
X44275000Y-84900000D03*
X44275000Y-82700000D03*
X59300000Y-84900000D03*
X59300000Y-82700000D03*
X74675000Y-84975000D03*
X74675000Y-82775000D03*
D26*
X149350000Y-109475000D03*
X147150000Y-109475000D03*
X149325000Y-107775000D03*
X147125000Y-107775000D03*
D27*
X174450000Y-79450000D03*
X174450000Y-80400000D03*
X174450000Y-81350000D03*
X170950000Y-81350000D03*
X170950000Y-80400000D03*
X170950000Y-79450000D03*
D28*
X123710000Y-83570000D03*
X124820000Y-83620000D03*
X125920000Y-83620000D03*
X127020000Y-83620000D03*
X128120000Y-83620000D03*
X122620000Y-83620000D03*
X121520000Y-83620000D03*
X120420000Y-83620000D03*
X119320000Y-83620000D03*
D29*
X115870000Y-86370000D03*
X115870000Y-87470000D03*
X115870000Y-88570000D03*
X115870000Y-89670000D03*
X115870000Y-90770000D03*
X115870000Y-91870000D03*
X115870000Y-92970000D03*
X115870000Y-94070000D03*
X115870000Y-95170000D03*
X115870000Y-96270000D03*
X115870000Y-97370000D03*
X115870000Y-98470000D03*
D28*
X119320000Y-101220000D03*
X120420000Y-101220000D03*
X121520000Y-101220000D03*
X122620000Y-101220000D03*
X123720000Y-101220000D03*
X124820000Y-101220000D03*
X125920000Y-101220000D03*
X127020000Y-101220000D03*
X128120000Y-101220000D03*
D29*
X131570000Y-98470000D03*
X131570000Y-97370000D03*
X131570000Y-96270000D03*
X131570000Y-95170000D03*
X131570000Y-94070000D03*
X131570000Y-92970000D03*
X131570000Y-91870000D03*
X131570000Y-90770000D03*
X131570000Y-89670000D03*
X131570000Y-88570000D03*
X131570000Y-87470000D03*
X131570000Y-86370000D03*
D30*
X156450000Y-100590000D03*
X156450000Y-101860000D03*
X156450000Y-103130000D03*
X156450000Y-104400000D03*
X156450000Y-105670000D03*
X156450000Y-106940000D03*
X156450000Y-108210000D03*
X156450000Y-109480000D03*
D31*
X178420000Y-92900000D03*
X178420000Y-113900000D03*
D24*
X51775760Y-30725000D03*
X51775760Y-28825000D03*
X49776780Y-29775000D03*
D32*
X133650000Y-30900000D03*
X133650000Y-23300000D03*
X129650000Y-23300000D03*
X129650000Y-30900000D03*
X131650000Y-30900000D03*
D33*
X40750000Y-52975000D03*
X33150000Y-52975000D03*
X33150000Y-56975000D03*
X40750000Y-56975000D03*
X40750000Y-54975000D03*
X40700000Y-63375000D03*
X33100000Y-63375000D03*
X33100000Y-67375000D03*
X40700000Y-67375000D03*
X40700000Y-65375000D03*
X40700000Y-75200000D03*
X33100000Y-75200000D03*
X33100000Y-79200000D03*
X40700000Y-79200000D03*
X40700000Y-77200000D03*
X55375000Y-53000000D03*
X47775000Y-53000000D03*
X47775000Y-57000000D03*
X55375000Y-57000000D03*
X55375000Y-55000000D03*
X55350000Y-63400000D03*
X47750000Y-63400000D03*
X47750000Y-67400000D03*
X55350000Y-67400000D03*
X55350000Y-65400000D03*
X55375000Y-75150000D03*
X47775000Y-75150000D03*
X47775000Y-79150000D03*
X55375000Y-79150000D03*
X55375000Y-77150000D03*
X70650000Y-53000000D03*
X63050000Y-53000000D03*
X63050000Y-57000000D03*
X70650000Y-57000000D03*
X70650000Y-55000000D03*
X70650000Y-63450000D03*
X63050000Y-63450000D03*
X63050000Y-67450000D03*
X70650000Y-67450000D03*
X70650000Y-65450000D03*
X70650000Y-75150000D03*
X63050000Y-75150000D03*
X63050000Y-79150000D03*
X70650000Y-79150000D03*
X70650000Y-77150000D03*
D14*
X71700000Y-42250000D03*
D15*
X71700000Y-40250000D03*
X69700000Y-42250000D03*
X69700000Y-40250000D03*
D34*
X106625000Y-28775000D03*
X106625000Y-30675000D03*
X58125000Y-28625000D03*
X58125000Y-26725000D03*
D35*
X100474140Y-25975000D03*
X104075860Y-25975000D03*
X91600860Y-34375000D03*
X87999140Y-34375000D03*
D14*
X121300000Y-54025000D03*
D15*
X121300000Y-56025000D03*
X121300000Y-58025000D03*
X121300000Y-60025000D03*
X123300000Y-54025000D03*
X123300000Y-56025000D03*
X123300000Y-58025000D03*
X123300000Y-60025000D03*
D36*
X96225000Y-36675000D03*
X96225000Y-37175000D03*
X96225000Y-37675000D03*
X96225000Y-38175000D03*
X96225000Y-38675000D03*
X96225000Y-39175000D03*
X96225000Y-39675000D03*
X96225000Y-40175000D03*
X96225000Y-40675000D03*
X96225000Y-41175000D03*
X96225000Y-41675000D03*
X96225000Y-42175000D03*
X96225000Y-42675000D03*
X96225000Y-43175000D03*
X96225000Y-43675000D03*
X96225000Y-44175000D03*
X96225000Y-44675000D03*
X96225000Y-45175000D03*
X96225000Y-45675000D03*
X96225000Y-46175000D03*
X96225000Y-46675000D03*
X96225000Y-47175000D03*
X96225000Y-47675000D03*
X96225000Y-48175000D03*
X96225000Y-48675000D03*
D37*
X98125000Y-50575000D03*
X98625000Y-50575000D03*
X99125000Y-50575000D03*
X99625000Y-50575000D03*
X100125000Y-50575000D03*
X100625000Y-50575000D03*
X101125000Y-50575000D03*
X101625000Y-50575000D03*
X102125000Y-50575000D03*
X102625000Y-50575000D03*
X103125000Y-50575000D03*
X103625000Y-50575000D03*
X104125000Y-50575000D03*
X104625000Y-50575000D03*
X105125000Y-50575000D03*
X105625000Y-50575000D03*
X106125000Y-50575000D03*
X106625000Y-50575000D03*
X107125000Y-50575000D03*
X107625000Y-50575000D03*
X108125000Y-50575000D03*
X108625000Y-50575000D03*
X109125000Y-50575000D03*
X109625000Y-50575000D03*
X110125000Y-50575000D03*
D36*
X112025000Y-48675000D03*
X112025000Y-48175000D03*
X112025000Y-47675000D03*
X112025000Y-47175000D03*
X112025000Y-46675000D03*
X112025000Y-46175000D03*
X112025000Y-45675000D03*
X112025000Y-45175000D03*
X112025000Y-44675000D03*
X112025000Y-44175000D03*
X112025000Y-43675000D03*
X112025000Y-43175000D03*
X112025000Y-42675000D03*
X112025000Y-42175000D03*
X112025000Y-41675000D03*
X112025000Y-41175000D03*
X112025000Y-40675000D03*
X112025000Y-40175000D03*
X112025000Y-39675000D03*
X112025000Y-39175000D03*
X112025000Y-38675000D03*
X112025000Y-38175000D03*
X112025000Y-37675000D03*
X112025000Y-37175000D03*
X112025000Y-36675000D03*
D37*
X110125000Y-34775000D03*
X109625000Y-34775000D03*
X109125000Y-34775000D03*
X108625000Y-34775000D03*
X108125000Y-34775000D03*
X107625000Y-34775000D03*
X107125000Y-34775000D03*
X106625000Y-34775000D03*
X106125000Y-34775000D03*
X105625000Y-34775000D03*
X105125000Y-34775000D03*
X104625000Y-34775000D03*
X104125000Y-34775000D03*
X103625000Y-34775000D03*
X103125000Y-34775000D03*
X102625000Y-34775000D03*
X102125000Y-34775000D03*
X101625000Y-34775000D03*
X101125000Y-34775000D03*
X100625000Y-34775000D03*
X100125000Y-34775000D03*
X99625000Y-34775000D03*
X99125000Y-34775000D03*
X98625000Y-34775000D03*
X98125000Y-34775000D03*
D34*
X101275000Y-60550000D03*
X101275000Y-58650000D03*
D38*
X118975000Y-42175000D03*
X117075000Y-42175000D03*
X119000000Y-37175000D03*
X117100000Y-37175000D03*
X87650000Y-41200000D03*
X89550000Y-41200000D03*
X118950000Y-47175000D03*
X117050000Y-47175000D03*
D34*
X108250000Y-60400000D03*
X108250000Y-58500000D03*
D38*
X90650000Y-50750000D03*
X92550000Y-50750000D03*
X103025000Y-29850000D03*
X101125000Y-29850000D03*
X91600000Y-38175000D03*
X89700000Y-38175000D03*
D14*
X67575000Y-95925000D03*
D15*
X67575000Y-97925000D03*
X69575000Y-95925000D03*
X69575000Y-97925000D03*
D14*
X35375000Y-105125000D03*
D15*
X35375000Y-107125000D03*
X37375000Y-105125000D03*
X37375000Y-107125000D03*
D14*
X137875000Y-87600000D03*
D15*
X137875000Y-89600000D03*
X139875000Y-87600000D03*
X139875000Y-89600000D03*
D14*
X168640000Y-67735000D03*
D15*
X168640000Y-69735000D03*
X170640000Y-67735000D03*
X170640000Y-69735000D03*
D14*
X40850000Y-22100000D03*
D15*
X40850000Y-24100000D03*
X42850000Y-22100000D03*
X42850000Y-24100000D03*
M02*
