G04 #@! TF.GenerationSoftware,KiCad,Pcbnew,5.0.2*
G04 #@! TF.CreationDate,2019-03-01T11:34:39+03:00*
G04 #@! TF.ProjectId,xmobile,786d6f62-696c-4652-9e6b-696361645f70,rev?*
G04 #@! TF.SameCoordinates,Original*
G04 #@! TF.FileFunction,Soldermask,Top*
G04 #@! TF.FilePolarity,Negative*
%FSLAX46Y46*%
G04 Gerber Fmt 4.6, Leading zero omitted, Abs format (unit mm)*
G04 Created by KiCad (PCBNEW 5.0.2) date Пт 01 мар 2019 11:34:39*
%MOMM*%
%LPD*%
G01*
G04 APERTURE LIST*
%ADD10C,0.100000*%
G04 APERTURE END LIST*
D10*
G36*
X179497712Y-135155088D02*
X179867510Y-135308263D01*
X179867513Y-135308265D01*
X180200325Y-135530643D01*
X180483357Y-135813675D01*
X180705735Y-136146487D01*
X180705737Y-136146490D01*
X180858912Y-136516288D01*
X180937000Y-136908864D01*
X180937000Y-137309136D01*
X180858912Y-137701712D01*
X180705737Y-138071510D01*
X180705735Y-138071513D01*
X180483357Y-138404325D01*
X180200325Y-138687357D01*
X179867513Y-138909735D01*
X179867510Y-138909737D01*
X179497712Y-139062912D01*
X179105136Y-139141000D01*
X178704864Y-139141000D01*
X178312288Y-139062912D01*
X177942490Y-138909737D01*
X177942487Y-138909735D01*
X177609675Y-138687357D01*
X177326643Y-138404325D01*
X177104265Y-138071513D01*
X177104263Y-138071510D01*
X176951088Y-137701712D01*
X176873000Y-137309136D01*
X176873000Y-136908864D01*
X176951088Y-136516288D01*
X177104263Y-136146490D01*
X177104265Y-136146487D01*
X177326643Y-135813675D01*
X177609675Y-135530643D01*
X177942487Y-135308265D01*
X177942490Y-135308263D01*
X178312288Y-135155088D01*
X178704864Y-135077000D01*
X179105136Y-135077000D01*
X179497712Y-135155088D01*
X179497712Y-135155088D01*
G37*
G36*
X152636712Y-135155088D02*
X153006510Y-135308263D01*
X153006513Y-135308265D01*
X153339325Y-135530643D01*
X153622357Y-135813675D01*
X153844735Y-136146487D01*
X153844737Y-136146490D01*
X153997912Y-136516288D01*
X154076000Y-136908864D01*
X154076000Y-137309136D01*
X153997912Y-137701712D01*
X153844737Y-138071510D01*
X153844735Y-138071513D01*
X153622357Y-138404325D01*
X153339325Y-138687357D01*
X153006513Y-138909735D01*
X153006510Y-138909737D01*
X152636712Y-139062912D01*
X152244136Y-139141000D01*
X151843864Y-139141000D01*
X151451288Y-139062912D01*
X151081490Y-138909737D01*
X151081487Y-138909735D01*
X150748675Y-138687357D01*
X150465643Y-138404325D01*
X150243265Y-138071513D01*
X150243263Y-138071510D01*
X150090088Y-137701712D01*
X150012000Y-137309136D01*
X150012000Y-136908864D01*
X150090088Y-136516288D01*
X150243263Y-136146490D01*
X150243265Y-136146487D01*
X150465643Y-135813675D01*
X150748675Y-135530643D01*
X151081487Y-135308265D01*
X151081490Y-135308263D01*
X151451288Y-135155088D01*
X151843864Y-135077000D01*
X152244136Y-135077000D01*
X152636712Y-135155088D01*
X152636712Y-135155088D01*
G37*
G36*
X189730000Y-133619000D02*
X188730000Y-133619000D01*
X188730000Y-132619000D01*
X189730000Y-132619000D01*
X189730000Y-133619000D01*
X189730000Y-133619000D01*
G37*
G36*
X146550000Y-132826000D02*
X145550000Y-132826000D01*
X145550000Y-131826000D01*
X146550000Y-131826000D01*
X146550000Y-132826000D01*
X146550000Y-132826000D01*
G37*
G36*
X152276000Y-132675000D02*
X149026000Y-132675000D01*
X149026000Y-130675000D01*
X152276000Y-130675000D01*
X152276000Y-132675000D01*
X152276000Y-132675000D01*
G37*
G36*
X156536000Y-132675000D02*
X153286000Y-132675000D01*
X153286000Y-130675000D01*
X156536000Y-130675000D01*
X156536000Y-132675000D01*
X156536000Y-132675000D01*
G37*
G36*
X170437000Y-132675000D02*
X167187000Y-132675000D01*
X167187000Y-130675000D01*
X170437000Y-130675000D01*
X170437000Y-132675000D01*
X170437000Y-132675000D01*
G37*
G36*
X174697000Y-132675000D02*
X171447000Y-132675000D01*
X171447000Y-130675000D01*
X174697000Y-130675000D01*
X174697000Y-132675000D01*
X174697000Y-132675000D01*
G37*
G36*
X161420000Y-132675000D02*
X158170000Y-132675000D01*
X158170000Y-130675000D01*
X161420000Y-130675000D01*
X161420000Y-132675000D01*
X161420000Y-132675000D01*
G37*
G36*
X165680000Y-132675000D02*
X162430000Y-132675000D01*
X162430000Y-130675000D01*
X165680000Y-130675000D01*
X165680000Y-132675000D01*
X165680000Y-132675000D01*
G37*
G36*
X183333000Y-132675000D02*
X180083000Y-132675000D01*
X180083000Y-130675000D01*
X183333000Y-130675000D01*
X183333000Y-132675000D01*
X183333000Y-132675000D01*
G37*
G36*
X179073000Y-132675000D02*
X175823000Y-132675000D01*
X175823000Y-130675000D01*
X179073000Y-130675000D01*
X179073000Y-132675000D01*
X179073000Y-132675000D01*
G37*
G36*
X146254183Y-129156900D02*
X146381574Y-129209668D01*
X146496225Y-129286275D01*
X146593725Y-129383775D01*
X146670332Y-129498426D01*
X146723100Y-129625817D01*
X146750000Y-129761055D01*
X146750000Y-129898945D01*
X146723100Y-130034183D01*
X146670332Y-130161574D01*
X146593725Y-130276225D01*
X146496225Y-130373725D01*
X146381574Y-130450332D01*
X146254183Y-130503100D01*
X146118945Y-130530000D01*
X145981055Y-130530000D01*
X145845817Y-130503100D01*
X145718426Y-130450332D01*
X145603775Y-130373725D01*
X145506275Y-130276225D01*
X145429668Y-130161574D01*
X145376900Y-130034183D01*
X145350000Y-129898945D01*
X145350000Y-129761055D01*
X145376900Y-129625817D01*
X145429668Y-129498426D01*
X145506275Y-129383775D01*
X145603775Y-129286275D01*
X145718426Y-129209668D01*
X145845817Y-129156900D01*
X145981055Y-129130000D01*
X146118945Y-129130000D01*
X146254183Y-129156900D01*
X146254183Y-129156900D01*
G37*
G36*
X183333000Y-129675000D02*
X180083000Y-129675000D01*
X180083000Y-127675000D01*
X183333000Y-127675000D01*
X183333000Y-129675000D01*
X183333000Y-129675000D01*
G37*
G36*
X179073000Y-129675000D02*
X175823000Y-129675000D01*
X175823000Y-127675000D01*
X179073000Y-127675000D01*
X179073000Y-129675000D01*
X179073000Y-129675000D01*
G37*
G36*
X174697000Y-129675000D02*
X171447000Y-129675000D01*
X171447000Y-127675000D01*
X174697000Y-127675000D01*
X174697000Y-129675000D01*
X174697000Y-129675000D01*
G37*
G36*
X170437000Y-129675000D02*
X167187000Y-129675000D01*
X167187000Y-127675000D01*
X170437000Y-127675000D01*
X170437000Y-129675000D01*
X170437000Y-129675000D01*
G37*
G36*
X165680000Y-129675000D02*
X162430000Y-129675000D01*
X162430000Y-127675000D01*
X165680000Y-127675000D01*
X165680000Y-129675000D01*
X165680000Y-129675000D01*
G37*
G36*
X161420000Y-129675000D02*
X158170000Y-129675000D01*
X158170000Y-127675000D01*
X161420000Y-127675000D01*
X161420000Y-129675000D01*
X161420000Y-129675000D01*
G37*
G36*
X156536000Y-129675000D02*
X153286000Y-129675000D01*
X153286000Y-127675000D01*
X156536000Y-127675000D01*
X156536000Y-129675000D01*
X156536000Y-129675000D01*
G37*
G36*
X152276000Y-129675000D02*
X149026000Y-129675000D01*
X149026000Y-127675000D01*
X152276000Y-127675000D01*
X152276000Y-129675000D01*
X152276000Y-129675000D01*
G37*
G36*
X146254183Y-126616900D02*
X146381574Y-126669668D01*
X146496225Y-126746275D01*
X146593725Y-126843775D01*
X146670332Y-126958426D01*
X146723100Y-127085817D01*
X146750000Y-127221055D01*
X146750000Y-127358945D01*
X146723100Y-127494183D01*
X146670332Y-127621574D01*
X146593725Y-127736225D01*
X146496225Y-127833725D01*
X146381574Y-127910332D01*
X146254183Y-127963100D01*
X146118945Y-127990000D01*
X145981055Y-127990000D01*
X145845817Y-127963100D01*
X145718426Y-127910332D01*
X145603775Y-127833725D01*
X145506275Y-127736225D01*
X145429668Y-127621574D01*
X145376900Y-127494183D01*
X145350000Y-127358945D01*
X145350000Y-127221055D01*
X145376900Y-127085817D01*
X145429668Y-126958426D01*
X145506275Y-126843775D01*
X145603775Y-126746275D01*
X145718426Y-126669668D01*
X145845817Y-126616900D01*
X145981055Y-126590000D01*
X146118945Y-126590000D01*
X146254183Y-126616900D01*
X146254183Y-126616900D01*
G37*
G36*
X189434183Y-125056900D02*
X189561574Y-125109668D01*
X189676225Y-125186275D01*
X189773725Y-125283775D01*
X189850332Y-125398426D01*
X189903100Y-125525817D01*
X189930000Y-125661055D01*
X189930000Y-125798945D01*
X189903100Y-125934183D01*
X189850332Y-126061574D01*
X189773725Y-126176225D01*
X189676225Y-126273725D01*
X189561574Y-126350332D01*
X189434183Y-126403100D01*
X189298945Y-126430000D01*
X189161055Y-126430000D01*
X189025817Y-126403100D01*
X188898426Y-126350332D01*
X188783775Y-126273725D01*
X188686275Y-126176225D01*
X188609668Y-126061574D01*
X188556900Y-125934183D01*
X188530000Y-125798945D01*
X188530000Y-125661055D01*
X188556900Y-125525817D01*
X188609668Y-125398426D01*
X188686275Y-125283775D01*
X188783775Y-125186275D01*
X188898426Y-125109668D01*
X189025817Y-125056900D01*
X189161055Y-125030000D01*
X189298945Y-125030000D01*
X189434183Y-125056900D01*
X189434183Y-125056900D01*
G37*
G36*
X156536000Y-124293000D02*
X153286000Y-124293000D01*
X153286000Y-122293000D01*
X156536000Y-122293000D01*
X156536000Y-124293000D01*
X156536000Y-124293000D01*
G37*
G36*
X183333000Y-124293000D02*
X180083000Y-124293000D01*
X180083000Y-122293000D01*
X183333000Y-122293000D01*
X183333000Y-124293000D01*
X183333000Y-124293000D01*
G37*
G36*
X179073000Y-124293000D02*
X175823000Y-124293000D01*
X175823000Y-122293000D01*
X179073000Y-122293000D01*
X179073000Y-124293000D01*
X179073000Y-124293000D01*
G37*
G36*
X174697000Y-124293000D02*
X171447000Y-124293000D01*
X171447000Y-122293000D01*
X174697000Y-122293000D01*
X174697000Y-124293000D01*
X174697000Y-124293000D01*
G37*
G36*
X152276000Y-124293000D02*
X149026000Y-124293000D01*
X149026000Y-122293000D01*
X152276000Y-122293000D01*
X152276000Y-124293000D01*
X152276000Y-124293000D01*
G37*
G36*
X165680000Y-124293000D02*
X162430000Y-124293000D01*
X162430000Y-122293000D01*
X165680000Y-122293000D01*
X165680000Y-124293000D01*
X165680000Y-124293000D01*
G37*
G36*
X170437000Y-124293000D02*
X167187000Y-124293000D01*
X167187000Y-122293000D01*
X170437000Y-122293000D01*
X170437000Y-124293000D01*
X170437000Y-124293000D01*
G37*
G36*
X161420000Y-124293000D02*
X158170000Y-124293000D01*
X158170000Y-122293000D01*
X161420000Y-122293000D01*
X161420000Y-124293000D01*
X161420000Y-124293000D01*
G37*
G36*
X189434183Y-122516900D02*
X189561574Y-122569668D01*
X189676225Y-122646275D01*
X189773725Y-122743775D01*
X189850332Y-122858426D01*
X189903100Y-122985817D01*
X189930000Y-123121055D01*
X189930000Y-123258945D01*
X189903100Y-123394183D01*
X189850332Y-123521574D01*
X189773725Y-123636225D01*
X189676225Y-123733725D01*
X189561574Y-123810332D01*
X189434183Y-123863100D01*
X189298945Y-123890000D01*
X189161055Y-123890000D01*
X189025817Y-123863100D01*
X188898426Y-123810332D01*
X188783775Y-123733725D01*
X188686275Y-123636225D01*
X188609668Y-123521574D01*
X188556900Y-123394183D01*
X188530000Y-123258945D01*
X188530000Y-123121055D01*
X188556900Y-122985817D01*
X188609668Y-122858426D01*
X188686275Y-122743775D01*
X188783775Y-122646275D01*
X188898426Y-122569668D01*
X189025817Y-122516900D01*
X189161055Y-122490000D01*
X189298945Y-122490000D01*
X189434183Y-122516900D01*
X189434183Y-122516900D01*
G37*
G36*
X165680000Y-121293000D02*
X162430000Y-121293000D01*
X162430000Y-119293000D01*
X165680000Y-119293000D01*
X165680000Y-121293000D01*
X165680000Y-121293000D01*
G37*
G36*
X183333000Y-121293000D02*
X180083000Y-121293000D01*
X180083000Y-119293000D01*
X183333000Y-119293000D01*
X183333000Y-121293000D01*
X183333000Y-121293000D01*
G37*
G36*
X156536000Y-121293000D02*
X153286000Y-121293000D01*
X153286000Y-119293000D01*
X156536000Y-119293000D01*
X156536000Y-121293000D01*
X156536000Y-121293000D01*
G37*
G36*
X161420000Y-121293000D02*
X158170000Y-121293000D01*
X158170000Y-119293000D01*
X161420000Y-119293000D01*
X161420000Y-121293000D01*
X161420000Y-121293000D01*
G37*
G36*
X152276000Y-121293000D02*
X149026000Y-121293000D01*
X149026000Y-119293000D01*
X152276000Y-119293000D01*
X152276000Y-121293000D01*
X152276000Y-121293000D01*
G37*
G36*
X170437000Y-121293000D02*
X167187000Y-121293000D01*
X167187000Y-119293000D01*
X170437000Y-119293000D01*
X170437000Y-121293000D01*
X170437000Y-121293000D01*
G37*
G36*
X174697000Y-121293000D02*
X171447000Y-121293000D01*
X171447000Y-119293000D01*
X174697000Y-119293000D01*
X174697000Y-121293000D01*
X174697000Y-121293000D01*
G37*
G36*
X179073000Y-121293000D02*
X175823000Y-121293000D01*
X175823000Y-119293000D01*
X179073000Y-119293000D01*
X179073000Y-121293000D01*
X179073000Y-121293000D01*
G37*
G36*
X165680000Y-116038000D02*
X162430000Y-116038000D01*
X162430000Y-114038000D01*
X165680000Y-114038000D01*
X165680000Y-116038000D01*
X165680000Y-116038000D01*
G37*
G36*
X183333000Y-116038000D02*
X180083000Y-116038000D01*
X180083000Y-114038000D01*
X183333000Y-114038000D01*
X183333000Y-116038000D01*
X183333000Y-116038000D01*
G37*
G36*
X179073000Y-116038000D02*
X175823000Y-116038000D01*
X175823000Y-114038000D01*
X179073000Y-114038000D01*
X179073000Y-116038000D01*
X179073000Y-116038000D01*
G37*
G36*
X174697000Y-116038000D02*
X171447000Y-116038000D01*
X171447000Y-114038000D01*
X174697000Y-114038000D01*
X174697000Y-116038000D01*
X174697000Y-116038000D01*
G37*
G36*
X170437000Y-116038000D02*
X167187000Y-116038000D01*
X167187000Y-114038000D01*
X170437000Y-114038000D01*
X170437000Y-116038000D01*
X170437000Y-116038000D01*
G37*
G36*
X161420000Y-116038000D02*
X158170000Y-116038000D01*
X158170000Y-114038000D01*
X161420000Y-114038000D01*
X161420000Y-116038000D01*
X161420000Y-116038000D01*
G37*
G36*
X156536000Y-116038000D02*
X153286000Y-116038000D01*
X153286000Y-114038000D01*
X156536000Y-114038000D01*
X156536000Y-116038000D01*
X156536000Y-116038000D01*
G37*
G36*
X152276000Y-116038000D02*
X149026000Y-116038000D01*
X149026000Y-114038000D01*
X152276000Y-114038000D01*
X152276000Y-116038000D01*
X152276000Y-116038000D01*
G37*
G36*
X156536000Y-113038000D02*
X153286000Y-113038000D01*
X153286000Y-111038000D01*
X156536000Y-111038000D01*
X156536000Y-113038000D01*
X156536000Y-113038000D01*
G37*
G36*
X183333000Y-113038000D02*
X180083000Y-113038000D01*
X180083000Y-111038000D01*
X183333000Y-111038000D01*
X183333000Y-113038000D01*
X183333000Y-113038000D01*
G37*
G36*
X179073000Y-113038000D02*
X175823000Y-113038000D01*
X175823000Y-111038000D01*
X179073000Y-111038000D01*
X179073000Y-113038000D01*
X179073000Y-113038000D01*
G37*
G36*
X170437000Y-113038000D02*
X167187000Y-113038000D01*
X167187000Y-111038000D01*
X170437000Y-111038000D01*
X170437000Y-113038000D01*
X170437000Y-113038000D01*
G37*
G36*
X152276000Y-113038000D02*
X149026000Y-113038000D01*
X149026000Y-111038000D01*
X152276000Y-111038000D01*
X152276000Y-113038000D01*
X152276000Y-113038000D01*
G37*
G36*
X161420000Y-113038000D02*
X158170000Y-113038000D01*
X158170000Y-111038000D01*
X161420000Y-111038000D01*
X161420000Y-113038000D01*
X161420000Y-113038000D01*
G37*
G36*
X165680000Y-113038000D02*
X162430000Y-113038000D01*
X162430000Y-111038000D01*
X165680000Y-111038000D01*
X165680000Y-113038000D01*
X165680000Y-113038000D01*
G37*
G36*
X174697000Y-113038000D02*
X171447000Y-113038000D01*
X171447000Y-111038000D01*
X174697000Y-111038000D01*
X174697000Y-113038000D01*
X174697000Y-113038000D01*
G37*
G36*
X146550000Y-108732000D02*
X145550000Y-108732000D01*
X145550000Y-107732000D01*
X146550000Y-107732000D01*
X146550000Y-108732000D01*
X146550000Y-108732000D01*
G37*
G36*
X165680000Y-107910000D02*
X162430000Y-107910000D01*
X162430000Y-105910000D01*
X165680000Y-105910000D01*
X165680000Y-107910000D01*
X165680000Y-107910000D01*
G37*
G36*
X161420000Y-107910000D02*
X158170000Y-107910000D01*
X158170000Y-105910000D01*
X161420000Y-105910000D01*
X161420000Y-107910000D01*
X161420000Y-107910000D01*
G37*
G36*
X156536000Y-107910000D02*
X153286000Y-107910000D01*
X153286000Y-105910000D01*
X156536000Y-105910000D01*
X156536000Y-107910000D01*
X156536000Y-107910000D01*
G37*
G36*
X183333000Y-107910000D02*
X180083000Y-107910000D01*
X180083000Y-105910000D01*
X183333000Y-105910000D01*
X183333000Y-107910000D01*
X183333000Y-107910000D01*
G37*
G36*
X152276000Y-107910000D02*
X149026000Y-107910000D01*
X149026000Y-105910000D01*
X152276000Y-105910000D01*
X152276000Y-107910000D01*
X152276000Y-107910000D01*
G37*
G36*
X179073000Y-107910000D02*
X175823000Y-107910000D01*
X175823000Y-105910000D01*
X179073000Y-105910000D01*
X179073000Y-107910000D01*
X179073000Y-107910000D01*
G37*
G36*
X174697000Y-107910000D02*
X171447000Y-107910000D01*
X171447000Y-105910000D01*
X174697000Y-105910000D01*
X174697000Y-107910000D01*
X174697000Y-107910000D01*
G37*
G36*
X170437000Y-107910000D02*
X167187000Y-107910000D01*
X167187000Y-105910000D01*
X170437000Y-105910000D01*
X170437000Y-107910000D01*
X170437000Y-107910000D01*
G37*
G36*
X189434183Y-106006900D02*
X189561574Y-106059668D01*
X189676225Y-106136275D01*
X189773725Y-106233775D01*
X189850332Y-106348426D01*
X189903100Y-106475817D01*
X189930000Y-106611055D01*
X189930000Y-106748945D01*
X189903100Y-106884183D01*
X189850332Y-107011574D01*
X189773725Y-107126225D01*
X189676225Y-107223725D01*
X189561574Y-107300332D01*
X189434183Y-107353100D01*
X189298945Y-107380000D01*
X189161055Y-107380000D01*
X189025817Y-107353100D01*
X188898426Y-107300332D01*
X188783775Y-107223725D01*
X188686275Y-107126225D01*
X188609668Y-107011574D01*
X188556900Y-106884183D01*
X188530000Y-106748945D01*
X188530000Y-106611055D01*
X188556900Y-106475817D01*
X188609668Y-106348426D01*
X188686275Y-106233775D01*
X188783775Y-106136275D01*
X188898426Y-106059668D01*
X189025817Y-106006900D01*
X189161055Y-105980000D01*
X189298945Y-105980000D01*
X189434183Y-106006900D01*
X189434183Y-106006900D01*
G37*
G36*
X146254183Y-104660900D02*
X146381574Y-104713668D01*
X146496225Y-104790275D01*
X146593725Y-104887775D01*
X146670332Y-105002426D01*
X146723100Y-105129817D01*
X146750000Y-105265055D01*
X146750000Y-105402945D01*
X146723100Y-105538183D01*
X146670332Y-105665574D01*
X146593725Y-105780225D01*
X146496225Y-105877725D01*
X146381574Y-105954332D01*
X146254183Y-106007100D01*
X146118945Y-106034000D01*
X145981055Y-106034000D01*
X145845817Y-106007100D01*
X145718426Y-105954332D01*
X145603775Y-105877725D01*
X145506275Y-105780225D01*
X145429668Y-105665574D01*
X145376900Y-105538183D01*
X145350000Y-105402945D01*
X145350000Y-105265055D01*
X145376900Y-105129817D01*
X145429668Y-105002426D01*
X145506275Y-104887775D01*
X145603775Y-104790275D01*
X145718426Y-104713668D01*
X145845817Y-104660900D01*
X145981055Y-104634000D01*
X146118945Y-104634000D01*
X146254183Y-104660900D01*
X146254183Y-104660900D01*
G37*
G36*
X174697000Y-104910000D02*
X171447000Y-104910000D01*
X171447000Y-102910000D01*
X174697000Y-102910000D01*
X174697000Y-104910000D01*
X174697000Y-104910000D01*
G37*
G36*
X165680000Y-104910000D02*
X162430000Y-104910000D01*
X162430000Y-102910000D01*
X165680000Y-102910000D01*
X165680000Y-104910000D01*
X165680000Y-104910000D01*
G37*
G36*
X161420000Y-104910000D02*
X158170000Y-104910000D01*
X158170000Y-102910000D01*
X161420000Y-102910000D01*
X161420000Y-104910000D01*
X161420000Y-104910000D01*
G37*
G36*
X183333000Y-104910000D02*
X180083000Y-104910000D01*
X180083000Y-102910000D01*
X183333000Y-102910000D01*
X183333000Y-104910000D01*
X183333000Y-104910000D01*
G37*
G36*
X152276000Y-104910000D02*
X149026000Y-104910000D01*
X149026000Y-102910000D01*
X152276000Y-102910000D01*
X152276000Y-104910000D01*
X152276000Y-104910000D01*
G37*
G36*
X170437000Y-104910000D02*
X167187000Y-104910000D01*
X167187000Y-102910000D01*
X170437000Y-102910000D01*
X170437000Y-104910000D01*
X170437000Y-104910000D01*
G37*
G36*
X156536000Y-104910000D02*
X153286000Y-104910000D01*
X153286000Y-102910000D01*
X156536000Y-102910000D01*
X156536000Y-104910000D01*
X156536000Y-104910000D01*
G37*
G36*
X179073000Y-104910000D02*
X175823000Y-104910000D01*
X175823000Y-102910000D01*
X179073000Y-102910000D01*
X179073000Y-104910000D01*
X179073000Y-104910000D01*
G37*
G36*
X189434183Y-103466900D02*
X189561574Y-103519668D01*
X189676225Y-103596275D01*
X189773725Y-103693775D01*
X189850332Y-103808426D01*
X189903100Y-103935817D01*
X189930000Y-104071055D01*
X189930000Y-104208945D01*
X189903100Y-104344183D01*
X189850332Y-104471574D01*
X189773725Y-104586225D01*
X189676225Y-104683725D01*
X189561574Y-104760332D01*
X189434183Y-104813100D01*
X189298945Y-104840000D01*
X189161055Y-104840000D01*
X189025817Y-104813100D01*
X188898426Y-104760332D01*
X188783775Y-104683725D01*
X188686275Y-104586225D01*
X188609668Y-104471574D01*
X188556900Y-104344183D01*
X188530000Y-104208945D01*
X188530000Y-104071055D01*
X188556900Y-103935817D01*
X188609668Y-103808426D01*
X188686275Y-103693775D01*
X188783775Y-103596275D01*
X188898426Y-103519668D01*
X189025817Y-103466900D01*
X189161055Y-103440000D01*
X189298945Y-103440000D01*
X189434183Y-103466900D01*
X189434183Y-103466900D01*
G37*
G36*
X146254183Y-102120900D02*
X146381574Y-102173668D01*
X146496225Y-102250275D01*
X146593725Y-102347775D01*
X146670332Y-102462426D01*
X146723100Y-102589817D01*
X146750000Y-102725055D01*
X146750000Y-102862945D01*
X146723100Y-102998183D01*
X146670332Y-103125574D01*
X146593725Y-103240225D01*
X146496225Y-103337725D01*
X146381574Y-103414332D01*
X146254183Y-103467100D01*
X146118945Y-103494000D01*
X145981055Y-103494000D01*
X145845817Y-103467100D01*
X145718426Y-103414332D01*
X145603775Y-103337725D01*
X145506275Y-103240225D01*
X145429668Y-103125574D01*
X145376900Y-102998183D01*
X145350000Y-102862945D01*
X145350000Y-102725055D01*
X145376900Y-102589817D01*
X145429668Y-102462426D01*
X145506275Y-102347775D01*
X145603775Y-102250275D01*
X145718426Y-102173668D01*
X145845817Y-102120900D01*
X145981055Y-102094000D01*
X146118945Y-102094000D01*
X146254183Y-102120900D01*
X146254183Y-102120900D01*
G37*
G36*
X189434183Y-100926900D02*
X189561574Y-100979668D01*
X189676225Y-101056275D01*
X189773725Y-101153775D01*
X189850332Y-101268426D01*
X189903100Y-101395817D01*
X189930000Y-101531055D01*
X189930000Y-101668945D01*
X189903100Y-101804183D01*
X189850332Y-101931574D01*
X189773725Y-102046225D01*
X189676225Y-102143725D01*
X189561574Y-102220332D01*
X189434183Y-102273100D01*
X189298945Y-102300000D01*
X189161055Y-102300000D01*
X189025817Y-102273100D01*
X188898426Y-102220332D01*
X188783775Y-102143725D01*
X188686275Y-102046225D01*
X188609668Y-101931574D01*
X188556900Y-101804183D01*
X188530000Y-101668945D01*
X188530000Y-101531055D01*
X188556900Y-101395817D01*
X188609668Y-101268426D01*
X188686275Y-101153775D01*
X188783775Y-101056275D01*
X188898426Y-100979668D01*
X189025817Y-100926900D01*
X189161055Y-100900000D01*
X189298945Y-100900000D01*
X189434183Y-100926900D01*
X189434183Y-100926900D01*
G37*
G36*
X189434183Y-98386900D02*
X189561574Y-98439668D01*
X189676225Y-98516275D01*
X189773725Y-98613775D01*
X189850332Y-98728426D01*
X189903100Y-98855817D01*
X189930000Y-98991055D01*
X189930000Y-99128945D01*
X189903100Y-99264183D01*
X189850332Y-99391574D01*
X189773725Y-99506225D01*
X189676225Y-99603725D01*
X189561574Y-99680332D01*
X189434183Y-99733100D01*
X189298945Y-99760000D01*
X189161055Y-99760000D01*
X189025817Y-99733100D01*
X188898426Y-99680332D01*
X188783775Y-99603725D01*
X188686275Y-99506225D01*
X188609668Y-99391574D01*
X188556900Y-99264183D01*
X188530000Y-99128945D01*
X188530000Y-98991055D01*
X188556900Y-98855817D01*
X188609668Y-98728426D01*
X188686275Y-98613775D01*
X188783775Y-98516275D01*
X188898426Y-98439668D01*
X189025817Y-98386900D01*
X189161055Y-98360000D01*
X189298945Y-98360000D01*
X189434183Y-98386900D01*
X189434183Y-98386900D01*
G37*
G36*
X161420000Y-99655000D02*
X158170000Y-99655000D01*
X158170000Y-97655000D01*
X161420000Y-97655000D01*
X161420000Y-99655000D01*
X161420000Y-99655000D01*
G37*
G36*
X152276000Y-99655000D02*
X149026000Y-99655000D01*
X149026000Y-97655000D01*
X152276000Y-97655000D01*
X152276000Y-99655000D01*
X152276000Y-99655000D01*
G37*
G36*
X165680000Y-99655000D02*
X162430000Y-99655000D01*
X162430000Y-97655000D01*
X165680000Y-97655000D01*
X165680000Y-99655000D01*
X165680000Y-99655000D01*
G37*
G36*
X170437000Y-99655000D02*
X167187000Y-99655000D01*
X167187000Y-97655000D01*
X170437000Y-97655000D01*
X170437000Y-99655000D01*
X170437000Y-99655000D01*
G37*
G36*
X174697000Y-99655000D02*
X171447000Y-99655000D01*
X171447000Y-97655000D01*
X174697000Y-97655000D01*
X174697000Y-99655000D01*
X174697000Y-99655000D01*
G37*
G36*
X179073000Y-99655000D02*
X175823000Y-99655000D01*
X175823000Y-97655000D01*
X179073000Y-97655000D01*
X179073000Y-99655000D01*
X179073000Y-99655000D01*
G37*
G36*
X183333000Y-99655000D02*
X180083000Y-99655000D01*
X180083000Y-97655000D01*
X183333000Y-97655000D01*
X183333000Y-99655000D01*
X183333000Y-99655000D01*
G37*
G36*
X156536000Y-99655000D02*
X153286000Y-99655000D01*
X153286000Y-97655000D01*
X156536000Y-97655000D01*
X156536000Y-99655000D01*
X156536000Y-99655000D01*
G37*
G36*
X187993712Y-93600888D02*
X188363510Y-93754063D01*
X188363513Y-93754065D01*
X188696325Y-93976443D01*
X188979357Y-94259475D01*
X189201735Y-94592287D01*
X189201737Y-94592290D01*
X189354912Y-94962088D01*
X189433000Y-95354664D01*
X189433000Y-95754936D01*
X189354912Y-96147512D01*
X189201737Y-96517310D01*
X189201735Y-96517313D01*
X188979357Y-96850125D01*
X188696325Y-97133157D01*
X188363513Y-97355535D01*
X188363510Y-97355537D01*
X187993712Y-97508712D01*
X187601136Y-97586800D01*
X187200864Y-97586800D01*
X186808288Y-97508712D01*
X186438490Y-97355537D01*
X186438487Y-97355535D01*
X186105675Y-97133157D01*
X185822643Y-96850125D01*
X185600265Y-96517313D01*
X185600263Y-96517310D01*
X185447088Y-96147512D01*
X185369000Y-95754936D01*
X185369000Y-95354664D01*
X185447088Y-94962088D01*
X185600263Y-94592290D01*
X185600265Y-94592287D01*
X185822643Y-94259475D01*
X186105675Y-93976443D01*
X186438487Y-93754065D01*
X186438490Y-93754063D01*
X186808288Y-93600888D01*
X187200864Y-93522800D01*
X187601136Y-93522800D01*
X187993712Y-93600888D01*
X187993712Y-93600888D01*
G37*
G36*
X170437000Y-96655000D02*
X167187000Y-96655000D01*
X167187000Y-94655000D01*
X170437000Y-94655000D01*
X170437000Y-96655000D01*
X170437000Y-96655000D01*
G37*
G36*
X183333000Y-96655000D02*
X180083000Y-96655000D01*
X180083000Y-94655000D01*
X183333000Y-94655000D01*
X183333000Y-96655000D01*
X183333000Y-96655000D01*
G37*
G36*
X152276000Y-96655000D02*
X149026000Y-96655000D01*
X149026000Y-94655000D01*
X152276000Y-94655000D01*
X152276000Y-96655000D01*
X152276000Y-96655000D01*
G37*
G36*
X174697000Y-96655000D02*
X171447000Y-96655000D01*
X171447000Y-94655000D01*
X174697000Y-94655000D01*
X174697000Y-96655000D01*
X174697000Y-96655000D01*
G37*
G36*
X156536000Y-96655000D02*
X153286000Y-96655000D01*
X153286000Y-94655000D01*
X156536000Y-94655000D01*
X156536000Y-96655000D01*
X156536000Y-96655000D01*
G37*
G36*
X161420000Y-96655000D02*
X158170000Y-96655000D01*
X158170000Y-94655000D01*
X161420000Y-94655000D01*
X161420000Y-96655000D01*
X161420000Y-96655000D01*
G37*
G36*
X165680000Y-96655000D02*
X162430000Y-96655000D01*
X162430000Y-94655000D01*
X165680000Y-94655000D01*
X165680000Y-96655000D01*
X165680000Y-96655000D01*
G37*
G36*
X179073000Y-96655000D02*
X175823000Y-96655000D01*
X175823000Y-94655000D01*
X179073000Y-94655000D01*
X179073000Y-96655000D01*
X179073000Y-96655000D01*
G37*
G36*
X160578000Y-92440000D02*
X157328000Y-92440000D01*
X157328000Y-90440000D01*
X160578000Y-90440000D01*
X160578000Y-92440000D01*
X160578000Y-92440000D01*
G37*
G36*
X156318000Y-92440000D02*
X153068000Y-92440000D01*
X153068000Y-90440000D01*
X156318000Y-90440000D01*
X156318000Y-92440000D01*
X156318000Y-92440000D01*
G37*
G36*
X156318000Y-89440000D02*
X153068000Y-89440000D01*
X153068000Y-87440000D01*
X156318000Y-87440000D01*
X156318000Y-89440000D01*
X156318000Y-89440000D01*
G37*
G36*
X160578000Y-89440000D02*
X157328000Y-89440000D01*
X157328000Y-87440000D01*
X160578000Y-87440000D01*
X160578000Y-89440000D01*
X160578000Y-89440000D01*
G37*
G36*
X189390000Y-89360000D02*
X187690000Y-89360000D01*
X187690000Y-87960000D01*
X189390000Y-87960000D01*
X189390000Y-89360000D01*
X189390000Y-89360000D01*
G37*
G36*
X177630000Y-89045000D02*
X176330000Y-89045000D01*
X176330000Y-88595000D01*
X177630000Y-88595000D01*
X177630000Y-89045000D01*
X177630000Y-89045000D01*
G37*
G36*
X179630000Y-89045000D02*
X178330000Y-89045000D01*
X178330000Y-88595000D01*
X179630000Y-88595000D01*
X179630000Y-89045000D01*
X179630000Y-89045000D01*
G37*
G36*
X149182712Y-81866088D02*
X149552510Y-82019263D01*
X149552513Y-82019265D01*
X149885325Y-82241643D01*
X150168357Y-82524675D01*
X150258778Y-82660000D01*
X150390737Y-82857490D01*
X150543912Y-83227288D01*
X150622000Y-83619864D01*
X150622000Y-84020136D01*
X150543912Y-84412712D01*
X150390737Y-84782510D01*
X150390735Y-84782513D01*
X150168357Y-85115325D01*
X149885325Y-85398357D01*
X149552513Y-85620735D01*
X149552510Y-85620737D01*
X149182712Y-85773912D01*
X148790136Y-85852000D01*
X148389864Y-85852000D01*
X147997288Y-85773912D01*
X147627490Y-85620737D01*
X147627487Y-85620735D01*
X147294675Y-85398357D01*
X147011643Y-85115325D01*
X146789265Y-84782513D01*
X146789263Y-84782510D01*
X146636088Y-84412712D01*
X146558000Y-84020136D01*
X146558000Y-83619864D01*
X146636088Y-83227288D01*
X146789263Y-82857490D01*
X146921222Y-82660000D01*
X147011643Y-82524675D01*
X147294675Y-82241643D01*
X147627487Y-82019265D01*
X147627490Y-82019263D01*
X147997288Y-81866088D01*
X148389864Y-81788000D01*
X148790136Y-81788000D01*
X149182712Y-81866088D01*
X149182712Y-81866088D01*
G37*
G36*
X188360000Y-85360000D02*
X187560000Y-85360000D01*
X187560000Y-84820000D01*
X188360000Y-84820000D01*
X188360000Y-85360000D01*
X188360000Y-85360000D01*
G37*
G36*
X175385000Y-85200000D02*
X174235000Y-85200000D01*
X174235000Y-84550000D01*
X175385000Y-84550000D01*
X175385000Y-85200000D01*
X175385000Y-85200000D01*
G37*
G36*
X175385000Y-83930000D02*
X174235000Y-83930000D01*
X174235000Y-83280000D01*
X175385000Y-83280000D01*
X175385000Y-83930000D01*
X175385000Y-83930000D01*
G37*
G36*
X175385000Y-82660000D02*
X174235000Y-82660000D01*
X174235000Y-82010000D01*
X175385000Y-82010000D01*
X175385000Y-82660000D01*
X175385000Y-82660000D01*
G37*
G36*
X175385000Y-81390000D02*
X174235000Y-81390000D01*
X174235000Y-80740000D01*
X175385000Y-80740000D01*
X175385000Y-81390000D01*
X175385000Y-81390000D01*
G37*
G36*
X188360000Y-80280000D02*
X187560000Y-80280000D01*
X187560000Y-79740000D01*
X188360000Y-79740000D01*
X188360000Y-80280000D01*
X188360000Y-80280000D01*
G37*
G36*
X175385000Y-80120000D02*
X174235000Y-80120000D01*
X174235000Y-79470000D01*
X175385000Y-79470000D01*
X175385000Y-80120000D01*
X175385000Y-80120000D01*
G37*
G36*
X175385000Y-78850000D02*
X174235000Y-78850000D01*
X174235000Y-78200000D01*
X175385000Y-78200000D01*
X175385000Y-78850000D01*
X175385000Y-78850000D01*
G37*
G36*
X146550000Y-77970000D02*
X145550000Y-77970000D01*
X145550000Y-76970000D01*
X146550000Y-76970000D01*
X146550000Y-77970000D01*
X146550000Y-77970000D01*
G37*
G36*
X189390000Y-77150000D02*
X187690000Y-77150000D01*
X187690000Y-75750000D01*
X189390000Y-75750000D01*
X189390000Y-77150000D01*
X189390000Y-77150000D01*
G37*
G36*
X177630000Y-76505000D02*
X176330000Y-76505000D01*
X176330000Y-76055000D01*
X177630000Y-76055000D01*
X177630000Y-76505000D01*
X177630000Y-76505000D01*
G37*
G36*
X179630000Y-76505000D02*
X178330000Y-76505000D01*
X178330000Y-76055000D01*
X179630000Y-76055000D01*
X179630000Y-76505000D01*
X179630000Y-76505000D01*
G37*
G36*
X189434183Y-71716900D02*
X189561574Y-71769668D01*
X189676225Y-71846275D01*
X189773725Y-71943775D01*
X189850332Y-72058426D01*
X189903100Y-72185817D01*
X189930000Y-72321055D01*
X189930000Y-72458945D01*
X189903100Y-72594183D01*
X189850332Y-72721574D01*
X189773725Y-72836225D01*
X189676225Y-72933725D01*
X189561574Y-73010332D01*
X189434183Y-73063100D01*
X189298945Y-73090000D01*
X189161055Y-73090000D01*
X189025817Y-73063100D01*
X188898426Y-73010332D01*
X188783775Y-72933725D01*
X188686275Y-72836225D01*
X188609668Y-72721574D01*
X188556900Y-72594183D01*
X188530000Y-72458945D01*
X188530000Y-72321055D01*
X188556900Y-72185817D01*
X188609668Y-72058426D01*
X188686275Y-71943775D01*
X188783775Y-71846275D01*
X188898426Y-71769668D01*
X189025817Y-71716900D01*
X189161055Y-71690000D01*
X189298945Y-71690000D01*
X189434183Y-71716900D01*
X189434183Y-71716900D01*
G37*
G36*
X164445183Y-70391000D02*
X164572574Y-70443768D01*
X164687225Y-70520375D01*
X164784725Y-70617875D01*
X164861332Y-70732526D01*
X164914100Y-70859917D01*
X164941000Y-70995155D01*
X164941000Y-71133045D01*
X164914100Y-71268283D01*
X164861332Y-71395674D01*
X164784725Y-71510325D01*
X164687225Y-71607825D01*
X164572574Y-71684432D01*
X164445183Y-71737200D01*
X164309945Y-71764100D01*
X164172055Y-71764100D01*
X164036817Y-71737200D01*
X163909426Y-71684432D01*
X163794775Y-71607825D01*
X163697275Y-71510325D01*
X163620668Y-71395674D01*
X163567900Y-71268283D01*
X163541000Y-71133045D01*
X163541000Y-70995155D01*
X163567900Y-70859917D01*
X163620668Y-70732526D01*
X163697275Y-70617875D01*
X163794775Y-70520375D01*
X163909426Y-70443768D01*
X164036817Y-70391000D01*
X164172055Y-70364100D01*
X164309945Y-70364100D01*
X164445183Y-70391000D01*
X164445183Y-70391000D01*
G37*
G36*
X161905183Y-70391000D02*
X162032574Y-70443768D01*
X162147225Y-70520375D01*
X162244725Y-70617875D01*
X162321332Y-70732526D01*
X162374100Y-70859917D01*
X162401000Y-70995155D01*
X162401000Y-71133045D01*
X162374100Y-71268283D01*
X162321332Y-71395674D01*
X162244725Y-71510325D01*
X162147225Y-71607825D01*
X162032574Y-71684432D01*
X161905183Y-71737200D01*
X161769945Y-71764100D01*
X161632055Y-71764100D01*
X161496817Y-71737200D01*
X161369426Y-71684432D01*
X161254775Y-71607825D01*
X161157275Y-71510325D01*
X161080668Y-71395674D01*
X161027900Y-71268283D01*
X161001000Y-71133045D01*
X161001000Y-70995155D01*
X161027900Y-70859917D01*
X161080668Y-70732526D01*
X161157275Y-70617875D01*
X161254775Y-70520375D01*
X161369426Y-70443768D01*
X161496817Y-70391000D01*
X161632055Y-70364100D01*
X161769945Y-70364100D01*
X161905183Y-70391000D01*
X161905183Y-70391000D01*
G37*
G36*
X166772183Y-70391000D02*
X166899574Y-70443768D01*
X167014225Y-70520375D01*
X167111725Y-70617875D01*
X167188332Y-70732526D01*
X167241100Y-70859917D01*
X167268000Y-70995155D01*
X167268000Y-71133045D01*
X167241100Y-71268283D01*
X167188332Y-71395674D01*
X167111725Y-71510325D01*
X167014225Y-71607825D01*
X166899574Y-71684432D01*
X166772183Y-71737200D01*
X166636945Y-71764100D01*
X166499055Y-71764100D01*
X166363817Y-71737200D01*
X166236426Y-71684432D01*
X166121775Y-71607825D01*
X166024275Y-71510325D01*
X165947668Y-71395674D01*
X165894900Y-71268283D01*
X165868000Y-71133045D01*
X165868000Y-70995155D01*
X165894900Y-70859917D01*
X165947668Y-70732526D01*
X166024275Y-70617875D01*
X166121775Y-70520375D01*
X166236426Y-70443768D01*
X166363817Y-70391000D01*
X166499055Y-70364100D01*
X166636945Y-70364100D01*
X166772183Y-70391000D01*
X166772183Y-70391000D01*
G37*
G36*
X169312183Y-70391000D02*
X169439574Y-70443768D01*
X169554225Y-70520375D01*
X169651725Y-70617875D01*
X169728332Y-70732526D01*
X169781100Y-70859917D01*
X169808000Y-70995155D01*
X169808000Y-71133045D01*
X169781100Y-71268283D01*
X169728332Y-71395674D01*
X169651725Y-71510325D01*
X169554225Y-71607825D01*
X169439574Y-71684432D01*
X169312183Y-71737200D01*
X169176945Y-71764100D01*
X169039055Y-71764100D01*
X168903817Y-71737200D01*
X168776426Y-71684432D01*
X168661775Y-71607825D01*
X168564275Y-71510325D01*
X168487668Y-71395674D01*
X168434900Y-71268283D01*
X168408000Y-71133045D01*
X168408000Y-70995155D01*
X168434900Y-70859917D01*
X168487668Y-70732526D01*
X168564275Y-70617875D01*
X168661775Y-70520375D01*
X168776426Y-70443768D01*
X168903817Y-70391000D01*
X169039055Y-70364100D01*
X169176945Y-70364100D01*
X169312183Y-70391000D01*
X169312183Y-70391000D01*
G37*
G36*
X147632000Y-71564100D02*
X146632000Y-71564100D01*
X146632000Y-70564100D01*
X147632000Y-70564100D01*
X147632000Y-71564100D01*
X147632000Y-71564100D01*
G37*
G36*
X155379000Y-71564100D02*
X154379000Y-71564100D01*
X154379000Y-70564100D01*
X155379000Y-70564100D01*
X155379000Y-71564100D01*
X155379000Y-71564100D01*
G37*
G36*
X149159000Y-71564100D02*
X148159000Y-71564100D01*
X148159000Y-70564100D01*
X149159000Y-70564100D01*
X149159000Y-71564100D01*
X149159000Y-71564100D01*
G37*
G36*
X150693000Y-71564100D02*
X149693000Y-71564100D01*
X149693000Y-70564100D01*
X150693000Y-70564100D01*
X150693000Y-71564100D01*
X150693000Y-71564100D01*
G37*
G36*
X153794000Y-71564100D02*
X152794000Y-71564100D01*
X152794000Y-70564100D01*
X153794000Y-70564100D01*
X153794000Y-71564100D01*
X153794000Y-71564100D01*
G37*
G36*
X152222000Y-71564100D02*
X151222000Y-71564100D01*
X151222000Y-70564100D01*
X152222000Y-70564100D01*
X152222000Y-71564100D01*
X152222000Y-71564100D01*
G37*
G36*
X156961000Y-71564100D02*
X155961000Y-71564100D01*
X155961000Y-70564100D01*
X156961000Y-70564100D01*
X156961000Y-71564100D01*
X156961000Y-71564100D01*
G37*
G36*
X158526000Y-71564100D02*
X157526000Y-71564100D01*
X157526000Y-70564100D01*
X158526000Y-70564100D01*
X158526000Y-71564100D01*
X158526000Y-71564100D01*
G37*
G36*
X189434183Y-69176900D02*
X189561574Y-69229668D01*
X189676224Y-69306274D01*
X189773726Y-69403776D01*
X189850332Y-69518426D01*
X189903100Y-69645817D01*
X189930000Y-69781055D01*
X189930000Y-69918945D01*
X189903100Y-70054183D01*
X189850332Y-70181574D01*
X189773725Y-70296225D01*
X189676225Y-70393725D01*
X189561574Y-70470332D01*
X189434183Y-70523100D01*
X189298945Y-70550000D01*
X189161055Y-70550000D01*
X189025817Y-70523100D01*
X188898426Y-70470332D01*
X188783775Y-70393725D01*
X188686275Y-70296225D01*
X188609668Y-70181574D01*
X188556900Y-70054183D01*
X188530000Y-69918945D01*
X188530000Y-69781055D01*
X188556900Y-69645817D01*
X188609668Y-69518426D01*
X188686274Y-69403776D01*
X188783776Y-69306274D01*
X188898426Y-69229668D01*
X189025817Y-69176900D01*
X189161055Y-69150000D01*
X189298945Y-69150000D01*
X189434183Y-69176900D01*
X189434183Y-69176900D01*
G37*
G36*
X181350000Y-70450000D02*
X171950000Y-70450000D01*
X171950000Y-69450000D01*
X181350000Y-69450000D01*
X181350000Y-70450000D01*
X181350000Y-70450000D01*
G37*
M02*
