G04 #@! TF.GenerationSoftware,KiCad,Pcbnew,5.0.2*
G04 #@! TF.CreationDate,2019-03-01T11:34:39+03:00*
G04 #@! TF.ProjectId,xmobile,786d6f62-696c-4652-9e6b-696361645f70,rev?*
G04 #@! TF.SameCoordinates,Original*
G04 #@! TF.FileFunction,Copper,L2,Inr*
G04 #@! TF.FilePolarity,Positive*
%FSLAX46Y46*%
G04 Gerber Fmt 4.6, Leading zero omitted, Abs format (unit mm)*
G04 Created by KiCad (PCBNEW 5.0.2) date Пт 01 мар 2019 11:34:39*
%MOMM*%
%LPD*%
G01*
G04 APERTURE LIST*
G04 #@! TA.AperFunction,ViaPad*
%ADD10C,1.400000*%
G04 #@! TD*
G04 #@! TA.AperFunction,ViaPad*
%ADD11C,4.064000*%
G04 #@! TD*
G04 #@! TA.AperFunction,ViaPad*
%ADD12R,1.000000X1.000000*%
G04 #@! TD*
G04 #@! TA.AperFunction,ViaPad*
%ADD13C,0.800000*%
G04 #@! TD*
G04 #@! TA.AperFunction,Conductor*
%ADD14C,0.250000*%
G04 #@! TD*
G04 APERTURE END LIST*
D10*
G04 #@! TO.N,/audio/AUDIO_MICP*
G04 #@! TO.C,W3*
X166568000Y-71064100D03*
G04 #@! TO.N,/audio/AUDIO_MICN*
X169108000Y-71064100D03*
G04 #@! TD*
D11*
G04 #@! TO.N,N/C*
G04 #@! TO.C,h3*
X148590000Y-83820000D03*
G04 #@! TD*
G04 #@! TO.N,N/C*
G04 #@! TO.C,h4*
X187401000Y-95554800D03*
G04 #@! TD*
G04 #@! TO.N,N/C*
G04 #@! TO.C,h2*
X178905000Y-137109000D03*
G04 #@! TD*
G04 #@! TO.N,N/C*
G04 #@! TO.C,H1*
X152044000Y-137109000D03*
G04 #@! TD*
D10*
G04 #@! TO.N,GND*
G04 #@! TO.C,J2*
X189230000Y-72390000D03*
G04 #@! TO.N,Net-(J2-Pad2)*
X189230000Y-69850000D03*
G04 #@! TD*
D12*
G04 #@! TO.N,Net-(J3-Pad1)*
G04 #@! TO.C,J3*
X158026000Y-71064100D03*
G04 #@! TD*
D10*
G04 #@! TO.N,GND*
G04 #@! TO.C,W1*
X189230000Y-106680000D03*
G04 #@! TO.N,3.3V*
X189230000Y-104140000D03*
G04 #@! TD*
G04 #@! TO.N,/PDI_D*
G04 #@! TO.C,W2*
X189230000Y-99060000D03*
G04 #@! TO.N,/PDI_C*
X189230000Y-101600000D03*
G04 #@! TD*
G04 #@! TO.N,/audio/AUDIO_SPKN*
G04 #@! TO.C,W4*
X161701000Y-71064100D03*
G04 #@! TO.N,/audio/AUDIO_SPKP*
X164241000Y-71064100D03*
G04 #@! TD*
D12*
G04 #@! TO.N,Net-(C21-Pad1)*
G04 #@! TO.C,W5*
X189230000Y-133119000D03*
G04 #@! TD*
G04 #@! TO.N,Net-(C22-Pad1)*
G04 #@! TO.C,W6*
X146050000Y-132326000D03*
G04 #@! TD*
D10*
G04 #@! TO.N,GND*
G04 #@! TO.C,W7*
X189230000Y-123190000D03*
G04 #@! TO.N,Net-(C23-Pad2)*
X189230000Y-125730000D03*
G04 #@! TD*
G04 #@! TO.N,Net-(C24-Pad2)*
G04 #@! TO.C,W8*
X146050000Y-129830000D03*
G04 #@! TO.N,GND*
X146050000Y-127290000D03*
G04 #@! TD*
D12*
G04 #@! TO.N,/GSM_RTS*
G04 #@! TO.C,W9*
X156461000Y-71064100D03*
G04 #@! TD*
G04 #@! TO.N,/GSM_DTR*
G04 #@! TO.C,W10*
X151722000Y-71064100D03*
G04 #@! TD*
G04 #@! TO.N,/GSM_CTS*
G04 #@! TO.C,W11*
X154879000Y-71064100D03*
G04 #@! TD*
G04 #@! TO.N,/GSM_DCD*
G04 #@! TO.C,W12*
X153294000Y-71064100D03*
G04 #@! TD*
G04 #@! TO.N,/GSM_RI*
G04 #@! TO.C,W13*
X150193000Y-71064100D03*
G04 #@! TD*
G04 #@! TO.N,Net-(U8-Pad20)*
G04 #@! TO.C,W14*
X146050000Y-108232000D03*
G04 #@! TD*
G04 #@! TO.N,/GSM_TXD*
G04 #@! TO.C,W15*
X148659000Y-71064100D03*
G04 #@! TD*
G04 #@! TO.N,/GSM_RXD*
G04 #@! TO.C,W16*
X147132000Y-71064100D03*
G04 #@! TD*
D10*
G04 #@! TO.N,GND*
G04 #@! TO.C,W17*
X146050000Y-105334000D03*
G04 #@! TO.N,Net-(U8-Pad28)*
X146050000Y-102794000D03*
G04 #@! TD*
D12*
G04 #@! TO.N,Net-(U8-Pad32)*
G04 #@! TO.C,W18*
X146050000Y-77470000D03*
G04 #@! TD*
G04 #@! TO.N,3.3V*
G04 #@! TO.C,J5*
X180850000Y-69950000D03*
G04 #@! TD*
G04 #@! TO.N,GND*
G04 #@! TO.C,J6*
X179650000Y-69950000D03*
G04 #@! TD*
G04 #@! TO.N,/EPD_DIN*
G04 #@! TO.C,J7*
X178450000Y-69950000D03*
G04 #@! TD*
G04 #@! TO.N,/EPD_CLK*
G04 #@! TO.C,J8*
X177250000Y-69950000D03*
G04 #@! TD*
G04 #@! TO.N,/EPD_CS*
G04 #@! TO.C,J9*
X176050000Y-69950000D03*
G04 #@! TD*
G04 #@! TO.N,/EPD_DC*
G04 #@! TO.C,J10*
X174850000Y-69950000D03*
G04 #@! TD*
G04 #@! TO.N,/EPD_RST*
G04 #@! TO.C,J11*
X173650000Y-69950000D03*
G04 #@! TD*
G04 #@! TO.N,/EPD_BUSY*
G04 #@! TO.C,J12*
X172450000Y-69950000D03*
G04 #@! TD*
D13*
G04 #@! TO.N,3.3V*
X183969600Y-91740100D03*
G04 #@! TO.N,GND*
X168330300Y-117068500D03*
X186352400Y-88899200D03*
X174046900Y-74147200D03*
X156691900Y-86522700D03*
X178897000Y-71750300D03*
G04 #@! TO.N,/audio/AUDIO_SPKP*
X155960900Y-78729900D03*
X163261000Y-102294700D03*
G04 #@! TO.N,/audio/AUDIO_SPKN*
X162942800Y-101144200D03*
X153829700Y-80475100D03*
G04 #@! TO.N,/audio/AUDIO_MICP*
X163523400Y-94027300D03*
X162280900Y-75120200D03*
X160527300Y-78203600D03*
G04 #@! TO.N,/audio/AUDIO_MICN*
X164938400Y-75186200D03*
G04 #@! TO.N,Net-(C32-Pad1)*
X173627800Y-83514500D03*
X162165300Y-109045300D03*
X155034200Y-108976000D03*
G04 #@! TO.N,Net-(C33-Pad1)*
X173591300Y-79965700D03*
X161353900Y-110301300D03*
G04 #@! TO.N,/xmobile_GSM/USB_VBUS*
X152745700Y-102434300D03*
X166308000Y-130619100D03*
G04 #@! TO.N,Net-(D18-Pad3)*
X150379700Y-110137200D03*
X159143500Y-110208700D03*
X168087600Y-81229600D03*
G04 #@! TO.N,Net-(D18-Pad4)*
X173244500Y-85911100D03*
X160261700Y-110240000D03*
X150951900Y-108973300D03*
G04 #@! TO.N,Net-(D19-Pad1)*
X156052600Y-81518800D03*
X149338300Y-75890100D03*
G04 #@! TO.N,/microSD_DO*
X148211100Y-121438600D03*
X173583900Y-77265300D03*
G04 #@! TO.N,/microSD_SCLK*
X153342300Y-117163400D03*
X174584300Y-76915000D03*
G04 #@! TO.N,/microSD_DI*
X148126600Y-117987300D03*
X173260900Y-78265700D03*
G04 #@! TO.N,/microSD_CS*
X150937000Y-116670900D03*
X175992800Y-80896100D03*
G04 #@! TO.N,Net-(J2-Pad2)*
X179793900Y-86980500D03*
G04 #@! TO.N,Net-(J3-Pad1)*
X168050200Y-79153600D03*
G04 #@! TO.N,/EPD_BUSY*
X171561600Y-88052600D03*
G04 #@! TO.N,/EPD_RST*
X171564400Y-89134600D03*
G04 #@! TO.N,/EPD_DC*
X173120100Y-89520700D03*
G04 #@! TO.N,/EPD_CS*
X168166700Y-80154100D03*
G04 #@! TO.N,/EPD_CLK*
X170880200Y-79711100D03*
G04 #@! TO.N,/EPD_DIN*
X170905700Y-78710400D03*
G04 #@! TO.N,/xmobile_GSM/PWRKEY*
X163190600Y-85700300D03*
X159309900Y-86323700D03*
G04 #@! TO.N,/PDI_C*
X173237500Y-88065900D03*
X183819700Y-100040600D03*
G04 #@! TO.N,/xmobile_keyboard/LED1*
X166624700Y-125194800D03*
X159456000Y-118667500D03*
G04 #@! TO.N,/xmobile_keyboard/LED2*
X176874400Y-125370000D03*
X158045700Y-118658200D03*
G04 #@! TO.N,/xmobile_keyboard/LED3*
X171238200Y-118687600D03*
X157772700Y-121810800D03*
G04 #@! TO.N,/xmobile_keyboard/LED4*
X174341800Y-124912100D03*
X160493200Y-124897500D03*
G04 #@! TO.N,/KBD_SDA*
X170872600Y-82144100D03*
X167201100Y-118669300D03*
G04 #@! TO.N,/KBD_SCL*
X168188100Y-82247600D03*
X166521600Y-122189400D03*
G04 #@! TO.N,/KBD_INT*
X173204500Y-92211100D03*
X166551700Y-123214600D03*
X168299000Y-118568200D03*
G04 #@! TO.N,/GSM_RTS*
X167112200Y-88930500D03*
G04 #@! TO.N,/GSM_DTR*
X171864500Y-94040200D03*
G04 #@! TO.N,/GSM_CTS*
X168343300Y-94021000D03*
G04 #@! TO.N,/GSM_DCD*
X170636900Y-94028900D03*
X168454600Y-76435800D03*
G04 #@! TO.N,/GSM_RI*
X168548600Y-100262300D03*
G04 #@! TO.N,/GSM_TXD*
X163296700Y-82282200D03*
G04 #@! TO.N,/GSM_RXD*
X162416900Y-84871900D03*
G04 #@! TO.N,/xmobile_keyboard/R0*
X157103900Y-127385500D03*
X166261100Y-126905600D03*
G04 #@! TO.N,/xmobile_keyboard/C0*
X165270600Y-117808300D03*
G04 #@! TO.N,/xmobile_keyboard/R1*
X157420800Y-114435600D03*
X163769500Y-125579300D03*
G04 #@! TO.N,/xmobile_keyboard/R2*
X176288800Y-118646200D03*
X164314300Y-126452800D03*
G04 #@! TO.N,/xmobile_keyboard/R3*
X157426700Y-112897100D03*
X156519300Y-118686600D03*
G04 #@! TO.N,/xmobile_keyboard/R4*
X171042600Y-97207100D03*
X175417700Y-125644400D03*
X161699600Y-118686500D03*
X170900200Y-110624900D03*
G04 #@! TO.N,/xmobile_keyboard/C1*
X177958800Y-116664900D03*
X164009700Y-118228500D03*
G04 #@! TO.N,/xmobile_keyboard/C2*
X165308800Y-116692800D03*
X168263100Y-134000800D03*
X157156000Y-123423300D03*
G04 #@! TO.N,/xmobile_keyboard/C3*
X167509900Y-101333100D03*
X169116400Y-110233500D03*
G04 #@! TO.N,/OE*
X175512900Y-101799200D03*
X180819900Y-79710400D03*
G04 #@! TO.N,/CE2*
X180050400Y-81488700D03*
X176295900Y-100483400D03*
G04 #@! TO.N,/CE1*
X187404600Y-102985600D03*
X186396600Y-80749700D03*
G04 #@! TO.N,/D4*
X178480600Y-108749500D03*
X182123800Y-86364200D03*
G04 #@! TO.N,/D1*
X187091800Y-105988700D03*
X187173200Y-90309000D03*
G04 #@! TO.N,/A17*
X186469300Y-115104700D03*
X186205800Y-82163300D03*
G04 #@! TO.N,/D5*
X177479500Y-108661100D03*
X181086500Y-86217700D03*
G04 #@! TO.N,/D2*
X186468600Y-109418300D03*
X186139700Y-90132200D03*
G04 #@! TO.N,/A16*
X184408400Y-115956000D03*
X183479400Y-81377900D03*
G04 #@! TO.N,/D6*
X179680700Y-97144000D03*
X186345900Y-87585400D03*
G04 #@! TO.N,/D3*
X186468600Y-110437400D03*
X186327500Y-86572600D03*
G04 #@! TO.N,/A14*
X176264600Y-116936300D03*
X184817800Y-76459100D03*
G04 #@! TO.N,/A15*
X184409100Y-116961300D03*
X186200200Y-77429600D03*
G04 #@! TO.N,/D7*
X179194200Y-101442500D03*
X182098100Y-87872200D03*
G04 #@! TO.N,/A12*
X179206600Y-110430000D03*
X182410800Y-77753300D03*
G04 #@! TO.N,/A13*
X180347600Y-110423200D03*
X183190000Y-76958000D03*
G04 #@! TO.N,/WE*
X186196500Y-79210400D03*
X186480500Y-112756000D03*
G04 #@! TO.N,/A18*
X182412100Y-110397700D03*
X182609600Y-84236200D03*
G04 #@! TO.N,/A8*
X173439800Y-102308400D03*
X180743600Y-76899400D03*
G04 #@! TO.N,/A9*
X172806200Y-110413800D03*
X181190000Y-74202900D03*
G04 #@! TO.N,/A10*
X176870500Y-110431500D03*
X180785700Y-77899800D03*
G04 #@! TO.N,/A11*
X178100100Y-110412200D03*
X182248700Y-74196100D03*
G04 #@! TO.N,/A19*
X184420400Y-113556000D03*
X183491800Y-83048500D03*
G04 #@! TO.N,/PDI_D*
X179672400Y-87984500D03*
G04 #@! TO.N,/GSM_STATUS*
X168998800Y-89985500D03*
X162048400Y-89696000D03*
G04 #@! TO.N,/xmobile_GSM/USB_DP*
X151753600Y-101372800D03*
X166288100Y-132718000D03*
G04 #@! TO.N,/xmobile_GSM/USB_DN*
X152483200Y-100683700D03*
X166307300Y-131650000D03*
G04 #@! TD*
D14*
G04 #@! TO.N,3.3V*
X189230000Y-104140000D02*
X186852300Y-104140000D01*
X186852300Y-104140000D02*
X183072600Y-100360300D01*
X183072600Y-100360300D02*
X183072600Y-92637100D01*
X183072600Y-92637100D02*
X183969600Y-91740100D01*
G04 #@! TO.N,GND*
X181922200Y-115882200D02*
X189230000Y-123190000D01*
X189230000Y-106680000D02*
X188181200Y-106680000D01*
X188181200Y-106680000D02*
X181922200Y-112939000D01*
X181922200Y-112939000D02*
X181922200Y-115882200D01*
X181922200Y-115882200D02*
X169516600Y-115882200D01*
X169516600Y-115882200D02*
X168330300Y-117068500D01*
X146050000Y-127290000D02*
X145224600Y-126464600D01*
X145224600Y-126464600D02*
X145224600Y-106159400D01*
X145224600Y-106159400D02*
X146050000Y-105334000D01*
X179536700Y-72390000D02*
X178897000Y-71750300D01*
X189230000Y-72390000D02*
X179536700Y-72390000D01*
X179650000Y-70997300D02*
X179650000Y-69950000D01*
X178897000Y-71750300D02*
X179650000Y-70997300D01*
G04 #@! TO.N,/audio/AUDIO_SPKN*
X153829700Y-80475100D02*
X153829700Y-92031100D01*
X153829700Y-92031100D02*
X162942800Y-101144200D01*
G04 #@! TO.N,/audio/AUDIO_MICN*
X164938400Y-75186200D02*
X164985900Y-75186200D01*
X164985900Y-75186200D02*
X169108000Y-71064100D01*
G04 #@! TO.N,Net-(C32-Pad1)*
X173627800Y-83514500D02*
X173969800Y-83856500D01*
X173969800Y-83856500D02*
X173969800Y-96668100D01*
X173969800Y-96668100D02*
X162165300Y-108472600D01*
X162165300Y-108472600D02*
X162165300Y-109045300D01*
G04 #@! TO.N,Net-(C33-Pad1)*
X173591300Y-79965700D02*
X174420100Y-80794500D01*
X174420100Y-80794500D02*
X174420100Y-96854700D01*
X174420100Y-96854700D02*
X170763400Y-100511400D01*
X170763400Y-100511400D02*
X170763400Y-101511000D01*
X170763400Y-101511000D02*
X161973100Y-110301300D01*
X161973100Y-110301300D02*
X161353900Y-110301300D01*
G04 #@! TO.N,Net-(D18-Pad3)*
X159143500Y-110208700D02*
X159072000Y-110137200D01*
X159072000Y-110137200D02*
X150379700Y-110137200D01*
G04 #@! TO.N,Net-(D18-Pad4)*
X173244500Y-85911100D02*
X172342300Y-86813300D01*
X172342300Y-86813300D02*
X172342300Y-93243100D01*
X172342300Y-93243100D02*
X172619400Y-93520200D01*
X172619400Y-93520200D02*
X172619400Y-97315500D01*
X172619400Y-97315500D02*
X161684300Y-108250600D01*
X161684300Y-108250600D02*
X160261700Y-108250600D01*
X160261700Y-108250600D02*
X160261700Y-110240000D01*
X150951900Y-108973300D02*
X151674600Y-108250600D01*
X151674600Y-108250600D02*
X160261700Y-108250600D01*
G04 #@! TO.N,Net-(D19-Pad1)*
X156052600Y-81518800D02*
X150424000Y-75890200D01*
X150424000Y-75890200D02*
X149338300Y-75890200D01*
X149338300Y-75890200D02*
X149338300Y-75890100D01*
G04 #@! TO.N,/microSD_DO*
X173583900Y-77265300D02*
X176725400Y-80406800D01*
X176725400Y-80406800D02*
X176725400Y-81895100D01*
X176725400Y-81895100D02*
X175771000Y-82849500D01*
X175771000Y-82849500D02*
X175771000Y-97414500D01*
X175771000Y-97414500D02*
X172114300Y-101071200D01*
X172114300Y-101071200D02*
X172114300Y-102070800D01*
X172114300Y-102070800D02*
X162013300Y-112171800D01*
X162013300Y-112171800D02*
X157126300Y-112171800D01*
X157126300Y-112171800D02*
X148211100Y-121087000D01*
X148211100Y-121087000D02*
X148211100Y-121438600D01*
G04 #@! TO.N,/microSD_SCLK*
X172564600Y-101257800D02*
X172564600Y-102257400D01*
X172564600Y-102257400D02*
X161111800Y-113710200D01*
X177175700Y-82081800D02*
X176221300Y-83036200D01*
X176221300Y-97601100D02*
X172564600Y-101257800D01*
X176221300Y-83036200D02*
X176221300Y-97601100D01*
X161111800Y-113710200D02*
X156795500Y-113710200D01*
X156795500Y-113710200D02*
X153342300Y-117163400D01*
X177175700Y-79506400D02*
X177175700Y-82081800D01*
X174584300Y-76915000D02*
X177175700Y-79506400D01*
G04 #@! TO.N,/microSD_DI*
X173260900Y-78265700D02*
X174870400Y-79875200D01*
X174870400Y-79875200D02*
X174870400Y-97041300D01*
X174870400Y-97041300D02*
X171213700Y-100698000D01*
X171213700Y-100698000D02*
X171213700Y-101697600D01*
X171213700Y-101697600D02*
X161884700Y-111026600D01*
X161884700Y-111026600D02*
X155087300Y-111026600D01*
X155087300Y-111026600D02*
X148126600Y-117987300D01*
G04 #@! TO.N,/microSD_CS*
X175992800Y-80896100D02*
X175320700Y-81568200D01*
X175320700Y-81568200D02*
X175320700Y-97227900D01*
X175320700Y-97227900D02*
X171664000Y-100884600D01*
X171664000Y-100884600D02*
X171664000Y-101884200D01*
X171664000Y-101884200D02*
X162071300Y-111476900D01*
X162071300Y-111476900D02*
X156131000Y-111476900D01*
X156131000Y-111476900D02*
X150937000Y-116670900D01*
G04 #@! TO.N,Net-(J3-Pad1)*
X158026000Y-71889400D02*
X158026000Y-71891000D01*
X158026000Y-71891000D02*
X165288600Y-79153600D01*
X165288600Y-79153600D02*
X168050200Y-79153600D01*
X158026000Y-71064100D02*
X158026000Y-71889400D01*
G04 #@! TO.N,/EPD_CS*
X169182400Y-77982400D02*
X169182400Y-79138400D01*
X169182400Y-79138400D02*
X168166700Y-80154100D01*
X176050000Y-71114800D02*
X176050000Y-69950000D01*
X175264800Y-71900000D02*
X176050000Y-71114800D01*
X175414500Y-71750300D02*
X175264800Y-71900000D01*
X175264800Y-71900000D02*
X169182400Y-77982400D01*
G04 #@! TO.N,/EPD_CLK*
X170880200Y-79711100D02*
X170180300Y-79011200D01*
X170180300Y-79011200D02*
X170180300Y-78370700D01*
X170180300Y-78370700D02*
X173678500Y-74872500D01*
X173678500Y-74872500D02*
X174347400Y-74872500D01*
X174347400Y-74872500D02*
X176897000Y-72322900D01*
X177250000Y-71969900D02*
X177250000Y-69950000D01*
X176897000Y-72322900D02*
X177250000Y-71969900D01*
G04 #@! TO.N,/EPD_DIN*
X170905700Y-78710400D02*
X174293300Y-75322800D01*
X174293300Y-75322800D02*
X174534000Y-75322800D01*
X174534000Y-75322800D02*
X177897000Y-71959800D01*
X177897000Y-71253000D02*
X177897000Y-71959800D01*
X178450000Y-70700000D02*
X177897000Y-71253000D01*
X178450000Y-69950000D02*
X178450000Y-70700000D01*
G04 #@! TO.N,/PDI_C*
X189230000Y-101600000D02*
X187670600Y-100040600D01*
X187670600Y-100040600D02*
X183819700Y-100040600D01*
G04 #@! TO.N,/xmobile_keyboard/LED3*
X157772700Y-121810800D02*
X159184700Y-120398800D01*
X159184700Y-120398800D02*
X169527000Y-120398800D01*
X169527000Y-120398800D02*
X171238200Y-118687600D01*
G04 #@! TO.N,/xmobile_keyboard/LED4*
X160493200Y-124897500D02*
X162773800Y-127178100D01*
X162773800Y-127178100D02*
X164820200Y-127178100D01*
X164820200Y-127178100D02*
X165818000Y-126180300D01*
X165818000Y-126180300D02*
X173073600Y-126180300D01*
X173073600Y-126180300D02*
X174341800Y-124912100D01*
G04 #@! TO.N,/GSM_RTS*
X156461000Y-71064100D02*
X156461000Y-71889400D01*
X156461000Y-71889400D02*
X167112200Y-82540600D01*
X167112200Y-82540600D02*
X167112200Y-88930500D01*
G04 #@! TO.N,/GSM_DTR*
X151722000Y-71889400D02*
X159746800Y-79914200D01*
X159746800Y-79914200D02*
X162658200Y-79914200D01*
X162658200Y-79914200D02*
X165045800Y-82301800D01*
X165045800Y-82301800D02*
X165045800Y-91828800D01*
X165045800Y-91828800D02*
X167989300Y-94772300D01*
X167989300Y-94772300D02*
X171132400Y-94772300D01*
X171132400Y-94772300D02*
X171864500Y-94040200D01*
X151722000Y-71064100D02*
X151722000Y-71889400D01*
G04 #@! TO.N,/GSM_CTS*
X154879000Y-71064100D02*
X154879000Y-71889400D01*
X154879000Y-71889400D02*
X155291600Y-71889400D01*
X155291600Y-71889400D02*
X165809500Y-82407300D01*
X165809500Y-82407300D02*
X165809500Y-91487200D01*
X165809500Y-91487200D02*
X168343300Y-94021000D01*
G04 #@! TO.N,/GSM_DCD*
X153294000Y-71064100D02*
X154119400Y-70238700D01*
X154119400Y-70238700D02*
X158965200Y-70238700D01*
X158965200Y-70238700D02*
X165162300Y-76435800D01*
X165162300Y-76435800D02*
X168454600Y-76435800D01*
G04 #@! TO.N,/GSM_RI*
X150193000Y-71064100D02*
X160602800Y-81473900D01*
X160602800Y-81473900D02*
X163581000Y-81473900D01*
X163581000Y-81473900D02*
X164336000Y-82228900D01*
X164336000Y-82228900D02*
X164336000Y-96049700D01*
X164336000Y-96049700D02*
X168548600Y-100262300D01*
G04 #@! TO.N,/GSM_TXD*
X148659000Y-71064100D02*
X155209700Y-77614800D01*
X155209700Y-77614800D02*
X155905400Y-77614800D01*
X155905400Y-77614800D02*
X160572800Y-82282200D01*
X160572800Y-82282200D02*
X163296700Y-82282200D01*
G04 #@! TO.N,/GSM_RXD*
X147132000Y-71064100D02*
X160939800Y-84871900D01*
X160939800Y-84871900D02*
X162416900Y-84871900D01*
G04 #@! TO.N,/xmobile_keyboard/R0*
X157103900Y-127385500D02*
X157346800Y-127628400D01*
X157346800Y-127628400D02*
X165538300Y-127628400D01*
X165538300Y-127628400D02*
X166261100Y-126905600D01*
G04 #@! TO.N,/xmobile_keyboard/R1*
X163769500Y-125579300D02*
X161137500Y-122947300D01*
X161137500Y-122947300D02*
X157875700Y-122947300D01*
X157875700Y-122947300D02*
X157025800Y-122097400D01*
X157025800Y-122097400D02*
X157025800Y-119205900D01*
X157025800Y-119205900D02*
X157255800Y-118975900D01*
X157255800Y-118975900D02*
X157255800Y-114600600D01*
X157255800Y-114600600D02*
X157420800Y-114435600D01*
G04 #@! TO.N,/xmobile_keyboard/R2*
X164314300Y-126452800D02*
X166629900Y-124137200D01*
X166629900Y-124137200D02*
X170797800Y-124137200D01*
X170797800Y-124137200D02*
X176288800Y-118646200D01*
G04 #@! TO.N,/xmobile_keyboard/R4*
X161699600Y-118686500D02*
X169761200Y-110624900D01*
X169761200Y-110624900D02*
X170900200Y-110624900D01*
G04 #@! TO.N,/xmobile_keyboard/C1*
X164009700Y-118228500D02*
X164376500Y-118595300D01*
X164376500Y-118595300D02*
X165989900Y-118595300D01*
X165989900Y-118595300D02*
X166791300Y-117793900D01*
X166791300Y-117793900D02*
X176829800Y-117793900D01*
X176829800Y-117793900D02*
X177958800Y-116664900D01*
G04 #@! TO.N,/OE*
X175512900Y-101799200D02*
X175512900Y-99368200D01*
X175512900Y-99368200D02*
X176718600Y-98162500D01*
X176718600Y-98162500D02*
X176718600Y-83686400D01*
X176718600Y-83686400D02*
X180694600Y-79710400D01*
X180694600Y-79710400D02*
X180819900Y-79710400D01*
G04 #@! TO.N,/CE2*
X176295900Y-100483400D02*
X177169000Y-99610300D01*
X177169000Y-99610300D02*
X177169000Y-84370100D01*
X177169000Y-84370100D02*
X180050400Y-81488700D01*
G04 #@! TO.N,/D6*
X179680700Y-97144000D02*
X179680700Y-94250600D01*
X179680700Y-94250600D02*
X186345900Y-87585400D01*
G04 #@! TO.N,/A12*
X179206600Y-110430000D02*
X179206600Y-107785300D01*
X179206600Y-107785300D02*
X178463500Y-107042200D01*
X178463500Y-107042200D02*
X178463500Y-84744900D01*
X178463500Y-84744900D02*
X181227400Y-81981000D01*
X181227400Y-81981000D02*
X181227400Y-81903500D01*
X181227400Y-81903500D02*
X182410800Y-80720100D01*
X182410800Y-80720100D02*
X182410800Y-77753300D01*
G04 #@! TO.N,/A13*
X180347600Y-110423200D02*
X180347600Y-98836600D01*
X180347600Y-98836600D02*
X178916300Y-97405300D01*
X178916300Y-97405300D02*
X178916300Y-85167200D01*
X178916300Y-85167200D02*
X181677800Y-82405700D01*
X181677800Y-82405700D02*
X181677800Y-82090300D01*
X181677800Y-82090300D02*
X183190000Y-80578100D01*
X183190000Y-80578100D02*
X183190000Y-76958000D01*
G04 #@! TO.N,/A11*
X182248700Y-74196100D02*
X181570900Y-74873900D01*
X181570900Y-74873900D02*
X181570900Y-80849400D01*
X181570900Y-80849400D02*
X180777100Y-81643200D01*
X180777100Y-81643200D02*
X180777100Y-81794400D01*
X180777100Y-81794400D02*
X177984900Y-84586600D01*
X177984900Y-84586600D02*
X177984900Y-105266300D01*
X177984900Y-105266300D02*
X176754100Y-106497100D01*
X176754100Y-106497100D02*
X176754100Y-109066200D01*
X176754100Y-109066200D02*
X178100100Y-110412200D01*
G04 #@! TO.N,/PDI_D*
X179672400Y-87984500D02*
X180960100Y-87984500D01*
X180960100Y-87984500D02*
X181803700Y-87140900D01*
X181803700Y-87140900D02*
X182449600Y-87140900D01*
X182449600Y-87140900D02*
X183752800Y-85837700D01*
X183752800Y-85837700D02*
X186649600Y-85837700D01*
X186649600Y-85837700D02*
X189786700Y-88974800D01*
X189786700Y-88974800D02*
X189786700Y-98503300D01*
X189786700Y-98503300D02*
X189230000Y-99060000D01*
G04 #@! TD*
M02*
