M48
;DRILL file {KiCad 5.0.2} date Пт 01 мар 2019 11:34:23
;FORMAT={-:-/ absolute / metric / decimal}
FMAT,2
METRIC,TZ
T1C0.400
T2C0.500
T3C0.800
T4C3.048
%
G90
G05
T1
X148.127Y-117.987
X148.211Y-121.439
X149.338Y-75.89
X150.38Y-110.137
X150.937Y-116.671
X150.952Y-108.973
X151.754Y-101.373
X152.483Y-100.684
X152.746Y-102.434
X153.342Y-117.163
X153.83Y-80.475
X155.034Y-108.976
X155.961Y-78.73
X156.053Y-81.519
X156.519Y-118.687
X156.692Y-86.523
X157.104Y-127.385
X157.156Y-123.423
X157.421Y-114.436
X157.427Y-112.897
X157.773Y-121.811
X158.046Y-118.658
X159.143Y-110.209
X159.31Y-86.324
X159.456Y-118.667
X160.262Y-110.24
X160.493Y-124.897
X160.527Y-78.204
X161.354Y-110.301
X161.7Y-118.686
X162.048Y-89.696
X162.165Y-109.045
X162.281Y-75.12
X162.417Y-84.872
X162.943Y-101.144
X163.191Y-85.7
X163.261Y-102.295
X163.297Y-82.282
X163.523Y-94.027
X163.769Y-125.579
X164.01Y-118.228
X164.314Y-126.453
X164.938Y-75.186
X165.271Y-117.808
X165.309Y-116.693
X166.261Y-126.906
X166.288Y-132.718
X166.307Y-131.65
X166.308Y-130.619
X166.522Y-122.189
X166.552Y-123.215
X166.625Y-125.195
X167.112Y-88.93
X167.201Y-118.669
X167.51Y-101.333
X168.05Y-79.154
X168.088Y-81.23
X168.167Y-80.154
X168.188Y-82.248
X168.263Y-134.001
X168.299Y-118.568
X168.33Y-117.069
X168.343Y-94.021
X168.455Y-76.436
X168.549Y-100.262
X168.999Y-89.986
X169.116Y-110.233
X170.637Y-94.029
X170.873Y-82.144
X170.88Y-79.711
X170.9Y-110.625
X170.906Y-78.71
X171.043Y-97.207
X171.238Y-118.688
X171.562Y-88.053
X171.564Y-89.135
X171.864Y-94.04
X172.806Y-110.414
X173.12Y-89.521
X173.204Y-92.211
X173.237Y-88.066
X173.244Y-85.911
X173.261Y-78.266
X173.44Y-102.308
X173.584Y-77.265
X173.591Y-79.966
X173.628Y-83.514
X174.047Y-74.147
X174.342Y-124.912
X174.584Y-76.915
X175.418Y-125.644
X175.513Y-101.799
X175.993Y-80.896
X176.265Y-116.936
X176.289Y-118.646
X176.296Y-100.483
X176.87Y-110.431
X176.874Y-125.37
X177.48Y-108.661
X177.959Y-116.665
X178.1Y-110.412
X178.481Y-108.749
X178.897Y-71.75
X179.194Y-101.442
X179.207Y-110.43
X179.672Y-87.984
X179.681Y-97.144
X179.794Y-86.98
X180.05Y-81.489
X180.348Y-110.423
X180.744Y-76.899
X180.786Y-77.9
X180.82Y-79.71
X181.087Y-86.218
X181.19Y-74.203
X182.098Y-87.872
X182.124Y-86.364
X182.249Y-74.196
X182.411Y-77.753
X182.412Y-110.398
X182.61Y-84.236
X183.19Y-76.958
X183.479Y-81.378
X183.492Y-83.048
X183.82Y-100.041
X183.97Y-91.74
X184.408Y-115.956
X184.409Y-116.961
X184.42Y-113.556
X184.818Y-76.459
X186.14Y-90.132
X186.196Y-79.21
X186.2Y-77.43
X186.206Y-82.163
X186.327Y-86.573
X186.346Y-87.585
X186.352Y-88.899
X186.397Y-80.75
X186.469Y-109.418
X186.469Y-110.437
X186.469Y-115.105
X186.48Y-112.756
X187.092Y-105.989
X187.173Y-90.309
X187.405Y-102.986
T2
X173.65Y-69.95
X147.132Y-71.064
X158.026Y-71.064
X151.722Y-71.064
X146.05Y-77.47
X180.85Y-69.95
X178.45Y-69.95
X172.45Y-69.95
X150.193Y-71.064
X176.05Y-69.95
X174.85Y-69.95
X153.294Y-71.064
X189.23Y-133.119
X148.659Y-71.064
X154.879Y-71.064
X156.461Y-71.064
X146.05Y-108.232
X177.25Y-69.95
X146.05Y-132.326
X179.65Y-69.95
T3
X146.05Y-102.794
X146.05Y-105.334
X189.23Y-123.19
X189.23Y-125.73
X189.23Y-104.14
X189.23Y-106.68
X189.23Y-69.85
X189.23Y-72.39
X189.23Y-99.06
X189.23Y-101.6
X146.05Y-127.29
X146.05Y-129.83
X161.701Y-71.064
X164.241Y-71.064
X166.568Y-71.064
X169.108Y-71.064
T4
X178.905Y-137.109
X152.044Y-137.109
X187.401Y-95.555
X148.59Y-83.82
T0
M30
