G04 #@! TF.GenerationSoftware,KiCad,Pcbnew,5.0.2*
G04 #@! TF.CreationDate,2019-03-01T11:34:39+03:00*
G04 #@! TF.ProjectId,xmobile,786d6f62-696c-4652-9e6b-696361645f70,rev?*
G04 #@! TF.SameCoordinates,Original*
G04 #@! TF.FileFunction,Copper,L3,Inr*
G04 #@! TF.FilePolarity,Positive*
%FSLAX46Y46*%
G04 Gerber Fmt 4.6, Leading zero omitted, Abs format (unit mm)*
G04 Created by KiCad (PCBNEW 5.0.2) date Пт 01 мар 2019 11:34:39*
%MOMM*%
%LPD*%
G01*
G04 APERTURE LIST*
G04 #@! TA.AperFunction,ViaPad*
%ADD10C,1.400000*%
G04 #@! TD*
G04 #@! TA.AperFunction,ViaPad*
%ADD11C,4.064000*%
G04 #@! TD*
G04 #@! TA.AperFunction,ViaPad*
%ADD12R,1.000000X1.000000*%
G04 #@! TD*
G04 #@! TA.AperFunction,ViaPad*
%ADD13C,0.800000*%
G04 #@! TD*
G04 #@! TA.AperFunction,Conductor*
%ADD14C,0.250000*%
G04 #@! TD*
G04 APERTURE END LIST*
D10*
G04 #@! TO.N,/audio/AUDIO_MICP*
G04 #@! TO.C,W3*
X166568000Y-71064100D03*
G04 #@! TO.N,/audio/AUDIO_MICN*
X169108000Y-71064100D03*
G04 #@! TD*
D11*
G04 #@! TO.N,N/C*
G04 #@! TO.C,h3*
X148590000Y-83820000D03*
G04 #@! TD*
G04 #@! TO.N,N/C*
G04 #@! TO.C,h4*
X187401000Y-95554800D03*
G04 #@! TD*
G04 #@! TO.N,N/C*
G04 #@! TO.C,h2*
X178905000Y-137109000D03*
G04 #@! TD*
G04 #@! TO.N,N/C*
G04 #@! TO.C,H1*
X152044000Y-137109000D03*
G04 #@! TD*
D10*
G04 #@! TO.N,GND*
G04 #@! TO.C,J2*
X189230000Y-72390000D03*
G04 #@! TO.N,Net-(J2-Pad2)*
X189230000Y-69850000D03*
G04 #@! TD*
D12*
G04 #@! TO.N,Net-(J3-Pad1)*
G04 #@! TO.C,J3*
X158026000Y-71064100D03*
G04 #@! TD*
D10*
G04 #@! TO.N,GND*
G04 #@! TO.C,W1*
X189230000Y-106680000D03*
G04 #@! TO.N,3.3V*
X189230000Y-104140000D03*
G04 #@! TD*
G04 #@! TO.N,/PDI_D*
G04 #@! TO.C,W2*
X189230000Y-99060000D03*
G04 #@! TO.N,/PDI_C*
X189230000Y-101600000D03*
G04 #@! TD*
G04 #@! TO.N,/audio/AUDIO_SPKN*
G04 #@! TO.C,W4*
X161701000Y-71064100D03*
G04 #@! TO.N,/audio/AUDIO_SPKP*
X164241000Y-71064100D03*
G04 #@! TD*
D12*
G04 #@! TO.N,Net-(C21-Pad1)*
G04 #@! TO.C,W5*
X189230000Y-133119000D03*
G04 #@! TD*
G04 #@! TO.N,Net-(C22-Pad1)*
G04 #@! TO.C,W6*
X146050000Y-132326000D03*
G04 #@! TD*
D10*
G04 #@! TO.N,GND*
G04 #@! TO.C,W7*
X189230000Y-123190000D03*
G04 #@! TO.N,Net-(C23-Pad2)*
X189230000Y-125730000D03*
G04 #@! TD*
G04 #@! TO.N,Net-(C24-Pad2)*
G04 #@! TO.C,W8*
X146050000Y-129830000D03*
G04 #@! TO.N,GND*
X146050000Y-127290000D03*
G04 #@! TD*
D12*
G04 #@! TO.N,/GSM_RTS*
G04 #@! TO.C,W9*
X156461000Y-71064100D03*
G04 #@! TD*
G04 #@! TO.N,/GSM_DTR*
G04 #@! TO.C,W10*
X151722000Y-71064100D03*
G04 #@! TD*
G04 #@! TO.N,/GSM_CTS*
G04 #@! TO.C,W11*
X154879000Y-71064100D03*
G04 #@! TD*
G04 #@! TO.N,/GSM_DCD*
G04 #@! TO.C,W12*
X153294000Y-71064100D03*
G04 #@! TD*
G04 #@! TO.N,/GSM_RI*
G04 #@! TO.C,W13*
X150193000Y-71064100D03*
G04 #@! TD*
G04 #@! TO.N,Net-(U8-Pad20)*
G04 #@! TO.C,W14*
X146050000Y-108232000D03*
G04 #@! TD*
G04 #@! TO.N,/GSM_TXD*
G04 #@! TO.C,W15*
X148659000Y-71064100D03*
G04 #@! TD*
G04 #@! TO.N,/GSM_RXD*
G04 #@! TO.C,W16*
X147132000Y-71064100D03*
G04 #@! TD*
D10*
G04 #@! TO.N,GND*
G04 #@! TO.C,W17*
X146050000Y-105334000D03*
G04 #@! TO.N,Net-(U8-Pad28)*
X146050000Y-102794000D03*
G04 #@! TD*
D12*
G04 #@! TO.N,Net-(U8-Pad32)*
G04 #@! TO.C,W18*
X146050000Y-77470000D03*
G04 #@! TD*
G04 #@! TO.N,3.3V*
G04 #@! TO.C,J5*
X180850000Y-69950000D03*
G04 #@! TD*
G04 #@! TO.N,GND*
G04 #@! TO.C,J6*
X179650000Y-69950000D03*
G04 #@! TD*
G04 #@! TO.N,/EPD_DIN*
G04 #@! TO.C,J7*
X178450000Y-69950000D03*
G04 #@! TD*
G04 #@! TO.N,/EPD_CLK*
G04 #@! TO.C,J8*
X177250000Y-69950000D03*
G04 #@! TD*
G04 #@! TO.N,/EPD_CS*
G04 #@! TO.C,J9*
X176050000Y-69950000D03*
G04 #@! TD*
G04 #@! TO.N,/EPD_DC*
G04 #@! TO.C,J10*
X174850000Y-69950000D03*
G04 #@! TD*
G04 #@! TO.N,/EPD_RST*
G04 #@! TO.C,J11*
X173650000Y-69950000D03*
G04 #@! TD*
G04 #@! TO.N,/EPD_BUSY*
G04 #@! TO.C,J12*
X172450000Y-69950000D03*
G04 #@! TD*
D13*
G04 #@! TO.N,3.3V*
X183969600Y-91740100D03*
G04 #@! TO.N,GND*
X168330300Y-117068500D03*
X186352400Y-88899200D03*
X174046900Y-74147200D03*
X156691900Y-86522700D03*
X178897000Y-71750300D03*
G04 #@! TO.N,/audio/AUDIO_SPKP*
X155960900Y-78729900D03*
X163261000Y-102294700D03*
G04 #@! TO.N,/audio/AUDIO_SPKN*
X162942800Y-101144200D03*
X153829700Y-80475100D03*
G04 #@! TO.N,/audio/AUDIO_MICP*
X163523400Y-94027300D03*
X162280900Y-75120200D03*
X160527300Y-78203600D03*
G04 #@! TO.N,/audio/AUDIO_MICN*
X164938400Y-75186200D03*
G04 #@! TO.N,Net-(C32-Pad1)*
X173627800Y-83514500D03*
X162165300Y-109045300D03*
X155034200Y-108976000D03*
G04 #@! TO.N,Net-(C33-Pad1)*
X173591300Y-79965700D03*
X161353900Y-110301300D03*
G04 #@! TO.N,/xmobile_GSM/USB_VBUS*
X152745700Y-102434300D03*
X166308000Y-130619100D03*
G04 #@! TO.N,Net-(D18-Pad3)*
X150379700Y-110137200D03*
X159143500Y-110208700D03*
X168087600Y-81229600D03*
G04 #@! TO.N,Net-(D18-Pad4)*
X173244500Y-85911100D03*
X160261700Y-110240000D03*
X150951900Y-108973300D03*
G04 #@! TO.N,Net-(D19-Pad1)*
X156052600Y-81518800D03*
X149338300Y-75890100D03*
G04 #@! TO.N,/microSD_DO*
X148211100Y-121438600D03*
X173583900Y-77265300D03*
G04 #@! TO.N,/microSD_SCLK*
X153342300Y-117163400D03*
X174584300Y-76915000D03*
G04 #@! TO.N,/microSD_DI*
X148126600Y-117987300D03*
X173260900Y-78265700D03*
G04 #@! TO.N,/microSD_CS*
X150937000Y-116670900D03*
X175992800Y-80896100D03*
G04 #@! TO.N,Net-(J2-Pad2)*
X179793900Y-86980500D03*
G04 #@! TO.N,Net-(J3-Pad1)*
X168050200Y-79153600D03*
G04 #@! TO.N,/EPD_BUSY*
X171561600Y-88052600D03*
G04 #@! TO.N,/EPD_RST*
X171564400Y-89134600D03*
G04 #@! TO.N,/EPD_DC*
X173120100Y-89520700D03*
G04 #@! TO.N,/EPD_CS*
X168166700Y-80154100D03*
G04 #@! TO.N,/EPD_CLK*
X170880200Y-79711100D03*
G04 #@! TO.N,/EPD_DIN*
X170905700Y-78710400D03*
G04 #@! TO.N,/xmobile_GSM/PWRKEY*
X163190600Y-85700300D03*
X159309900Y-86323700D03*
G04 #@! TO.N,/PDI_C*
X173237500Y-88065900D03*
X183819700Y-100040600D03*
G04 #@! TO.N,/xmobile_keyboard/LED1*
X166624700Y-125194800D03*
X159456000Y-118667500D03*
G04 #@! TO.N,/xmobile_keyboard/LED2*
X176874400Y-125370000D03*
X158045700Y-118658200D03*
G04 #@! TO.N,/xmobile_keyboard/LED3*
X171238200Y-118687600D03*
X157772700Y-121810800D03*
G04 #@! TO.N,/xmobile_keyboard/LED4*
X174341800Y-124912100D03*
X160493200Y-124897500D03*
G04 #@! TO.N,/KBD_SDA*
X170872600Y-82144100D03*
X167201100Y-118669300D03*
G04 #@! TO.N,/KBD_SCL*
X168188100Y-82247600D03*
X166521600Y-122189400D03*
G04 #@! TO.N,/KBD_INT*
X173204500Y-92211100D03*
X166551700Y-123214600D03*
X168299000Y-118568200D03*
G04 #@! TO.N,/GSM_RTS*
X167112200Y-88930500D03*
G04 #@! TO.N,/GSM_DTR*
X171864500Y-94040200D03*
G04 #@! TO.N,/GSM_CTS*
X168343300Y-94021000D03*
G04 #@! TO.N,/GSM_DCD*
X170636900Y-94028900D03*
X168454600Y-76435800D03*
G04 #@! TO.N,/GSM_RI*
X168548600Y-100262300D03*
G04 #@! TO.N,/GSM_TXD*
X163296700Y-82282200D03*
G04 #@! TO.N,/GSM_RXD*
X162416900Y-84871900D03*
G04 #@! TO.N,/xmobile_keyboard/R0*
X157103900Y-127385500D03*
X166261100Y-126905600D03*
G04 #@! TO.N,/xmobile_keyboard/C0*
X165270600Y-117808300D03*
G04 #@! TO.N,/xmobile_keyboard/R1*
X157420800Y-114435600D03*
X163769500Y-125579300D03*
G04 #@! TO.N,/xmobile_keyboard/R2*
X176288800Y-118646200D03*
X164314300Y-126452800D03*
G04 #@! TO.N,/xmobile_keyboard/R3*
X157426700Y-112897100D03*
X156519300Y-118686600D03*
G04 #@! TO.N,/xmobile_keyboard/R4*
X171042600Y-97207100D03*
X175417700Y-125644400D03*
X161699600Y-118686500D03*
X170900200Y-110624900D03*
G04 #@! TO.N,/xmobile_keyboard/C1*
X177958800Y-116664900D03*
X164009700Y-118228500D03*
G04 #@! TO.N,/xmobile_keyboard/C2*
X165308800Y-116692800D03*
X168263100Y-134000800D03*
X157156000Y-123423300D03*
G04 #@! TO.N,/xmobile_keyboard/C3*
X167509900Y-101333100D03*
X169116400Y-110233500D03*
G04 #@! TO.N,/OE*
X175512900Y-101799200D03*
X180819900Y-79710400D03*
G04 #@! TO.N,/CE2*
X180050400Y-81488700D03*
X176295900Y-100483400D03*
G04 #@! TO.N,/CE1*
X187404600Y-102985600D03*
X186396600Y-80749700D03*
G04 #@! TO.N,/D4*
X178480600Y-108749500D03*
X182123800Y-86364200D03*
G04 #@! TO.N,/D1*
X187091800Y-105988700D03*
X187173200Y-90309000D03*
G04 #@! TO.N,/A17*
X186469300Y-115104700D03*
X186205800Y-82163300D03*
G04 #@! TO.N,/D5*
X177479500Y-108661100D03*
X181086500Y-86217700D03*
G04 #@! TO.N,/D2*
X186468600Y-109418300D03*
X186139700Y-90132200D03*
G04 #@! TO.N,/A16*
X184408400Y-115956000D03*
X183479400Y-81377900D03*
G04 #@! TO.N,/D6*
X179680700Y-97144000D03*
X186345900Y-87585400D03*
G04 #@! TO.N,/D3*
X186468600Y-110437400D03*
X186327500Y-86572600D03*
G04 #@! TO.N,/A14*
X176264600Y-116936300D03*
X184817800Y-76459100D03*
G04 #@! TO.N,/A15*
X184409100Y-116961300D03*
X186200200Y-77429600D03*
G04 #@! TO.N,/D7*
X179194200Y-101442500D03*
X182098100Y-87872200D03*
G04 #@! TO.N,/A12*
X179206600Y-110430000D03*
X182410800Y-77753300D03*
G04 #@! TO.N,/A13*
X180347600Y-110423200D03*
X183190000Y-76958000D03*
G04 #@! TO.N,/WE*
X186196500Y-79210400D03*
X186480500Y-112756000D03*
G04 #@! TO.N,/A18*
X182412100Y-110397700D03*
X182609600Y-84236200D03*
G04 #@! TO.N,/A8*
X173439800Y-102308400D03*
X180743600Y-76899400D03*
G04 #@! TO.N,/A9*
X172806200Y-110413800D03*
X181190000Y-74202900D03*
G04 #@! TO.N,/A10*
X176870500Y-110431500D03*
X180785700Y-77899800D03*
G04 #@! TO.N,/A11*
X178100100Y-110412200D03*
X182248700Y-74196100D03*
G04 #@! TO.N,/A19*
X184420400Y-113556000D03*
X183491800Y-83048500D03*
G04 #@! TO.N,/PDI_D*
X179672400Y-87984500D03*
G04 #@! TO.N,/GSM_STATUS*
X168998800Y-89985500D03*
X162048400Y-89696000D03*
G04 #@! TO.N,/xmobile_GSM/USB_DP*
X151753600Y-101372800D03*
X166288100Y-132718000D03*
G04 #@! TO.N,/xmobile_GSM/USB_DN*
X152483200Y-100683700D03*
X166307300Y-131650000D03*
G04 #@! TD*
D14*
G04 #@! TO.N,/audio/AUDIO_SPKP*
X157438100Y-78729900D02*
X157438100Y-96665200D01*
X157438100Y-96665200D02*
X163067600Y-102294700D01*
X163067600Y-102294700D02*
X163261000Y-102294700D01*
X164241000Y-71064100D02*
X157438100Y-77867000D01*
X157438100Y-77867000D02*
X157438100Y-78729900D01*
X157438100Y-78729900D02*
X155960900Y-78729900D01*
G04 #@! TO.N,/audio/AUDIO_SPKN*
X161701000Y-71064100D02*
X153829700Y-78935400D01*
X153829700Y-78935400D02*
X153829700Y-80475100D01*
G04 #@! TO.N,/audio/AUDIO_MICP*
X162280900Y-75120200D02*
X162280900Y-76450000D01*
X162280900Y-76450000D02*
X160527300Y-78203600D01*
X166568000Y-71064100D02*
X166337000Y-71064100D01*
X166337000Y-71064100D02*
X162280900Y-75120200D01*
X160527300Y-78203600D02*
X160527300Y-91031200D01*
X160527300Y-91031200D02*
X163523400Y-94027300D01*
G04 #@! TO.N,Net-(C32-Pad1)*
X155034200Y-108976000D02*
X162096000Y-108976000D01*
X162096000Y-108976000D02*
X162165300Y-109045300D01*
G04 #@! TO.N,/xmobile_GSM/USB_VBUS*
X152745700Y-102434300D02*
X154308900Y-103997500D01*
X154308900Y-103997500D02*
X154308900Y-121648700D01*
X154308900Y-121648700D02*
X163279200Y-130619000D01*
X163279200Y-130619000D02*
X166308000Y-130619000D01*
X166308000Y-130619000D02*
X166308000Y-130619100D01*
G04 #@! TO.N,Net-(D18-Pad3)*
X159143500Y-110208700D02*
X159844600Y-109507600D01*
X159844600Y-109507600D02*
X161601900Y-109507600D01*
X161601900Y-109507600D02*
X161864900Y-109770600D01*
X161864900Y-109770600D02*
X162495000Y-109770600D01*
X162495000Y-109770600D02*
X165621000Y-106644600D01*
X165621000Y-106644600D02*
X165621000Y-83696200D01*
X165621000Y-83696200D02*
X168087600Y-81229600D01*
G04 #@! TO.N,Net-(J2-Pad2)*
X189230000Y-69850000D02*
X181546300Y-77533700D01*
X181546300Y-77533700D02*
X181546300Y-81315600D01*
X181546300Y-81315600D02*
X179793900Y-83068000D01*
X179793900Y-83068000D02*
X179793900Y-86980500D01*
G04 #@! TO.N,/EPD_BUSY*
X172061900Y-72585400D02*
X172061900Y-87379100D01*
X172061900Y-87379100D02*
X171561600Y-87879400D01*
X171561600Y-87879400D02*
X171561600Y-88052600D01*
X172450000Y-72197300D02*
X172450000Y-69950000D01*
X172061900Y-72585400D02*
X172450000Y-72197300D01*
G04 #@! TO.N,/EPD_RST*
X172519200Y-73766600D02*
X172519200Y-87626400D01*
X172519200Y-87626400D02*
X172287000Y-87858600D01*
X172287000Y-87858600D02*
X172287000Y-88412000D01*
X172287000Y-88412000D02*
X171564400Y-89134600D01*
X173650000Y-72635800D02*
X173650000Y-69950000D01*
X172519200Y-73766600D02*
X173650000Y-72635800D01*
G04 #@! TO.N,/EPD_DC*
X174897000Y-71750300D02*
X175309600Y-72162900D01*
X175309600Y-72162900D02*
X175309600Y-78562200D01*
X175309600Y-78562200D02*
X174407600Y-79464200D01*
X174407600Y-79464200D02*
X174407600Y-88233200D01*
X174407600Y-88233200D02*
X173120100Y-89520700D01*
X174850000Y-71703300D02*
X174850000Y-69950000D01*
X175309600Y-72162900D02*
X174850000Y-71703300D01*
G04 #@! TO.N,/xmobile_keyboard/LED1*
X159456000Y-118667500D02*
X165983300Y-125194800D01*
X165983300Y-125194800D02*
X166624700Y-125194800D01*
G04 #@! TO.N,/xmobile_keyboard/LED2*
X158045700Y-118658200D02*
X158771100Y-117932800D01*
X158771100Y-117932800D02*
X159748700Y-117932800D01*
X159748700Y-117932800D02*
X166285300Y-124469400D01*
X166285300Y-124469400D02*
X171566700Y-124469400D01*
X171566700Y-124469400D02*
X173474400Y-126377100D01*
X173474400Y-126377100D02*
X175867300Y-126377100D01*
X175867300Y-126377100D02*
X176874400Y-125370000D01*
G04 #@! TO.N,/KBD_SDA*
X170872600Y-82144100D02*
X169843600Y-83173100D01*
X169843600Y-83173100D02*
X169843600Y-93560500D01*
X169843600Y-93560500D02*
X166784600Y-96619500D01*
X166784600Y-96619500D02*
X166784600Y-118252800D01*
X166784600Y-118252800D02*
X167201100Y-118669300D01*
G04 #@! TO.N,/KBD_SCL*
X168188100Y-82247600D02*
X166334300Y-84101400D01*
X166334300Y-84101400D02*
X166334300Y-122002100D01*
X166334300Y-122002100D02*
X166521600Y-122189400D01*
G04 #@! TO.N,/KBD_INT*
X173204500Y-92211100D02*
X173204500Y-94019500D01*
X173204500Y-94019500D02*
X170168900Y-97055100D01*
X170168900Y-97055100D02*
X170168900Y-116698300D01*
X170168900Y-116698300D02*
X168299000Y-118568200D01*
X166551700Y-123214600D02*
X168299000Y-121467300D01*
X168299000Y-121467300D02*
X168299000Y-118568200D01*
G04 #@! TO.N,/GSM_DCD*
X168454600Y-76435800D02*
X168454600Y-78405900D01*
X168454600Y-78405900D02*
X171611600Y-81562900D01*
X171611600Y-81562900D02*
X171611600Y-85786600D01*
X171611600Y-85786600D02*
X170636900Y-86761300D01*
X170636900Y-86761300D02*
X170636900Y-94028900D01*
G04 #@! TO.N,/xmobile_keyboard/R3*
X156519300Y-118686600D02*
X156519300Y-113804500D01*
X156519300Y-113804500D02*
X157426700Y-112897100D01*
G04 #@! TO.N,/xmobile_keyboard/R4*
X171042600Y-110624900D02*
X170900200Y-110624900D01*
X175417700Y-125644400D02*
X175417700Y-115000000D01*
X175417700Y-115000000D02*
X171042600Y-110624900D01*
X171042600Y-110624900D02*
X171042600Y-97207100D01*
G04 #@! TO.N,/xmobile_keyboard/C2*
X157156000Y-123423300D02*
X157044600Y-123311900D01*
X157044600Y-123311900D02*
X157044600Y-119187100D01*
X157044600Y-119187100D02*
X157255800Y-118975900D01*
X157255800Y-118975900D02*
X157255800Y-118379300D01*
X157255800Y-118379300D02*
X158942300Y-116692800D01*
X158942300Y-116692800D02*
X165308800Y-116692800D01*
X168263100Y-134000800D02*
X168263100Y-131522200D01*
X168263100Y-131522200D02*
X160164200Y-123423300D01*
X160164200Y-123423300D02*
X157156000Y-123423300D01*
G04 #@! TO.N,/xmobile_keyboard/C3*
X169116400Y-110233500D02*
X169116400Y-102939600D01*
X169116400Y-102939600D02*
X167509900Y-101333100D01*
G04 #@! TO.N,/CE1*
X187404600Y-102985600D02*
X187404600Y-98892200D01*
X187404600Y-98892200D02*
X185043600Y-96531200D01*
X185043600Y-96531200D02*
X185043600Y-94578300D01*
X185043600Y-94578300D02*
X187927400Y-91694500D01*
X187927400Y-91694500D02*
X187927400Y-82280500D01*
X187927400Y-82280500D02*
X186396600Y-80749700D01*
G04 #@! TO.N,/D4*
X182123800Y-86364200D02*
X181310100Y-87177900D01*
X181310100Y-87177900D02*
X181310100Y-88604600D01*
X181310100Y-88604600D02*
X178411700Y-91503000D01*
X178411700Y-91503000D02*
X178411700Y-108680600D01*
X178411700Y-108680600D02*
X178480600Y-108749500D01*
G04 #@! TO.N,/D1*
X187091800Y-105988700D02*
X186657600Y-105554500D01*
X186657600Y-105554500D02*
X186657600Y-99038700D01*
X186657600Y-99038700D02*
X184593200Y-96974300D01*
X184593200Y-96974300D02*
X184593200Y-94379300D01*
X184593200Y-94379300D02*
X187173200Y-91799300D01*
X187173200Y-91799300D02*
X187173200Y-90309000D01*
G04 #@! TO.N,/A17*
X186469300Y-115104700D02*
X185610000Y-114245400D01*
X185610000Y-114245400D02*
X185610000Y-111269200D01*
X185610000Y-111269200D02*
X185081500Y-110740700D01*
X185081500Y-110740700D02*
X185081500Y-99632000D01*
X185081500Y-99632000D02*
X183218800Y-97769300D01*
X183218800Y-97769300D02*
X183218800Y-91208300D01*
X183218800Y-91208300D02*
X185137600Y-89289500D01*
X185137600Y-89289500D02*
X185137600Y-83231500D01*
X185137600Y-83231500D02*
X186205800Y-82163300D01*
G04 #@! TO.N,/D5*
X177479500Y-108661100D02*
X177479500Y-91798300D01*
X177479500Y-91798300D02*
X180652900Y-88624900D01*
X180652900Y-88624900D02*
X180652900Y-86651300D01*
X180652900Y-86651300D02*
X181086500Y-86217700D01*
G04 #@! TO.N,/D2*
X186468600Y-109418300D02*
X185982100Y-108931800D01*
X185982100Y-108931800D02*
X185982100Y-99129400D01*
X185982100Y-99129400D02*
X184119500Y-97266800D01*
X184119500Y-97266800D02*
X184119500Y-94029700D01*
X184119500Y-94029700D02*
X186139700Y-92009500D01*
X186139700Y-92009500D02*
X186139700Y-90132200D01*
G04 #@! TO.N,/A16*
X184408400Y-115956000D02*
X183137400Y-114685000D01*
X183137400Y-114685000D02*
X183137400Y-102510400D01*
X183137400Y-102510400D02*
X181867900Y-101240900D01*
X181867900Y-101240900D02*
X181867900Y-90648500D01*
X181867900Y-90648500D02*
X183786700Y-88729700D01*
X183786700Y-88729700D02*
X183786700Y-84387400D01*
X183786700Y-84387400D02*
X182753800Y-83354500D01*
X182753800Y-83354500D02*
X182753800Y-82103500D01*
X182753800Y-82103500D02*
X183479400Y-81377900D01*
G04 #@! TO.N,/D3*
X186327500Y-86572600D02*
X185588000Y-87312100D01*
X185588000Y-87312100D02*
X185588000Y-89476000D01*
X185588000Y-89476000D02*
X185232200Y-89831800D01*
X185232200Y-89831800D02*
X185232200Y-92280100D01*
X185232200Y-92280100D02*
X183669100Y-93843200D01*
X183669100Y-93843200D02*
X183669100Y-97582700D01*
X183669100Y-97582700D02*
X185531800Y-99445400D01*
X185531800Y-99445400D02*
X185531800Y-109507200D01*
X185531800Y-109507200D02*
X186462000Y-110437400D01*
X186462000Y-110437400D02*
X186468600Y-110437400D01*
G04 #@! TO.N,/A14*
X184817800Y-76459100D02*
X182047600Y-79229300D01*
X182047600Y-79229300D02*
X182047600Y-83584000D01*
X182047600Y-83584000D02*
X181869300Y-83762300D01*
X181869300Y-83762300D02*
X181869300Y-84597400D01*
X181869300Y-84597400D02*
X182886000Y-85614100D01*
X182886000Y-85614100D02*
X182886000Y-88330700D01*
X182886000Y-88330700D02*
X180967100Y-90249600D01*
X180967100Y-90249600D02*
X180967100Y-109633200D01*
X180967100Y-109633200D02*
X181106600Y-109772700D01*
X181106600Y-109772700D02*
X181106600Y-112094300D01*
X181106600Y-112094300D02*
X176264600Y-116936300D01*
G04 #@! TO.N,/A15*
X184409100Y-116961300D02*
X184515900Y-116961300D01*
X184515900Y-116961300D02*
X185159600Y-116317600D01*
X185159600Y-116317600D02*
X185159600Y-111681000D01*
X185159600Y-111681000D02*
X184631100Y-111152500D01*
X184631100Y-111152500D02*
X184631100Y-99818500D01*
X184631100Y-99818500D02*
X182768500Y-97955900D01*
X182768500Y-97955900D02*
X182768500Y-91021700D01*
X182768500Y-91021700D02*
X184687300Y-89102900D01*
X184687300Y-89102900D02*
X184687300Y-78942500D01*
X184687300Y-78942500D02*
X186200200Y-77429600D01*
G04 #@! TO.N,/D7*
X179194200Y-101442500D02*
X180516700Y-100120000D01*
X180516700Y-100120000D02*
X180516700Y-90063100D01*
X180516700Y-90063100D02*
X182098100Y-88481700D01*
X182098100Y-88481700D02*
X182098100Y-87872200D01*
G04 #@! TO.N,/WE*
X186196500Y-79210400D02*
X189758300Y-82772200D01*
X189758300Y-82772200D02*
X189758300Y-97010800D01*
X189758300Y-97010800D02*
X188159700Y-98609400D01*
X188159700Y-98609400D02*
X188159700Y-111076800D01*
X188159700Y-111076800D02*
X186480500Y-112756000D01*
G04 #@! TO.N,/A18*
X182412100Y-110397700D02*
X181417600Y-109403200D01*
X181417600Y-109403200D02*
X181417600Y-90461900D01*
X181417600Y-90461900D02*
X183336400Y-88543100D01*
X183336400Y-88543100D02*
X183336400Y-84963000D01*
X183336400Y-84963000D02*
X182609600Y-84236200D01*
G04 #@! TO.N,/A8*
X173439800Y-102308400D02*
X176471400Y-99276800D01*
X176471400Y-99276800D02*
X176471400Y-82387300D01*
X176471400Y-82387300D02*
X177665900Y-81192800D01*
X177665900Y-81192800D02*
X177665900Y-79977100D01*
X177665900Y-79977100D02*
X180743600Y-76899400D01*
G04 #@! TO.N,/A9*
X172806200Y-110413800D02*
X172685500Y-110293100D01*
X172685500Y-110293100D02*
X172685500Y-101855400D01*
X172685500Y-101855400D02*
X175570700Y-98970200D01*
X175570700Y-98970200D02*
X175570700Y-82412300D01*
X175570700Y-82412300D02*
X177056600Y-80926400D01*
X177056600Y-80926400D02*
X177056600Y-78336300D01*
X177056600Y-78336300D02*
X181190000Y-74202900D01*
G04 #@! TO.N,/A10*
X180785700Y-77899800D02*
X180785700Y-78709900D01*
X180785700Y-78709900D02*
X177021300Y-82474300D01*
X177021300Y-82474300D02*
X177021300Y-101305300D01*
X177021300Y-101305300D02*
X176731900Y-101594700D01*
X176731900Y-101594700D02*
X176731900Y-110292900D01*
X176731900Y-110292900D02*
X176870500Y-110431500D01*
G04 #@! TO.N,/A19*
X184420400Y-113556000D02*
X183955800Y-113091400D01*
X183955800Y-113091400D02*
X183955800Y-102463800D01*
X183955800Y-102463800D02*
X182318200Y-100826200D01*
X182318200Y-100826200D02*
X182318200Y-90835100D01*
X182318200Y-90835100D02*
X184237000Y-88916300D01*
X184237000Y-88916300D02*
X184237000Y-83793700D01*
X184237000Y-83793700D02*
X183491800Y-83048500D01*
G04 #@! TO.N,/xmobile_GSM/USB_DP*
X166288100Y-132718000D02*
X164024400Y-132718000D01*
X164024400Y-132718000D02*
X152062800Y-120756400D01*
X152062800Y-120756400D02*
X152062800Y-103414000D01*
X152062800Y-103414000D02*
X151570100Y-102921300D01*
X151570100Y-102921300D02*
X151570100Y-101556300D01*
X151570100Y-101556300D02*
X151753600Y-101372800D01*
G04 #@! TO.N,/xmobile_GSM/USB_DN*
X166307300Y-131650000D02*
X163607400Y-131650000D01*
X163607400Y-131650000D02*
X152513100Y-120555700D01*
X152513100Y-120555700D02*
X152513100Y-103227400D01*
X152513100Y-103227400D02*
X152020400Y-102734700D01*
X152020400Y-102734700D02*
X152020400Y-102133900D01*
X152020400Y-102133900D02*
X152483200Y-101671100D01*
X152483200Y-101671100D02*
X152483200Y-100683700D01*
G04 #@! TD*
M02*
