G04 #@! TF.GenerationSoftware,KiCad,Pcbnew,5.0.2*
G04 #@! TF.CreationDate,2019-03-01T11:34:39+03:00*
G04 #@! TF.ProjectId,xmobile,786d6f62-696c-4652-9e6b-696361645f70,rev?*
G04 #@! TF.SameCoordinates,Original*
G04 #@! TF.FileFunction,Copper,L1,Top*
G04 #@! TF.FilePolarity,Positive*
%FSLAX46Y46*%
G04 Gerber Fmt 4.6, Leading zero omitted, Abs format (unit mm)*
G04 Created by KiCad (PCBNEW 5.0.2) date Пт 01 мар 2019 11:34:39*
%MOMM*%
%LPD*%
G01*
G04 APERTURE LIST*
G04 #@! TA.AperFunction,ComponentPad*
%ADD10C,1.400000*%
G04 #@! TD*
G04 #@! TA.AperFunction,ComponentPad*
%ADD11C,4.064000*%
G04 #@! TD*
G04 #@! TA.AperFunction,SMDPad,CuDef*
%ADD12R,3.250000X2.000000*%
G04 #@! TD*
G04 #@! TA.AperFunction,SMDPad,CuDef*
%ADD13R,1.150000X0.650000*%
G04 #@! TD*
G04 #@! TA.AperFunction,SMDPad,CuDef*
%ADD14R,1.300000X0.450000*%
G04 #@! TD*
G04 #@! TA.AperFunction,SMDPad,CuDef*
%ADD15R,0.800000X0.540000*%
G04 #@! TD*
G04 #@! TA.AperFunction,SMDPad,CuDef*
%ADD16R,1.700000X1.400000*%
G04 #@! TD*
G04 #@! TA.AperFunction,ComponentPad*
%ADD17R,1.000000X1.000000*%
G04 #@! TD*
G04 #@! TA.AperFunction,ViaPad*
%ADD18C,0.800000*%
G04 #@! TD*
G04 #@! TA.AperFunction,Conductor*
%ADD19C,0.250000*%
G04 #@! TD*
G04 #@! TA.AperFunction,Conductor*
%ADD20C,0.254000*%
G04 #@! TD*
G04 APERTURE END LIST*
D10*
G04 #@! TO.P,W3,1*
G04 #@! TO.N,/audio/AUDIO_MICP*
X166568000Y-71064100D03*
G04 #@! TO.P,W3,2*
G04 #@! TO.N,/audio/AUDIO_MICN*
X169108000Y-71064100D03*
G04 #@! TD*
D11*
G04 #@! TO.P,h3,3*
G04 #@! TO.N,N/C*
X148590000Y-83820000D03*
G04 #@! TD*
G04 #@! TO.P,h4,4*
G04 #@! TO.N,N/C*
X187401000Y-95554800D03*
G04 #@! TD*
G04 #@! TO.P,h2,2*
G04 #@! TO.N,N/C*
X178905000Y-137109000D03*
G04 #@! TD*
G04 #@! TO.P,H1,1*
G04 #@! TO.N,N/C*
X152044000Y-137109000D03*
G04 #@! TD*
D12*
G04 #@! TO.P,SW1,1*
G04 #@! TO.N,GND*
X154693000Y-88440000D03*
G04 #@! TO.P,SW1,2*
G04 #@! TO.N,/PDI_C*
X154693000Y-91440000D03*
X158953000Y-91440000D03*
G04 #@! TO.P,SW1,1*
G04 #@! TO.N,GND*
X158953000Y-88440000D03*
G04 #@! TD*
G04 #@! TO.P,SW2,1*
G04 #@! TO.N,/xmobile_keyboard/R0*
X168812000Y-120293000D03*
G04 #@! TO.P,SW2,2*
G04 #@! TO.N,/xmobile_keyboard/C0*
X168812000Y-123293000D03*
X173072000Y-123293000D03*
G04 #@! TO.P,SW2,1*
G04 #@! TO.N,/xmobile_keyboard/R0*
X173072000Y-120293000D03*
G04 #@! TD*
G04 #@! TO.P,SW3,1*
G04 #@! TO.N,/xmobile_keyboard/R1*
X150651000Y-112038000D03*
G04 #@! TO.P,SW3,2*
G04 #@! TO.N,/xmobile_keyboard/C0*
X150651000Y-115038000D03*
X154911000Y-115038000D03*
G04 #@! TO.P,SW3,1*
G04 #@! TO.N,/xmobile_keyboard/R1*
X154911000Y-112038000D03*
G04 #@! TD*
G04 #@! TO.P,SW4,1*
G04 #@! TO.N,/xmobile_keyboard/R2*
X177448000Y-95655000D03*
G04 #@! TO.P,SW4,2*
G04 #@! TO.N,/xmobile_keyboard/C0*
X177448000Y-98655000D03*
X181708000Y-98655000D03*
G04 #@! TO.P,SW4,1*
G04 #@! TO.N,/xmobile_keyboard/R2*
X181708000Y-95655000D03*
G04 #@! TD*
G04 #@! TO.P,SW5,1*
G04 #@! TO.N,/xmobile_keyboard/R3*
X159795000Y-112038000D03*
G04 #@! TO.P,SW5,2*
G04 #@! TO.N,/xmobile_keyboard/C0*
X159795000Y-115038000D03*
X164055000Y-115038000D03*
G04 #@! TO.P,SW5,1*
G04 #@! TO.N,/xmobile_keyboard/R3*
X164055000Y-112038000D03*
G04 #@! TD*
G04 #@! TO.P,SW6,1*
G04 #@! TO.N,/xmobile_keyboard/R4*
X168812000Y-112038000D03*
G04 #@! TO.P,SW6,2*
G04 #@! TO.N,/xmobile_keyboard/C0*
X168812000Y-115038000D03*
X173072000Y-115038000D03*
G04 #@! TO.P,SW6,1*
G04 #@! TO.N,/xmobile_keyboard/R4*
X173072000Y-112038000D03*
G04 #@! TD*
G04 #@! TO.P,SW7,1*
G04 #@! TO.N,/xmobile_keyboard/R0*
X150651000Y-128675000D03*
G04 #@! TO.P,SW7,2*
G04 #@! TO.N,/xmobile_keyboard/C1*
X150651000Y-131675000D03*
X154911000Y-131675000D03*
G04 #@! TO.P,SW7,1*
G04 #@! TO.N,/xmobile_keyboard/R0*
X154911000Y-128675000D03*
G04 #@! TD*
G04 #@! TO.P,SW8,1*
G04 #@! TO.N,/xmobile_keyboard/R1*
X177448000Y-112038000D03*
G04 #@! TO.P,SW8,2*
G04 #@! TO.N,/xmobile_keyboard/C1*
X177448000Y-115038000D03*
X181708000Y-115038000D03*
G04 #@! TO.P,SW8,1*
G04 #@! TO.N,/xmobile_keyboard/R1*
X181708000Y-112038000D03*
G04 #@! TD*
G04 #@! TO.P,SW9,1*
G04 #@! TO.N,/xmobile_keyboard/R2*
X159795000Y-128675000D03*
G04 #@! TO.P,SW9,2*
G04 #@! TO.N,/xmobile_keyboard/C1*
X159795000Y-131675000D03*
X164055000Y-131675000D03*
G04 #@! TO.P,SW9,1*
G04 #@! TO.N,/xmobile_keyboard/R2*
X164055000Y-128675000D03*
G04 #@! TD*
G04 #@! TO.P,SW10,1*
G04 #@! TO.N,/xmobile_keyboard/R3*
X150651000Y-103910000D03*
G04 #@! TO.P,SW10,2*
G04 #@! TO.N,/xmobile_keyboard/C1*
X150651000Y-106910000D03*
X154911000Y-106910000D03*
G04 #@! TO.P,SW10,1*
G04 #@! TO.N,/xmobile_keyboard/R3*
X154911000Y-103910000D03*
G04 #@! TD*
G04 #@! TO.P,SW11,1*
G04 #@! TO.N,/xmobile_keyboard/R4*
X159795000Y-120293000D03*
G04 #@! TO.P,SW11,2*
G04 #@! TO.N,/xmobile_keyboard/C1*
X159795000Y-123293000D03*
X164055000Y-123293000D03*
G04 #@! TO.P,SW11,1*
G04 #@! TO.N,/xmobile_keyboard/R4*
X164055000Y-120293000D03*
G04 #@! TD*
G04 #@! TO.P,SW12,1*
G04 #@! TO.N,/xmobile_keyboard/R0*
X168812000Y-128675000D03*
G04 #@! TO.P,SW12,2*
G04 #@! TO.N,/xmobile_keyboard/C2*
X168812000Y-131675000D03*
X173072000Y-131675000D03*
G04 #@! TO.P,SW12,1*
G04 #@! TO.N,/xmobile_keyboard/R0*
X173072000Y-128675000D03*
G04 #@! TD*
G04 #@! TO.P,SW13,1*
G04 #@! TO.N,/xmobile_keyboard/R1*
X177448000Y-103910000D03*
G04 #@! TO.P,SW13,2*
G04 #@! TO.N,/xmobile_keyboard/C2*
X177448000Y-106910000D03*
X181708000Y-106910000D03*
G04 #@! TO.P,SW13,1*
G04 #@! TO.N,/xmobile_keyboard/R1*
X181708000Y-103910000D03*
G04 #@! TD*
G04 #@! TO.P,SW14,1*
G04 #@! TO.N,/xmobile_keyboard/R2*
X159795000Y-103910000D03*
G04 #@! TO.P,SW14,2*
G04 #@! TO.N,/xmobile_keyboard/C2*
X159795000Y-106910000D03*
X164055000Y-106910000D03*
G04 #@! TO.P,SW14,1*
G04 #@! TO.N,/xmobile_keyboard/R2*
X164055000Y-103910000D03*
G04 #@! TD*
G04 #@! TO.P,SW15,1*
G04 #@! TO.N,/xmobile_keyboard/R3*
X150651000Y-120293000D03*
G04 #@! TO.P,SW15,2*
G04 #@! TO.N,/xmobile_keyboard/C2*
X150651000Y-123293000D03*
X154911000Y-123293000D03*
G04 #@! TO.P,SW15,1*
G04 #@! TO.N,/xmobile_keyboard/R3*
X154911000Y-120293000D03*
G04 #@! TD*
G04 #@! TO.P,SW16,1*
G04 #@! TO.N,/xmobile_keyboard/R4*
X177448000Y-128675000D03*
G04 #@! TO.P,SW16,2*
G04 #@! TO.N,/xmobile_keyboard/C2*
X177448000Y-131675000D03*
X181708000Y-131675000D03*
G04 #@! TO.P,SW16,1*
G04 #@! TO.N,/xmobile_keyboard/R4*
X181708000Y-128675000D03*
G04 #@! TD*
G04 #@! TO.P,SW17,1*
G04 #@! TO.N,/xmobile_keyboard/R0*
X150651000Y-95655000D03*
G04 #@! TO.P,SW17,2*
G04 #@! TO.N,/xmobile_keyboard/C3*
X150651000Y-98655000D03*
X154911000Y-98655000D03*
G04 #@! TO.P,SW17,1*
G04 #@! TO.N,/xmobile_keyboard/R0*
X154911000Y-95655000D03*
G04 #@! TD*
G04 #@! TO.P,SW18,1*
G04 #@! TO.N,/xmobile_keyboard/R1*
X168812000Y-103910000D03*
G04 #@! TO.P,SW18,2*
G04 #@! TO.N,/xmobile_keyboard/C3*
X168812000Y-106910000D03*
X173072000Y-106910000D03*
G04 #@! TO.P,SW18,1*
G04 #@! TO.N,/xmobile_keyboard/R1*
X173072000Y-103910000D03*
G04 #@! TD*
G04 #@! TO.P,SW19,1*
G04 #@! TO.N,/xmobile_keyboard/R2*
X177448000Y-120293000D03*
G04 #@! TO.P,SW19,2*
G04 #@! TO.N,/xmobile_keyboard/C3*
X177448000Y-123293000D03*
X181708000Y-123293000D03*
G04 #@! TO.P,SW19,1*
G04 #@! TO.N,/xmobile_keyboard/R2*
X181708000Y-120293000D03*
G04 #@! TD*
G04 #@! TO.P,SW20,1*
G04 #@! TO.N,/xmobile_keyboard/R3*
X159795000Y-95655000D03*
G04 #@! TO.P,SW20,2*
G04 #@! TO.N,/xmobile_keyboard/C3*
X159795000Y-98655000D03*
X164055000Y-98655000D03*
G04 #@! TO.P,SW20,1*
G04 #@! TO.N,/xmobile_keyboard/R3*
X164055000Y-95655000D03*
G04 #@! TD*
G04 #@! TO.P,SW21,1*
G04 #@! TO.N,/xmobile_keyboard/R4*
X168812000Y-95655000D03*
G04 #@! TO.P,SW21,2*
G04 #@! TO.N,/xmobile_keyboard/C3*
X168812000Y-98655000D03*
X173072000Y-98655000D03*
G04 #@! TO.P,SW21,1*
G04 #@! TO.N,/xmobile_keyboard/R4*
X173072000Y-95655000D03*
G04 #@! TD*
D13*
G04 #@! TO.P,U7,3*
G04 #@! TO.N,Net-(D18-Pad4)*
X174810000Y-84875000D03*
G04 #@! TO.P,U7,7*
G04 #@! TO.N,Net-(C32-Pad1)*
X174810000Y-83605000D03*
G04 #@! TO.P,U7,5*
G04 #@! TO.N,GND*
X174810000Y-78525000D03*
G04 #@! TO.P,U7,1*
G04 #@! TO.N,Net-(C33-Pad1)*
X174810000Y-79795000D03*
G04 #@! TO.P,U7,6*
G04 #@! TO.N,N/C*
X174810000Y-81065000D03*
G04 #@! TO.P,U7,2*
G04 #@! TO.N,Net-(D18-Pad3)*
X174810000Y-82335000D03*
D14*
G04 #@! TO.P,U7,5*
G04 #@! TO.N,GND*
X178980000Y-76280000D03*
X178980000Y-88820000D03*
X176980000Y-76280000D03*
X176980000Y-88820000D03*
D15*
G04 #@! TO.P,U7,3*
G04 #@! TO.N,Net-(D18-Pad4)*
X187960000Y-85090000D03*
G04 #@! TO.P,U7,2*
G04 #@! TO.N,Net-(D18-Pad3)*
X187960000Y-80010000D03*
D16*
G04 #@! TO.P,U7,5*
G04 #@! TO.N,GND*
X188540000Y-76450000D03*
X188540000Y-88660000D03*
G04 #@! TD*
D10*
G04 #@! TO.P,J2,1*
G04 #@! TO.N,GND*
X189230000Y-72390000D03*
G04 #@! TO.P,J2,2*
G04 #@! TO.N,Net-(J2-Pad2)*
X189230000Y-69850000D03*
G04 #@! TD*
D17*
G04 #@! TO.P,J3,1*
G04 #@! TO.N,Net-(J3-Pad1)*
X158026000Y-71064100D03*
G04 #@! TD*
D10*
G04 #@! TO.P,W1,1*
G04 #@! TO.N,GND*
X189230000Y-106680000D03*
G04 #@! TO.P,W1,2*
G04 #@! TO.N,3.3V*
X189230000Y-104140000D03*
G04 #@! TD*
G04 #@! TO.P,W2,2*
G04 #@! TO.N,/PDI_D*
X189230000Y-99060000D03*
G04 #@! TO.P,W2,1*
G04 #@! TO.N,/PDI_C*
X189230000Y-101600000D03*
G04 #@! TD*
G04 #@! TO.P,W4,2*
G04 #@! TO.N,/audio/AUDIO_SPKN*
X161701000Y-71064100D03*
G04 #@! TO.P,W4,1*
G04 #@! TO.N,/audio/AUDIO_SPKP*
X164241000Y-71064100D03*
G04 #@! TD*
D17*
G04 #@! TO.P,W5,1*
G04 #@! TO.N,Net-(C21-Pad1)*
X189230000Y-133119000D03*
G04 #@! TD*
G04 #@! TO.P,W6,1*
G04 #@! TO.N,Net-(C22-Pad1)*
X146050000Y-132326000D03*
G04 #@! TD*
D10*
G04 #@! TO.P,W7,2*
G04 #@! TO.N,GND*
X189230000Y-123190000D03*
G04 #@! TO.P,W7,1*
G04 #@! TO.N,Net-(C23-Pad2)*
X189230000Y-125730000D03*
G04 #@! TD*
G04 #@! TO.P,W8,1*
G04 #@! TO.N,Net-(C24-Pad2)*
X146050000Y-129830000D03*
G04 #@! TO.P,W8,2*
G04 #@! TO.N,GND*
X146050000Y-127290000D03*
G04 #@! TD*
D17*
G04 #@! TO.P,W9,1*
G04 #@! TO.N,/GSM_RTS*
X156461000Y-71064100D03*
G04 #@! TD*
G04 #@! TO.P,W10,1*
G04 #@! TO.N,/GSM_DTR*
X151722000Y-71064100D03*
G04 #@! TD*
G04 #@! TO.P,W11,1*
G04 #@! TO.N,/GSM_CTS*
X154879000Y-71064100D03*
G04 #@! TD*
G04 #@! TO.P,W12,1*
G04 #@! TO.N,/GSM_DCD*
X153294000Y-71064100D03*
G04 #@! TD*
G04 #@! TO.P,W13,1*
G04 #@! TO.N,/GSM_RI*
X150193000Y-71064100D03*
G04 #@! TD*
G04 #@! TO.P,W14,1*
G04 #@! TO.N,Net-(U8-Pad20)*
X146050000Y-108232000D03*
G04 #@! TD*
G04 #@! TO.P,W15,1*
G04 #@! TO.N,/GSM_TXD*
X148659000Y-71064100D03*
G04 #@! TD*
G04 #@! TO.P,W16,1*
G04 #@! TO.N,/GSM_RXD*
X147132000Y-71064100D03*
G04 #@! TD*
D10*
G04 #@! TO.P,W17,2*
G04 #@! TO.N,GND*
X146050000Y-105334000D03*
G04 #@! TO.P,W17,1*
G04 #@! TO.N,Net-(U8-Pad28)*
X146050000Y-102794000D03*
G04 #@! TD*
D17*
G04 #@! TO.P,W18,1*
G04 #@! TO.N,Net-(U8-Pad32)*
X146050000Y-77470000D03*
G04 #@! TD*
G04 #@! TO.P,J5,1*
G04 #@! TO.N,3.3V*
X180850000Y-69950000D03*
G04 #@! TD*
G04 #@! TO.P,J6,1*
G04 #@! TO.N,GND*
X179650000Y-69950000D03*
G04 #@! TD*
G04 #@! TO.P,J7,1*
G04 #@! TO.N,/EPD_DIN*
X178450000Y-69950000D03*
G04 #@! TD*
G04 #@! TO.P,J8,1*
G04 #@! TO.N,/EPD_CLK*
X177250000Y-69950000D03*
G04 #@! TD*
G04 #@! TO.P,J9,1*
G04 #@! TO.N,/EPD_CS*
X176050000Y-69950000D03*
G04 #@! TD*
G04 #@! TO.P,J10,1*
G04 #@! TO.N,/EPD_DC*
X174850000Y-69950000D03*
G04 #@! TD*
G04 #@! TO.P,J11,1*
G04 #@! TO.N,/EPD_RST*
X173650000Y-69950000D03*
G04 #@! TD*
G04 #@! TO.P,J12,1*
G04 #@! TO.N,/EPD_BUSY*
X172450000Y-69950000D03*
G04 #@! TD*
D18*
G04 #@! TO.N,3.3V*
X183969600Y-91740100D03*
G04 #@! TO.N,GND*
X168330300Y-117068500D03*
X186352400Y-88899200D03*
X174046900Y-74147200D03*
X156691900Y-86522700D03*
X178897000Y-71750300D03*
G04 #@! TO.N,/audio/AUDIO_SPKP*
X155960900Y-78729900D03*
X163261000Y-102294700D03*
G04 #@! TO.N,/audio/AUDIO_SPKN*
X162942800Y-101144200D03*
X153829700Y-80475100D03*
G04 #@! TO.N,/audio/AUDIO_MICP*
X163523400Y-94027300D03*
X162280900Y-75120200D03*
X160527300Y-78203600D03*
G04 #@! TO.N,/audio/AUDIO_MICN*
X164938400Y-75186200D03*
G04 #@! TO.N,Net-(C32-Pad1)*
X173627800Y-83514500D03*
X162165300Y-109045300D03*
X155034200Y-108976000D03*
G04 #@! TO.N,Net-(C33-Pad1)*
X173591300Y-79965700D03*
X161353900Y-110301300D03*
G04 #@! TO.N,/xmobile_GSM/USB_VBUS*
X152745700Y-102434300D03*
X166308000Y-130619100D03*
G04 #@! TO.N,Net-(D18-Pad3)*
X150379700Y-110137200D03*
X159143500Y-110208700D03*
X168087600Y-81229600D03*
G04 #@! TO.N,Net-(D18-Pad4)*
X173244500Y-85911100D03*
X160261700Y-110240000D03*
X150951900Y-108973300D03*
G04 #@! TO.N,Net-(D19-Pad1)*
X156052600Y-81518800D03*
X149338300Y-75890100D03*
G04 #@! TO.N,/microSD_DO*
X148211100Y-121438600D03*
X173583900Y-77265300D03*
G04 #@! TO.N,/microSD_SCLK*
X153342300Y-117163400D03*
X174584300Y-76915000D03*
G04 #@! TO.N,/microSD_DI*
X148126600Y-117987300D03*
X173260900Y-78265700D03*
G04 #@! TO.N,/microSD_CS*
X150937000Y-116670900D03*
X175992800Y-80896100D03*
G04 #@! TO.N,Net-(J2-Pad2)*
X179793900Y-86980500D03*
G04 #@! TO.N,Net-(J3-Pad1)*
X168050200Y-79153600D03*
G04 #@! TO.N,/EPD_BUSY*
X171561600Y-88052600D03*
G04 #@! TO.N,/EPD_RST*
X171564400Y-89134600D03*
G04 #@! TO.N,/EPD_DC*
X173120100Y-89520700D03*
G04 #@! TO.N,/EPD_CS*
X168166700Y-80154100D03*
G04 #@! TO.N,/EPD_CLK*
X170880200Y-79711100D03*
G04 #@! TO.N,/EPD_DIN*
X170905700Y-78710400D03*
G04 #@! TO.N,/xmobile_GSM/PWRKEY*
X163190600Y-85700300D03*
X159309900Y-86323700D03*
G04 #@! TO.N,/PDI_C*
X173237500Y-88065900D03*
X183819700Y-100040600D03*
G04 #@! TO.N,/xmobile_keyboard/LED1*
X166624700Y-125194800D03*
X159456000Y-118667500D03*
G04 #@! TO.N,/xmobile_keyboard/LED2*
X176874400Y-125370000D03*
X158045700Y-118658200D03*
G04 #@! TO.N,/xmobile_keyboard/LED3*
X171238200Y-118687600D03*
X157772700Y-121810800D03*
G04 #@! TO.N,/xmobile_keyboard/LED4*
X174341800Y-124912100D03*
X160493200Y-124897500D03*
G04 #@! TO.N,/KBD_SDA*
X170872600Y-82144100D03*
X167201100Y-118669300D03*
G04 #@! TO.N,/KBD_SCL*
X168188100Y-82247600D03*
X166521600Y-122189400D03*
G04 #@! TO.N,/KBD_INT*
X173204500Y-92211100D03*
X166551700Y-123214600D03*
X168299000Y-118568200D03*
G04 #@! TO.N,/GSM_RTS*
X167112200Y-88930500D03*
G04 #@! TO.N,/GSM_DTR*
X171864500Y-94040200D03*
G04 #@! TO.N,/GSM_CTS*
X168343300Y-94021000D03*
G04 #@! TO.N,/GSM_DCD*
X170636900Y-94028900D03*
X168454600Y-76435800D03*
G04 #@! TO.N,/GSM_RI*
X168548600Y-100262300D03*
G04 #@! TO.N,/GSM_TXD*
X163296700Y-82282200D03*
G04 #@! TO.N,/GSM_RXD*
X162416900Y-84871900D03*
G04 #@! TO.N,/xmobile_keyboard/R0*
X157103900Y-127385500D03*
X166261100Y-126905600D03*
G04 #@! TO.N,/xmobile_keyboard/C0*
X165270600Y-117808300D03*
G04 #@! TO.N,/xmobile_keyboard/R1*
X157420800Y-114435600D03*
X163769500Y-125579300D03*
G04 #@! TO.N,/xmobile_keyboard/R2*
X176288800Y-118646200D03*
X164314300Y-126452800D03*
G04 #@! TO.N,/xmobile_keyboard/R3*
X157426700Y-112897100D03*
X156519300Y-118686600D03*
G04 #@! TO.N,/xmobile_keyboard/R4*
X171042600Y-97207100D03*
X175417700Y-125644400D03*
X161699600Y-118686500D03*
X170900200Y-110624900D03*
G04 #@! TO.N,/xmobile_keyboard/C1*
X177958800Y-116664900D03*
X164009700Y-118228500D03*
G04 #@! TO.N,/xmobile_keyboard/C2*
X165308800Y-116692800D03*
X168263100Y-134000800D03*
X157156000Y-123423300D03*
G04 #@! TO.N,/xmobile_keyboard/C3*
X167509900Y-101333100D03*
X169116400Y-110233500D03*
G04 #@! TO.N,/OE*
X175512900Y-101799200D03*
X180819900Y-79710400D03*
G04 #@! TO.N,/CE2*
X180050400Y-81488700D03*
X176295900Y-100483400D03*
G04 #@! TO.N,/CE1*
X187404600Y-102985600D03*
X186396600Y-80749700D03*
G04 #@! TO.N,/D4*
X178480600Y-108749500D03*
X182123800Y-86364200D03*
G04 #@! TO.N,/D1*
X187091800Y-105988700D03*
X187173200Y-90309000D03*
G04 #@! TO.N,/A17*
X186469300Y-115104700D03*
X186205800Y-82163300D03*
G04 #@! TO.N,/D5*
X177479500Y-108661100D03*
X181086500Y-86217700D03*
G04 #@! TO.N,/D2*
X186468600Y-109418300D03*
X186139700Y-90132200D03*
G04 #@! TO.N,/A16*
X184408400Y-115956000D03*
X183479400Y-81377900D03*
G04 #@! TO.N,/D6*
X179680700Y-97144000D03*
X186345900Y-87585400D03*
G04 #@! TO.N,/D3*
X186468600Y-110437400D03*
X186327500Y-86572600D03*
G04 #@! TO.N,/A14*
X176264600Y-116936300D03*
X184817800Y-76459100D03*
G04 #@! TO.N,/A15*
X184409100Y-116961300D03*
X186200200Y-77429600D03*
G04 #@! TO.N,/D7*
X179194200Y-101442500D03*
X182098100Y-87872200D03*
G04 #@! TO.N,/A12*
X179206600Y-110430000D03*
X182410800Y-77753300D03*
G04 #@! TO.N,/A13*
X180347600Y-110423200D03*
X183190000Y-76958000D03*
G04 #@! TO.N,/WE*
X186196500Y-79210400D03*
X186480500Y-112756000D03*
G04 #@! TO.N,/A18*
X182412100Y-110397700D03*
X182609600Y-84236200D03*
G04 #@! TO.N,/A8*
X173439800Y-102308400D03*
X180743600Y-76899400D03*
G04 #@! TO.N,/A9*
X172806200Y-110413800D03*
X181190000Y-74202900D03*
G04 #@! TO.N,/A10*
X176870500Y-110431500D03*
X180785700Y-77899800D03*
G04 #@! TO.N,/A11*
X178100100Y-110412200D03*
X182248700Y-74196100D03*
G04 #@! TO.N,/A19*
X184420400Y-113556000D03*
X183491800Y-83048500D03*
G04 #@! TO.N,/PDI_D*
X179672400Y-87984500D03*
G04 #@! TO.N,/GSM_STATUS*
X168998800Y-89985500D03*
X162048400Y-89696000D03*
G04 #@! TO.N,/xmobile_GSM/USB_DP*
X151753600Y-101372800D03*
X166288100Y-132718000D03*
G04 #@! TO.N,/xmobile_GSM/USB_DN*
X152483200Y-100683700D03*
X166307300Y-131650000D03*
G04 #@! TD*
D19*
G04 #@! TO.N,GND*
X186352400Y-88899200D02*
X180034500Y-88899200D01*
X180034500Y-88899200D02*
X179955300Y-88820000D01*
X188540000Y-89016700D02*
X186469900Y-89016700D01*
X186469900Y-89016700D02*
X186352400Y-88899200D01*
X178980000Y-88820000D02*
X179955300Y-88820000D01*
X188540000Y-89016700D02*
X188540000Y-89685300D01*
X188540000Y-88660000D02*
X188540000Y-89016700D01*
X175937300Y-76280000D02*
X175937300Y-76037600D01*
X175937300Y-76037600D02*
X174046900Y-74147200D01*
X189230000Y-106680000D02*
X188204600Y-105654600D01*
X188204600Y-105654600D02*
X188204600Y-98564500D01*
X188204600Y-98564500D02*
X189789300Y-96979800D01*
X189789300Y-96979800D02*
X189789300Y-90934600D01*
X189789300Y-90934600D02*
X188540000Y-89685300D01*
X175710300Y-78525000D02*
X175710300Y-76507000D01*
X175710300Y-76507000D02*
X175937300Y-76280000D01*
X175937300Y-76280000D02*
X176004700Y-76280000D01*
X156691900Y-88440000D02*
X156691900Y-86522700D01*
X156691900Y-88440000D02*
X158953000Y-88440000D01*
X156643300Y-88440000D02*
X156691900Y-88440000D01*
X154693000Y-88440000D02*
X156643300Y-88440000D01*
X153717900Y-88440000D02*
X154693000Y-88440000D01*
X189230000Y-72390000D02*
X188540000Y-73080000D01*
X188540000Y-73080000D02*
X188540000Y-76450000D01*
X188540000Y-76450000D02*
X188540000Y-77475300D01*
X188540000Y-88660000D02*
X188540000Y-87634700D01*
X188540000Y-87634700D02*
X188685400Y-87489300D01*
X188685400Y-87489300D02*
X188685400Y-77620700D01*
X188685400Y-77620700D02*
X188540000Y-77475300D01*
X178004700Y-76280000D02*
X178004700Y-72642600D01*
X178004700Y-72642600D02*
X178897000Y-71750300D01*
X178004700Y-76280000D02*
X177955300Y-76280000D01*
X176980000Y-76280000D02*
X177955300Y-76280000D01*
X153717900Y-88440000D02*
X152742700Y-88440000D01*
X152742700Y-88440000D02*
X147114400Y-94068300D01*
X147114400Y-94068300D02*
X147114400Y-104269600D01*
X147114400Y-104269600D02*
X146050000Y-105334000D01*
X174810000Y-78525000D02*
X175710300Y-78525000D01*
X176980000Y-76280000D02*
X176004700Y-76280000D01*
X176980000Y-88820000D02*
X178980000Y-88820000D01*
X178980000Y-76280000D02*
X178004700Y-76280000D01*
X178897000Y-71750300D02*
X178897000Y-71750300D01*
G04 #@! TO.N,Net-(C32-Pad1)*
X173909700Y-83605000D02*
X173819200Y-83514500D01*
X173819200Y-83514500D02*
X173627800Y-83514500D01*
X174810000Y-83605000D02*
X173909700Y-83605000D01*
G04 #@! TO.N,Net-(C33-Pad1)*
X173591300Y-79965700D02*
X173739000Y-79965700D01*
X173739000Y-79965700D02*
X173909700Y-79795000D01*
X174810000Y-79795000D02*
X173909700Y-79795000D01*
G04 #@! TO.N,Net-(D18-Pad3)*
X175710300Y-82335000D02*
X180785500Y-82335000D01*
X180785500Y-82335000D02*
X183110500Y-80010000D01*
X183110500Y-80010000D02*
X187234700Y-80010000D01*
X173909700Y-82335000D02*
X172804300Y-81229600D01*
X172804300Y-81229600D02*
X168087600Y-81229600D01*
X174810000Y-82335000D02*
X173909700Y-82335000D01*
X174894900Y-82335000D02*
X174810000Y-82335000D01*
X174894900Y-82335000D02*
X175710300Y-82335000D01*
X187960000Y-80010000D02*
X187234700Y-80010000D01*
G04 #@! TO.N,Net-(D18-Pad4)*
X174810000Y-84875000D02*
X173909700Y-84875000D01*
X173244500Y-85911100D02*
X173909700Y-85245900D01*
X173909700Y-85245900D02*
X173909700Y-84875000D01*
X175260200Y-84875000D02*
X174810000Y-84875000D01*
X175260200Y-84875000D02*
X175710300Y-84875000D01*
X187234700Y-85090000D02*
X175925300Y-85090000D01*
X175925300Y-85090000D02*
X175710300Y-84875000D01*
X187960000Y-85090000D02*
X187234700Y-85090000D01*
G04 #@! TO.N,/xmobile_GSM/PWRKEY*
X159309900Y-86323700D02*
X162567200Y-86323700D01*
X162567200Y-86323700D02*
X163190600Y-85700300D01*
G04 #@! TO.N,/PDI_C*
X160903300Y-91440000D02*
X170284800Y-91440000D01*
X170284800Y-91440000D02*
X172289700Y-89435100D01*
X172289700Y-89435100D02*
X172289700Y-89293500D01*
X172289700Y-89293500D02*
X173377400Y-88205800D01*
X183819700Y-100040600D02*
X183819700Y-94675500D01*
X183819700Y-94675500D02*
X183473800Y-94329600D01*
X183473800Y-94329600D02*
X179501200Y-94329600D01*
X179501200Y-94329600D02*
X173377400Y-88205800D01*
X173377400Y-88205800D02*
X173237500Y-88065900D01*
X158953000Y-91440000D02*
X160903300Y-91440000D01*
X154693000Y-91440000D02*
X158953000Y-91440000D01*
G04 #@! TO.N,/xmobile_keyboard/R0*
X171121700Y-120293000D02*
X170762300Y-120293000D01*
X171121700Y-128675000D02*
X171121700Y-120293000D01*
X168812000Y-120293000D02*
X170762300Y-120293000D01*
X171121700Y-128675000D02*
X173072000Y-128675000D01*
X168812000Y-128675000D02*
X171121700Y-128675000D01*
X173072000Y-120293000D02*
X171121700Y-120293000D01*
X148700700Y-95655000D02*
X147748200Y-96607500D01*
X147748200Y-96607500D02*
X147748200Y-109611500D01*
X147748200Y-109611500D02*
X147360300Y-109999400D01*
X147360300Y-109999400D02*
X147360300Y-127334600D01*
X147360300Y-127334600D02*
X148700700Y-128675000D01*
X156861300Y-128675000D02*
X156861300Y-127628100D01*
X156861300Y-127628100D02*
X157103900Y-127385500D01*
X154911000Y-128675000D02*
X156861300Y-128675000D01*
X150651000Y-128675000D02*
X154911000Y-128675000D01*
X166261100Y-126905600D02*
X166861700Y-127506200D01*
X166861700Y-127506200D02*
X166861700Y-128675000D01*
X168812000Y-128675000D02*
X166861700Y-128675000D01*
X150651000Y-128675000D02*
X148700700Y-128675000D01*
X150651000Y-95655000D02*
X148700700Y-95655000D01*
X154911000Y-95655000D02*
X150651000Y-95655000D01*
G04 #@! TO.N,/xmobile_keyboard/C0*
X165270600Y-117808300D02*
X165270600Y-117778600D01*
X165270600Y-117778600D02*
X165295100Y-117754100D01*
X168812000Y-123293000D02*
X168659600Y-123293000D01*
X168659600Y-123293000D02*
X166124800Y-120758200D01*
X166124800Y-120758200D02*
X166124800Y-118662500D01*
X166124800Y-118662500D02*
X165270600Y-117808300D01*
X181708000Y-98655000D02*
X179398300Y-98655000D01*
X177448000Y-98655000D02*
X179398300Y-98655000D01*
X181708000Y-98655000D02*
X181708000Y-99257000D01*
X181708000Y-99257000D02*
X185159800Y-102708800D01*
X185159800Y-102708800D02*
X185159800Y-122944400D01*
X185159800Y-122944400D02*
X183466200Y-124638000D01*
X183466200Y-124638000D02*
X175696300Y-124638000D01*
X175696300Y-124638000D02*
X175022300Y-123964000D01*
X175022300Y-123964000D02*
X175022300Y-123293000D01*
X165295100Y-117754100D02*
X166861700Y-116187500D01*
X166861700Y-116187500D02*
X166861700Y-115038000D01*
X165295100Y-117754100D02*
X164103200Y-116562300D01*
X164103200Y-116562300D02*
X164103200Y-115967400D01*
X164103200Y-115967400D02*
X164055000Y-115919200D01*
X164055000Y-115919200D02*
X164055000Y-115038000D01*
X168812000Y-115038000D02*
X166861700Y-115038000D01*
X168812000Y-115038000D02*
X169309700Y-115038000D01*
X164055000Y-115038000D02*
X161745300Y-115038000D01*
X159795000Y-115038000D02*
X161745300Y-115038000D01*
X154911000Y-115038000D02*
X156861300Y-115038000D01*
X156861300Y-115038000D02*
X156984200Y-115160900D01*
X156984200Y-115160900D02*
X157721800Y-115160900D01*
X157721800Y-115160900D02*
X157844700Y-115038000D01*
X173072000Y-115038000D02*
X172560600Y-115038000D01*
X172560600Y-115038000D02*
X175022300Y-117499700D01*
X175022300Y-117499700D02*
X175022300Y-123293000D01*
X173072000Y-123293000D02*
X175022300Y-123293000D01*
X172560600Y-115038000D02*
X171121700Y-115038000D01*
X169309700Y-115038000D02*
X170762300Y-115038000D01*
X170762300Y-115038000D02*
X171121700Y-115038000D01*
X150651000Y-115038000D02*
X154911000Y-115038000D01*
X159795000Y-115038000D02*
X157844700Y-115038000D01*
G04 #@! TO.N,/xmobile_keyboard/R1*
X156861300Y-112038000D02*
X156861300Y-112329100D01*
X156861300Y-112329100D02*
X156759700Y-112430700D01*
X156759700Y-112430700D02*
X156759700Y-112538400D01*
X156759700Y-112538400D02*
X156701400Y-112596700D01*
X156701400Y-112596700D02*
X156701400Y-112678400D01*
X156701400Y-112678400D02*
X156695300Y-112684500D01*
X156695300Y-112684500D02*
X156695300Y-113285300D01*
X156695300Y-113285300D02*
X157420800Y-114010800D01*
X157420800Y-114010800D02*
X157420800Y-114435600D01*
X168812000Y-103910000D02*
X166861700Y-103910000D01*
X156636200Y-112038000D02*
X157311700Y-111362500D01*
X157311700Y-111362500D02*
X157311700Y-106306800D01*
X157311700Y-106306800D02*
X158033900Y-105584600D01*
X158033900Y-105584600D02*
X165494000Y-105584600D01*
X165494000Y-105584600D02*
X166861700Y-104216900D01*
X166861700Y-104216900D02*
X166861700Y-103910000D01*
X173072000Y-103910000D02*
X177448000Y-103910000D01*
X168812000Y-103910000D02*
X173072000Y-103910000D01*
X156636200Y-112038000D02*
X156861300Y-112038000D01*
X154911000Y-112038000D02*
X156636200Y-112038000D01*
X177448000Y-112038000D02*
X179398300Y-112038000D01*
X181686800Y-112016800D02*
X181708000Y-112038000D01*
X183658300Y-103910000D02*
X183658300Y-108125800D01*
X183658300Y-108125800D02*
X181686800Y-110097300D01*
X181686800Y-110097300D02*
X181686800Y-112016800D01*
X181686800Y-112016800D02*
X179419500Y-112016800D01*
X179419500Y-112016800D02*
X179398300Y-112038000D01*
X181708000Y-103910000D02*
X183658300Y-103910000D01*
X177448000Y-103910000D02*
X181708000Y-103910000D01*
X154911000Y-112038000D02*
X150651000Y-112038000D01*
G04 #@! TO.N,/xmobile_keyboard/R2*
X175025200Y-100238400D02*
X177371400Y-102584600D01*
X177371400Y-102584600D02*
X183481900Y-102584600D01*
X183481900Y-102584600D02*
X184112500Y-103215200D01*
X184112500Y-103215200D02*
X184112500Y-110674000D01*
X184112500Y-110674000D02*
X183658400Y-111128100D01*
X183658400Y-111128100D02*
X183658400Y-117855100D01*
X183658400Y-117855100D02*
X181220500Y-120293000D01*
X175497700Y-95655000D02*
X175025200Y-96127500D01*
X175025200Y-96127500D02*
X175025200Y-100238400D01*
X166005300Y-103910000D02*
X166005300Y-103578600D01*
X166005300Y-103578600D02*
X166999200Y-102584700D01*
X166999200Y-102584700D02*
X171509100Y-102584700D01*
X171509100Y-102584700D02*
X173855400Y-100238400D01*
X173855400Y-100238400D02*
X175025200Y-100238400D01*
X177448000Y-120293000D02*
X177448000Y-119805400D01*
X177448000Y-119805400D02*
X176288800Y-118646200D01*
X177448000Y-120293000D02*
X178423200Y-120293000D01*
X164055000Y-128675000D02*
X164055000Y-126712100D01*
X164055000Y-126712100D02*
X164314300Y-126452800D01*
X181220500Y-120293000D02*
X179757700Y-120293000D01*
X181708000Y-120293000D02*
X181220500Y-120293000D01*
X177448000Y-95655000D02*
X175497700Y-95655000D01*
X164055000Y-103910000D02*
X166005300Y-103910000D01*
X159795000Y-103910000D02*
X164055000Y-103910000D01*
X181708000Y-95655000D02*
X177448000Y-95655000D01*
X178423200Y-120293000D02*
X179398300Y-120293000D01*
X179757700Y-120293000D02*
X179398300Y-120293000D01*
X164055000Y-128675000D02*
X162104700Y-128675000D01*
X162104700Y-128675000D02*
X161745300Y-128675000D01*
X159795000Y-128675000D02*
X161745300Y-128675000D01*
G04 #@! TO.N,/xmobile_keyboard/R3*
X159795000Y-112038000D02*
X157844700Y-112038000D01*
X157426700Y-112897100D02*
X157844700Y-112479100D01*
X157844700Y-112479100D02*
X157844700Y-112038000D01*
X150651000Y-103910000D02*
X154911000Y-103910000D01*
X156519300Y-118686600D02*
X154912900Y-120293000D01*
X154912900Y-120293000D02*
X154911000Y-120293000D01*
X159795000Y-95655000D02*
X157844700Y-95655000D01*
X157844700Y-95655000D02*
X157844700Y-95820800D01*
X157844700Y-95820800D02*
X156685200Y-96980300D01*
X156685200Y-96980300D02*
X149181700Y-96980300D01*
X149181700Y-96980300D02*
X148700700Y-97461300D01*
X148700700Y-97461300D02*
X148700700Y-103910000D01*
X164055000Y-95655000D02*
X159795000Y-95655000D01*
X150651000Y-120293000D02*
X148700700Y-120293000D01*
X148700700Y-120293000D02*
X148700700Y-119089400D01*
X148700700Y-119089400D02*
X148856900Y-118933200D01*
X148856900Y-118933200D02*
X148856900Y-117017500D01*
X148856900Y-117017500D02*
X148198600Y-116359200D01*
X148198600Y-116359200D02*
X148198600Y-104412100D01*
X148198600Y-104412100D02*
X148700700Y-103910000D01*
X152960700Y-120293000D02*
X150651000Y-120293000D01*
X150651000Y-103910000D02*
X148700700Y-103910000D01*
X154911000Y-120293000D02*
X152960700Y-120293000D01*
X164055000Y-112038000D02*
X159795000Y-112038000D01*
G04 #@! TO.N,/xmobile_keyboard/R4*
X171042600Y-95655000D02*
X170762300Y-95655000D01*
X171121700Y-95655000D02*
X171042600Y-95655000D01*
X171042600Y-97207100D02*
X171042600Y-95655000D01*
X161745300Y-120293000D02*
X161745300Y-118732200D01*
X161745300Y-118732200D02*
X161699600Y-118686500D01*
X170942000Y-111858300D02*
X171121700Y-112038000D01*
X170900200Y-110624900D02*
X170900200Y-111816500D01*
X170900200Y-111816500D02*
X170942000Y-111858300D01*
X170942000Y-111858300D02*
X170762300Y-112038000D01*
X168812000Y-112038000D02*
X170762300Y-112038000D01*
X177448000Y-128675000D02*
X175497700Y-128675000D01*
X175417700Y-125644400D02*
X175417700Y-128595000D01*
X175417700Y-128595000D02*
X175497700Y-128675000D01*
X162104700Y-120293000D02*
X161745300Y-120293000D01*
X164055000Y-120293000D02*
X162104700Y-120293000D01*
X177448000Y-128675000D02*
X181708000Y-128675000D01*
X168812000Y-95655000D02*
X170762300Y-95655000D01*
X173072000Y-95655000D02*
X171121700Y-95655000D01*
X173072000Y-112038000D02*
X171121700Y-112038000D01*
X159795000Y-120293000D02*
X161745300Y-120293000D01*
G04 #@! TO.N,/xmobile_keyboard/C1*
X177958800Y-115038000D02*
X178423200Y-115038000D01*
X177448000Y-115038000D02*
X177958800Y-115038000D01*
X177958800Y-115038000D02*
X177958800Y-116664900D01*
X164009700Y-118228500D02*
X163676200Y-117895000D01*
X163676200Y-117895000D02*
X157255800Y-117895000D01*
X148700700Y-106910000D02*
X148700700Y-116172800D01*
X148700700Y-116172800D02*
X150422900Y-117895000D01*
X150422900Y-117895000D02*
X157255800Y-117895000D01*
X157957300Y-123293000D02*
X157957300Y-123198800D01*
X157957300Y-123198800D02*
X157044000Y-122285500D01*
X157044000Y-122285500D02*
X157044000Y-119187700D01*
X157044000Y-119187700D02*
X157255800Y-118975900D01*
X157255800Y-118975900D02*
X157255800Y-117895000D01*
X157830600Y-131495100D02*
X157041200Y-131495100D01*
X157041200Y-131495100D02*
X156861300Y-131675000D01*
X158190400Y-131675000D02*
X158010500Y-131495100D01*
X158010500Y-131495100D02*
X157830600Y-131495100D01*
X157830600Y-131495100D02*
X157830600Y-124046700D01*
X157830600Y-124046700D02*
X157957300Y-123920000D01*
X157957300Y-123920000D02*
X157957300Y-123293000D01*
X154911000Y-131675000D02*
X156861300Y-131675000D01*
X159795000Y-131675000D02*
X158190400Y-131675000D01*
X178423200Y-115038000D02*
X179398300Y-115038000D01*
X150651000Y-106910000D02*
X148700700Y-106910000D01*
X159795000Y-123293000D02*
X157957300Y-123293000D01*
X150828500Y-106910000D02*
X150651000Y-106910000D01*
X179398300Y-115038000D02*
X179757700Y-115038000D01*
X181708000Y-115038000D02*
X179757700Y-115038000D01*
X164055000Y-123293000D02*
X159795000Y-123293000D01*
X150828500Y-106910000D02*
X152601300Y-106910000D01*
X154911000Y-106910000D02*
X152601300Y-106910000D01*
X154911000Y-131675000D02*
X150651000Y-131675000D01*
X164055000Y-131675000D02*
X159795000Y-131675000D01*
G04 #@! TO.N,/xmobile_keyboard/C2*
X166005300Y-106910000D02*
X166005300Y-116190800D01*
X166005300Y-116190800D02*
X165503300Y-116692800D01*
X165503300Y-116692800D02*
X165308800Y-116692800D01*
X177448000Y-106910000D02*
X175497700Y-106910000D01*
X166005300Y-106910000D02*
X166005300Y-106567100D01*
X166005300Y-106567100D02*
X166987700Y-105584700D01*
X166987700Y-105584700D02*
X174835100Y-105584700D01*
X174835100Y-105584700D02*
X175497700Y-106247300D01*
X175497700Y-106247300D02*
X175497700Y-106910000D01*
X156861300Y-123293000D02*
X157025700Y-123293000D01*
X157025700Y-123293000D02*
X157156000Y-123423300D01*
X169787200Y-131675000D02*
X171121700Y-131675000D01*
X168263100Y-134000800D02*
X168263100Y-133199100D01*
X168263100Y-133199100D02*
X169787200Y-131675000D01*
X173072000Y-131675000D02*
X171121700Y-131675000D01*
X168812000Y-131675000D02*
X169787200Y-131675000D01*
X154911000Y-123293000D02*
X156861300Y-123293000D01*
X177448000Y-131675000D02*
X173072000Y-131675000D01*
X154911000Y-123293000D02*
X150651000Y-123293000D01*
X177448000Y-131675000D02*
X181708000Y-131675000D01*
X181708000Y-106910000D02*
X177448000Y-106910000D01*
X159795000Y-106910000D02*
X164055000Y-106910000D01*
X164055000Y-106910000D02*
X166005300Y-106910000D01*
G04 #@! TO.N,/xmobile_keyboard/C3*
X167509900Y-98655000D02*
X167509900Y-101333100D01*
X167509900Y-98655000D02*
X168812000Y-98655000D01*
X166005300Y-98655000D02*
X167509900Y-98655000D01*
X170762300Y-106910000D02*
X170762300Y-108587600D01*
X170762300Y-108587600D02*
X169116400Y-110233500D01*
X170762300Y-98655000D02*
X171121700Y-98655000D01*
X168812000Y-98655000D02*
X170762300Y-98655000D01*
X173072000Y-98655000D02*
X171121700Y-98655000D01*
X164055000Y-98655000D02*
X166005300Y-98655000D01*
X159795000Y-98655000D02*
X154911000Y-98655000D01*
X164055000Y-98655000D02*
X159795000Y-98655000D01*
X168812000Y-106910000D02*
X170762300Y-106910000D01*
X175022300Y-106910000D02*
X175022300Y-109203600D01*
X175022300Y-109203600D02*
X175497700Y-109679000D01*
X175497700Y-109679000D02*
X175497700Y-123293000D01*
X171121700Y-106910000D02*
X170762300Y-106910000D01*
X173072000Y-106910000D02*
X171121700Y-106910000D01*
X173072000Y-106910000D02*
X175022300Y-106910000D01*
X177448000Y-123293000D02*
X175497700Y-123293000D01*
X150651000Y-98655000D02*
X154911000Y-98655000D01*
X181708000Y-123293000D02*
X177448000Y-123293000D01*
G04 #@! TO.N,/GSM_STATUS*
X162048400Y-89696000D02*
X168709300Y-89696000D01*
X168709300Y-89696000D02*
X168998800Y-89985500D01*
G04 #@! TD*
D20*
G04 #@! TO.N,GND*
G36*
X171302560Y-69450000D02*
X171302560Y-70450000D01*
X171351843Y-70697765D01*
X171492191Y-70907809D01*
X171702235Y-71048157D01*
X171950000Y-71097440D01*
X172950000Y-71097440D01*
X173050000Y-71077549D01*
X173150000Y-71097440D01*
X174150000Y-71097440D01*
X174250000Y-71077549D01*
X174350000Y-71097440D01*
X175350000Y-71097440D01*
X175450000Y-71077549D01*
X175550000Y-71097440D01*
X176550000Y-71097440D01*
X176650000Y-71077549D01*
X176750000Y-71097440D01*
X177750000Y-71097440D01*
X177850000Y-71077549D01*
X177950000Y-71097440D01*
X178950000Y-71097440D01*
X179020074Y-71083502D01*
X179023691Y-71085000D01*
X179364250Y-71085000D01*
X179523000Y-70926250D01*
X179523000Y-70735415D01*
X179548157Y-70697765D01*
X179597440Y-70450000D01*
X179597440Y-69803000D01*
X179702560Y-69803000D01*
X179702560Y-70450000D01*
X179751843Y-70697765D01*
X179777000Y-70735415D01*
X179777000Y-70926250D01*
X179935750Y-71085000D01*
X180276309Y-71085000D01*
X180279926Y-71083502D01*
X180350000Y-71097440D01*
X181350000Y-71097440D01*
X181597765Y-71048157D01*
X181807809Y-70907809D01*
X181948157Y-70697765D01*
X181997440Y-70450000D01*
X181997440Y-69450000D01*
X181960642Y-69265000D01*
X188027322Y-69265000D01*
X187895000Y-69584452D01*
X187895000Y-70115548D01*
X188098242Y-70606217D01*
X188473783Y-70981758D01*
X188791302Y-71113279D01*
X188536169Y-71218958D01*
X188474331Y-71454725D01*
X189230000Y-72210395D01*
X189244142Y-72196252D01*
X189423748Y-72375858D01*
X189409605Y-72390000D01*
X189423748Y-72404143D01*
X189244142Y-72583748D01*
X189230000Y-72569605D01*
X188474331Y-73325275D01*
X188536169Y-73561042D01*
X189037122Y-73737419D01*
X189567440Y-73708664D01*
X189815000Y-73606121D01*
X189815000Y-75276975D01*
X189749698Y-75211673D01*
X189516309Y-75115000D01*
X188825750Y-75115000D01*
X188667000Y-75273750D01*
X188667000Y-76323000D01*
X188687000Y-76323000D01*
X188687000Y-76577000D01*
X188667000Y-76577000D01*
X188667000Y-77626250D01*
X188825750Y-77785000D01*
X189516309Y-77785000D01*
X189749698Y-77688327D01*
X189815000Y-77623025D01*
X189815000Y-87486975D01*
X189749698Y-87421673D01*
X189516309Y-87325000D01*
X188825750Y-87325000D01*
X188667000Y-87483750D01*
X188667000Y-88533000D01*
X188687000Y-88533000D01*
X188687000Y-88787000D01*
X188667000Y-88787000D01*
X188667000Y-89836250D01*
X188825750Y-89995000D01*
X189516309Y-89995000D01*
X189749698Y-89898327D01*
X189815000Y-89833025D01*
X189815000Y-94413505D01*
X189661974Y-94044066D01*
X188911734Y-93293826D01*
X187931499Y-92887800D01*
X186870501Y-92887800D01*
X185890266Y-93293826D01*
X185140026Y-94044066D01*
X184734000Y-95024301D01*
X184734000Y-96085299D01*
X185140026Y-97065534D01*
X185890266Y-97815774D01*
X186870501Y-98221800D01*
X187931499Y-98221800D01*
X188356100Y-98045925D01*
X188098242Y-98303783D01*
X187895000Y-98794452D01*
X187895000Y-99325548D01*
X188098242Y-99816217D01*
X188473783Y-100191758D01*
X188807528Y-100330000D01*
X188473783Y-100468242D01*
X188098242Y-100843783D01*
X187895000Y-101334452D01*
X187895000Y-101865548D01*
X187998762Y-102116051D01*
X187990880Y-102108169D01*
X187610474Y-101950600D01*
X187198726Y-101950600D01*
X186818320Y-102108169D01*
X186527169Y-102399320D01*
X186369600Y-102779726D01*
X186369600Y-103191474D01*
X186527169Y-103571880D01*
X186818320Y-103863031D01*
X187198726Y-104020600D01*
X187610474Y-104020600D01*
X187895000Y-103902746D01*
X187895000Y-104405548D01*
X188098242Y-104896217D01*
X188473783Y-105271758D01*
X188791302Y-105403279D01*
X188536169Y-105508958D01*
X188474331Y-105744725D01*
X189230000Y-106500395D01*
X189244143Y-106486253D01*
X189423748Y-106665858D01*
X189409605Y-106680000D01*
X189423748Y-106694142D01*
X189244143Y-106873748D01*
X189230000Y-106859605D01*
X188474331Y-107615275D01*
X188536169Y-107851042D01*
X189037122Y-108027419D01*
X189567440Y-107998664D01*
X189815001Y-107896121D01*
X189815001Y-121980641D01*
X189422878Y-121842581D01*
X188892560Y-121871336D01*
X188536169Y-122018958D01*
X188474331Y-122254725D01*
X189230000Y-123010395D01*
X189244142Y-122996252D01*
X189423748Y-123175858D01*
X189409605Y-123190000D01*
X189423748Y-123204142D01*
X189244142Y-123383748D01*
X189230000Y-123369605D01*
X188474331Y-124125275D01*
X188536169Y-124361042D01*
X188811987Y-124458153D01*
X188473783Y-124598242D01*
X188098242Y-124973783D01*
X187895000Y-125464452D01*
X187895000Y-125995548D01*
X188098242Y-126486217D01*
X188473783Y-126861758D01*
X188964452Y-127065000D01*
X189495548Y-127065000D01*
X189815001Y-126932678D01*
X189815001Y-131988468D01*
X189730000Y-131971560D01*
X188730000Y-131971560D01*
X188482235Y-132020843D01*
X188272191Y-132161191D01*
X188131843Y-132371235D01*
X188082560Y-132619000D01*
X188082560Y-133619000D01*
X188131843Y-133866765D01*
X188272191Y-134076809D01*
X188482235Y-134217157D01*
X188730000Y-134266440D01*
X189730000Y-134266440D01*
X189815001Y-134249532D01*
X189815001Y-139015000D01*
X180770708Y-139015000D01*
X181165974Y-138619734D01*
X181572000Y-137639499D01*
X181572000Y-136578501D01*
X181165974Y-135598266D01*
X180415734Y-134848026D01*
X179435499Y-134442000D01*
X178374501Y-134442000D01*
X177394266Y-134848026D01*
X176644026Y-135598266D01*
X176238000Y-136578501D01*
X176238000Y-137639499D01*
X176644026Y-138619734D01*
X177039292Y-139015000D01*
X153909708Y-139015000D01*
X154304974Y-138619734D01*
X154711000Y-137639499D01*
X154711000Y-136578501D01*
X154304974Y-135598266D01*
X153554734Y-134848026D01*
X152574499Y-134442000D01*
X151513501Y-134442000D01*
X150533266Y-134848026D01*
X149783026Y-135598266D01*
X149377000Y-136578501D01*
X149377000Y-137639499D01*
X149783026Y-138619734D01*
X150178292Y-139015000D01*
X145465000Y-139015000D01*
X145465000Y-133456533D01*
X145550000Y-133473440D01*
X146550000Y-133473440D01*
X146797765Y-133424157D01*
X147007809Y-133283809D01*
X147148157Y-133073765D01*
X147197440Y-132826000D01*
X147197440Y-131826000D01*
X147148157Y-131578235D01*
X147007809Y-131368191D01*
X146797765Y-131227843D01*
X146550000Y-131178560D01*
X145550000Y-131178560D01*
X145465000Y-131195467D01*
X145465000Y-131032678D01*
X145784452Y-131165000D01*
X146315548Y-131165000D01*
X146806217Y-130961758D01*
X147181758Y-130586217D01*
X147385000Y-130095548D01*
X147385000Y-129564452D01*
X147181758Y-129073783D01*
X146806217Y-128698242D01*
X146488698Y-128566721D01*
X146743831Y-128461042D01*
X146805669Y-128225275D01*
X146050000Y-127469605D01*
X146035858Y-127483748D01*
X145856252Y-127304142D01*
X145870395Y-127290000D01*
X145856252Y-127275858D01*
X146035858Y-127096252D01*
X146050000Y-127110395D01*
X146064142Y-127096252D01*
X146243748Y-127275858D01*
X146229605Y-127290000D01*
X146792713Y-127853107D01*
X146812372Y-127882529D01*
X146841794Y-127902188D01*
X146985275Y-128045669D01*
X146994221Y-128043323D01*
X148110371Y-129159473D01*
X148152771Y-129222929D01*
X148378560Y-129373797D01*
X148378560Y-129675000D01*
X148427843Y-129922765D01*
X148568191Y-130132809D01*
X148631334Y-130175000D01*
X148568191Y-130217191D01*
X148427843Y-130427235D01*
X148378560Y-130675000D01*
X148378560Y-132675000D01*
X148427843Y-132922765D01*
X148568191Y-133132809D01*
X148778235Y-133273157D01*
X149026000Y-133322440D01*
X152276000Y-133322440D01*
X152523765Y-133273157D01*
X152733809Y-133132809D01*
X152781000Y-133062183D01*
X152828191Y-133132809D01*
X153038235Y-133273157D01*
X153286000Y-133322440D01*
X156536000Y-133322440D01*
X156783765Y-133273157D01*
X156993809Y-133132809D01*
X157134157Y-132922765D01*
X157183440Y-132675000D01*
X157183440Y-132373797D01*
X157361082Y-132255100D01*
X157522560Y-132255100D01*
X157522560Y-132675000D01*
X157571843Y-132922765D01*
X157712191Y-133132809D01*
X157922235Y-133273157D01*
X158170000Y-133322440D01*
X161420000Y-133322440D01*
X161667765Y-133273157D01*
X161877809Y-133132809D01*
X161925000Y-133062183D01*
X161972191Y-133132809D01*
X162182235Y-133273157D01*
X162430000Y-133322440D01*
X165428829Y-133322440D01*
X165701820Y-133595431D01*
X166082226Y-133753000D01*
X166493974Y-133753000D01*
X166874380Y-133595431D01*
X167153946Y-133315865D01*
X167187000Y-133322440D01*
X167477749Y-133322440D01*
X167385669Y-133414520D01*
X167228100Y-133794926D01*
X167228100Y-134206674D01*
X167385669Y-134587080D01*
X167676820Y-134878231D01*
X168057226Y-135035800D01*
X168468974Y-135035800D01*
X168849380Y-134878231D01*
X169140531Y-134587080D01*
X169298100Y-134206674D01*
X169298100Y-133794926D01*
X169140531Y-133414520D01*
X169131506Y-133405495D01*
X169214561Y-133322440D01*
X170437000Y-133322440D01*
X170684765Y-133273157D01*
X170894809Y-133132809D01*
X170942000Y-133062183D01*
X170989191Y-133132809D01*
X171199235Y-133273157D01*
X171447000Y-133322440D01*
X174697000Y-133322440D01*
X174944765Y-133273157D01*
X175154809Y-133132809D01*
X175260000Y-132975381D01*
X175365191Y-133132809D01*
X175575235Y-133273157D01*
X175823000Y-133322440D01*
X179073000Y-133322440D01*
X179320765Y-133273157D01*
X179530809Y-133132809D01*
X179578000Y-133062183D01*
X179625191Y-133132809D01*
X179835235Y-133273157D01*
X180083000Y-133322440D01*
X183333000Y-133322440D01*
X183580765Y-133273157D01*
X183790809Y-133132809D01*
X183931157Y-132922765D01*
X183980440Y-132675000D01*
X183980440Y-130675000D01*
X183931157Y-130427235D01*
X183790809Y-130217191D01*
X183727666Y-130175000D01*
X183790809Y-130132809D01*
X183931157Y-129922765D01*
X183980440Y-129675000D01*
X183980440Y-127675000D01*
X183931157Y-127427235D01*
X183790809Y-127217191D01*
X183580765Y-127076843D01*
X183333000Y-127027560D01*
X180083000Y-127027560D01*
X179835235Y-127076843D01*
X179625191Y-127217191D01*
X179578000Y-127287817D01*
X179530809Y-127217191D01*
X179320765Y-127076843D01*
X179073000Y-127027560D01*
X176177700Y-127027560D01*
X176177700Y-126348111D01*
X176283250Y-126242561D01*
X176288120Y-126247431D01*
X176668526Y-126405000D01*
X177080274Y-126405000D01*
X177460680Y-126247431D01*
X177751831Y-125956280D01*
X177909400Y-125575874D01*
X177909400Y-125398000D01*
X183391353Y-125398000D01*
X183466200Y-125412888D01*
X183541047Y-125398000D01*
X183541052Y-125398000D01*
X183762737Y-125353904D01*
X184014129Y-125185929D01*
X184056531Y-125122470D01*
X185644273Y-123534729D01*
X185707729Y-123492329D01*
X185875704Y-123240937D01*
X185919800Y-123019252D01*
X185919800Y-123019248D01*
X185924201Y-122997122D01*
X187882581Y-122997122D01*
X187911336Y-123527440D01*
X188058958Y-123883831D01*
X188294725Y-123945669D01*
X189050395Y-123190000D01*
X188294725Y-122434331D01*
X188058958Y-122496169D01*
X187882581Y-122997122D01*
X185924201Y-122997122D01*
X185934688Y-122944401D01*
X185919800Y-122869554D01*
X185919800Y-115997366D01*
X186263426Y-116139700D01*
X186675174Y-116139700D01*
X187055580Y-115982131D01*
X187346731Y-115690980D01*
X187504300Y-115310574D01*
X187504300Y-114898826D01*
X187346731Y-114518420D01*
X187055580Y-114227269D01*
X186675174Y-114069700D01*
X186263426Y-114069700D01*
X185919800Y-114212034D01*
X185919800Y-113644027D01*
X186274626Y-113791000D01*
X186686374Y-113791000D01*
X187066780Y-113633431D01*
X187357931Y-113342280D01*
X187515500Y-112961874D01*
X187515500Y-112550126D01*
X187357931Y-112169720D01*
X187066780Y-111878569D01*
X186686374Y-111721000D01*
X186274626Y-111721000D01*
X185919800Y-111867973D01*
X185919800Y-111330356D01*
X186262726Y-111472400D01*
X186674474Y-111472400D01*
X187054880Y-111314831D01*
X187346031Y-111023680D01*
X187503600Y-110643274D01*
X187503600Y-110231526D01*
X187377814Y-109927850D01*
X187503600Y-109624174D01*
X187503600Y-109212426D01*
X187346031Y-108832020D01*
X187054880Y-108540869D01*
X186674474Y-108383300D01*
X186262726Y-108383300D01*
X185919800Y-108525344D01*
X185919800Y-105782826D01*
X186056800Y-105782826D01*
X186056800Y-106194574D01*
X186214369Y-106574980D01*
X186505520Y-106866131D01*
X186885926Y-107023700D01*
X187297674Y-107023700D01*
X187678080Y-106866131D01*
X187891557Y-106652654D01*
X187911336Y-107017440D01*
X188058958Y-107373831D01*
X188294725Y-107435669D01*
X189050395Y-106680000D01*
X188294725Y-105924331D01*
X188126800Y-105968375D01*
X188126800Y-105782826D01*
X187969231Y-105402420D01*
X187678080Y-105111269D01*
X187297674Y-104953700D01*
X186885926Y-104953700D01*
X186505520Y-105111269D01*
X186214369Y-105402420D01*
X186056800Y-105782826D01*
X185919800Y-105782826D01*
X185919800Y-102783646D01*
X185934688Y-102708799D01*
X185919800Y-102633952D01*
X185919800Y-102633948D01*
X185875704Y-102412263D01*
X185814010Y-102319931D01*
X185750129Y-102224326D01*
X185750127Y-102224324D01*
X185707729Y-102160871D01*
X185644276Y-102118473D01*
X184424907Y-100899104D01*
X184697131Y-100626880D01*
X184854700Y-100246474D01*
X184854700Y-99834726D01*
X184697131Y-99454320D01*
X184579700Y-99336889D01*
X184579700Y-94750346D01*
X184594588Y-94675499D01*
X184579700Y-94600652D01*
X184579700Y-94600648D01*
X184535604Y-94378963D01*
X184367629Y-94127571D01*
X184304172Y-94085171D01*
X184064131Y-93845129D01*
X184021729Y-93781671D01*
X183770337Y-93613696D01*
X183548652Y-93569600D01*
X183548647Y-93569600D01*
X183473800Y-93554712D01*
X183398953Y-93569600D01*
X179816002Y-93569600D01*
X177780628Y-91534226D01*
X182934600Y-91534226D01*
X182934600Y-91945974D01*
X183092169Y-92326380D01*
X183383320Y-92617531D01*
X183763726Y-92775100D01*
X184175474Y-92775100D01*
X184555880Y-92617531D01*
X184847031Y-92326380D01*
X185004600Y-91945974D01*
X185004600Y-91534226D01*
X184847031Y-91153820D01*
X184555880Y-90862669D01*
X184175474Y-90705100D01*
X183763726Y-90705100D01*
X183383320Y-90862669D01*
X183092169Y-91153820D01*
X182934600Y-91534226D01*
X177780628Y-91534226D01*
X176172728Y-89926326D01*
X185104700Y-89926326D01*
X185104700Y-90338074D01*
X185262269Y-90718480D01*
X185553420Y-91009631D01*
X185933826Y-91167200D01*
X186345574Y-91167200D01*
X186502633Y-91102144D01*
X186586920Y-91186431D01*
X186967326Y-91344000D01*
X187379074Y-91344000D01*
X187759480Y-91186431D01*
X188050631Y-90895280D01*
X188208200Y-90514874D01*
X188208200Y-90103126D01*
X188163413Y-89995000D01*
X188254250Y-89995000D01*
X188413000Y-89836250D01*
X188413000Y-88787000D01*
X187213750Y-88787000D01*
X187055000Y-88945750D01*
X187055000Y-89274000D01*
X186967326Y-89274000D01*
X186810267Y-89339056D01*
X186725980Y-89254769D01*
X186345574Y-89097200D01*
X185933826Y-89097200D01*
X185553420Y-89254769D01*
X185262269Y-89545920D01*
X185104700Y-89926326D01*
X176172728Y-89926326D01*
X175337652Y-89091250D01*
X175695000Y-89091250D01*
X175695000Y-89171310D01*
X175791673Y-89404699D01*
X175970302Y-89583327D01*
X176203691Y-89680000D01*
X176694250Y-89680000D01*
X176853000Y-89521250D01*
X176853000Y-88932500D01*
X177107000Y-88932500D01*
X177107000Y-89521250D01*
X177265750Y-89680000D01*
X177756309Y-89680000D01*
X177980000Y-89587344D01*
X178203691Y-89680000D01*
X178694250Y-89680000D01*
X178853000Y-89521250D01*
X178853000Y-88932500D01*
X177107000Y-88932500D01*
X176853000Y-88932500D01*
X175853750Y-88932500D01*
X175695000Y-89091250D01*
X175337652Y-89091250D01*
X174715092Y-88468690D01*
X175695000Y-88468690D01*
X175695000Y-88548750D01*
X175853750Y-88707500D01*
X176853000Y-88707500D01*
X176853000Y-88118750D01*
X176694250Y-87960000D01*
X176203691Y-87960000D01*
X175970302Y-88056673D01*
X175791673Y-88235301D01*
X175695000Y-88468690D01*
X174715092Y-88468690D01*
X174272500Y-88026099D01*
X174272500Y-87860026D01*
X174114931Y-87479620D01*
X173823780Y-87188469D01*
X173443374Y-87030900D01*
X173031626Y-87030900D01*
X172651220Y-87188469D01*
X172406200Y-87433489D01*
X172147880Y-87175169D01*
X171767474Y-87017600D01*
X171355726Y-87017600D01*
X170975320Y-87175169D01*
X170684169Y-87466320D01*
X170526600Y-87846726D01*
X170526600Y-88258474D01*
X170666813Y-88596980D01*
X170529400Y-88928726D01*
X170529400Y-89340474D01*
X170686969Y-89720880D01*
X170808044Y-89841955D01*
X169969999Y-90680000D01*
X169768011Y-90680000D01*
X169876231Y-90571780D01*
X170033800Y-90191374D01*
X170033800Y-89779626D01*
X169876231Y-89399220D01*
X169585080Y-89108069D01*
X169204674Y-88950500D01*
X168857048Y-88950500D01*
X168784152Y-88936000D01*
X168784147Y-88936000D01*
X168709300Y-88921112D01*
X168634453Y-88936000D01*
X168147200Y-88936000D01*
X168147200Y-88724626D01*
X167989631Y-88344220D01*
X167698480Y-88053069D01*
X167318074Y-87895500D01*
X166906326Y-87895500D01*
X166525920Y-88053069D01*
X166234769Y-88344220D01*
X166077200Y-88724626D01*
X166077200Y-88936000D01*
X162752111Y-88936000D01*
X162634680Y-88818569D01*
X162254274Y-88661000D01*
X161842526Y-88661000D01*
X161462120Y-88818569D01*
X161213000Y-89067689D01*
X161213000Y-88725750D01*
X161054250Y-88567000D01*
X159080000Y-88567000D01*
X159080000Y-88587000D01*
X158826000Y-88587000D01*
X158826000Y-88567000D01*
X156851750Y-88567000D01*
X156823000Y-88595750D01*
X156794250Y-88567000D01*
X154820000Y-88567000D01*
X154820000Y-88587000D01*
X154566000Y-88587000D01*
X154566000Y-88567000D01*
X152591750Y-88567000D01*
X152433000Y-88725750D01*
X152433000Y-89566310D01*
X152529673Y-89799699D01*
X152671320Y-89941345D01*
X152610191Y-89982191D01*
X152469843Y-90192235D01*
X152420560Y-90440000D01*
X152420560Y-92440000D01*
X152469843Y-92687765D01*
X152610191Y-92897809D01*
X152820235Y-93038157D01*
X153068000Y-93087440D01*
X156318000Y-93087440D01*
X156565765Y-93038157D01*
X156775809Y-92897809D01*
X156823000Y-92827183D01*
X156870191Y-92897809D01*
X157080235Y-93038157D01*
X157328000Y-93087440D01*
X160578000Y-93087440D01*
X160825765Y-93038157D01*
X161035809Y-92897809D01*
X161176157Y-92687765D01*
X161225440Y-92440000D01*
X161225440Y-92200000D01*
X170209953Y-92200000D01*
X170284800Y-92214888D01*
X170359647Y-92200000D01*
X170359652Y-92200000D01*
X170581337Y-92155904D01*
X170806842Y-92005226D01*
X172169500Y-92005226D01*
X172169500Y-92416974D01*
X172327069Y-92797380D01*
X172618220Y-93088531D01*
X172998626Y-93246100D01*
X173410374Y-93246100D01*
X173790780Y-93088531D01*
X174081931Y-92797380D01*
X174239500Y-92416974D01*
X174239500Y-92005226D01*
X174081931Y-91624820D01*
X173790780Y-91333669D01*
X173410374Y-91176100D01*
X172998626Y-91176100D01*
X172618220Y-91333669D01*
X172327069Y-91624820D01*
X172169500Y-92005226D01*
X170806842Y-92005226D01*
X170832729Y-91987929D01*
X170875131Y-91924470D01*
X172467645Y-90331956D01*
X172533820Y-90398131D01*
X172914226Y-90555700D01*
X173325974Y-90555700D01*
X173706380Y-90398131D01*
X173997531Y-90106980D01*
X174057939Y-89961141D01*
X178104358Y-94007560D01*
X175823000Y-94007560D01*
X175575235Y-94056843D01*
X175365191Y-94197191D01*
X175260000Y-94354619D01*
X175154809Y-94197191D01*
X174944765Y-94056843D01*
X174697000Y-94007560D01*
X172899500Y-94007560D01*
X172899500Y-93834326D01*
X172741931Y-93453920D01*
X172450780Y-93162769D01*
X172070374Y-93005200D01*
X171658626Y-93005200D01*
X171278220Y-93162769D01*
X171256350Y-93184639D01*
X171223180Y-93151469D01*
X170842774Y-92993900D01*
X170431026Y-92993900D01*
X170050620Y-93151469D01*
X169759469Y-93442620D01*
X169601900Y-93823026D01*
X169601900Y-94007560D01*
X169378300Y-94007560D01*
X169378300Y-93815126D01*
X169220731Y-93434720D01*
X168929580Y-93143569D01*
X168549174Y-92986000D01*
X168137426Y-92986000D01*
X167757020Y-93143569D01*
X167465869Y-93434720D01*
X167308300Y-93815126D01*
X167308300Y-94007560D01*
X167187000Y-94007560D01*
X166939235Y-94056843D01*
X166729191Y-94197191D01*
X166588843Y-94407235D01*
X166539560Y-94655000D01*
X166539560Y-96655000D01*
X166588843Y-96902765D01*
X166729191Y-97112809D01*
X166792334Y-97155000D01*
X166729191Y-97197191D01*
X166588843Y-97407235D01*
X166539560Y-97655000D01*
X166539560Y-97895000D01*
X166327440Y-97895000D01*
X166327440Y-97655000D01*
X166278157Y-97407235D01*
X166137809Y-97197191D01*
X166074666Y-97155000D01*
X166137809Y-97112809D01*
X166278157Y-96902765D01*
X166327440Y-96655000D01*
X166327440Y-94655000D01*
X166278157Y-94407235D01*
X166137809Y-94197191D01*
X165927765Y-94056843D01*
X165680000Y-94007560D01*
X164558400Y-94007560D01*
X164558400Y-93821426D01*
X164400831Y-93441020D01*
X164109680Y-93149869D01*
X163729274Y-92992300D01*
X163317526Y-92992300D01*
X162937120Y-93149869D01*
X162645969Y-93441020D01*
X162488400Y-93821426D01*
X162488400Y-94007560D01*
X162430000Y-94007560D01*
X162182235Y-94056843D01*
X161972191Y-94197191D01*
X161925000Y-94267817D01*
X161877809Y-94197191D01*
X161667765Y-94056843D01*
X161420000Y-94007560D01*
X158170000Y-94007560D01*
X157922235Y-94056843D01*
X157712191Y-94197191D01*
X157571843Y-94407235D01*
X157522560Y-94655000D01*
X157522560Y-94956203D01*
X157296771Y-95107071D01*
X157183440Y-95276683D01*
X157183440Y-94655000D01*
X157134157Y-94407235D01*
X156993809Y-94197191D01*
X156783765Y-94056843D01*
X156536000Y-94007560D01*
X153286000Y-94007560D01*
X153038235Y-94056843D01*
X152828191Y-94197191D01*
X152781000Y-94267817D01*
X152733809Y-94197191D01*
X152523765Y-94056843D01*
X152276000Y-94007560D01*
X149026000Y-94007560D01*
X148778235Y-94056843D01*
X148568191Y-94197191D01*
X148427843Y-94407235D01*
X148378560Y-94655000D01*
X148378560Y-94956204D01*
X148216226Y-95064671D01*
X148216224Y-95064673D01*
X148152771Y-95107071D01*
X148110373Y-95170525D01*
X147263729Y-96017169D01*
X147200271Y-96059571D01*
X147032296Y-96310964D01*
X146988200Y-96532649D01*
X146988200Y-96532653D01*
X146973312Y-96607500D01*
X146988200Y-96682347D01*
X146988200Y-101844225D01*
X146806217Y-101662242D01*
X146315548Y-101459000D01*
X145784452Y-101459000D01*
X145465000Y-101591322D01*
X145465000Y-87313690D01*
X152433000Y-87313690D01*
X152433000Y-88154250D01*
X152591750Y-88313000D01*
X154566000Y-88313000D01*
X154566000Y-86963750D01*
X154820000Y-86963750D01*
X154820000Y-88313000D01*
X156794250Y-88313000D01*
X156823000Y-88284250D01*
X156851750Y-88313000D01*
X158826000Y-88313000D01*
X158826000Y-88293000D01*
X159080000Y-88293000D01*
X159080000Y-88313000D01*
X161054250Y-88313000D01*
X161213000Y-88154250D01*
X161213000Y-87313690D01*
X161117735Y-87083700D01*
X162492353Y-87083700D01*
X162567200Y-87098588D01*
X162642047Y-87083700D01*
X162642052Y-87083700D01*
X162863737Y-87039604D01*
X163115129Y-86871629D01*
X163157531Y-86808170D01*
X163230401Y-86735300D01*
X163396474Y-86735300D01*
X163776880Y-86577731D01*
X164068031Y-86286580D01*
X164225600Y-85906174D01*
X164225600Y-85494426D01*
X164068031Y-85114020D01*
X163776880Y-84822869D01*
X163451900Y-84688258D01*
X163451900Y-84666026D01*
X163294331Y-84285620D01*
X163003180Y-83994469D01*
X162622774Y-83836900D01*
X162211026Y-83836900D01*
X161830620Y-83994469D01*
X161539469Y-84285620D01*
X161381900Y-84666026D01*
X161381900Y-85077774D01*
X161539469Y-85458180D01*
X161644989Y-85563700D01*
X160013611Y-85563700D01*
X159896180Y-85446269D01*
X159515774Y-85288700D01*
X159104026Y-85288700D01*
X158723620Y-85446269D01*
X158432469Y-85737420D01*
X158274900Y-86117826D01*
X158274900Y-86529574D01*
X158388985Y-86805000D01*
X157201691Y-86805000D01*
X156968302Y-86901673D01*
X156823000Y-87046974D01*
X156677698Y-86901673D01*
X156444309Y-86805000D01*
X154978750Y-86805000D01*
X154820000Y-86963750D01*
X154566000Y-86963750D01*
X154407250Y-86805000D01*
X152941691Y-86805000D01*
X152708302Y-86901673D01*
X152529673Y-87080301D01*
X152433000Y-87313690D01*
X145465000Y-87313690D01*
X145465000Y-83289501D01*
X145923000Y-83289501D01*
X145923000Y-84350499D01*
X146329026Y-85330734D01*
X147079266Y-86080974D01*
X148059501Y-86487000D01*
X149120499Y-86487000D01*
X150100734Y-86080974D01*
X150850974Y-85330734D01*
X151257000Y-84350499D01*
X151257000Y-83289501D01*
X150850974Y-82309266D01*
X150100734Y-81559026D01*
X149120499Y-81153000D01*
X148059501Y-81153000D01*
X147079266Y-81559026D01*
X146329026Y-82309266D01*
X145923000Y-83289501D01*
X145465000Y-83289501D01*
X145465000Y-80269226D01*
X152794700Y-80269226D01*
X152794700Y-80680974D01*
X152952269Y-81061380D01*
X153243420Y-81352531D01*
X153623826Y-81510100D01*
X154035574Y-81510100D01*
X154415980Y-81352531D01*
X154455585Y-81312926D01*
X155017600Y-81312926D01*
X155017600Y-81724674D01*
X155175169Y-82105080D01*
X155466320Y-82396231D01*
X155846726Y-82553800D01*
X156258474Y-82553800D01*
X156638880Y-82396231D01*
X156930031Y-82105080D01*
X156941941Y-82076326D01*
X162261700Y-82076326D01*
X162261700Y-82488074D01*
X162419269Y-82868480D01*
X162710420Y-83159631D01*
X163090826Y-83317200D01*
X163502574Y-83317200D01*
X163882980Y-83159631D01*
X164174131Y-82868480D01*
X164331700Y-82488074D01*
X164331700Y-82076326D01*
X164174131Y-81695920D01*
X163882980Y-81404769D01*
X163502574Y-81247200D01*
X163090826Y-81247200D01*
X162710420Y-81404769D01*
X162419269Y-81695920D01*
X162261700Y-82076326D01*
X156941941Y-82076326D01*
X157087600Y-81724674D01*
X157087600Y-81312926D01*
X156930031Y-80932520D01*
X156638880Y-80641369D01*
X156258474Y-80483800D01*
X155846726Y-80483800D01*
X155466320Y-80641369D01*
X155175169Y-80932520D01*
X155017600Y-81312926D01*
X154455585Y-81312926D01*
X154707131Y-81061380D01*
X154864700Y-80680974D01*
X154864700Y-80269226D01*
X154707131Y-79888820D01*
X154415980Y-79597669D01*
X154035574Y-79440100D01*
X153623826Y-79440100D01*
X153243420Y-79597669D01*
X152952269Y-79888820D01*
X152794700Y-80269226D01*
X145465000Y-80269226D01*
X145465000Y-78600533D01*
X145550000Y-78617440D01*
X146550000Y-78617440D01*
X146797765Y-78568157D01*
X146863811Y-78524026D01*
X154925900Y-78524026D01*
X154925900Y-78935774D01*
X155083469Y-79316180D01*
X155374620Y-79607331D01*
X155755026Y-79764900D01*
X156166774Y-79764900D01*
X156547180Y-79607331D01*
X156838331Y-79316180D01*
X156995900Y-78935774D01*
X156995900Y-78524026D01*
X156838331Y-78143620D01*
X156692437Y-77997726D01*
X159492300Y-77997726D01*
X159492300Y-78409474D01*
X159649869Y-78789880D01*
X159941020Y-79081031D01*
X160321426Y-79238600D01*
X160733174Y-79238600D01*
X161113580Y-79081031D01*
X161246885Y-78947726D01*
X167015200Y-78947726D01*
X167015200Y-79359474D01*
X167172769Y-79739880D01*
X167204752Y-79771863D01*
X167131700Y-79948226D01*
X167131700Y-80359974D01*
X167237673Y-80615816D01*
X167210169Y-80643320D01*
X167052600Y-81023726D01*
X167052600Y-81435474D01*
X167210169Y-81815880D01*
X167235964Y-81841675D01*
X167153100Y-82041726D01*
X167153100Y-82453474D01*
X167310669Y-82833880D01*
X167601820Y-83125031D01*
X167982226Y-83282600D01*
X168393974Y-83282600D01*
X168774380Y-83125031D01*
X169065531Y-82833880D01*
X169223100Y-82453474D01*
X169223100Y-82041726D01*
X169201509Y-81989600D01*
X169837600Y-81989600D01*
X169837600Y-82349974D01*
X169995169Y-82730380D01*
X170286320Y-83021531D01*
X170666726Y-83179100D01*
X171078474Y-83179100D01*
X171458880Y-83021531D01*
X171750031Y-82730380D01*
X171907600Y-82349974D01*
X171907600Y-81989600D01*
X172489499Y-81989600D01*
X173109011Y-82609113D01*
X173041520Y-82637069D01*
X172750369Y-82928220D01*
X172592800Y-83308626D01*
X172592800Y-83720374D01*
X172750369Y-84100780D01*
X173041520Y-84391931D01*
X173258406Y-84481768D01*
X173193796Y-84578463D01*
X173134811Y-84875000D01*
X173135030Y-84876100D01*
X173038626Y-84876100D01*
X172658220Y-85033669D01*
X172367069Y-85324820D01*
X172209500Y-85705226D01*
X172209500Y-86116974D01*
X172367069Y-86497380D01*
X172658220Y-86788531D01*
X173038626Y-86946100D01*
X173450374Y-86946100D01*
X173830780Y-86788531D01*
X174121931Y-86497380D01*
X174279500Y-86116974D01*
X174279500Y-85950902D01*
X174382962Y-85847440D01*
X175385000Y-85847440D01*
X175620747Y-85800548D01*
X175628763Y-85805904D01*
X175850448Y-85850000D01*
X175850453Y-85850000D01*
X175925300Y-85864888D01*
X176000147Y-85850000D01*
X180118530Y-85850000D01*
X180067375Y-85973501D01*
X179999774Y-85945500D01*
X179588026Y-85945500D01*
X179207620Y-86103069D01*
X178916469Y-86394220D01*
X178758900Y-86774626D01*
X178758900Y-87186374D01*
X178831513Y-87361676D01*
X178794969Y-87398220D01*
X178637400Y-87778626D01*
X178637400Y-87960000D01*
X178203691Y-87960000D01*
X177980000Y-88052656D01*
X177756309Y-87960000D01*
X177265750Y-87960000D01*
X177107000Y-88118750D01*
X177107000Y-88707500D01*
X178853000Y-88707500D01*
X178853000Y-88673000D01*
X178897189Y-88673000D01*
X179086120Y-88861931D01*
X179127000Y-88878864D01*
X179127000Y-88932500D01*
X179107000Y-88932500D01*
X179107000Y-89521250D01*
X179265750Y-89680000D01*
X179756309Y-89680000D01*
X179989698Y-89583327D01*
X180168327Y-89404699D01*
X180265000Y-89171310D01*
X180265000Y-89091250D01*
X180120752Y-88947002D01*
X180265000Y-88947002D01*
X180265000Y-88855611D01*
X180549831Y-88570780D01*
X180707400Y-88190374D01*
X180707400Y-87778626D01*
X180634787Y-87603324D01*
X180671331Y-87566780D01*
X180813025Y-87224699D01*
X180880626Y-87252700D01*
X181253889Y-87252700D01*
X181220669Y-87285920D01*
X181063100Y-87666326D01*
X181063100Y-88078074D01*
X181220669Y-88458480D01*
X181511820Y-88749631D01*
X181892226Y-88907200D01*
X182303974Y-88907200D01*
X182684380Y-88749631D01*
X182975531Y-88458480D01*
X183133100Y-88078074D01*
X183133100Y-87666326D01*
X182975531Y-87285920D01*
X182820661Y-87131050D01*
X183001231Y-86950480D01*
X183158800Y-86570074D01*
X183158800Y-86158326D01*
X183031087Y-85850000D01*
X185586389Y-85850000D01*
X185450069Y-85986320D01*
X185292500Y-86366726D01*
X185292500Y-86778474D01*
X185426182Y-87101211D01*
X185310900Y-87379526D01*
X185310900Y-87791274D01*
X185468469Y-88171680D01*
X185759620Y-88462831D01*
X186140026Y-88620400D01*
X186551774Y-88620400D01*
X186932180Y-88462831D01*
X187055000Y-88340011D01*
X187055000Y-88374250D01*
X187213750Y-88533000D01*
X188413000Y-88533000D01*
X188413000Y-87483750D01*
X188254250Y-87325000D01*
X187563691Y-87325000D01*
X187380900Y-87400715D01*
X187380900Y-87379526D01*
X187247218Y-87056789D01*
X187362500Y-86778474D01*
X187362500Y-86366726D01*
X187204931Y-85986320D01*
X187068611Y-85850000D01*
X187150368Y-85850000D01*
X187312235Y-85958157D01*
X187560000Y-86007440D01*
X188360000Y-86007440D01*
X188607765Y-85958157D01*
X188817809Y-85817809D01*
X188958157Y-85607765D01*
X189007440Y-85360000D01*
X189007440Y-84820000D01*
X188958157Y-84572235D01*
X188817809Y-84362191D01*
X188607765Y-84221843D01*
X188360000Y-84172560D01*
X187560000Y-84172560D01*
X187312235Y-84221843D01*
X187150368Y-84330000D01*
X183644600Y-84330000D01*
X183644600Y-84083500D01*
X183697674Y-84083500D01*
X184078080Y-83925931D01*
X184369231Y-83634780D01*
X184526800Y-83254374D01*
X184526800Y-82842626D01*
X184369231Y-82462220D01*
X184114011Y-82207000D01*
X184356831Y-81964180D01*
X184514400Y-81583774D01*
X184514400Y-81172026D01*
X184356831Y-80791620D01*
X184335211Y-80770000D01*
X185361600Y-80770000D01*
X185361600Y-80955574D01*
X185519169Y-81335980D01*
X185544289Y-81361100D01*
X185328369Y-81577020D01*
X185170800Y-81957426D01*
X185170800Y-82369174D01*
X185328369Y-82749580D01*
X185619520Y-83040731D01*
X185999926Y-83198300D01*
X186411674Y-83198300D01*
X186792080Y-83040731D01*
X187083231Y-82749580D01*
X187240800Y-82369174D01*
X187240800Y-81957426D01*
X187083231Y-81577020D01*
X187058111Y-81551900D01*
X187274031Y-81335980D01*
X187431600Y-80955574D01*
X187431600Y-80901900D01*
X187560000Y-80927440D01*
X188360000Y-80927440D01*
X188607765Y-80878157D01*
X188817809Y-80737809D01*
X188958157Y-80527765D01*
X189007440Y-80280000D01*
X189007440Y-79740000D01*
X188958157Y-79492235D01*
X188817809Y-79282191D01*
X188607765Y-79141843D01*
X188360000Y-79092560D01*
X187560000Y-79092560D01*
X187312235Y-79141843D01*
X187231500Y-79195789D01*
X187231500Y-79004526D01*
X187073931Y-78624120D01*
X186782780Y-78332969D01*
X186753320Y-78320766D01*
X186786480Y-78307031D01*
X187077631Y-78015880D01*
X187235200Y-77635474D01*
X187235200Y-77593226D01*
X187330302Y-77688327D01*
X187563691Y-77785000D01*
X188254250Y-77785000D01*
X188413000Y-77626250D01*
X188413000Y-76577000D01*
X187213750Y-76577000D01*
X187055000Y-76735750D01*
X187055000Y-76820689D01*
X186786480Y-76552169D01*
X186406074Y-76394600D01*
X185994326Y-76394600D01*
X185852800Y-76453222D01*
X185852800Y-76253226D01*
X185695231Y-75872820D01*
X185446101Y-75623690D01*
X187055000Y-75623690D01*
X187055000Y-76164250D01*
X187213750Y-76323000D01*
X188413000Y-76323000D01*
X188413000Y-75273750D01*
X188254250Y-75115000D01*
X187563691Y-75115000D01*
X187330302Y-75211673D01*
X187151673Y-75390301D01*
X187055000Y-75623690D01*
X185446101Y-75623690D01*
X185404080Y-75581669D01*
X185023674Y-75424100D01*
X184611926Y-75424100D01*
X184231520Y-75581669D01*
X183940369Y-75872820D01*
X183831460Y-76135749D01*
X183776280Y-76080569D01*
X183395874Y-75923000D01*
X182984126Y-75923000D01*
X182603720Y-76080569D01*
X182312569Y-76371720D01*
X182161573Y-76736257D01*
X181824520Y-76875869D01*
X181778600Y-76921789D01*
X181778600Y-76693526D01*
X181621031Y-76313120D01*
X181329880Y-76021969D01*
X180949474Y-75864400D01*
X180537726Y-75864400D01*
X180265000Y-75977367D01*
X180265000Y-75928690D01*
X180168327Y-75695301D01*
X179989698Y-75516673D01*
X179756309Y-75420000D01*
X179265750Y-75420000D01*
X179107000Y-75578750D01*
X179107000Y-76167500D01*
X179127000Y-76167500D01*
X179127000Y-76392500D01*
X179107000Y-76392500D01*
X179107000Y-76981250D01*
X179265750Y-77140000D01*
X179722984Y-77140000D01*
X179851564Y-77450419D01*
X179750700Y-77693926D01*
X179750700Y-78105674D01*
X179908269Y-78486080D01*
X180199420Y-78777231D01*
X180283802Y-78812183D01*
X180233620Y-78832969D01*
X179942469Y-79124120D01*
X179784900Y-79504526D01*
X179784900Y-79916274D01*
X179942469Y-80296680D01*
X180099489Y-80453700D01*
X179844526Y-80453700D01*
X179464120Y-80611269D01*
X179172969Y-80902420D01*
X179015400Y-81282826D01*
X179015400Y-81575000D01*
X176777611Y-81575000D01*
X176870231Y-81482380D01*
X177027800Y-81101974D01*
X177027800Y-80690226D01*
X176870231Y-80309820D01*
X176579080Y-80018669D01*
X176198674Y-79861100D01*
X176032440Y-79861100D01*
X176032440Y-79470000D01*
X175983157Y-79222235D01*
X175943017Y-79162162D01*
X176020000Y-78976310D01*
X176020000Y-78810750D01*
X175861250Y-78652000D01*
X174937000Y-78652000D01*
X174937000Y-78672000D01*
X174683000Y-78672000D01*
X174683000Y-78652000D01*
X174663000Y-78652000D01*
X174663000Y-78398000D01*
X174683000Y-78398000D01*
X174683000Y-78378000D01*
X174937000Y-78378000D01*
X174937000Y-78398000D01*
X175861250Y-78398000D01*
X176020000Y-78239250D01*
X176020000Y-78073690D01*
X175923327Y-77840301D01*
X175744698Y-77661673D01*
X175511309Y-77565000D01*
X175398011Y-77565000D01*
X175461731Y-77501280D01*
X175619300Y-77120874D01*
X175619300Y-76709126D01*
X175553906Y-76551250D01*
X175695000Y-76551250D01*
X175695000Y-76631310D01*
X175791673Y-76864699D01*
X175970302Y-77043327D01*
X176203691Y-77140000D01*
X176694250Y-77140000D01*
X176853000Y-76981250D01*
X176853000Y-76392500D01*
X177107000Y-76392500D01*
X177107000Y-76981250D01*
X177265750Y-77140000D01*
X177756309Y-77140000D01*
X177980000Y-77047344D01*
X178203691Y-77140000D01*
X178694250Y-77140000D01*
X178853000Y-76981250D01*
X178853000Y-76392500D01*
X177107000Y-76392500D01*
X176853000Y-76392500D01*
X175853750Y-76392500D01*
X175695000Y-76551250D01*
X175553906Y-76551250D01*
X175461731Y-76328720D01*
X175170580Y-76037569D01*
X174907723Y-75928690D01*
X175695000Y-75928690D01*
X175695000Y-76008750D01*
X175853750Y-76167500D01*
X176853000Y-76167500D01*
X176853000Y-75578750D01*
X177107000Y-75578750D01*
X177107000Y-76167500D01*
X178853000Y-76167500D01*
X178853000Y-75578750D01*
X178694250Y-75420000D01*
X178203691Y-75420000D01*
X177980000Y-75512656D01*
X177756309Y-75420000D01*
X177265750Y-75420000D01*
X177107000Y-75578750D01*
X176853000Y-75578750D01*
X176694250Y-75420000D01*
X176203691Y-75420000D01*
X175970302Y-75516673D01*
X175791673Y-75695301D01*
X175695000Y-75928690D01*
X174907723Y-75928690D01*
X174790174Y-75880000D01*
X174378426Y-75880000D01*
X173998020Y-76037569D01*
X173800745Y-76234844D01*
X173789774Y-76230300D01*
X173378026Y-76230300D01*
X172997620Y-76387869D01*
X172706469Y-76679020D01*
X172548900Y-77059426D01*
X172548900Y-77471174D01*
X172561440Y-77501449D01*
X172383469Y-77679420D01*
X172225900Y-78059826D01*
X172225900Y-78471574D01*
X172383469Y-78851980D01*
X172674620Y-79143131D01*
X172869455Y-79223834D01*
X172713869Y-79379420D01*
X172556300Y-79759826D01*
X172556300Y-80171574D01*
X172679746Y-80469600D01*
X171585411Y-80469600D01*
X171757631Y-80297380D01*
X171915200Y-79916974D01*
X171915200Y-79505226D01*
X171805974Y-79241531D01*
X171940700Y-78916274D01*
X171940700Y-78504526D01*
X171783131Y-78124120D01*
X171491980Y-77832969D01*
X171111574Y-77675400D01*
X170699826Y-77675400D01*
X170319420Y-77832969D01*
X170028269Y-78124120D01*
X169870700Y-78504526D01*
X169870700Y-78916274D01*
X169979926Y-79179969D01*
X169845200Y-79505226D01*
X169845200Y-79916974D01*
X170002769Y-80297380D01*
X170174989Y-80469600D01*
X169156292Y-80469600D01*
X169201700Y-80359974D01*
X169201700Y-79948226D01*
X169044131Y-79567820D01*
X169012148Y-79535837D01*
X169085200Y-79359474D01*
X169085200Y-78947726D01*
X168927631Y-78567320D01*
X168636480Y-78276169D01*
X168256074Y-78118600D01*
X167844326Y-78118600D01*
X167463920Y-78276169D01*
X167172769Y-78567320D01*
X167015200Y-78947726D01*
X161246885Y-78947726D01*
X161404731Y-78789880D01*
X161562300Y-78409474D01*
X161562300Y-77997726D01*
X161404731Y-77617320D01*
X161113580Y-77326169D01*
X160733174Y-77168600D01*
X160321426Y-77168600D01*
X159941020Y-77326169D01*
X159649869Y-77617320D01*
X159492300Y-77997726D01*
X156692437Y-77997726D01*
X156547180Y-77852469D01*
X156166774Y-77694900D01*
X155755026Y-77694900D01*
X155374620Y-77852469D01*
X155083469Y-78143620D01*
X154925900Y-78524026D01*
X146863811Y-78524026D01*
X147007809Y-78427809D01*
X147148157Y-78217765D01*
X147197440Y-77970000D01*
X147197440Y-76970000D01*
X147148157Y-76722235D01*
X147007809Y-76512191D01*
X146797765Y-76371843D01*
X146550000Y-76322560D01*
X145550000Y-76322560D01*
X145465000Y-76339467D01*
X145465000Y-75684226D01*
X148303300Y-75684226D01*
X148303300Y-76095974D01*
X148460869Y-76476380D01*
X148752020Y-76767531D01*
X149132426Y-76925100D01*
X149544174Y-76925100D01*
X149924580Y-76767531D01*
X150215731Y-76476380D01*
X150317815Y-76229926D01*
X167419600Y-76229926D01*
X167419600Y-76641674D01*
X167577169Y-77022080D01*
X167868320Y-77313231D01*
X168248726Y-77470800D01*
X168660474Y-77470800D01*
X169040880Y-77313231D01*
X169332031Y-77022080D01*
X169489600Y-76641674D01*
X169489600Y-76229926D01*
X169332031Y-75849520D01*
X169040880Y-75558369D01*
X168660474Y-75400800D01*
X168248726Y-75400800D01*
X167868320Y-75558369D01*
X167577169Y-75849520D01*
X167419600Y-76229926D01*
X150317815Y-76229926D01*
X150373300Y-76095974D01*
X150373300Y-75684226D01*
X150215731Y-75303820D01*
X149924580Y-75012669D01*
X149687159Y-74914326D01*
X161245900Y-74914326D01*
X161245900Y-75326074D01*
X161403469Y-75706480D01*
X161694620Y-75997631D01*
X162075026Y-76155200D01*
X162486774Y-76155200D01*
X162867180Y-75997631D01*
X163158331Y-75706480D01*
X163315900Y-75326074D01*
X163315900Y-74980326D01*
X163903400Y-74980326D01*
X163903400Y-75392074D01*
X164060969Y-75772480D01*
X164352120Y-76063631D01*
X164732526Y-76221200D01*
X165144274Y-76221200D01*
X165524680Y-76063631D01*
X165815831Y-75772480D01*
X165973400Y-75392074D01*
X165973400Y-74980326D01*
X165815831Y-74599920D01*
X165524680Y-74308769D01*
X165144274Y-74151200D01*
X164732526Y-74151200D01*
X164352120Y-74308769D01*
X164060969Y-74599920D01*
X163903400Y-74980326D01*
X163315900Y-74980326D01*
X163315900Y-74914326D01*
X163158331Y-74533920D01*
X162867180Y-74242769D01*
X162486774Y-74085200D01*
X162075026Y-74085200D01*
X161694620Y-74242769D01*
X161403469Y-74533920D01*
X161245900Y-74914326D01*
X149687159Y-74914326D01*
X149544174Y-74855100D01*
X149132426Y-74855100D01*
X148752020Y-75012669D01*
X148460869Y-75303820D01*
X148303300Y-75684226D01*
X145465000Y-75684226D01*
X145465000Y-73997026D01*
X180155000Y-73997026D01*
X180155000Y-74408774D01*
X180312569Y-74789180D01*
X180603720Y-75080331D01*
X180984126Y-75237900D01*
X181395874Y-75237900D01*
X181727558Y-75100512D01*
X182042826Y-75231100D01*
X182454574Y-75231100D01*
X182834980Y-75073531D01*
X183126131Y-74782380D01*
X183283700Y-74401974D01*
X183283700Y-73990226D01*
X183126131Y-73609820D01*
X182834980Y-73318669D01*
X182454574Y-73161100D01*
X182042826Y-73161100D01*
X181711142Y-73298488D01*
X181395874Y-73167900D01*
X180984126Y-73167900D01*
X180603720Y-73325469D01*
X180312569Y-73616620D01*
X180155000Y-73997026D01*
X145465000Y-73997026D01*
X145465000Y-70564100D01*
X145984560Y-70564100D01*
X145984560Y-71564100D01*
X146033843Y-71811865D01*
X146174191Y-72021909D01*
X146384235Y-72162257D01*
X146632000Y-72211540D01*
X147632000Y-72211540D01*
X147879765Y-72162257D01*
X147895500Y-72151743D01*
X147911235Y-72162257D01*
X148159000Y-72211540D01*
X149159000Y-72211540D01*
X149406765Y-72162257D01*
X149426000Y-72149404D01*
X149445235Y-72162257D01*
X149693000Y-72211540D01*
X150693000Y-72211540D01*
X150940765Y-72162257D01*
X150957500Y-72151075D01*
X150974235Y-72162257D01*
X151222000Y-72211540D01*
X152222000Y-72211540D01*
X152469765Y-72162257D01*
X152508000Y-72136709D01*
X152546235Y-72162257D01*
X152794000Y-72211540D01*
X153794000Y-72211540D01*
X154041765Y-72162257D01*
X154086500Y-72132366D01*
X154131235Y-72162257D01*
X154379000Y-72211540D01*
X155379000Y-72211540D01*
X155626765Y-72162257D01*
X155670000Y-72133368D01*
X155713235Y-72162257D01*
X155961000Y-72211540D01*
X156961000Y-72211540D01*
X157208765Y-72162257D01*
X157243500Y-72139048D01*
X157278235Y-72162257D01*
X157526000Y-72211540D01*
X158526000Y-72211540D01*
X158773765Y-72162257D01*
X158983809Y-72021909D01*
X159124157Y-71811865D01*
X159173440Y-71564100D01*
X159173440Y-70798552D01*
X160366000Y-70798552D01*
X160366000Y-71329648D01*
X160569242Y-71820317D01*
X160944783Y-72195858D01*
X161435452Y-72399100D01*
X161966548Y-72399100D01*
X162457217Y-72195858D01*
X162832758Y-71820317D01*
X162971000Y-71486572D01*
X163109242Y-71820317D01*
X163484783Y-72195858D01*
X163975452Y-72399100D01*
X164506548Y-72399100D01*
X164997217Y-72195858D01*
X165372758Y-71820317D01*
X165404500Y-71743685D01*
X165436242Y-71820317D01*
X165811783Y-72195858D01*
X166302452Y-72399100D01*
X166833548Y-72399100D01*
X167324217Y-72195858D01*
X167699758Y-71820317D01*
X167838000Y-71486572D01*
X167976242Y-71820317D01*
X168351783Y-72195858D01*
X168842452Y-72399100D01*
X169373548Y-72399100D01*
X169861165Y-72197122D01*
X187882581Y-72197122D01*
X187911336Y-72727440D01*
X188058958Y-73083831D01*
X188294725Y-73145669D01*
X189050395Y-72390000D01*
X188294725Y-71634331D01*
X188058958Y-71696169D01*
X187882581Y-72197122D01*
X169861165Y-72197122D01*
X169864217Y-72195858D01*
X170239758Y-71820317D01*
X170443000Y-71329648D01*
X170443000Y-70798552D01*
X170239758Y-70307883D01*
X169864217Y-69932342D01*
X169373548Y-69729100D01*
X168842452Y-69729100D01*
X168351783Y-69932342D01*
X167976242Y-70307883D01*
X167838000Y-70641628D01*
X167699758Y-70307883D01*
X167324217Y-69932342D01*
X166833548Y-69729100D01*
X166302452Y-69729100D01*
X165811783Y-69932342D01*
X165436242Y-70307883D01*
X165404500Y-70384515D01*
X165372758Y-70307883D01*
X164997217Y-69932342D01*
X164506548Y-69729100D01*
X163975452Y-69729100D01*
X163484783Y-69932342D01*
X163109242Y-70307883D01*
X162971000Y-70641628D01*
X162832758Y-70307883D01*
X162457217Y-69932342D01*
X161966548Y-69729100D01*
X161435452Y-69729100D01*
X160944783Y-69932342D01*
X160569242Y-70307883D01*
X160366000Y-70798552D01*
X159173440Y-70798552D01*
X159173440Y-70564100D01*
X159124157Y-70316335D01*
X158983809Y-70106291D01*
X158773765Y-69965943D01*
X158526000Y-69916660D01*
X157526000Y-69916660D01*
X157278235Y-69965943D01*
X157243500Y-69989152D01*
X157208765Y-69965943D01*
X156961000Y-69916660D01*
X155961000Y-69916660D01*
X155713235Y-69965943D01*
X155670000Y-69994832D01*
X155626765Y-69965943D01*
X155379000Y-69916660D01*
X154379000Y-69916660D01*
X154131235Y-69965943D01*
X154086500Y-69995834D01*
X154041765Y-69965943D01*
X153794000Y-69916660D01*
X152794000Y-69916660D01*
X152546235Y-69965943D01*
X152508000Y-69991491D01*
X152469765Y-69965943D01*
X152222000Y-69916660D01*
X151222000Y-69916660D01*
X150974235Y-69965943D01*
X150957500Y-69977125D01*
X150940765Y-69965943D01*
X150693000Y-69916660D01*
X149693000Y-69916660D01*
X149445235Y-69965943D01*
X149426000Y-69978796D01*
X149406765Y-69965943D01*
X149159000Y-69916660D01*
X148159000Y-69916660D01*
X147911235Y-69965943D01*
X147895500Y-69976457D01*
X147879765Y-69965943D01*
X147632000Y-69916660D01*
X146632000Y-69916660D01*
X146384235Y-69965943D01*
X146174191Y-70106291D01*
X146033843Y-70316335D01*
X145984560Y-70564100D01*
X145465000Y-70564100D01*
X145465000Y-69265000D01*
X171339358Y-69265000D01*
X171302560Y-69450000D01*
X171302560Y-69450000D01*
G37*
X171302560Y-69450000D02*
X171302560Y-70450000D01*
X171351843Y-70697765D01*
X171492191Y-70907809D01*
X171702235Y-71048157D01*
X171950000Y-71097440D01*
X172950000Y-71097440D01*
X173050000Y-71077549D01*
X173150000Y-71097440D01*
X174150000Y-71097440D01*
X174250000Y-71077549D01*
X174350000Y-71097440D01*
X175350000Y-71097440D01*
X175450000Y-71077549D01*
X175550000Y-71097440D01*
X176550000Y-71097440D01*
X176650000Y-71077549D01*
X176750000Y-71097440D01*
X177750000Y-71097440D01*
X177850000Y-71077549D01*
X177950000Y-71097440D01*
X178950000Y-71097440D01*
X179020074Y-71083502D01*
X179023691Y-71085000D01*
X179364250Y-71085000D01*
X179523000Y-70926250D01*
X179523000Y-70735415D01*
X179548157Y-70697765D01*
X179597440Y-70450000D01*
X179597440Y-69803000D01*
X179702560Y-69803000D01*
X179702560Y-70450000D01*
X179751843Y-70697765D01*
X179777000Y-70735415D01*
X179777000Y-70926250D01*
X179935750Y-71085000D01*
X180276309Y-71085000D01*
X180279926Y-71083502D01*
X180350000Y-71097440D01*
X181350000Y-71097440D01*
X181597765Y-71048157D01*
X181807809Y-70907809D01*
X181948157Y-70697765D01*
X181997440Y-70450000D01*
X181997440Y-69450000D01*
X181960642Y-69265000D01*
X188027322Y-69265000D01*
X187895000Y-69584452D01*
X187895000Y-70115548D01*
X188098242Y-70606217D01*
X188473783Y-70981758D01*
X188791302Y-71113279D01*
X188536169Y-71218958D01*
X188474331Y-71454725D01*
X189230000Y-72210395D01*
X189244142Y-72196252D01*
X189423748Y-72375858D01*
X189409605Y-72390000D01*
X189423748Y-72404143D01*
X189244142Y-72583748D01*
X189230000Y-72569605D01*
X188474331Y-73325275D01*
X188536169Y-73561042D01*
X189037122Y-73737419D01*
X189567440Y-73708664D01*
X189815000Y-73606121D01*
X189815000Y-75276975D01*
X189749698Y-75211673D01*
X189516309Y-75115000D01*
X188825750Y-75115000D01*
X188667000Y-75273750D01*
X188667000Y-76323000D01*
X188687000Y-76323000D01*
X188687000Y-76577000D01*
X188667000Y-76577000D01*
X188667000Y-77626250D01*
X188825750Y-77785000D01*
X189516309Y-77785000D01*
X189749698Y-77688327D01*
X189815000Y-77623025D01*
X189815000Y-87486975D01*
X189749698Y-87421673D01*
X189516309Y-87325000D01*
X188825750Y-87325000D01*
X188667000Y-87483750D01*
X188667000Y-88533000D01*
X188687000Y-88533000D01*
X188687000Y-88787000D01*
X188667000Y-88787000D01*
X188667000Y-89836250D01*
X188825750Y-89995000D01*
X189516309Y-89995000D01*
X189749698Y-89898327D01*
X189815000Y-89833025D01*
X189815000Y-94413505D01*
X189661974Y-94044066D01*
X188911734Y-93293826D01*
X187931499Y-92887800D01*
X186870501Y-92887800D01*
X185890266Y-93293826D01*
X185140026Y-94044066D01*
X184734000Y-95024301D01*
X184734000Y-96085299D01*
X185140026Y-97065534D01*
X185890266Y-97815774D01*
X186870501Y-98221800D01*
X187931499Y-98221800D01*
X188356100Y-98045925D01*
X188098242Y-98303783D01*
X187895000Y-98794452D01*
X187895000Y-99325548D01*
X188098242Y-99816217D01*
X188473783Y-100191758D01*
X188807528Y-100330000D01*
X188473783Y-100468242D01*
X188098242Y-100843783D01*
X187895000Y-101334452D01*
X187895000Y-101865548D01*
X187998762Y-102116051D01*
X187990880Y-102108169D01*
X187610474Y-101950600D01*
X187198726Y-101950600D01*
X186818320Y-102108169D01*
X186527169Y-102399320D01*
X186369600Y-102779726D01*
X186369600Y-103191474D01*
X186527169Y-103571880D01*
X186818320Y-103863031D01*
X187198726Y-104020600D01*
X187610474Y-104020600D01*
X187895000Y-103902746D01*
X187895000Y-104405548D01*
X188098242Y-104896217D01*
X188473783Y-105271758D01*
X188791302Y-105403279D01*
X188536169Y-105508958D01*
X188474331Y-105744725D01*
X189230000Y-106500395D01*
X189244143Y-106486253D01*
X189423748Y-106665858D01*
X189409605Y-106680000D01*
X189423748Y-106694142D01*
X189244143Y-106873748D01*
X189230000Y-106859605D01*
X188474331Y-107615275D01*
X188536169Y-107851042D01*
X189037122Y-108027419D01*
X189567440Y-107998664D01*
X189815001Y-107896121D01*
X189815001Y-121980641D01*
X189422878Y-121842581D01*
X188892560Y-121871336D01*
X188536169Y-122018958D01*
X188474331Y-122254725D01*
X189230000Y-123010395D01*
X189244142Y-122996252D01*
X189423748Y-123175858D01*
X189409605Y-123190000D01*
X189423748Y-123204142D01*
X189244142Y-123383748D01*
X189230000Y-123369605D01*
X188474331Y-124125275D01*
X188536169Y-124361042D01*
X188811987Y-124458153D01*
X188473783Y-124598242D01*
X188098242Y-124973783D01*
X187895000Y-125464452D01*
X187895000Y-125995548D01*
X188098242Y-126486217D01*
X188473783Y-126861758D01*
X188964452Y-127065000D01*
X189495548Y-127065000D01*
X189815001Y-126932678D01*
X189815001Y-131988468D01*
X189730000Y-131971560D01*
X188730000Y-131971560D01*
X188482235Y-132020843D01*
X188272191Y-132161191D01*
X188131843Y-132371235D01*
X188082560Y-132619000D01*
X188082560Y-133619000D01*
X188131843Y-133866765D01*
X188272191Y-134076809D01*
X188482235Y-134217157D01*
X188730000Y-134266440D01*
X189730000Y-134266440D01*
X189815001Y-134249532D01*
X189815001Y-139015000D01*
X180770708Y-139015000D01*
X181165974Y-138619734D01*
X181572000Y-137639499D01*
X181572000Y-136578501D01*
X181165974Y-135598266D01*
X180415734Y-134848026D01*
X179435499Y-134442000D01*
X178374501Y-134442000D01*
X177394266Y-134848026D01*
X176644026Y-135598266D01*
X176238000Y-136578501D01*
X176238000Y-137639499D01*
X176644026Y-138619734D01*
X177039292Y-139015000D01*
X153909708Y-139015000D01*
X154304974Y-138619734D01*
X154711000Y-137639499D01*
X154711000Y-136578501D01*
X154304974Y-135598266D01*
X153554734Y-134848026D01*
X152574499Y-134442000D01*
X151513501Y-134442000D01*
X150533266Y-134848026D01*
X149783026Y-135598266D01*
X149377000Y-136578501D01*
X149377000Y-137639499D01*
X149783026Y-138619734D01*
X150178292Y-139015000D01*
X145465000Y-139015000D01*
X145465000Y-133456533D01*
X145550000Y-133473440D01*
X146550000Y-133473440D01*
X146797765Y-133424157D01*
X147007809Y-133283809D01*
X147148157Y-133073765D01*
X147197440Y-132826000D01*
X147197440Y-131826000D01*
X147148157Y-131578235D01*
X147007809Y-131368191D01*
X146797765Y-131227843D01*
X146550000Y-131178560D01*
X145550000Y-131178560D01*
X145465000Y-131195467D01*
X145465000Y-131032678D01*
X145784452Y-131165000D01*
X146315548Y-131165000D01*
X146806217Y-130961758D01*
X147181758Y-130586217D01*
X147385000Y-130095548D01*
X147385000Y-129564452D01*
X147181758Y-129073783D01*
X146806217Y-128698242D01*
X146488698Y-128566721D01*
X146743831Y-128461042D01*
X146805669Y-128225275D01*
X146050000Y-127469605D01*
X146035858Y-127483748D01*
X145856252Y-127304142D01*
X145870395Y-127290000D01*
X145856252Y-127275858D01*
X146035858Y-127096252D01*
X146050000Y-127110395D01*
X146064142Y-127096252D01*
X146243748Y-127275858D01*
X146229605Y-127290000D01*
X146792713Y-127853107D01*
X146812372Y-127882529D01*
X146841794Y-127902188D01*
X146985275Y-128045669D01*
X146994221Y-128043323D01*
X148110371Y-129159473D01*
X148152771Y-129222929D01*
X148378560Y-129373797D01*
X148378560Y-129675000D01*
X148427843Y-129922765D01*
X148568191Y-130132809D01*
X148631334Y-130175000D01*
X148568191Y-130217191D01*
X148427843Y-130427235D01*
X148378560Y-130675000D01*
X148378560Y-132675000D01*
X148427843Y-132922765D01*
X148568191Y-133132809D01*
X148778235Y-133273157D01*
X149026000Y-133322440D01*
X152276000Y-133322440D01*
X152523765Y-133273157D01*
X152733809Y-133132809D01*
X152781000Y-133062183D01*
X152828191Y-133132809D01*
X153038235Y-133273157D01*
X153286000Y-133322440D01*
X156536000Y-133322440D01*
X156783765Y-133273157D01*
X156993809Y-133132809D01*
X157134157Y-132922765D01*
X157183440Y-132675000D01*
X157183440Y-132373797D01*
X157361082Y-132255100D01*
X157522560Y-132255100D01*
X157522560Y-132675000D01*
X157571843Y-132922765D01*
X157712191Y-133132809D01*
X157922235Y-133273157D01*
X158170000Y-133322440D01*
X161420000Y-133322440D01*
X161667765Y-133273157D01*
X161877809Y-133132809D01*
X161925000Y-133062183D01*
X161972191Y-133132809D01*
X162182235Y-133273157D01*
X162430000Y-133322440D01*
X165428829Y-133322440D01*
X165701820Y-133595431D01*
X166082226Y-133753000D01*
X166493974Y-133753000D01*
X166874380Y-133595431D01*
X167153946Y-133315865D01*
X167187000Y-133322440D01*
X167477749Y-133322440D01*
X167385669Y-133414520D01*
X167228100Y-133794926D01*
X167228100Y-134206674D01*
X167385669Y-134587080D01*
X167676820Y-134878231D01*
X168057226Y-135035800D01*
X168468974Y-135035800D01*
X168849380Y-134878231D01*
X169140531Y-134587080D01*
X169298100Y-134206674D01*
X169298100Y-133794926D01*
X169140531Y-133414520D01*
X169131506Y-133405495D01*
X169214561Y-133322440D01*
X170437000Y-133322440D01*
X170684765Y-133273157D01*
X170894809Y-133132809D01*
X170942000Y-133062183D01*
X170989191Y-133132809D01*
X171199235Y-133273157D01*
X171447000Y-133322440D01*
X174697000Y-133322440D01*
X174944765Y-133273157D01*
X175154809Y-133132809D01*
X175260000Y-132975381D01*
X175365191Y-133132809D01*
X175575235Y-133273157D01*
X175823000Y-133322440D01*
X179073000Y-133322440D01*
X179320765Y-133273157D01*
X179530809Y-133132809D01*
X179578000Y-133062183D01*
X179625191Y-133132809D01*
X179835235Y-133273157D01*
X180083000Y-133322440D01*
X183333000Y-133322440D01*
X183580765Y-133273157D01*
X183790809Y-133132809D01*
X183931157Y-132922765D01*
X183980440Y-132675000D01*
X183980440Y-130675000D01*
X183931157Y-130427235D01*
X183790809Y-130217191D01*
X183727666Y-130175000D01*
X183790809Y-130132809D01*
X183931157Y-129922765D01*
X183980440Y-129675000D01*
X183980440Y-127675000D01*
X183931157Y-127427235D01*
X183790809Y-127217191D01*
X183580765Y-127076843D01*
X183333000Y-127027560D01*
X180083000Y-127027560D01*
X179835235Y-127076843D01*
X179625191Y-127217191D01*
X179578000Y-127287817D01*
X179530809Y-127217191D01*
X179320765Y-127076843D01*
X179073000Y-127027560D01*
X176177700Y-127027560D01*
X176177700Y-126348111D01*
X176283250Y-126242561D01*
X176288120Y-126247431D01*
X176668526Y-126405000D01*
X177080274Y-126405000D01*
X177460680Y-126247431D01*
X177751831Y-125956280D01*
X177909400Y-125575874D01*
X177909400Y-125398000D01*
X183391353Y-125398000D01*
X183466200Y-125412888D01*
X183541047Y-125398000D01*
X183541052Y-125398000D01*
X183762737Y-125353904D01*
X184014129Y-125185929D01*
X184056531Y-125122470D01*
X185644273Y-123534729D01*
X185707729Y-123492329D01*
X185875704Y-123240937D01*
X185919800Y-123019252D01*
X185919800Y-123019248D01*
X185924201Y-122997122D01*
X187882581Y-122997122D01*
X187911336Y-123527440D01*
X188058958Y-123883831D01*
X188294725Y-123945669D01*
X189050395Y-123190000D01*
X188294725Y-122434331D01*
X188058958Y-122496169D01*
X187882581Y-122997122D01*
X185924201Y-122997122D01*
X185934688Y-122944401D01*
X185919800Y-122869554D01*
X185919800Y-115997366D01*
X186263426Y-116139700D01*
X186675174Y-116139700D01*
X187055580Y-115982131D01*
X187346731Y-115690980D01*
X187504300Y-115310574D01*
X187504300Y-114898826D01*
X187346731Y-114518420D01*
X187055580Y-114227269D01*
X186675174Y-114069700D01*
X186263426Y-114069700D01*
X185919800Y-114212034D01*
X185919800Y-113644027D01*
X186274626Y-113791000D01*
X186686374Y-113791000D01*
X187066780Y-113633431D01*
X187357931Y-113342280D01*
X187515500Y-112961874D01*
X187515500Y-112550126D01*
X187357931Y-112169720D01*
X187066780Y-111878569D01*
X186686374Y-111721000D01*
X186274626Y-111721000D01*
X185919800Y-111867973D01*
X185919800Y-111330356D01*
X186262726Y-111472400D01*
X186674474Y-111472400D01*
X187054880Y-111314831D01*
X187346031Y-111023680D01*
X187503600Y-110643274D01*
X187503600Y-110231526D01*
X187377814Y-109927850D01*
X187503600Y-109624174D01*
X187503600Y-109212426D01*
X187346031Y-108832020D01*
X187054880Y-108540869D01*
X186674474Y-108383300D01*
X186262726Y-108383300D01*
X185919800Y-108525344D01*
X185919800Y-105782826D01*
X186056800Y-105782826D01*
X186056800Y-106194574D01*
X186214369Y-106574980D01*
X186505520Y-106866131D01*
X186885926Y-107023700D01*
X187297674Y-107023700D01*
X187678080Y-106866131D01*
X187891557Y-106652654D01*
X187911336Y-107017440D01*
X188058958Y-107373831D01*
X188294725Y-107435669D01*
X189050395Y-106680000D01*
X188294725Y-105924331D01*
X188126800Y-105968375D01*
X188126800Y-105782826D01*
X187969231Y-105402420D01*
X187678080Y-105111269D01*
X187297674Y-104953700D01*
X186885926Y-104953700D01*
X186505520Y-105111269D01*
X186214369Y-105402420D01*
X186056800Y-105782826D01*
X185919800Y-105782826D01*
X185919800Y-102783646D01*
X185934688Y-102708799D01*
X185919800Y-102633952D01*
X185919800Y-102633948D01*
X185875704Y-102412263D01*
X185814010Y-102319931D01*
X185750129Y-102224326D01*
X185750127Y-102224324D01*
X185707729Y-102160871D01*
X185644276Y-102118473D01*
X184424907Y-100899104D01*
X184697131Y-100626880D01*
X184854700Y-100246474D01*
X184854700Y-99834726D01*
X184697131Y-99454320D01*
X184579700Y-99336889D01*
X184579700Y-94750346D01*
X184594588Y-94675499D01*
X184579700Y-94600652D01*
X184579700Y-94600648D01*
X184535604Y-94378963D01*
X184367629Y-94127571D01*
X184304172Y-94085171D01*
X184064131Y-93845129D01*
X184021729Y-93781671D01*
X183770337Y-93613696D01*
X183548652Y-93569600D01*
X183548647Y-93569600D01*
X183473800Y-93554712D01*
X183398953Y-93569600D01*
X179816002Y-93569600D01*
X177780628Y-91534226D01*
X182934600Y-91534226D01*
X182934600Y-91945974D01*
X183092169Y-92326380D01*
X183383320Y-92617531D01*
X183763726Y-92775100D01*
X184175474Y-92775100D01*
X184555880Y-92617531D01*
X184847031Y-92326380D01*
X185004600Y-91945974D01*
X185004600Y-91534226D01*
X184847031Y-91153820D01*
X184555880Y-90862669D01*
X184175474Y-90705100D01*
X183763726Y-90705100D01*
X183383320Y-90862669D01*
X183092169Y-91153820D01*
X182934600Y-91534226D01*
X177780628Y-91534226D01*
X176172728Y-89926326D01*
X185104700Y-89926326D01*
X185104700Y-90338074D01*
X185262269Y-90718480D01*
X185553420Y-91009631D01*
X185933826Y-91167200D01*
X186345574Y-91167200D01*
X186502633Y-91102144D01*
X186586920Y-91186431D01*
X186967326Y-91344000D01*
X187379074Y-91344000D01*
X187759480Y-91186431D01*
X188050631Y-90895280D01*
X188208200Y-90514874D01*
X188208200Y-90103126D01*
X188163413Y-89995000D01*
X188254250Y-89995000D01*
X188413000Y-89836250D01*
X188413000Y-88787000D01*
X187213750Y-88787000D01*
X187055000Y-88945750D01*
X187055000Y-89274000D01*
X186967326Y-89274000D01*
X186810267Y-89339056D01*
X186725980Y-89254769D01*
X186345574Y-89097200D01*
X185933826Y-89097200D01*
X185553420Y-89254769D01*
X185262269Y-89545920D01*
X185104700Y-89926326D01*
X176172728Y-89926326D01*
X175337652Y-89091250D01*
X175695000Y-89091250D01*
X175695000Y-89171310D01*
X175791673Y-89404699D01*
X175970302Y-89583327D01*
X176203691Y-89680000D01*
X176694250Y-89680000D01*
X176853000Y-89521250D01*
X176853000Y-88932500D01*
X177107000Y-88932500D01*
X177107000Y-89521250D01*
X177265750Y-89680000D01*
X177756309Y-89680000D01*
X177980000Y-89587344D01*
X178203691Y-89680000D01*
X178694250Y-89680000D01*
X178853000Y-89521250D01*
X178853000Y-88932500D01*
X177107000Y-88932500D01*
X176853000Y-88932500D01*
X175853750Y-88932500D01*
X175695000Y-89091250D01*
X175337652Y-89091250D01*
X174715092Y-88468690D01*
X175695000Y-88468690D01*
X175695000Y-88548750D01*
X175853750Y-88707500D01*
X176853000Y-88707500D01*
X176853000Y-88118750D01*
X176694250Y-87960000D01*
X176203691Y-87960000D01*
X175970302Y-88056673D01*
X175791673Y-88235301D01*
X175695000Y-88468690D01*
X174715092Y-88468690D01*
X174272500Y-88026099D01*
X174272500Y-87860026D01*
X174114931Y-87479620D01*
X173823780Y-87188469D01*
X173443374Y-87030900D01*
X173031626Y-87030900D01*
X172651220Y-87188469D01*
X172406200Y-87433489D01*
X172147880Y-87175169D01*
X171767474Y-87017600D01*
X171355726Y-87017600D01*
X170975320Y-87175169D01*
X170684169Y-87466320D01*
X170526600Y-87846726D01*
X170526600Y-88258474D01*
X170666813Y-88596980D01*
X170529400Y-88928726D01*
X170529400Y-89340474D01*
X170686969Y-89720880D01*
X170808044Y-89841955D01*
X169969999Y-90680000D01*
X169768011Y-90680000D01*
X169876231Y-90571780D01*
X170033800Y-90191374D01*
X170033800Y-89779626D01*
X169876231Y-89399220D01*
X169585080Y-89108069D01*
X169204674Y-88950500D01*
X168857048Y-88950500D01*
X168784152Y-88936000D01*
X168784147Y-88936000D01*
X168709300Y-88921112D01*
X168634453Y-88936000D01*
X168147200Y-88936000D01*
X168147200Y-88724626D01*
X167989631Y-88344220D01*
X167698480Y-88053069D01*
X167318074Y-87895500D01*
X166906326Y-87895500D01*
X166525920Y-88053069D01*
X166234769Y-88344220D01*
X166077200Y-88724626D01*
X166077200Y-88936000D01*
X162752111Y-88936000D01*
X162634680Y-88818569D01*
X162254274Y-88661000D01*
X161842526Y-88661000D01*
X161462120Y-88818569D01*
X161213000Y-89067689D01*
X161213000Y-88725750D01*
X161054250Y-88567000D01*
X159080000Y-88567000D01*
X159080000Y-88587000D01*
X158826000Y-88587000D01*
X158826000Y-88567000D01*
X156851750Y-88567000D01*
X156823000Y-88595750D01*
X156794250Y-88567000D01*
X154820000Y-88567000D01*
X154820000Y-88587000D01*
X154566000Y-88587000D01*
X154566000Y-88567000D01*
X152591750Y-88567000D01*
X152433000Y-88725750D01*
X152433000Y-89566310D01*
X152529673Y-89799699D01*
X152671320Y-89941345D01*
X152610191Y-89982191D01*
X152469843Y-90192235D01*
X152420560Y-90440000D01*
X152420560Y-92440000D01*
X152469843Y-92687765D01*
X152610191Y-92897809D01*
X152820235Y-93038157D01*
X153068000Y-93087440D01*
X156318000Y-93087440D01*
X156565765Y-93038157D01*
X156775809Y-92897809D01*
X156823000Y-92827183D01*
X156870191Y-92897809D01*
X157080235Y-93038157D01*
X157328000Y-93087440D01*
X160578000Y-93087440D01*
X160825765Y-93038157D01*
X161035809Y-92897809D01*
X161176157Y-92687765D01*
X161225440Y-92440000D01*
X161225440Y-92200000D01*
X170209953Y-92200000D01*
X170284800Y-92214888D01*
X170359647Y-92200000D01*
X170359652Y-92200000D01*
X170581337Y-92155904D01*
X170806842Y-92005226D01*
X172169500Y-92005226D01*
X172169500Y-92416974D01*
X172327069Y-92797380D01*
X172618220Y-93088531D01*
X172998626Y-93246100D01*
X173410374Y-93246100D01*
X173790780Y-93088531D01*
X174081931Y-92797380D01*
X174239500Y-92416974D01*
X174239500Y-92005226D01*
X174081931Y-91624820D01*
X173790780Y-91333669D01*
X173410374Y-91176100D01*
X172998626Y-91176100D01*
X172618220Y-91333669D01*
X172327069Y-91624820D01*
X172169500Y-92005226D01*
X170806842Y-92005226D01*
X170832729Y-91987929D01*
X170875131Y-91924470D01*
X172467645Y-90331956D01*
X172533820Y-90398131D01*
X172914226Y-90555700D01*
X173325974Y-90555700D01*
X173706380Y-90398131D01*
X173997531Y-90106980D01*
X174057939Y-89961141D01*
X178104358Y-94007560D01*
X175823000Y-94007560D01*
X175575235Y-94056843D01*
X175365191Y-94197191D01*
X175260000Y-94354619D01*
X175154809Y-94197191D01*
X174944765Y-94056843D01*
X174697000Y-94007560D01*
X172899500Y-94007560D01*
X172899500Y-93834326D01*
X172741931Y-93453920D01*
X172450780Y-93162769D01*
X172070374Y-93005200D01*
X171658626Y-93005200D01*
X171278220Y-93162769D01*
X171256350Y-93184639D01*
X171223180Y-93151469D01*
X170842774Y-92993900D01*
X170431026Y-92993900D01*
X170050620Y-93151469D01*
X169759469Y-93442620D01*
X169601900Y-93823026D01*
X169601900Y-94007560D01*
X169378300Y-94007560D01*
X169378300Y-93815126D01*
X169220731Y-93434720D01*
X168929580Y-93143569D01*
X168549174Y-92986000D01*
X168137426Y-92986000D01*
X167757020Y-93143569D01*
X167465869Y-93434720D01*
X167308300Y-93815126D01*
X167308300Y-94007560D01*
X167187000Y-94007560D01*
X166939235Y-94056843D01*
X166729191Y-94197191D01*
X166588843Y-94407235D01*
X166539560Y-94655000D01*
X166539560Y-96655000D01*
X166588843Y-96902765D01*
X166729191Y-97112809D01*
X166792334Y-97155000D01*
X166729191Y-97197191D01*
X166588843Y-97407235D01*
X166539560Y-97655000D01*
X166539560Y-97895000D01*
X166327440Y-97895000D01*
X166327440Y-97655000D01*
X166278157Y-97407235D01*
X166137809Y-97197191D01*
X166074666Y-97155000D01*
X166137809Y-97112809D01*
X166278157Y-96902765D01*
X166327440Y-96655000D01*
X166327440Y-94655000D01*
X166278157Y-94407235D01*
X166137809Y-94197191D01*
X165927765Y-94056843D01*
X165680000Y-94007560D01*
X164558400Y-94007560D01*
X164558400Y-93821426D01*
X164400831Y-93441020D01*
X164109680Y-93149869D01*
X163729274Y-92992300D01*
X163317526Y-92992300D01*
X162937120Y-93149869D01*
X162645969Y-93441020D01*
X162488400Y-93821426D01*
X162488400Y-94007560D01*
X162430000Y-94007560D01*
X162182235Y-94056843D01*
X161972191Y-94197191D01*
X161925000Y-94267817D01*
X161877809Y-94197191D01*
X161667765Y-94056843D01*
X161420000Y-94007560D01*
X158170000Y-94007560D01*
X157922235Y-94056843D01*
X157712191Y-94197191D01*
X157571843Y-94407235D01*
X157522560Y-94655000D01*
X157522560Y-94956203D01*
X157296771Y-95107071D01*
X157183440Y-95276683D01*
X157183440Y-94655000D01*
X157134157Y-94407235D01*
X156993809Y-94197191D01*
X156783765Y-94056843D01*
X156536000Y-94007560D01*
X153286000Y-94007560D01*
X153038235Y-94056843D01*
X152828191Y-94197191D01*
X152781000Y-94267817D01*
X152733809Y-94197191D01*
X152523765Y-94056843D01*
X152276000Y-94007560D01*
X149026000Y-94007560D01*
X148778235Y-94056843D01*
X148568191Y-94197191D01*
X148427843Y-94407235D01*
X148378560Y-94655000D01*
X148378560Y-94956204D01*
X148216226Y-95064671D01*
X148216224Y-95064673D01*
X148152771Y-95107071D01*
X148110373Y-95170525D01*
X147263729Y-96017169D01*
X147200271Y-96059571D01*
X147032296Y-96310964D01*
X146988200Y-96532649D01*
X146988200Y-96532653D01*
X146973312Y-96607500D01*
X146988200Y-96682347D01*
X146988200Y-101844225D01*
X146806217Y-101662242D01*
X146315548Y-101459000D01*
X145784452Y-101459000D01*
X145465000Y-101591322D01*
X145465000Y-87313690D01*
X152433000Y-87313690D01*
X152433000Y-88154250D01*
X152591750Y-88313000D01*
X154566000Y-88313000D01*
X154566000Y-86963750D01*
X154820000Y-86963750D01*
X154820000Y-88313000D01*
X156794250Y-88313000D01*
X156823000Y-88284250D01*
X156851750Y-88313000D01*
X158826000Y-88313000D01*
X158826000Y-88293000D01*
X159080000Y-88293000D01*
X159080000Y-88313000D01*
X161054250Y-88313000D01*
X161213000Y-88154250D01*
X161213000Y-87313690D01*
X161117735Y-87083700D01*
X162492353Y-87083700D01*
X162567200Y-87098588D01*
X162642047Y-87083700D01*
X162642052Y-87083700D01*
X162863737Y-87039604D01*
X163115129Y-86871629D01*
X163157531Y-86808170D01*
X163230401Y-86735300D01*
X163396474Y-86735300D01*
X163776880Y-86577731D01*
X164068031Y-86286580D01*
X164225600Y-85906174D01*
X164225600Y-85494426D01*
X164068031Y-85114020D01*
X163776880Y-84822869D01*
X163451900Y-84688258D01*
X163451900Y-84666026D01*
X163294331Y-84285620D01*
X163003180Y-83994469D01*
X162622774Y-83836900D01*
X162211026Y-83836900D01*
X161830620Y-83994469D01*
X161539469Y-84285620D01*
X161381900Y-84666026D01*
X161381900Y-85077774D01*
X161539469Y-85458180D01*
X161644989Y-85563700D01*
X160013611Y-85563700D01*
X159896180Y-85446269D01*
X159515774Y-85288700D01*
X159104026Y-85288700D01*
X158723620Y-85446269D01*
X158432469Y-85737420D01*
X158274900Y-86117826D01*
X158274900Y-86529574D01*
X158388985Y-86805000D01*
X157201691Y-86805000D01*
X156968302Y-86901673D01*
X156823000Y-87046974D01*
X156677698Y-86901673D01*
X156444309Y-86805000D01*
X154978750Y-86805000D01*
X154820000Y-86963750D01*
X154566000Y-86963750D01*
X154407250Y-86805000D01*
X152941691Y-86805000D01*
X152708302Y-86901673D01*
X152529673Y-87080301D01*
X152433000Y-87313690D01*
X145465000Y-87313690D01*
X145465000Y-83289501D01*
X145923000Y-83289501D01*
X145923000Y-84350499D01*
X146329026Y-85330734D01*
X147079266Y-86080974D01*
X148059501Y-86487000D01*
X149120499Y-86487000D01*
X150100734Y-86080974D01*
X150850974Y-85330734D01*
X151257000Y-84350499D01*
X151257000Y-83289501D01*
X150850974Y-82309266D01*
X150100734Y-81559026D01*
X149120499Y-81153000D01*
X148059501Y-81153000D01*
X147079266Y-81559026D01*
X146329026Y-82309266D01*
X145923000Y-83289501D01*
X145465000Y-83289501D01*
X145465000Y-80269226D01*
X152794700Y-80269226D01*
X152794700Y-80680974D01*
X152952269Y-81061380D01*
X153243420Y-81352531D01*
X153623826Y-81510100D01*
X154035574Y-81510100D01*
X154415980Y-81352531D01*
X154455585Y-81312926D01*
X155017600Y-81312926D01*
X155017600Y-81724674D01*
X155175169Y-82105080D01*
X155466320Y-82396231D01*
X155846726Y-82553800D01*
X156258474Y-82553800D01*
X156638880Y-82396231D01*
X156930031Y-82105080D01*
X156941941Y-82076326D01*
X162261700Y-82076326D01*
X162261700Y-82488074D01*
X162419269Y-82868480D01*
X162710420Y-83159631D01*
X163090826Y-83317200D01*
X163502574Y-83317200D01*
X163882980Y-83159631D01*
X164174131Y-82868480D01*
X164331700Y-82488074D01*
X164331700Y-82076326D01*
X164174131Y-81695920D01*
X163882980Y-81404769D01*
X163502574Y-81247200D01*
X163090826Y-81247200D01*
X162710420Y-81404769D01*
X162419269Y-81695920D01*
X162261700Y-82076326D01*
X156941941Y-82076326D01*
X157087600Y-81724674D01*
X157087600Y-81312926D01*
X156930031Y-80932520D01*
X156638880Y-80641369D01*
X156258474Y-80483800D01*
X155846726Y-80483800D01*
X155466320Y-80641369D01*
X155175169Y-80932520D01*
X155017600Y-81312926D01*
X154455585Y-81312926D01*
X154707131Y-81061380D01*
X154864700Y-80680974D01*
X154864700Y-80269226D01*
X154707131Y-79888820D01*
X154415980Y-79597669D01*
X154035574Y-79440100D01*
X153623826Y-79440100D01*
X153243420Y-79597669D01*
X152952269Y-79888820D01*
X152794700Y-80269226D01*
X145465000Y-80269226D01*
X145465000Y-78600533D01*
X145550000Y-78617440D01*
X146550000Y-78617440D01*
X146797765Y-78568157D01*
X146863811Y-78524026D01*
X154925900Y-78524026D01*
X154925900Y-78935774D01*
X155083469Y-79316180D01*
X155374620Y-79607331D01*
X155755026Y-79764900D01*
X156166774Y-79764900D01*
X156547180Y-79607331D01*
X156838331Y-79316180D01*
X156995900Y-78935774D01*
X156995900Y-78524026D01*
X156838331Y-78143620D01*
X156692437Y-77997726D01*
X159492300Y-77997726D01*
X159492300Y-78409474D01*
X159649869Y-78789880D01*
X159941020Y-79081031D01*
X160321426Y-79238600D01*
X160733174Y-79238600D01*
X161113580Y-79081031D01*
X161246885Y-78947726D01*
X167015200Y-78947726D01*
X167015200Y-79359474D01*
X167172769Y-79739880D01*
X167204752Y-79771863D01*
X167131700Y-79948226D01*
X167131700Y-80359974D01*
X167237673Y-80615816D01*
X167210169Y-80643320D01*
X167052600Y-81023726D01*
X167052600Y-81435474D01*
X167210169Y-81815880D01*
X167235964Y-81841675D01*
X167153100Y-82041726D01*
X167153100Y-82453474D01*
X167310669Y-82833880D01*
X167601820Y-83125031D01*
X167982226Y-83282600D01*
X168393974Y-83282600D01*
X168774380Y-83125031D01*
X169065531Y-82833880D01*
X169223100Y-82453474D01*
X169223100Y-82041726D01*
X169201509Y-81989600D01*
X169837600Y-81989600D01*
X169837600Y-82349974D01*
X169995169Y-82730380D01*
X170286320Y-83021531D01*
X170666726Y-83179100D01*
X171078474Y-83179100D01*
X171458880Y-83021531D01*
X171750031Y-82730380D01*
X171907600Y-82349974D01*
X171907600Y-81989600D01*
X172489499Y-81989600D01*
X173109011Y-82609113D01*
X173041520Y-82637069D01*
X172750369Y-82928220D01*
X172592800Y-83308626D01*
X172592800Y-83720374D01*
X172750369Y-84100780D01*
X173041520Y-84391931D01*
X173258406Y-84481768D01*
X173193796Y-84578463D01*
X173134811Y-84875000D01*
X173135030Y-84876100D01*
X173038626Y-84876100D01*
X172658220Y-85033669D01*
X172367069Y-85324820D01*
X172209500Y-85705226D01*
X172209500Y-86116974D01*
X172367069Y-86497380D01*
X172658220Y-86788531D01*
X173038626Y-86946100D01*
X173450374Y-86946100D01*
X173830780Y-86788531D01*
X174121931Y-86497380D01*
X174279500Y-86116974D01*
X174279500Y-85950902D01*
X174382962Y-85847440D01*
X175385000Y-85847440D01*
X175620747Y-85800548D01*
X175628763Y-85805904D01*
X175850448Y-85850000D01*
X175850453Y-85850000D01*
X175925300Y-85864888D01*
X176000147Y-85850000D01*
X180118530Y-85850000D01*
X180067375Y-85973501D01*
X179999774Y-85945500D01*
X179588026Y-85945500D01*
X179207620Y-86103069D01*
X178916469Y-86394220D01*
X178758900Y-86774626D01*
X178758900Y-87186374D01*
X178831513Y-87361676D01*
X178794969Y-87398220D01*
X178637400Y-87778626D01*
X178637400Y-87960000D01*
X178203691Y-87960000D01*
X177980000Y-88052656D01*
X177756309Y-87960000D01*
X177265750Y-87960000D01*
X177107000Y-88118750D01*
X177107000Y-88707500D01*
X178853000Y-88707500D01*
X178853000Y-88673000D01*
X178897189Y-88673000D01*
X179086120Y-88861931D01*
X179127000Y-88878864D01*
X179127000Y-88932500D01*
X179107000Y-88932500D01*
X179107000Y-89521250D01*
X179265750Y-89680000D01*
X179756309Y-89680000D01*
X179989698Y-89583327D01*
X180168327Y-89404699D01*
X180265000Y-89171310D01*
X180265000Y-89091250D01*
X180120752Y-88947002D01*
X180265000Y-88947002D01*
X180265000Y-88855611D01*
X180549831Y-88570780D01*
X180707400Y-88190374D01*
X180707400Y-87778626D01*
X180634787Y-87603324D01*
X180671331Y-87566780D01*
X180813025Y-87224699D01*
X180880626Y-87252700D01*
X181253889Y-87252700D01*
X181220669Y-87285920D01*
X181063100Y-87666326D01*
X181063100Y-88078074D01*
X181220669Y-88458480D01*
X181511820Y-88749631D01*
X181892226Y-88907200D01*
X182303974Y-88907200D01*
X182684380Y-88749631D01*
X182975531Y-88458480D01*
X183133100Y-88078074D01*
X183133100Y-87666326D01*
X182975531Y-87285920D01*
X182820661Y-87131050D01*
X183001231Y-86950480D01*
X183158800Y-86570074D01*
X183158800Y-86158326D01*
X183031087Y-85850000D01*
X185586389Y-85850000D01*
X185450069Y-85986320D01*
X185292500Y-86366726D01*
X185292500Y-86778474D01*
X185426182Y-87101211D01*
X185310900Y-87379526D01*
X185310900Y-87791274D01*
X185468469Y-88171680D01*
X185759620Y-88462831D01*
X186140026Y-88620400D01*
X186551774Y-88620400D01*
X186932180Y-88462831D01*
X187055000Y-88340011D01*
X187055000Y-88374250D01*
X187213750Y-88533000D01*
X188413000Y-88533000D01*
X188413000Y-87483750D01*
X188254250Y-87325000D01*
X187563691Y-87325000D01*
X187380900Y-87400715D01*
X187380900Y-87379526D01*
X187247218Y-87056789D01*
X187362500Y-86778474D01*
X187362500Y-86366726D01*
X187204931Y-85986320D01*
X187068611Y-85850000D01*
X187150368Y-85850000D01*
X187312235Y-85958157D01*
X187560000Y-86007440D01*
X188360000Y-86007440D01*
X188607765Y-85958157D01*
X188817809Y-85817809D01*
X188958157Y-85607765D01*
X189007440Y-85360000D01*
X189007440Y-84820000D01*
X188958157Y-84572235D01*
X188817809Y-84362191D01*
X188607765Y-84221843D01*
X188360000Y-84172560D01*
X187560000Y-84172560D01*
X187312235Y-84221843D01*
X187150368Y-84330000D01*
X183644600Y-84330000D01*
X183644600Y-84083500D01*
X183697674Y-84083500D01*
X184078080Y-83925931D01*
X184369231Y-83634780D01*
X184526800Y-83254374D01*
X184526800Y-82842626D01*
X184369231Y-82462220D01*
X184114011Y-82207000D01*
X184356831Y-81964180D01*
X184514400Y-81583774D01*
X184514400Y-81172026D01*
X184356831Y-80791620D01*
X184335211Y-80770000D01*
X185361600Y-80770000D01*
X185361600Y-80955574D01*
X185519169Y-81335980D01*
X185544289Y-81361100D01*
X185328369Y-81577020D01*
X185170800Y-81957426D01*
X185170800Y-82369174D01*
X185328369Y-82749580D01*
X185619520Y-83040731D01*
X185999926Y-83198300D01*
X186411674Y-83198300D01*
X186792080Y-83040731D01*
X187083231Y-82749580D01*
X187240800Y-82369174D01*
X187240800Y-81957426D01*
X187083231Y-81577020D01*
X187058111Y-81551900D01*
X187274031Y-81335980D01*
X187431600Y-80955574D01*
X187431600Y-80901900D01*
X187560000Y-80927440D01*
X188360000Y-80927440D01*
X188607765Y-80878157D01*
X188817809Y-80737809D01*
X188958157Y-80527765D01*
X189007440Y-80280000D01*
X189007440Y-79740000D01*
X188958157Y-79492235D01*
X188817809Y-79282191D01*
X188607765Y-79141843D01*
X188360000Y-79092560D01*
X187560000Y-79092560D01*
X187312235Y-79141843D01*
X187231500Y-79195789D01*
X187231500Y-79004526D01*
X187073931Y-78624120D01*
X186782780Y-78332969D01*
X186753320Y-78320766D01*
X186786480Y-78307031D01*
X187077631Y-78015880D01*
X187235200Y-77635474D01*
X187235200Y-77593226D01*
X187330302Y-77688327D01*
X187563691Y-77785000D01*
X188254250Y-77785000D01*
X188413000Y-77626250D01*
X188413000Y-76577000D01*
X187213750Y-76577000D01*
X187055000Y-76735750D01*
X187055000Y-76820689D01*
X186786480Y-76552169D01*
X186406074Y-76394600D01*
X185994326Y-76394600D01*
X185852800Y-76453222D01*
X185852800Y-76253226D01*
X185695231Y-75872820D01*
X185446101Y-75623690D01*
X187055000Y-75623690D01*
X187055000Y-76164250D01*
X187213750Y-76323000D01*
X188413000Y-76323000D01*
X188413000Y-75273750D01*
X188254250Y-75115000D01*
X187563691Y-75115000D01*
X187330302Y-75211673D01*
X187151673Y-75390301D01*
X187055000Y-75623690D01*
X185446101Y-75623690D01*
X185404080Y-75581669D01*
X185023674Y-75424100D01*
X184611926Y-75424100D01*
X184231520Y-75581669D01*
X183940369Y-75872820D01*
X183831460Y-76135749D01*
X183776280Y-76080569D01*
X183395874Y-75923000D01*
X182984126Y-75923000D01*
X182603720Y-76080569D01*
X182312569Y-76371720D01*
X182161573Y-76736257D01*
X181824520Y-76875869D01*
X181778600Y-76921789D01*
X181778600Y-76693526D01*
X181621031Y-76313120D01*
X181329880Y-76021969D01*
X180949474Y-75864400D01*
X180537726Y-75864400D01*
X180265000Y-75977367D01*
X180265000Y-75928690D01*
X180168327Y-75695301D01*
X179989698Y-75516673D01*
X179756309Y-75420000D01*
X179265750Y-75420000D01*
X179107000Y-75578750D01*
X179107000Y-76167500D01*
X179127000Y-76167500D01*
X179127000Y-76392500D01*
X179107000Y-76392500D01*
X179107000Y-76981250D01*
X179265750Y-77140000D01*
X179722984Y-77140000D01*
X179851564Y-77450419D01*
X179750700Y-77693926D01*
X179750700Y-78105674D01*
X179908269Y-78486080D01*
X180199420Y-78777231D01*
X180283802Y-78812183D01*
X180233620Y-78832969D01*
X179942469Y-79124120D01*
X179784900Y-79504526D01*
X179784900Y-79916274D01*
X179942469Y-80296680D01*
X180099489Y-80453700D01*
X179844526Y-80453700D01*
X179464120Y-80611269D01*
X179172969Y-80902420D01*
X179015400Y-81282826D01*
X179015400Y-81575000D01*
X176777611Y-81575000D01*
X176870231Y-81482380D01*
X177027800Y-81101974D01*
X177027800Y-80690226D01*
X176870231Y-80309820D01*
X176579080Y-80018669D01*
X176198674Y-79861100D01*
X176032440Y-79861100D01*
X176032440Y-79470000D01*
X175983157Y-79222235D01*
X175943017Y-79162162D01*
X176020000Y-78976310D01*
X176020000Y-78810750D01*
X175861250Y-78652000D01*
X174937000Y-78652000D01*
X174937000Y-78672000D01*
X174683000Y-78672000D01*
X174683000Y-78652000D01*
X174663000Y-78652000D01*
X174663000Y-78398000D01*
X174683000Y-78398000D01*
X174683000Y-78378000D01*
X174937000Y-78378000D01*
X174937000Y-78398000D01*
X175861250Y-78398000D01*
X176020000Y-78239250D01*
X176020000Y-78073690D01*
X175923327Y-77840301D01*
X175744698Y-77661673D01*
X175511309Y-77565000D01*
X175398011Y-77565000D01*
X175461731Y-77501280D01*
X175619300Y-77120874D01*
X175619300Y-76709126D01*
X175553906Y-76551250D01*
X175695000Y-76551250D01*
X175695000Y-76631310D01*
X175791673Y-76864699D01*
X175970302Y-77043327D01*
X176203691Y-77140000D01*
X176694250Y-77140000D01*
X176853000Y-76981250D01*
X176853000Y-76392500D01*
X177107000Y-76392500D01*
X177107000Y-76981250D01*
X177265750Y-77140000D01*
X177756309Y-77140000D01*
X177980000Y-77047344D01*
X178203691Y-77140000D01*
X178694250Y-77140000D01*
X178853000Y-76981250D01*
X178853000Y-76392500D01*
X177107000Y-76392500D01*
X176853000Y-76392500D01*
X175853750Y-76392500D01*
X175695000Y-76551250D01*
X175553906Y-76551250D01*
X175461731Y-76328720D01*
X175170580Y-76037569D01*
X174907723Y-75928690D01*
X175695000Y-75928690D01*
X175695000Y-76008750D01*
X175853750Y-76167500D01*
X176853000Y-76167500D01*
X176853000Y-75578750D01*
X177107000Y-75578750D01*
X177107000Y-76167500D01*
X178853000Y-76167500D01*
X178853000Y-75578750D01*
X178694250Y-75420000D01*
X178203691Y-75420000D01*
X177980000Y-75512656D01*
X177756309Y-75420000D01*
X177265750Y-75420000D01*
X177107000Y-75578750D01*
X176853000Y-75578750D01*
X176694250Y-75420000D01*
X176203691Y-75420000D01*
X175970302Y-75516673D01*
X175791673Y-75695301D01*
X175695000Y-75928690D01*
X174907723Y-75928690D01*
X174790174Y-75880000D01*
X174378426Y-75880000D01*
X173998020Y-76037569D01*
X173800745Y-76234844D01*
X173789774Y-76230300D01*
X173378026Y-76230300D01*
X172997620Y-76387869D01*
X172706469Y-76679020D01*
X172548900Y-77059426D01*
X172548900Y-77471174D01*
X172561440Y-77501449D01*
X172383469Y-77679420D01*
X172225900Y-78059826D01*
X172225900Y-78471574D01*
X172383469Y-78851980D01*
X172674620Y-79143131D01*
X172869455Y-79223834D01*
X172713869Y-79379420D01*
X172556300Y-79759826D01*
X172556300Y-80171574D01*
X172679746Y-80469600D01*
X171585411Y-80469600D01*
X171757631Y-80297380D01*
X171915200Y-79916974D01*
X171915200Y-79505226D01*
X171805974Y-79241531D01*
X171940700Y-78916274D01*
X171940700Y-78504526D01*
X171783131Y-78124120D01*
X171491980Y-77832969D01*
X171111574Y-77675400D01*
X170699826Y-77675400D01*
X170319420Y-77832969D01*
X170028269Y-78124120D01*
X169870700Y-78504526D01*
X169870700Y-78916274D01*
X169979926Y-79179969D01*
X169845200Y-79505226D01*
X169845200Y-79916974D01*
X170002769Y-80297380D01*
X170174989Y-80469600D01*
X169156292Y-80469600D01*
X169201700Y-80359974D01*
X169201700Y-79948226D01*
X169044131Y-79567820D01*
X169012148Y-79535837D01*
X169085200Y-79359474D01*
X169085200Y-78947726D01*
X168927631Y-78567320D01*
X168636480Y-78276169D01*
X168256074Y-78118600D01*
X167844326Y-78118600D01*
X167463920Y-78276169D01*
X167172769Y-78567320D01*
X167015200Y-78947726D01*
X161246885Y-78947726D01*
X161404731Y-78789880D01*
X161562300Y-78409474D01*
X161562300Y-77997726D01*
X161404731Y-77617320D01*
X161113580Y-77326169D01*
X160733174Y-77168600D01*
X160321426Y-77168600D01*
X159941020Y-77326169D01*
X159649869Y-77617320D01*
X159492300Y-77997726D01*
X156692437Y-77997726D01*
X156547180Y-77852469D01*
X156166774Y-77694900D01*
X155755026Y-77694900D01*
X155374620Y-77852469D01*
X155083469Y-78143620D01*
X154925900Y-78524026D01*
X146863811Y-78524026D01*
X147007809Y-78427809D01*
X147148157Y-78217765D01*
X147197440Y-77970000D01*
X147197440Y-76970000D01*
X147148157Y-76722235D01*
X147007809Y-76512191D01*
X146797765Y-76371843D01*
X146550000Y-76322560D01*
X145550000Y-76322560D01*
X145465000Y-76339467D01*
X145465000Y-75684226D01*
X148303300Y-75684226D01*
X148303300Y-76095974D01*
X148460869Y-76476380D01*
X148752020Y-76767531D01*
X149132426Y-76925100D01*
X149544174Y-76925100D01*
X149924580Y-76767531D01*
X150215731Y-76476380D01*
X150317815Y-76229926D01*
X167419600Y-76229926D01*
X167419600Y-76641674D01*
X167577169Y-77022080D01*
X167868320Y-77313231D01*
X168248726Y-77470800D01*
X168660474Y-77470800D01*
X169040880Y-77313231D01*
X169332031Y-77022080D01*
X169489600Y-76641674D01*
X169489600Y-76229926D01*
X169332031Y-75849520D01*
X169040880Y-75558369D01*
X168660474Y-75400800D01*
X168248726Y-75400800D01*
X167868320Y-75558369D01*
X167577169Y-75849520D01*
X167419600Y-76229926D01*
X150317815Y-76229926D01*
X150373300Y-76095974D01*
X150373300Y-75684226D01*
X150215731Y-75303820D01*
X149924580Y-75012669D01*
X149687159Y-74914326D01*
X161245900Y-74914326D01*
X161245900Y-75326074D01*
X161403469Y-75706480D01*
X161694620Y-75997631D01*
X162075026Y-76155200D01*
X162486774Y-76155200D01*
X162867180Y-75997631D01*
X163158331Y-75706480D01*
X163315900Y-75326074D01*
X163315900Y-74980326D01*
X163903400Y-74980326D01*
X163903400Y-75392074D01*
X164060969Y-75772480D01*
X164352120Y-76063631D01*
X164732526Y-76221200D01*
X165144274Y-76221200D01*
X165524680Y-76063631D01*
X165815831Y-75772480D01*
X165973400Y-75392074D01*
X165973400Y-74980326D01*
X165815831Y-74599920D01*
X165524680Y-74308769D01*
X165144274Y-74151200D01*
X164732526Y-74151200D01*
X164352120Y-74308769D01*
X164060969Y-74599920D01*
X163903400Y-74980326D01*
X163315900Y-74980326D01*
X163315900Y-74914326D01*
X163158331Y-74533920D01*
X162867180Y-74242769D01*
X162486774Y-74085200D01*
X162075026Y-74085200D01*
X161694620Y-74242769D01*
X161403469Y-74533920D01*
X161245900Y-74914326D01*
X149687159Y-74914326D01*
X149544174Y-74855100D01*
X149132426Y-74855100D01*
X148752020Y-75012669D01*
X148460869Y-75303820D01*
X148303300Y-75684226D01*
X145465000Y-75684226D01*
X145465000Y-73997026D01*
X180155000Y-73997026D01*
X180155000Y-74408774D01*
X180312569Y-74789180D01*
X180603720Y-75080331D01*
X180984126Y-75237900D01*
X181395874Y-75237900D01*
X181727558Y-75100512D01*
X182042826Y-75231100D01*
X182454574Y-75231100D01*
X182834980Y-75073531D01*
X183126131Y-74782380D01*
X183283700Y-74401974D01*
X183283700Y-73990226D01*
X183126131Y-73609820D01*
X182834980Y-73318669D01*
X182454574Y-73161100D01*
X182042826Y-73161100D01*
X181711142Y-73298488D01*
X181395874Y-73167900D01*
X180984126Y-73167900D01*
X180603720Y-73325469D01*
X180312569Y-73616620D01*
X180155000Y-73997026D01*
X145465000Y-73997026D01*
X145465000Y-70564100D01*
X145984560Y-70564100D01*
X145984560Y-71564100D01*
X146033843Y-71811865D01*
X146174191Y-72021909D01*
X146384235Y-72162257D01*
X146632000Y-72211540D01*
X147632000Y-72211540D01*
X147879765Y-72162257D01*
X147895500Y-72151743D01*
X147911235Y-72162257D01*
X148159000Y-72211540D01*
X149159000Y-72211540D01*
X149406765Y-72162257D01*
X149426000Y-72149404D01*
X149445235Y-72162257D01*
X149693000Y-72211540D01*
X150693000Y-72211540D01*
X150940765Y-72162257D01*
X150957500Y-72151075D01*
X150974235Y-72162257D01*
X151222000Y-72211540D01*
X152222000Y-72211540D01*
X152469765Y-72162257D01*
X152508000Y-72136709D01*
X152546235Y-72162257D01*
X152794000Y-72211540D01*
X153794000Y-72211540D01*
X154041765Y-72162257D01*
X154086500Y-72132366D01*
X154131235Y-72162257D01*
X154379000Y-72211540D01*
X155379000Y-72211540D01*
X155626765Y-72162257D01*
X155670000Y-72133368D01*
X155713235Y-72162257D01*
X155961000Y-72211540D01*
X156961000Y-72211540D01*
X157208765Y-72162257D01*
X157243500Y-72139048D01*
X157278235Y-72162257D01*
X157526000Y-72211540D01*
X158526000Y-72211540D01*
X158773765Y-72162257D01*
X158983809Y-72021909D01*
X159124157Y-71811865D01*
X159173440Y-71564100D01*
X159173440Y-70798552D01*
X160366000Y-70798552D01*
X160366000Y-71329648D01*
X160569242Y-71820317D01*
X160944783Y-72195858D01*
X161435452Y-72399100D01*
X161966548Y-72399100D01*
X162457217Y-72195858D01*
X162832758Y-71820317D01*
X162971000Y-71486572D01*
X163109242Y-71820317D01*
X163484783Y-72195858D01*
X163975452Y-72399100D01*
X164506548Y-72399100D01*
X164997217Y-72195858D01*
X165372758Y-71820317D01*
X165404500Y-71743685D01*
X165436242Y-71820317D01*
X165811783Y-72195858D01*
X166302452Y-72399100D01*
X166833548Y-72399100D01*
X167324217Y-72195858D01*
X167699758Y-71820317D01*
X167838000Y-71486572D01*
X167976242Y-71820317D01*
X168351783Y-72195858D01*
X168842452Y-72399100D01*
X169373548Y-72399100D01*
X169861165Y-72197122D01*
X187882581Y-72197122D01*
X187911336Y-72727440D01*
X188058958Y-73083831D01*
X188294725Y-73145669D01*
X189050395Y-72390000D01*
X188294725Y-71634331D01*
X188058958Y-71696169D01*
X187882581Y-72197122D01*
X169861165Y-72197122D01*
X169864217Y-72195858D01*
X170239758Y-71820317D01*
X170443000Y-71329648D01*
X170443000Y-70798552D01*
X170239758Y-70307883D01*
X169864217Y-69932342D01*
X169373548Y-69729100D01*
X168842452Y-69729100D01*
X168351783Y-69932342D01*
X167976242Y-70307883D01*
X167838000Y-70641628D01*
X167699758Y-70307883D01*
X167324217Y-69932342D01*
X166833548Y-69729100D01*
X166302452Y-69729100D01*
X165811783Y-69932342D01*
X165436242Y-70307883D01*
X165404500Y-70384515D01*
X165372758Y-70307883D01*
X164997217Y-69932342D01*
X164506548Y-69729100D01*
X163975452Y-69729100D01*
X163484783Y-69932342D01*
X163109242Y-70307883D01*
X162971000Y-70641628D01*
X162832758Y-70307883D01*
X162457217Y-69932342D01*
X161966548Y-69729100D01*
X161435452Y-69729100D01*
X160944783Y-69932342D01*
X160569242Y-70307883D01*
X160366000Y-70798552D01*
X159173440Y-70798552D01*
X159173440Y-70564100D01*
X159124157Y-70316335D01*
X158983809Y-70106291D01*
X158773765Y-69965943D01*
X158526000Y-69916660D01*
X157526000Y-69916660D01*
X157278235Y-69965943D01*
X157243500Y-69989152D01*
X157208765Y-69965943D01*
X156961000Y-69916660D01*
X155961000Y-69916660D01*
X155713235Y-69965943D01*
X155670000Y-69994832D01*
X155626765Y-69965943D01*
X155379000Y-69916660D01*
X154379000Y-69916660D01*
X154131235Y-69965943D01*
X154086500Y-69995834D01*
X154041765Y-69965943D01*
X153794000Y-69916660D01*
X152794000Y-69916660D01*
X152546235Y-69965943D01*
X152508000Y-69991491D01*
X152469765Y-69965943D01*
X152222000Y-69916660D01*
X151222000Y-69916660D01*
X150974235Y-69965943D01*
X150957500Y-69977125D01*
X150940765Y-69965943D01*
X150693000Y-69916660D01*
X149693000Y-69916660D01*
X149445235Y-69965943D01*
X149426000Y-69978796D01*
X149406765Y-69965943D01*
X149159000Y-69916660D01*
X148159000Y-69916660D01*
X147911235Y-69965943D01*
X147895500Y-69976457D01*
X147879765Y-69965943D01*
X147632000Y-69916660D01*
X146632000Y-69916660D01*
X146384235Y-69965943D01*
X146174191Y-70106291D01*
X146033843Y-70316335D01*
X145984560Y-70564100D01*
X145465000Y-70564100D01*
X145465000Y-69265000D01*
X171339358Y-69265000D01*
X171302560Y-69450000D01*
G36*
X170989191Y-116495809D02*
X171199235Y-116636157D01*
X171447000Y-116685440D01*
X173133239Y-116685440D01*
X174262300Y-117814502D01*
X174262300Y-118645560D01*
X172273200Y-118645560D01*
X172273200Y-118481726D01*
X172115631Y-118101320D01*
X171824480Y-117810169D01*
X171444074Y-117652600D01*
X171032326Y-117652600D01*
X170651920Y-117810169D01*
X170360769Y-118101320D01*
X170203200Y-118481726D01*
X170203200Y-118645560D01*
X169334000Y-118645560D01*
X169334000Y-118362326D01*
X169176431Y-117981920D01*
X168885280Y-117690769D01*
X168504874Y-117533200D01*
X168093126Y-117533200D01*
X167712720Y-117690769D01*
X167663099Y-117740390D01*
X167406974Y-117634300D01*
X166995226Y-117634300D01*
X166614820Y-117791869D01*
X166471895Y-117934794D01*
X166330551Y-117793450D01*
X167346173Y-116777829D01*
X167409629Y-116735429D01*
X167443031Y-116685440D01*
X170437000Y-116685440D01*
X170684765Y-116636157D01*
X170894809Y-116495809D01*
X170942000Y-116425183D01*
X170989191Y-116495809D01*
X170989191Y-116495809D01*
G37*
X170989191Y-116495809D02*
X171199235Y-116636157D01*
X171447000Y-116685440D01*
X173133239Y-116685440D01*
X174262300Y-117814502D01*
X174262300Y-118645560D01*
X172273200Y-118645560D01*
X172273200Y-118481726D01*
X172115631Y-118101320D01*
X171824480Y-117810169D01*
X171444074Y-117652600D01*
X171032326Y-117652600D01*
X170651920Y-117810169D01*
X170360769Y-118101320D01*
X170203200Y-118481726D01*
X170203200Y-118645560D01*
X169334000Y-118645560D01*
X169334000Y-118362326D01*
X169176431Y-117981920D01*
X168885280Y-117690769D01*
X168504874Y-117533200D01*
X168093126Y-117533200D01*
X167712720Y-117690769D01*
X167663099Y-117740390D01*
X167406974Y-117634300D01*
X166995226Y-117634300D01*
X166614820Y-117791869D01*
X166471895Y-117934794D01*
X166330551Y-117793450D01*
X167346173Y-116777829D01*
X167409629Y-116735429D01*
X167443031Y-116685440D01*
X170437000Y-116685440D01*
X170684765Y-116636157D01*
X170894809Y-116495809D01*
X170942000Y-116425183D01*
X170989191Y-116495809D01*
G36*
X146243748Y-105319858D02*
X146229605Y-105334000D01*
X146243748Y-105348142D01*
X146064142Y-105527748D01*
X146050000Y-105513605D01*
X146035858Y-105527748D01*
X145856252Y-105348142D01*
X145870395Y-105334000D01*
X145856252Y-105319858D01*
X146035858Y-105140252D01*
X146050000Y-105154395D01*
X146064142Y-105140252D01*
X146243748Y-105319858D01*
X146243748Y-105319858D01*
G37*
X146243748Y-105319858D02*
X146229605Y-105334000D01*
X146243748Y-105348142D01*
X146064142Y-105527748D01*
X146050000Y-105513605D01*
X146035858Y-105527748D01*
X145856252Y-105348142D01*
X145870395Y-105334000D01*
X145856252Y-105319858D01*
X146035858Y-105140252D01*
X146050000Y-105154395D01*
X146064142Y-105140252D01*
X146243748Y-105319858D01*
G36*
X146988201Y-104350757D02*
X146920918Y-104283474D01*
X146805669Y-104398723D01*
X146743831Y-104162958D01*
X146468013Y-104065847D01*
X146806217Y-103925758D01*
X146988201Y-103743774D01*
X146988201Y-104350757D01*
X146988201Y-104350757D01*
G37*
X146988201Y-104350757D02*
X146920918Y-104283474D01*
X146805669Y-104398723D01*
X146743831Y-104162958D01*
X146468013Y-104065847D01*
X146806217Y-103925758D01*
X146988201Y-103743774D01*
X146988201Y-104350757D01*
G36*
X189815000Y-97857322D02*
X189495548Y-97725000D01*
X189002508Y-97725000D01*
X189661974Y-97065534D01*
X189815000Y-96696095D01*
X189815000Y-97857322D01*
X189815000Y-97857322D01*
G37*
X189815000Y-97857322D02*
X189495548Y-97725000D01*
X189002508Y-97725000D01*
X189661974Y-97065534D01*
X189815000Y-96696095D01*
X189815000Y-97857322D01*
G04 #@! TD*
M02*
