G04 #@! TF.GenerationSoftware,KiCad,Pcbnew,5.0.2*
G04 #@! TF.CreationDate,2019-03-01T11:34:39+03:00*
G04 #@! TF.ProjectId,xmobile,786d6f62-696c-4652-9e6b-696361645f70,rev?*
G04 #@! TF.SameCoordinates,Original*
G04 #@! TF.FileFunction,Legend,Top*
G04 #@! TF.FilePolarity,Positive*
%FSLAX46Y46*%
G04 Gerber Fmt 4.6, Leading zero omitted, Abs format (unit mm)*
G04 Created by KiCad (PCBNEW 5.0.2) date Пт 01 мар 2019 11:34:39*
%MOMM*%
%LPD*%
G01*
G04 APERTURE LIST*
%ADD10C,0.300000*%
%ADD11C,0.120000*%
%ADD12C,0.150000*%
%ADD13C,0.125000*%
G04 APERTURE END LIST*
D10*
X160671428Y-80978571D02*
X160671428Y-79478571D01*
X161028571Y-79478571D01*
X161242857Y-79550000D01*
X161385714Y-79692857D01*
X161457142Y-79835714D01*
X161528571Y-80121428D01*
X161528571Y-80335714D01*
X161457142Y-80621428D01*
X161385714Y-80764285D01*
X161242857Y-80907142D01*
X161028571Y-80978571D01*
X160671428Y-80978571D01*
X162171428Y-80978571D02*
X162171428Y-79978571D01*
X162171428Y-80264285D02*
X162242857Y-80121428D01*
X162314285Y-80050000D01*
X162457142Y-79978571D01*
X162600000Y-79978571D01*
X163742857Y-79978571D02*
X163742857Y-80978571D01*
X163100000Y-79978571D02*
X163100000Y-80764285D01*
X163171428Y-80907142D01*
X163314285Y-80978571D01*
X163528571Y-80978571D01*
X163671428Y-80907142D01*
X163742857Y-80835714D01*
X164457142Y-80978571D02*
X164457142Y-79978571D01*
X164457142Y-79478571D02*
X164385714Y-79550000D01*
X164457142Y-79621428D01*
X164528571Y-79550000D01*
X164457142Y-79478571D01*
X164457142Y-79621428D01*
X165814285Y-80978571D02*
X165814285Y-79478571D01*
X165814285Y-80907142D02*
X165671428Y-80978571D01*
X165385714Y-80978571D01*
X165242857Y-80907142D01*
X165171428Y-80835714D01*
X165100000Y-80692857D01*
X165100000Y-80264285D01*
X165171428Y-80121428D01*
X165242857Y-80050000D01*
X165385714Y-79978571D01*
X165671428Y-79978571D01*
X165814285Y-80050000D01*
X167957142Y-79478571D02*
X168100000Y-79478571D01*
X168242857Y-79550000D01*
X168314285Y-79621428D01*
X168385714Y-79764285D01*
X168457142Y-80050000D01*
X168457142Y-80407142D01*
X168385714Y-80692857D01*
X168314285Y-80835714D01*
X168242857Y-80907142D01*
X168100000Y-80978571D01*
X167957142Y-80978571D01*
X167814285Y-80907142D01*
X167742857Y-80835714D01*
X167671428Y-80692857D01*
X167600000Y-80407142D01*
X167600000Y-80050000D01*
X167671428Y-79764285D01*
X167742857Y-79621428D01*
X167814285Y-79550000D01*
X167957142Y-79478571D01*
X169100000Y-80835714D02*
X169171428Y-80907142D01*
X169100000Y-80978571D01*
X169028571Y-80907142D01*
X169100000Y-80835714D01*
X169100000Y-80978571D01*
X169742857Y-79621428D02*
X169814285Y-79550000D01*
X169957142Y-79478571D01*
X170314285Y-79478571D01*
X170457142Y-79550000D01*
X170528571Y-79621428D01*
X170600000Y-79764285D01*
X170600000Y-79907142D01*
X170528571Y-80121428D01*
X169671428Y-80978571D01*
X170600000Y-80978571D01*
D11*
G04 #@! TO.C,h3*
X150876000Y-83820000D02*
G75*
G03X150876000Y-83820000I-2286000J0D01*
G01*
G04 #@! TO.C,h4*
X189687000Y-95554800D02*
G75*
G03X189687000Y-95554800I-2286000J0D01*
G01*
G04 #@! TO.C,h2*
X181191000Y-137109000D02*
G75*
G03X181191000Y-137109000I-2286000J0D01*
G01*
G04 #@! TO.C,H1*
X154330000Y-137109000D02*
G75*
G03X154330000Y-137109000I-2286000J0D01*
G01*
D12*
G04 #@! TO.C,SW1*
X159323000Y-91940000D02*
X159323000Y-87940000D01*
X154323000Y-91940000D02*
X159323000Y-91940000D01*
X154323000Y-87940000D02*
X154323000Y-91940000D01*
X159323000Y-87940000D02*
X154323000Y-87940000D01*
G04 #@! TO.C,SW2*
X173442000Y-123793000D02*
X173442000Y-119793000D01*
X168442000Y-123793000D02*
X173442000Y-123793000D01*
X168442000Y-119793000D02*
X168442000Y-123793000D01*
X173442000Y-119793000D02*
X168442000Y-119793000D01*
G04 #@! TO.C,SW3*
X155281000Y-115538000D02*
X155281000Y-111538000D01*
X150281000Y-115538000D02*
X155281000Y-115538000D01*
X150281000Y-111538000D02*
X150281000Y-115538000D01*
X155281000Y-111538000D02*
X150281000Y-111538000D01*
G04 #@! TO.C,SW4*
X182078000Y-99155000D02*
X182078000Y-95155000D01*
X177078000Y-99155000D02*
X182078000Y-99155000D01*
X177078000Y-95155000D02*
X177078000Y-99155000D01*
X182078000Y-95155000D02*
X177078000Y-95155000D01*
G04 #@! TO.C,SW5*
X164425000Y-115538000D02*
X164425000Y-111538000D01*
X159425000Y-115538000D02*
X164425000Y-115538000D01*
X159425000Y-111538000D02*
X159425000Y-115538000D01*
X164425000Y-111538000D02*
X159425000Y-111538000D01*
G04 #@! TO.C,SW6*
X173442000Y-115538000D02*
X173442000Y-111538000D01*
X168442000Y-115538000D02*
X173442000Y-115538000D01*
X168442000Y-111538000D02*
X168442000Y-115538000D01*
X173442000Y-111538000D02*
X168442000Y-111538000D01*
G04 #@! TO.C,SW7*
X155281000Y-132175000D02*
X155281000Y-128175000D01*
X150281000Y-132175000D02*
X155281000Y-132175000D01*
X150281000Y-128175000D02*
X150281000Y-132175000D01*
X155281000Y-128175000D02*
X150281000Y-128175000D01*
G04 #@! TO.C,SW8*
X182078000Y-115538000D02*
X182078000Y-111538000D01*
X177078000Y-115538000D02*
X182078000Y-115538000D01*
X177078000Y-111538000D02*
X177078000Y-115538000D01*
X182078000Y-111538000D02*
X177078000Y-111538000D01*
G04 #@! TO.C,SW9*
X164425000Y-132175000D02*
X164425000Y-128175000D01*
X159425000Y-132175000D02*
X164425000Y-132175000D01*
X159425000Y-128175000D02*
X159425000Y-132175000D01*
X164425000Y-128175000D02*
X159425000Y-128175000D01*
G04 #@! TO.C,SW10*
X155281000Y-107410000D02*
X155281000Y-103410000D01*
X150281000Y-107410000D02*
X155281000Y-107410000D01*
X150281000Y-103410000D02*
X150281000Y-107410000D01*
X155281000Y-103410000D02*
X150281000Y-103410000D01*
G04 #@! TO.C,SW11*
X164425000Y-123793000D02*
X164425000Y-119793000D01*
X159425000Y-123793000D02*
X164425000Y-123793000D01*
X159425000Y-119793000D02*
X159425000Y-123793000D01*
X164425000Y-119793000D02*
X159425000Y-119793000D01*
G04 #@! TO.C,SW12*
X173442000Y-132175000D02*
X173442000Y-128175000D01*
X168442000Y-132175000D02*
X173442000Y-132175000D01*
X168442000Y-128175000D02*
X168442000Y-132175000D01*
X173442000Y-128175000D02*
X168442000Y-128175000D01*
G04 #@! TO.C,SW13*
X182078000Y-107410000D02*
X182078000Y-103410000D01*
X177078000Y-107410000D02*
X182078000Y-107410000D01*
X177078000Y-103410000D02*
X177078000Y-107410000D01*
X182078000Y-103410000D02*
X177078000Y-103410000D01*
G04 #@! TO.C,SW14*
X164425000Y-107410000D02*
X164425000Y-103410000D01*
X159425000Y-107410000D02*
X164425000Y-107410000D01*
X159425000Y-103410000D02*
X159425000Y-107410000D01*
X164425000Y-103410000D02*
X159425000Y-103410000D01*
G04 #@! TO.C,SW15*
X155281000Y-123793000D02*
X155281000Y-119793000D01*
X150281000Y-123793000D02*
X155281000Y-123793000D01*
X150281000Y-119793000D02*
X150281000Y-123793000D01*
X155281000Y-119793000D02*
X150281000Y-119793000D01*
G04 #@! TO.C,SW16*
X182078000Y-132175000D02*
X182078000Y-128175000D01*
X177078000Y-132175000D02*
X182078000Y-132175000D01*
X177078000Y-128175000D02*
X177078000Y-132175000D01*
X182078000Y-128175000D02*
X177078000Y-128175000D01*
G04 #@! TO.C,SW17*
X155281000Y-99155000D02*
X155281000Y-95155000D01*
X150281000Y-99155000D02*
X155281000Y-99155000D01*
X150281000Y-95155000D02*
X150281000Y-99155000D01*
X155281000Y-95155000D02*
X150281000Y-95155000D01*
G04 #@! TO.C,SW18*
X173442000Y-107410000D02*
X173442000Y-103410000D01*
X168442000Y-107410000D02*
X173442000Y-107410000D01*
X168442000Y-103410000D02*
X168442000Y-107410000D01*
X173442000Y-103410000D02*
X168442000Y-103410000D01*
G04 #@! TO.C,SW19*
X182078000Y-123793000D02*
X182078000Y-119793000D01*
X177078000Y-123793000D02*
X182078000Y-123793000D01*
X177078000Y-119793000D02*
X177078000Y-123793000D01*
X182078000Y-119793000D02*
X177078000Y-119793000D01*
G04 #@! TO.C,SW20*
X164425000Y-99155000D02*
X164425000Y-95155000D01*
X159425000Y-99155000D02*
X164425000Y-99155000D01*
X159425000Y-95155000D02*
X159425000Y-99155000D01*
X164425000Y-95155000D02*
X159425000Y-95155000D01*
G04 #@! TO.C,SW21*
X173442000Y-99155000D02*
X173442000Y-95155000D01*
X168442000Y-99155000D02*
X173442000Y-99155000D01*
X168442000Y-95155000D02*
X168442000Y-99155000D01*
X173442000Y-95155000D02*
X168442000Y-95155000D01*
G04 #@! TO.C,U7*
X174380000Y-88875000D02*
X174380000Y-82550000D01*
X189830000Y-88875000D02*
X174380000Y-88875000D01*
X189830000Y-76225000D02*
X189830000Y-88875000D01*
X174380000Y-76225000D02*
X189830000Y-76225000D01*
X174380000Y-82550000D02*
X174380000Y-76225000D01*
X189830000Y-88875000D02*
X189830000Y-88660000D01*
D11*
G04 #@! TO.C,J5*
X180150000Y-69250000D02*
X181550000Y-69250000D01*
X181550000Y-69250000D02*
X181550000Y-70650000D01*
X181550000Y-70650000D02*
X180150000Y-70650000D01*
X180150000Y-70650000D02*
X180150000Y-69250000D01*
G04 #@! TO.C,J6*
X178950000Y-70650000D02*
X178950000Y-69250000D01*
X180350000Y-70650000D02*
X178950000Y-70650000D01*
X180350000Y-69250000D02*
X180350000Y-70650000D01*
X178950000Y-69250000D02*
X180350000Y-69250000D01*
G04 #@! TO.C,J7*
X177750000Y-69250000D02*
X179150000Y-69250000D01*
X179150000Y-69250000D02*
X179150000Y-70650000D01*
X179150000Y-70650000D02*
X177750000Y-70650000D01*
X177750000Y-70650000D02*
X177750000Y-69250000D01*
G04 #@! TO.C,J8*
X176550000Y-70650000D02*
X176550000Y-69250000D01*
X177950000Y-70650000D02*
X176550000Y-70650000D01*
X177950000Y-69250000D02*
X177950000Y-70650000D01*
X176550000Y-69250000D02*
X177950000Y-69250000D01*
G04 #@! TO.C,J9*
X175350000Y-69250000D02*
X176750000Y-69250000D01*
X176750000Y-69250000D02*
X176750000Y-70650000D01*
X176750000Y-70650000D02*
X175350000Y-70650000D01*
X175350000Y-70650000D02*
X175350000Y-69250000D01*
G04 #@! TO.C,J10*
X174150000Y-70650000D02*
X174150000Y-69250000D01*
X175550000Y-70650000D02*
X174150000Y-70650000D01*
X175550000Y-69250000D02*
X175550000Y-70650000D01*
X174150000Y-69250000D02*
X175550000Y-69250000D01*
G04 #@! TO.C,J11*
X172950000Y-69250000D02*
X174350000Y-69250000D01*
X174350000Y-69250000D02*
X174350000Y-70650000D01*
X174350000Y-70650000D02*
X172950000Y-70650000D01*
X172950000Y-70650000D02*
X172950000Y-69250000D01*
G04 #@! TO.C,J12*
X171750000Y-70650000D02*
X171750000Y-69250000D01*
X173150000Y-70650000D02*
X171750000Y-70650000D01*
X173150000Y-69250000D02*
X173150000Y-70650000D01*
X171750000Y-69250000D02*
X173150000Y-69250000D01*
G04 #@! TO.C,h3*
D12*
X147899523Y-81224380D02*
X147899523Y-80224380D01*
X148328095Y-81224380D02*
X148328095Y-80700571D01*
X148280476Y-80605333D01*
X148185238Y-80557714D01*
X148042380Y-80557714D01*
X147947142Y-80605333D01*
X147899523Y-80652952D01*
X148709047Y-80224380D02*
X149328095Y-80224380D01*
X148994761Y-80605333D01*
X149137619Y-80605333D01*
X149232857Y-80652952D01*
X149280476Y-80700571D01*
X149328095Y-80795809D01*
X149328095Y-81033904D01*
X149280476Y-81129142D01*
X149232857Y-81176761D01*
X149137619Y-81224380D01*
X148851904Y-81224380D01*
X148756666Y-81176761D01*
X148709047Y-81129142D01*
G04 #@! TO.C,h4*
X186710523Y-92959180D02*
X186710523Y-91959180D01*
X187139095Y-92959180D02*
X187139095Y-92435371D01*
X187091476Y-92340133D01*
X186996238Y-92292514D01*
X186853380Y-92292514D01*
X186758142Y-92340133D01*
X186710523Y-92387752D01*
X188043857Y-92292514D02*
X188043857Y-92959180D01*
X187805761Y-91911561D02*
X187567666Y-92625847D01*
X188186714Y-92625847D01*
G04 #@! TO.C,h2*
X183459623Y-138882180D02*
X183459623Y-137882180D01*
X183888195Y-138882180D02*
X183888195Y-138358371D01*
X183840576Y-138263133D01*
X183745338Y-138215514D01*
X183602480Y-138215514D01*
X183507242Y-138263133D01*
X183459623Y-138310752D01*
X184316766Y-137977419D02*
X184364385Y-137929800D01*
X184459623Y-137882180D01*
X184697719Y-137882180D01*
X184792957Y-137929800D01*
X184840576Y-137977419D01*
X184888195Y-138072657D01*
X184888195Y-138167895D01*
X184840576Y-138310752D01*
X184269147Y-138882180D01*
X184888195Y-138882180D01*
G04 #@! TO.C,H1*
X146557695Y-137612180D02*
X146557695Y-136612180D01*
X146557695Y-137088371D02*
X147129123Y-137088371D01*
X147129123Y-137612180D02*
X147129123Y-136612180D01*
X148129123Y-137612180D02*
X147557695Y-137612180D01*
X147843409Y-137612180D02*
X147843409Y-136612180D01*
X147748171Y-136755038D01*
X147652933Y-136850276D01*
X147557695Y-136897895D01*
G04 #@! TO.C,SW1*
D13*
X156410333Y-86586380D02*
X156481761Y-86610190D01*
X156600809Y-86610190D01*
X156648428Y-86586380D01*
X156672238Y-86562571D01*
X156696047Y-86514952D01*
X156696047Y-86467333D01*
X156672238Y-86419714D01*
X156648428Y-86395904D01*
X156600809Y-86372095D01*
X156505571Y-86348285D01*
X156457952Y-86324476D01*
X156434142Y-86300666D01*
X156410333Y-86253047D01*
X156410333Y-86205428D01*
X156434142Y-86157809D01*
X156457952Y-86134000D01*
X156505571Y-86110190D01*
X156624619Y-86110190D01*
X156696047Y-86134000D01*
X156862714Y-86110190D02*
X156981761Y-86610190D01*
X157077000Y-86253047D01*
X157172238Y-86610190D01*
X157291285Y-86110190D01*
X157743666Y-86610190D02*
X157457952Y-86610190D01*
X157600809Y-86610190D02*
X157600809Y-86110190D01*
X157553190Y-86181619D01*
X157505571Y-86229238D01*
X157457952Y-86253047D01*
G04 #@! TO.C,SW2*
X170148333Y-118566380D02*
X170219761Y-118590190D01*
X170338809Y-118590190D01*
X170386428Y-118566380D01*
X170410238Y-118542571D01*
X170434047Y-118494952D01*
X170434047Y-118447333D01*
X170410238Y-118399714D01*
X170386428Y-118375904D01*
X170338809Y-118352095D01*
X170243571Y-118328285D01*
X170195952Y-118304476D01*
X170172142Y-118280666D01*
X170148333Y-118233047D01*
X170148333Y-118185428D01*
X170172142Y-118137809D01*
X170195952Y-118114000D01*
X170243571Y-118090190D01*
X170362619Y-118090190D01*
X170434047Y-118114000D01*
X170600714Y-118090190D02*
X170719761Y-118590190D01*
X170815000Y-118233047D01*
X170910238Y-118590190D01*
X171029285Y-118090190D01*
X171195952Y-118137809D02*
X171219761Y-118114000D01*
X171267380Y-118090190D01*
X171386428Y-118090190D01*
X171434047Y-118114000D01*
X171457857Y-118137809D01*
X171481666Y-118185428D01*
X171481666Y-118233047D01*
X171457857Y-118304476D01*
X171172142Y-118590190D01*
X171481666Y-118590190D01*
G04 #@! TO.C,SW3*
X152114333Y-110311380D02*
X152185761Y-110335190D01*
X152304809Y-110335190D01*
X152352428Y-110311380D01*
X152376238Y-110287571D01*
X152400047Y-110239952D01*
X152400047Y-110192333D01*
X152376238Y-110144714D01*
X152352428Y-110120904D01*
X152304809Y-110097095D01*
X152209571Y-110073285D01*
X152161952Y-110049476D01*
X152138142Y-110025666D01*
X152114333Y-109978047D01*
X152114333Y-109930428D01*
X152138142Y-109882809D01*
X152161952Y-109859000D01*
X152209571Y-109835190D01*
X152328619Y-109835190D01*
X152400047Y-109859000D01*
X152566714Y-109835190D02*
X152685761Y-110335190D01*
X152781000Y-109978047D01*
X152876238Y-110335190D01*
X152995285Y-109835190D01*
X153138142Y-109835190D02*
X153447666Y-109835190D01*
X153281000Y-110025666D01*
X153352428Y-110025666D01*
X153400047Y-110049476D01*
X153423857Y-110073285D01*
X153447666Y-110120904D01*
X153447666Y-110239952D01*
X153423857Y-110287571D01*
X153400047Y-110311380D01*
X153352428Y-110335190D01*
X153209571Y-110335190D01*
X153161952Y-110311380D01*
X153138142Y-110287571D01*
G04 #@! TO.C,SW4*
X178657333Y-93928380D02*
X178728761Y-93952190D01*
X178847809Y-93952190D01*
X178895428Y-93928380D01*
X178919238Y-93904571D01*
X178943047Y-93856952D01*
X178943047Y-93809333D01*
X178919238Y-93761714D01*
X178895428Y-93737904D01*
X178847809Y-93714095D01*
X178752571Y-93690285D01*
X178704952Y-93666476D01*
X178681142Y-93642666D01*
X178657333Y-93595047D01*
X178657333Y-93547428D01*
X178681142Y-93499809D01*
X178704952Y-93476000D01*
X178752571Y-93452190D01*
X178871619Y-93452190D01*
X178943047Y-93476000D01*
X179109714Y-93452190D02*
X179228761Y-93952190D01*
X179324000Y-93595047D01*
X179419238Y-93952190D01*
X179538285Y-93452190D01*
X179943047Y-93618857D02*
X179943047Y-93952190D01*
X179824000Y-93428380D02*
X179704952Y-93785523D01*
X180014476Y-93785523D01*
G04 #@! TO.C,SW5*
X161258333Y-110311380D02*
X161329761Y-110335190D01*
X161448809Y-110335190D01*
X161496428Y-110311380D01*
X161520238Y-110287571D01*
X161544047Y-110239952D01*
X161544047Y-110192333D01*
X161520238Y-110144714D01*
X161496428Y-110120904D01*
X161448809Y-110097095D01*
X161353571Y-110073285D01*
X161305952Y-110049476D01*
X161282142Y-110025666D01*
X161258333Y-109978047D01*
X161258333Y-109930428D01*
X161282142Y-109882809D01*
X161305952Y-109859000D01*
X161353571Y-109835190D01*
X161472619Y-109835190D01*
X161544047Y-109859000D01*
X161710714Y-109835190D02*
X161829761Y-110335190D01*
X161925000Y-109978047D01*
X162020238Y-110335190D01*
X162139285Y-109835190D01*
X162567857Y-109835190D02*
X162329761Y-109835190D01*
X162305952Y-110073285D01*
X162329761Y-110049476D01*
X162377380Y-110025666D01*
X162496428Y-110025666D01*
X162544047Y-110049476D01*
X162567857Y-110073285D01*
X162591666Y-110120904D01*
X162591666Y-110239952D01*
X162567857Y-110287571D01*
X162544047Y-110311380D01*
X162496428Y-110335190D01*
X162377380Y-110335190D01*
X162329761Y-110311380D01*
X162305952Y-110287571D01*
G04 #@! TO.C,SW6*
X170148333Y-110311380D02*
X170219761Y-110335190D01*
X170338809Y-110335190D01*
X170386428Y-110311380D01*
X170410238Y-110287571D01*
X170434047Y-110239952D01*
X170434047Y-110192333D01*
X170410238Y-110144714D01*
X170386428Y-110120904D01*
X170338809Y-110097095D01*
X170243571Y-110073285D01*
X170195952Y-110049476D01*
X170172142Y-110025666D01*
X170148333Y-109978047D01*
X170148333Y-109930428D01*
X170172142Y-109882809D01*
X170195952Y-109859000D01*
X170243571Y-109835190D01*
X170362619Y-109835190D01*
X170434047Y-109859000D01*
X170600714Y-109835190D02*
X170719761Y-110335190D01*
X170815000Y-109978047D01*
X170910238Y-110335190D01*
X171029285Y-109835190D01*
X171434047Y-109835190D02*
X171338809Y-109835190D01*
X171291190Y-109859000D01*
X171267380Y-109882809D01*
X171219761Y-109954238D01*
X171195952Y-110049476D01*
X171195952Y-110239952D01*
X171219761Y-110287571D01*
X171243571Y-110311380D01*
X171291190Y-110335190D01*
X171386428Y-110335190D01*
X171434047Y-110311380D01*
X171457857Y-110287571D01*
X171481666Y-110239952D01*
X171481666Y-110120904D01*
X171457857Y-110073285D01*
X171434047Y-110049476D01*
X171386428Y-110025666D01*
X171291190Y-110025666D01*
X171243571Y-110049476D01*
X171219761Y-110073285D01*
X171195952Y-110120904D01*
G04 #@! TO.C,SW7*
X152114333Y-126948380D02*
X152185761Y-126972190D01*
X152304809Y-126972190D01*
X152352428Y-126948380D01*
X152376238Y-126924571D01*
X152400047Y-126876952D01*
X152400047Y-126829333D01*
X152376238Y-126781714D01*
X152352428Y-126757904D01*
X152304809Y-126734095D01*
X152209571Y-126710285D01*
X152161952Y-126686476D01*
X152138142Y-126662666D01*
X152114333Y-126615047D01*
X152114333Y-126567428D01*
X152138142Y-126519809D01*
X152161952Y-126496000D01*
X152209571Y-126472190D01*
X152328619Y-126472190D01*
X152400047Y-126496000D01*
X152566714Y-126472190D02*
X152685761Y-126972190D01*
X152781000Y-126615047D01*
X152876238Y-126972190D01*
X152995285Y-126472190D01*
X153138142Y-126472190D02*
X153471476Y-126472190D01*
X153257190Y-126972190D01*
G04 #@! TO.C,SW8*
X178784333Y-110311380D02*
X178855761Y-110335190D01*
X178974809Y-110335190D01*
X179022428Y-110311380D01*
X179046238Y-110287571D01*
X179070047Y-110239952D01*
X179070047Y-110192333D01*
X179046238Y-110144714D01*
X179022428Y-110120904D01*
X178974809Y-110097095D01*
X178879571Y-110073285D01*
X178831952Y-110049476D01*
X178808142Y-110025666D01*
X178784333Y-109978047D01*
X178784333Y-109930428D01*
X178808142Y-109882809D01*
X178831952Y-109859000D01*
X178879571Y-109835190D01*
X178998619Y-109835190D01*
X179070047Y-109859000D01*
X179236714Y-109835190D02*
X179355761Y-110335190D01*
X179451000Y-109978047D01*
X179546238Y-110335190D01*
X179665285Y-109835190D01*
X179927190Y-110049476D02*
X179879571Y-110025666D01*
X179855761Y-110001857D01*
X179831952Y-109954238D01*
X179831952Y-109930428D01*
X179855761Y-109882809D01*
X179879571Y-109859000D01*
X179927190Y-109835190D01*
X180022428Y-109835190D01*
X180070047Y-109859000D01*
X180093857Y-109882809D01*
X180117666Y-109930428D01*
X180117666Y-109954238D01*
X180093857Y-110001857D01*
X180070047Y-110025666D01*
X180022428Y-110049476D01*
X179927190Y-110049476D01*
X179879571Y-110073285D01*
X179855761Y-110097095D01*
X179831952Y-110144714D01*
X179831952Y-110239952D01*
X179855761Y-110287571D01*
X179879571Y-110311380D01*
X179927190Y-110335190D01*
X180022428Y-110335190D01*
X180070047Y-110311380D01*
X180093857Y-110287571D01*
X180117666Y-110239952D01*
X180117666Y-110144714D01*
X180093857Y-110097095D01*
X180070047Y-110073285D01*
X180022428Y-110049476D01*
G04 #@! TO.C,SW9*
X161131333Y-126948380D02*
X161202761Y-126972190D01*
X161321809Y-126972190D01*
X161369428Y-126948380D01*
X161393238Y-126924571D01*
X161417047Y-126876952D01*
X161417047Y-126829333D01*
X161393238Y-126781714D01*
X161369428Y-126757904D01*
X161321809Y-126734095D01*
X161226571Y-126710285D01*
X161178952Y-126686476D01*
X161155142Y-126662666D01*
X161131333Y-126615047D01*
X161131333Y-126567428D01*
X161155142Y-126519809D01*
X161178952Y-126496000D01*
X161226571Y-126472190D01*
X161345619Y-126472190D01*
X161417047Y-126496000D01*
X161583714Y-126472190D02*
X161702761Y-126972190D01*
X161798000Y-126615047D01*
X161893238Y-126972190D01*
X162012285Y-126472190D01*
X162226571Y-126972190D02*
X162321809Y-126972190D01*
X162369428Y-126948380D01*
X162393238Y-126924571D01*
X162440857Y-126853142D01*
X162464666Y-126757904D01*
X162464666Y-126567428D01*
X162440857Y-126519809D01*
X162417047Y-126496000D01*
X162369428Y-126472190D01*
X162274190Y-126472190D01*
X162226571Y-126496000D01*
X162202761Y-126519809D01*
X162178952Y-126567428D01*
X162178952Y-126686476D01*
X162202761Y-126734095D01*
X162226571Y-126757904D01*
X162274190Y-126781714D01*
X162369428Y-126781714D01*
X162417047Y-126757904D01*
X162440857Y-126734095D01*
X162464666Y-126686476D01*
G04 #@! TO.C,SW10*
X152003238Y-102183380D02*
X152074666Y-102207190D01*
X152193714Y-102207190D01*
X152241333Y-102183380D01*
X152265142Y-102159571D01*
X152288952Y-102111952D01*
X152288952Y-102064333D01*
X152265142Y-102016714D01*
X152241333Y-101992904D01*
X152193714Y-101969095D01*
X152098476Y-101945285D01*
X152050857Y-101921476D01*
X152027047Y-101897666D01*
X152003238Y-101850047D01*
X152003238Y-101802428D01*
X152027047Y-101754809D01*
X152050857Y-101731000D01*
X152098476Y-101707190D01*
X152217523Y-101707190D01*
X152288952Y-101731000D01*
X152455619Y-101707190D02*
X152574666Y-102207190D01*
X152669904Y-101850047D01*
X152765142Y-102207190D01*
X152884190Y-101707190D01*
X153336571Y-102207190D02*
X153050857Y-102207190D01*
X153193714Y-102207190D02*
X153193714Y-101707190D01*
X153146095Y-101778619D01*
X153098476Y-101826238D01*
X153050857Y-101850047D01*
X153646095Y-101707190D02*
X153693714Y-101707190D01*
X153741333Y-101731000D01*
X153765142Y-101754809D01*
X153788952Y-101802428D01*
X153812761Y-101897666D01*
X153812761Y-102016714D01*
X153788952Y-102111952D01*
X153765142Y-102159571D01*
X153741333Y-102183380D01*
X153693714Y-102207190D01*
X153646095Y-102207190D01*
X153598476Y-102183380D01*
X153574666Y-102159571D01*
X153550857Y-102111952D01*
X153527047Y-102016714D01*
X153527047Y-101897666D01*
X153550857Y-101802428D01*
X153574666Y-101754809D01*
X153598476Y-101731000D01*
X153646095Y-101707190D01*
G04 #@! TO.C,SW11*
X160795238Y-118717380D02*
X160866666Y-118741190D01*
X160985714Y-118741190D01*
X161033333Y-118717380D01*
X161057142Y-118693571D01*
X161080952Y-118645952D01*
X161080952Y-118598333D01*
X161057142Y-118550714D01*
X161033333Y-118526904D01*
X160985714Y-118503095D01*
X160890476Y-118479285D01*
X160842857Y-118455476D01*
X160819047Y-118431666D01*
X160795238Y-118384047D01*
X160795238Y-118336428D01*
X160819047Y-118288809D01*
X160842857Y-118265000D01*
X160890476Y-118241190D01*
X161009523Y-118241190D01*
X161080952Y-118265000D01*
X161247619Y-118241190D02*
X161366666Y-118741190D01*
X161461904Y-118384047D01*
X161557142Y-118741190D01*
X161676190Y-118241190D01*
X162128571Y-118741190D02*
X161842857Y-118741190D01*
X161985714Y-118741190D02*
X161985714Y-118241190D01*
X161938095Y-118312619D01*
X161890476Y-118360238D01*
X161842857Y-118384047D01*
X162604761Y-118741190D02*
X162319047Y-118741190D01*
X162461904Y-118741190D02*
X162461904Y-118241190D01*
X162414285Y-118312619D01*
X162366666Y-118360238D01*
X162319047Y-118384047D01*
G04 #@! TO.C,SW12*
X170037238Y-126948380D02*
X170108666Y-126972190D01*
X170227714Y-126972190D01*
X170275333Y-126948380D01*
X170299142Y-126924571D01*
X170322952Y-126876952D01*
X170322952Y-126829333D01*
X170299142Y-126781714D01*
X170275333Y-126757904D01*
X170227714Y-126734095D01*
X170132476Y-126710285D01*
X170084857Y-126686476D01*
X170061047Y-126662666D01*
X170037238Y-126615047D01*
X170037238Y-126567428D01*
X170061047Y-126519809D01*
X170084857Y-126496000D01*
X170132476Y-126472190D01*
X170251523Y-126472190D01*
X170322952Y-126496000D01*
X170489619Y-126472190D02*
X170608666Y-126972190D01*
X170703904Y-126615047D01*
X170799142Y-126972190D01*
X170918190Y-126472190D01*
X171370571Y-126972190D02*
X171084857Y-126972190D01*
X171227714Y-126972190D02*
X171227714Y-126472190D01*
X171180095Y-126543619D01*
X171132476Y-126591238D01*
X171084857Y-126615047D01*
X171561047Y-126519809D02*
X171584857Y-126496000D01*
X171632476Y-126472190D01*
X171751523Y-126472190D01*
X171799142Y-126496000D01*
X171822952Y-126519809D01*
X171846761Y-126567428D01*
X171846761Y-126615047D01*
X171822952Y-126686476D01*
X171537238Y-126972190D01*
X171846761Y-126972190D01*
G04 #@! TO.C,SW13*
X178546238Y-102183380D02*
X178617666Y-102207190D01*
X178736714Y-102207190D01*
X178784333Y-102183380D01*
X178808142Y-102159571D01*
X178831952Y-102111952D01*
X178831952Y-102064333D01*
X178808142Y-102016714D01*
X178784333Y-101992904D01*
X178736714Y-101969095D01*
X178641476Y-101945285D01*
X178593857Y-101921476D01*
X178570047Y-101897666D01*
X178546238Y-101850047D01*
X178546238Y-101802428D01*
X178570047Y-101754809D01*
X178593857Y-101731000D01*
X178641476Y-101707190D01*
X178760523Y-101707190D01*
X178831952Y-101731000D01*
X178998619Y-101707190D02*
X179117666Y-102207190D01*
X179212904Y-101850047D01*
X179308142Y-102207190D01*
X179427190Y-101707190D01*
X179879571Y-102207190D02*
X179593857Y-102207190D01*
X179736714Y-102207190D02*
X179736714Y-101707190D01*
X179689095Y-101778619D01*
X179641476Y-101826238D01*
X179593857Y-101850047D01*
X180046238Y-101707190D02*
X180355761Y-101707190D01*
X180189095Y-101897666D01*
X180260523Y-101897666D01*
X180308142Y-101921476D01*
X180331952Y-101945285D01*
X180355761Y-101992904D01*
X180355761Y-102111952D01*
X180331952Y-102159571D01*
X180308142Y-102183380D01*
X180260523Y-102207190D01*
X180117666Y-102207190D01*
X180070047Y-102183380D01*
X180046238Y-102159571D01*
G04 #@! TO.C,SW14*
X160893238Y-102183380D02*
X160964666Y-102207190D01*
X161083714Y-102207190D01*
X161131333Y-102183380D01*
X161155142Y-102159571D01*
X161178952Y-102111952D01*
X161178952Y-102064333D01*
X161155142Y-102016714D01*
X161131333Y-101992904D01*
X161083714Y-101969095D01*
X160988476Y-101945285D01*
X160940857Y-101921476D01*
X160917047Y-101897666D01*
X160893238Y-101850047D01*
X160893238Y-101802428D01*
X160917047Y-101754809D01*
X160940857Y-101731000D01*
X160988476Y-101707190D01*
X161107523Y-101707190D01*
X161178952Y-101731000D01*
X161345619Y-101707190D02*
X161464666Y-102207190D01*
X161559904Y-101850047D01*
X161655142Y-102207190D01*
X161774190Y-101707190D01*
X162226571Y-102207190D02*
X161940857Y-102207190D01*
X162083714Y-102207190D02*
X162083714Y-101707190D01*
X162036095Y-101778619D01*
X161988476Y-101826238D01*
X161940857Y-101850047D01*
X162655142Y-101873857D02*
X162655142Y-102207190D01*
X162536095Y-101683380D02*
X162417047Y-102040523D01*
X162726571Y-102040523D01*
G04 #@! TO.C,SW15*
X151876238Y-118566380D02*
X151947666Y-118590190D01*
X152066714Y-118590190D01*
X152114333Y-118566380D01*
X152138142Y-118542571D01*
X152161952Y-118494952D01*
X152161952Y-118447333D01*
X152138142Y-118399714D01*
X152114333Y-118375904D01*
X152066714Y-118352095D01*
X151971476Y-118328285D01*
X151923857Y-118304476D01*
X151900047Y-118280666D01*
X151876238Y-118233047D01*
X151876238Y-118185428D01*
X151900047Y-118137809D01*
X151923857Y-118114000D01*
X151971476Y-118090190D01*
X152090523Y-118090190D01*
X152161952Y-118114000D01*
X152328619Y-118090190D02*
X152447666Y-118590190D01*
X152542904Y-118233047D01*
X152638142Y-118590190D01*
X152757190Y-118090190D01*
X153209571Y-118590190D02*
X152923857Y-118590190D01*
X153066714Y-118590190D02*
X153066714Y-118090190D01*
X153019095Y-118161619D01*
X152971476Y-118209238D01*
X152923857Y-118233047D01*
X153661952Y-118090190D02*
X153423857Y-118090190D01*
X153400047Y-118328285D01*
X153423857Y-118304476D01*
X153471476Y-118280666D01*
X153590523Y-118280666D01*
X153638142Y-118304476D01*
X153661952Y-118328285D01*
X153685761Y-118375904D01*
X153685761Y-118494952D01*
X153661952Y-118542571D01*
X153638142Y-118566380D01*
X153590523Y-118590190D01*
X153471476Y-118590190D01*
X153423857Y-118566380D01*
X153400047Y-118542571D01*
G04 #@! TO.C,SW16*
X178673238Y-126948380D02*
X178744666Y-126972190D01*
X178863714Y-126972190D01*
X178911333Y-126948380D01*
X178935142Y-126924571D01*
X178958952Y-126876952D01*
X178958952Y-126829333D01*
X178935142Y-126781714D01*
X178911333Y-126757904D01*
X178863714Y-126734095D01*
X178768476Y-126710285D01*
X178720857Y-126686476D01*
X178697047Y-126662666D01*
X178673238Y-126615047D01*
X178673238Y-126567428D01*
X178697047Y-126519809D01*
X178720857Y-126496000D01*
X178768476Y-126472190D01*
X178887523Y-126472190D01*
X178958952Y-126496000D01*
X179125619Y-126472190D02*
X179244666Y-126972190D01*
X179339904Y-126615047D01*
X179435142Y-126972190D01*
X179554190Y-126472190D01*
X180006571Y-126972190D02*
X179720857Y-126972190D01*
X179863714Y-126972190D02*
X179863714Y-126472190D01*
X179816095Y-126543619D01*
X179768476Y-126591238D01*
X179720857Y-126615047D01*
X180435142Y-126472190D02*
X180339904Y-126472190D01*
X180292285Y-126496000D01*
X180268476Y-126519809D01*
X180220857Y-126591238D01*
X180197047Y-126686476D01*
X180197047Y-126876952D01*
X180220857Y-126924571D01*
X180244666Y-126948380D01*
X180292285Y-126972190D01*
X180387523Y-126972190D01*
X180435142Y-126948380D01*
X180458952Y-126924571D01*
X180482761Y-126876952D01*
X180482761Y-126757904D01*
X180458952Y-126710285D01*
X180435142Y-126686476D01*
X180387523Y-126662666D01*
X180292285Y-126662666D01*
X180244666Y-126686476D01*
X180220857Y-126710285D01*
X180197047Y-126757904D01*
G04 #@! TO.C,SW17*
X151876238Y-93928380D02*
X151947666Y-93952190D01*
X152066714Y-93952190D01*
X152114333Y-93928380D01*
X152138142Y-93904571D01*
X152161952Y-93856952D01*
X152161952Y-93809333D01*
X152138142Y-93761714D01*
X152114333Y-93737904D01*
X152066714Y-93714095D01*
X151971476Y-93690285D01*
X151923857Y-93666476D01*
X151900047Y-93642666D01*
X151876238Y-93595047D01*
X151876238Y-93547428D01*
X151900047Y-93499809D01*
X151923857Y-93476000D01*
X151971476Y-93452190D01*
X152090523Y-93452190D01*
X152161952Y-93476000D01*
X152328619Y-93452190D02*
X152447666Y-93952190D01*
X152542904Y-93595047D01*
X152638142Y-93952190D01*
X152757190Y-93452190D01*
X153209571Y-93952190D02*
X152923857Y-93952190D01*
X153066714Y-93952190D02*
X153066714Y-93452190D01*
X153019095Y-93523619D01*
X152971476Y-93571238D01*
X152923857Y-93595047D01*
X153376238Y-93452190D02*
X153709571Y-93452190D01*
X153495285Y-93952190D01*
G04 #@! TO.C,SW18*
X170037238Y-102183380D02*
X170108666Y-102207190D01*
X170227714Y-102207190D01*
X170275333Y-102183380D01*
X170299142Y-102159571D01*
X170322952Y-102111952D01*
X170322952Y-102064333D01*
X170299142Y-102016714D01*
X170275333Y-101992904D01*
X170227714Y-101969095D01*
X170132476Y-101945285D01*
X170084857Y-101921476D01*
X170061047Y-101897666D01*
X170037238Y-101850047D01*
X170037238Y-101802428D01*
X170061047Y-101754809D01*
X170084857Y-101731000D01*
X170132476Y-101707190D01*
X170251523Y-101707190D01*
X170322952Y-101731000D01*
X170489619Y-101707190D02*
X170608666Y-102207190D01*
X170703904Y-101850047D01*
X170799142Y-102207190D01*
X170918190Y-101707190D01*
X171370571Y-102207190D02*
X171084857Y-102207190D01*
X171227714Y-102207190D02*
X171227714Y-101707190D01*
X171180095Y-101778619D01*
X171132476Y-101826238D01*
X171084857Y-101850047D01*
X171656285Y-101921476D02*
X171608666Y-101897666D01*
X171584857Y-101873857D01*
X171561047Y-101826238D01*
X171561047Y-101802428D01*
X171584857Y-101754809D01*
X171608666Y-101731000D01*
X171656285Y-101707190D01*
X171751523Y-101707190D01*
X171799142Y-101731000D01*
X171822952Y-101754809D01*
X171846761Y-101802428D01*
X171846761Y-101826238D01*
X171822952Y-101873857D01*
X171799142Y-101897666D01*
X171751523Y-101921476D01*
X171656285Y-101921476D01*
X171608666Y-101945285D01*
X171584857Y-101969095D01*
X171561047Y-102016714D01*
X171561047Y-102111952D01*
X171584857Y-102159571D01*
X171608666Y-102183380D01*
X171656285Y-102207190D01*
X171751523Y-102207190D01*
X171799142Y-102183380D01*
X171822952Y-102159571D01*
X171846761Y-102111952D01*
X171846761Y-102016714D01*
X171822952Y-101969095D01*
X171799142Y-101945285D01*
X171751523Y-101921476D01*
G04 #@! TO.C,SW19*
X178419238Y-118312380D02*
X178490666Y-118336190D01*
X178609714Y-118336190D01*
X178657333Y-118312380D01*
X178681142Y-118288571D01*
X178704952Y-118240952D01*
X178704952Y-118193333D01*
X178681142Y-118145714D01*
X178657333Y-118121904D01*
X178609714Y-118098095D01*
X178514476Y-118074285D01*
X178466857Y-118050476D01*
X178443047Y-118026666D01*
X178419238Y-117979047D01*
X178419238Y-117931428D01*
X178443047Y-117883809D01*
X178466857Y-117860000D01*
X178514476Y-117836190D01*
X178633523Y-117836190D01*
X178704952Y-117860000D01*
X178871619Y-117836190D02*
X178990666Y-118336190D01*
X179085904Y-117979047D01*
X179181142Y-118336190D01*
X179300190Y-117836190D01*
X179752571Y-118336190D02*
X179466857Y-118336190D01*
X179609714Y-118336190D02*
X179609714Y-117836190D01*
X179562095Y-117907619D01*
X179514476Y-117955238D01*
X179466857Y-117979047D01*
X179990666Y-118336190D02*
X180085904Y-118336190D01*
X180133523Y-118312380D01*
X180157333Y-118288571D01*
X180204952Y-118217142D01*
X180228761Y-118121904D01*
X180228761Y-117931428D01*
X180204952Y-117883809D01*
X180181142Y-117860000D01*
X180133523Y-117836190D01*
X180038285Y-117836190D01*
X179990666Y-117860000D01*
X179966857Y-117883809D01*
X179943047Y-117931428D01*
X179943047Y-118050476D01*
X179966857Y-118098095D01*
X179990666Y-118121904D01*
X180038285Y-118145714D01*
X180133523Y-118145714D01*
X180181142Y-118121904D01*
X180204952Y-118098095D01*
X180228761Y-118050476D01*
G04 #@! TO.C,SW20*
X161274238Y-93928380D02*
X161345666Y-93952190D01*
X161464714Y-93952190D01*
X161512333Y-93928380D01*
X161536142Y-93904571D01*
X161559952Y-93856952D01*
X161559952Y-93809333D01*
X161536142Y-93761714D01*
X161512333Y-93737904D01*
X161464714Y-93714095D01*
X161369476Y-93690285D01*
X161321857Y-93666476D01*
X161298047Y-93642666D01*
X161274238Y-93595047D01*
X161274238Y-93547428D01*
X161298047Y-93499809D01*
X161321857Y-93476000D01*
X161369476Y-93452190D01*
X161488523Y-93452190D01*
X161559952Y-93476000D01*
X161726619Y-93452190D02*
X161845666Y-93952190D01*
X161940904Y-93595047D01*
X162036142Y-93952190D01*
X162155190Y-93452190D01*
X162321857Y-93499809D02*
X162345666Y-93476000D01*
X162393285Y-93452190D01*
X162512333Y-93452190D01*
X162559952Y-93476000D01*
X162583761Y-93499809D01*
X162607571Y-93547428D01*
X162607571Y-93595047D01*
X162583761Y-93666476D01*
X162298047Y-93952190D01*
X162607571Y-93952190D01*
X162917095Y-93452190D02*
X162964714Y-93452190D01*
X163012333Y-93476000D01*
X163036142Y-93499809D01*
X163059952Y-93547428D01*
X163083761Y-93642666D01*
X163083761Y-93761714D01*
X163059952Y-93856952D01*
X163036142Y-93904571D01*
X163012333Y-93928380D01*
X162964714Y-93952190D01*
X162917095Y-93952190D01*
X162869476Y-93928380D01*
X162845666Y-93904571D01*
X162821857Y-93856952D01*
X162798047Y-93761714D01*
X162798047Y-93642666D01*
X162821857Y-93547428D01*
X162845666Y-93499809D01*
X162869476Y-93476000D01*
X162917095Y-93452190D01*
G04 #@! TO.C,SW21*
X170164238Y-93928380D02*
X170235666Y-93952190D01*
X170354714Y-93952190D01*
X170402333Y-93928380D01*
X170426142Y-93904571D01*
X170449952Y-93856952D01*
X170449952Y-93809333D01*
X170426142Y-93761714D01*
X170402333Y-93737904D01*
X170354714Y-93714095D01*
X170259476Y-93690285D01*
X170211857Y-93666476D01*
X170188047Y-93642666D01*
X170164238Y-93595047D01*
X170164238Y-93547428D01*
X170188047Y-93499809D01*
X170211857Y-93476000D01*
X170259476Y-93452190D01*
X170378523Y-93452190D01*
X170449952Y-93476000D01*
X170616619Y-93452190D02*
X170735666Y-93952190D01*
X170830904Y-93595047D01*
X170926142Y-93952190D01*
X171045190Y-93452190D01*
X171211857Y-93499809D02*
X171235666Y-93476000D01*
X171283285Y-93452190D01*
X171402333Y-93452190D01*
X171449952Y-93476000D01*
X171473761Y-93499809D01*
X171497571Y-93547428D01*
X171497571Y-93595047D01*
X171473761Y-93666476D01*
X171188047Y-93952190D01*
X171497571Y-93952190D01*
X171973761Y-93952190D02*
X171688047Y-93952190D01*
X171830904Y-93952190D02*
X171830904Y-93452190D01*
X171783285Y-93523619D01*
X171735666Y-93571238D01*
X171688047Y-93595047D01*
G04 #@! TO.C,U7*
X181619047Y-82276190D02*
X181619047Y-82680952D01*
X181642857Y-82728571D01*
X181666666Y-82752380D01*
X181714285Y-82776190D01*
X181809523Y-82776190D01*
X181857142Y-82752380D01*
X181880952Y-82728571D01*
X181904761Y-82680952D01*
X181904761Y-82276190D01*
X182095238Y-82276190D02*
X182428571Y-82276190D01*
X182214285Y-82776190D01*
G04 #@! TO.C,J5*
X180933333Y-70826190D02*
X180933333Y-71183333D01*
X180909523Y-71254761D01*
X180861904Y-71302380D01*
X180790476Y-71326190D01*
X180742857Y-71326190D01*
X181409523Y-70826190D02*
X181171428Y-70826190D01*
X181147619Y-71064285D01*
X181171428Y-71040476D01*
X181219047Y-71016666D01*
X181338095Y-71016666D01*
X181385714Y-71040476D01*
X181409523Y-71064285D01*
X181433333Y-71111904D01*
X181433333Y-71230952D01*
X181409523Y-71278571D01*
X181385714Y-71302380D01*
X181338095Y-71326190D01*
X181219047Y-71326190D01*
X181171428Y-71302380D01*
X181147619Y-71278571D01*
G04 #@! TO.C,J6*
X179376190Y-71216666D02*
X179733333Y-71216666D01*
X179804761Y-71240476D01*
X179852380Y-71288095D01*
X179876190Y-71359523D01*
X179876190Y-71407142D01*
X179376190Y-70764285D02*
X179376190Y-70859523D01*
X179400000Y-70907142D01*
X179423809Y-70930952D01*
X179495238Y-70978571D01*
X179590476Y-71002380D01*
X179780952Y-71002380D01*
X179828571Y-70978571D01*
X179852380Y-70954761D01*
X179876190Y-70907142D01*
X179876190Y-70811904D01*
X179852380Y-70764285D01*
X179828571Y-70740476D01*
X179780952Y-70716666D01*
X179661904Y-70716666D01*
X179614285Y-70740476D01*
X179590476Y-70764285D01*
X179566666Y-70811904D01*
X179566666Y-70907142D01*
X179590476Y-70954761D01*
X179614285Y-70978571D01*
X179661904Y-71002380D01*
G04 #@! TO.C,J7*
X178076190Y-71216666D02*
X178433333Y-71216666D01*
X178504761Y-71240476D01*
X178552380Y-71288095D01*
X178576190Y-71359523D01*
X178576190Y-71407142D01*
X178076190Y-71026190D02*
X178076190Y-70692857D01*
X178576190Y-70907142D01*
G04 #@! TO.C,J8*
X177026190Y-71316666D02*
X177383333Y-71316666D01*
X177454761Y-71340476D01*
X177502380Y-71388095D01*
X177526190Y-71459523D01*
X177526190Y-71507142D01*
X177240476Y-71007142D02*
X177216666Y-71054761D01*
X177192857Y-71078571D01*
X177145238Y-71102380D01*
X177121428Y-71102380D01*
X177073809Y-71078571D01*
X177050000Y-71054761D01*
X177026190Y-71007142D01*
X177026190Y-70911904D01*
X177050000Y-70864285D01*
X177073809Y-70840476D01*
X177121428Y-70816666D01*
X177145238Y-70816666D01*
X177192857Y-70840476D01*
X177216666Y-70864285D01*
X177240476Y-70911904D01*
X177240476Y-71007142D01*
X177264285Y-71054761D01*
X177288095Y-71078571D01*
X177335714Y-71102380D01*
X177430952Y-71102380D01*
X177478571Y-71078571D01*
X177502380Y-71054761D01*
X177526190Y-71007142D01*
X177526190Y-70911904D01*
X177502380Y-70864285D01*
X177478571Y-70840476D01*
X177430952Y-70816666D01*
X177335714Y-70816666D01*
X177288095Y-70840476D01*
X177264285Y-70864285D01*
X177240476Y-70911904D01*
G04 #@! TO.C,J9*
X175876190Y-71366666D02*
X176233333Y-71366666D01*
X176304761Y-71390476D01*
X176352380Y-71438095D01*
X176376190Y-71509523D01*
X176376190Y-71557142D01*
X176376190Y-71104761D02*
X176376190Y-71009523D01*
X176352380Y-70961904D01*
X176328571Y-70938095D01*
X176257142Y-70890476D01*
X176161904Y-70866666D01*
X175971428Y-70866666D01*
X175923809Y-70890476D01*
X175900000Y-70914285D01*
X175876190Y-70961904D01*
X175876190Y-71057142D01*
X175900000Y-71104761D01*
X175923809Y-71128571D01*
X175971428Y-71152380D01*
X176090476Y-71152380D01*
X176138095Y-71128571D01*
X176161904Y-71104761D01*
X176185714Y-71057142D01*
X176185714Y-70961904D01*
X176161904Y-70914285D01*
X176138095Y-70890476D01*
X176090476Y-70866666D01*
G04 #@! TO.C,J10*
X174626190Y-71654761D02*
X174983333Y-71654761D01*
X175054761Y-71678571D01*
X175102380Y-71726190D01*
X175126190Y-71797619D01*
X175126190Y-71845238D01*
X175126190Y-71154761D02*
X175126190Y-71440476D01*
X175126190Y-71297619D02*
X174626190Y-71297619D01*
X174697619Y-71345238D01*
X174745238Y-71392857D01*
X174769047Y-71440476D01*
X174626190Y-70845238D02*
X174626190Y-70797619D01*
X174650000Y-70750000D01*
X174673809Y-70726190D01*
X174721428Y-70702380D01*
X174816666Y-70678571D01*
X174935714Y-70678571D01*
X175030952Y-70702380D01*
X175078571Y-70726190D01*
X175102380Y-70750000D01*
X175126190Y-70797619D01*
X175126190Y-70845238D01*
X175102380Y-70892857D01*
X175078571Y-70916666D01*
X175030952Y-70940476D01*
X174935714Y-70964285D01*
X174816666Y-70964285D01*
X174721428Y-70940476D01*
X174673809Y-70916666D01*
X174650000Y-70892857D01*
X174626190Y-70845238D01*
G04 #@! TO.C,J11*
X173426190Y-71654761D02*
X173783333Y-71654761D01*
X173854761Y-71678571D01*
X173902380Y-71726190D01*
X173926190Y-71797619D01*
X173926190Y-71845238D01*
X173926190Y-71154761D02*
X173926190Y-71440476D01*
X173926190Y-71297619D02*
X173426190Y-71297619D01*
X173497619Y-71345238D01*
X173545238Y-71392857D01*
X173569047Y-71440476D01*
X173926190Y-70678571D02*
X173926190Y-70964285D01*
X173926190Y-70821428D02*
X173426190Y-70821428D01*
X173497619Y-70869047D01*
X173545238Y-70916666D01*
X173569047Y-70964285D01*
G04 #@! TO.C,J12*
X172176190Y-71654761D02*
X172533333Y-71654761D01*
X172604761Y-71678571D01*
X172652380Y-71726190D01*
X172676190Y-71797619D01*
X172676190Y-71845238D01*
X172676190Y-71154761D02*
X172676190Y-71440476D01*
X172676190Y-71297619D02*
X172176190Y-71297619D01*
X172247619Y-71345238D01*
X172295238Y-71392857D01*
X172319047Y-71440476D01*
X172223809Y-70964285D02*
X172200000Y-70940476D01*
X172176190Y-70892857D01*
X172176190Y-70773809D01*
X172200000Y-70726190D01*
X172223809Y-70702380D01*
X172271428Y-70678571D01*
X172319047Y-70678571D01*
X172390476Y-70702380D01*
X172676190Y-70988095D01*
X172676190Y-70678571D01*
G04 #@! TD*
M02*
